<svg width="80" height="80" viewBox="0 0 80 80" fill="none" xmlns="http://www.w3.org/2000/svg">
<path d="M22.9707 10L22.8301 10.8359C21.9582 16.0512 21.041 20.8756 21.041 25.8594C21.041 35.144 27.5081 42.956 36.5391 43.8086L36.9805 63.1836L30.7441 64.4316C28.5725 64.866 27 66.7854 27 69V70H28H29H51H52H53V69C53 66.7854 51.4263 64.8659 49.2539 64.4316L43.0195 63.1836L43.4609 43.8086C52.4929 42.9565 58.9969 35.1489 58.957 25.8613C58.9991 20.8693 58.0415 16.0417 57.1699 10.834L57.0293 10H22.9707ZM24.668 12H55.332C55.8156 14.8513 56.2942 17.5595 56.6074 20.207C56.4332 20.0732 56.2197 20.0004 56 20C55.7348 20 55.4804 20.1054 55.2929 20.2929C55.1054 20.4804 55 20.7348 55 21C55 21.2652 55.1054 21.5196 55.2929 21.7071C55.4804 21.8946 55.7348 22 56 22C56.1444 22 56.287 21.9688 56.4182 21.9084C56.5493 21.8481 56.6659 21.7601 56.7598 21.6504C56.8912 23.0604 56.971 24.4579 56.959 25.8516L56.957 25.8574L56.959 25.8652C56.9988 34.5266 50.8902 41.6239 42.4434 41.9434L41.502 41.9785L40.9805 64.8164L48.8613 66.3926C49.7406 66.5683 50.3066 67.2227 50.6445 68H29.3555C29.6934 67.2226 30.2582 66.5683 31.1367 66.3926L39.0195 64.8164L38.498 41.9785L37.5566 41.9434C29.11 41.6239 23.041 34.5262 23.041 25.8594C23.041 24.4731 23.1368 23.0806 23.2676 21.6797C23.3611 21.7806 23.4744 21.8611 23.6004 21.9162C23.7264 21.9713 23.8625 21.9999 24 22C24.2652 22 24.5196 21.8946 24.7071 21.7071C24.8946 21.5196 25 21.2652 25 21C25 20.7348 24.8946 20.4804 24.7071 20.2929C24.5196 20.1054 24.2652 20 24 20C23.7951 20.0005 23.5954 20.0639 23.4277 20.1816C23.7386 17.5383 24.1887 14.8413 24.668 12ZM28 20C27.7348 20 27.4804 20.1054 27.2929 20.2929C27.1054 20.4804 27 20.7348 27 21C27 21.2652 27.1054 21.5196 27.2929 21.7071C27.4804 21.8946 27.7348 22 28 22C28.2652 22 28.5196 21.8946 28.7071 21.7071C28.8946 21.5196 29 21.2652 29 21C29 20.7348 28.8946 20.4804 28.7071 20.2929C28.5196 20.1054 28.2652 20 28 20ZM32 20C31.7348 20 31.4804 20.1054 31.2929 20.2929C31.1054 20.4804 31 20.7348 31 21C31 21.2652 31.1054 21.5196 31.2929 21.7071C31.4804 21.8946 31.7348 22 32 22C32.2652 22 32.5196 21.8946 32.7071 21.7071C32.8946 21.5196 33 21.2652 33 21C33 20.7348 32.8946 20.4804 32.7071 20.2929C32.5196 20.1054 32.2652 20 32 20ZM36 20C35.7348 20 35.4804 20.1054 35.2929 20.2929C35.1054 20.4804 35 20.7348 35 21C35 21.2652 35.1054 21.5196 35.2929 21.7071C35.4804 21.8946 35.7348 22 36 22C36.2652 22 36.5196 21.8946 36.7071 21.7071C36.8946 21.5196 37 21.2652 37 21C37 20.7348 36.8946 20.4804 36.7071 20.2929C36.5196 20.1054 36.2652 20 36 20ZM40 20C39.7348 20 39.4804 20.1054 39.2929 20.2929C39.1054 20.4804 39 20.7348 39 21C39 21.2652 39.1054 21.5196 39.2929 21.7071C39.4804 21.8946 39.7348 22 40 22C40.2652 22 40.5196 21.8946 40.7071 21.7071C40.8946 21.5196 41 21.2652 41 21C41 20.7348 40.8946 20.4804 40.7071 20.2929C40.5196 20.1054 40.2652 20 40 20ZM44 20C43.7348 20 43.4804 20.1054 43.2929 20.2929C43.1054 20.4804 43 20.7348 43 21C43 21.2652 43.1054 21.5196 43.2929 21.7071C43.4804 21.8946 43.7348 22 44 22C44.2652 22 44.5196 21.8946 44.7071 21.7071C44.8946 21.5196 45 21.2652 45 21C45 20.7348 44.8946 20.4804 44.7071 20.2929C44.5196 20.1054 44.2652 20 44 20ZM48 20C47.7348 20 47.4804 20.1054 47.2929 20.2929C47.1054 20.4804 47 20.7348 47 21C47 21.2652 47.1054 21.5196 47.2929 21.7071C47.4804 21.8946 47.7348 22 48 22C48.2652 22 48.5196 21.8946 48.7071 21.7071C48.8946 21.5196 49 21.2652 49 21C49 20.7348 48.8946 20.4804 48.7071 20.2929C48.5196 20.1054 48.2652 20 48 20ZM52 20C51.7348 20 51.4804 20.1054 51.2929 20.2929C51.1054 20.4804 51 20.7348 51 21C51 21.2652 51.1054 21.5196 51.2929 21.7071C51.4804 21.8946 51.7348 22 52 22C52.2652 22 52.5196 21.8946 52.7071 21.7071C52.8946 21.5196 53 21.2652 53 21C53 20.7348 52.8946 20.4804 52.7071 20.2929C52.5196 20.1054 52.2652 20 52 20Z" fill="black"/>
</svg>
