<svg fill="#000000" xmlns="http://www.w3.org/2000/svg"  viewBox="0 0 80 80" width="80px" height="80px"><path d="M 15 9 L 15 71 L 65 71 L 65 23.585938 L 50.414062 9 L 50 9 L 15 9 z M 17 11 L 49 11 L 49 25 L 63 25 L 63 69 L 17 69 L 17 11 z M 51 12.414062 L 61.585938 23 L 51 23 L 51 12.414062 z M 45.984375 31.986328 A 1.0001 1.0001 0 0 0 45 33 L 45 61 A 1.0001 1.0001 0 1 0 47 61 L 47 33 A 1.0001 1.0001 0 0 0 45.984375 31.986328 z M 24 34 A 1 1 0 0 0 23 35 A 1 1 0 0 0 24 36 A 1 1 0 0 0 25 35 A 1 1 0 0 0 24 34 z M 28 34 A 1 1 0 0 0 27 35 A 1 1 0 0 0 28 36 A 1 1 0 0 0 29 35 A 1 1 0 0 0 28 34 z M 32 34 A 1 1 0 0 0 31 35 A 1 1 0 0 0 32 36 A 1 1 0 0 0 33 35 A 1 1 0 0 0 32 34 z M 36 34 A 1 1 0 0 0 35 35 A 1 1 0 0 0 36 36 A 1 1 0 0 0 37 35 A 1 1 0 0 0 36 34 z M 40 34 A 1 1 0 0 0 39 35 A 1 1 0 0 0 40 36 A 1 1 0 0 0 41 35 A 1 1 0 0 0 40 34 z M 52 34 A 1 1 0 0 0 51 35 A 1 1 0 0 0 52 36 A 1 1 0 0 0 53 35 A 1 1 0 0 0 52 34 z M 56 34 A 1 1 0 0 0 55 35 A 1 1 0 0 0 56 36 A 1 1 0 0 0 57 35 A 1 1 0 0 0 56 34 z M 24 40 A 1 1 0 0 0 23 41 A 1 1 0 0 0 24 42 A 1 1 0 0 0 25 41 A 1 1 0 0 0 24 40 z M 28 40 A 1 1 0 0 0 27 41 A 1 1 0 0 0 28 42 A 1 1 0 0 0 29 41 A 1 1 0 0 0 28 40 z M 32 40 A 1 1 0 0 0 31 41 A 1 1 0 0 0 32 42 A 1 1 0 0 0 33 41 A 1 1 0 0 0 32 40 z M 36 40 A 1 1 0 0 0 35 41 A 1 1 0 0 0 36 42 A 1 1 0 0 0 37 41 A 1 1 0 0 0 36 40 z M 40 40 A 1 1 0 0 0 39 41 A 1 1 0 0 0 40 42 A 1 1 0 0 0 41 41 A 1 1 0 0 0 40 40 z M 52 40 A 1 1 0 0 0 51 41 A 1 1 0 0 0 52 42 A 1 1 0 0 0 53 41 A 1 1 0 0 0 52 40 z M 56 40 A 1 1 0 0 0 55 41 A 1 1 0 0 0 56 42 A 1 1 0 0 0 57 41 A 1 1 0 0 0 56 40 z M 24 46 A 1 1 0 0 0 23 47 A 1 1 0 0 0 24 48 A 1 1 0 0 0 25 47 A 1 1 0 0 0 24 46 z M 28 46 A 1 1 0 0 0 27 47 A 1 1 0 0 0 28 48 A 1 1 0 0 0 29 47 A 1 1 0 0 0 28 46 z M 32 46 A 1 1 0 0 0 31 47 A 1 1 0 0 0 32 48 A 1 1 0 0 0 33 47 A 1 1 0 0 0 32 46 z M 36 46 A 1 1 0 0 0 35 47 A 1 1 0 0 0 36 48 A 1 1 0 0 0 37 47 A 1 1 0 0 0 36 46 z M 40 46 A 1 1 0 0 0 39 47 A 1 1 0 0 0 40 48 A 1 1 0 0 0 41 47 A 1 1 0 0 0 40 46 z M 52 46 A 1 1 0 0 0 51 47 A 1 1 0 0 0 52 48 A 1 1 0 0 0 53 47 A 1 1 0 0 0 52 46 z M 56 46 A 1 1 0 0 0 55 47 A 1 1 0 0 0 56 48 A 1 1 0 0 0 57 47 A 1 1 0 0 0 56 46 z M 24 52 A 1 1 0 0 0 23 53 A 1 1 0 0 0 24 54 A 1 1 0 0 0 25 53 A 1 1 0 0 0 24 52 z M 28 52 A 1 1 0 0 0 27 53 A 1 1 0 0 0 28 54 A 1 1 0 0 0 29 53 A 1 1 0 0 0 28 52 z M 32 52 A 1 1 0 0 0 31 53 A 1 1 0 0 0 32 54 A 1 1 0 0 0 33 53 A 1 1 0 0 0 32 52 z M 36 52 A 1 1 0 0 0 35 53 A 1 1 0 0 0 36 54 A 1 1 0 0 0 37 53 A 1 1 0 0 0 36 52 z M 40 52 A 1 1 0 0 0 39 53 A 1 1 0 0 0 40 54 A 1 1 0 0 0 41 53 A 1 1 0 0 0 40 52 z M 52 52 A 1 1 0 0 0 51 53 A 1 1 0 0 0 52 54 A 1 1 0 0 0 53 53 A 1 1 0 0 0 52 52 z M 56 52 A 1 1 0 0 0 55 53 A 1 1 0 0 0 56 54 A 1 1 0 0 0 57 53 A 1 1 0 0 0 56 52 z M 24 58 A 1 1 0 0 0 23 59 A 1 1 0 0 0 24 60 A 1 1 0 0 0 25 59 A 1 1 0 0 0 24 58 z M 28 58 A 1 1 0 0 0 27 59 A 1 1 0 0 0 28 60 A 1 1 0 0 0 29 59 A 1 1 0 0 0 28 58 z M 32 58 A 1 1 0 0 0 31 59 A 1 1 0 0 0 32 60 A 1 1 0 0 0 33 59 A 1 1 0 0 0 32 58 z M 36 58 A 1 1 0 0 0 35 59 A 1 1 0 0 0 36 60 A 1 1 0 0 0 37 59 A 1 1 0 0 0 36 58 z M 40 58 A 1 1 0 0 0 39 59 A 1 1 0 0 0 40 60 A 1 1 0 0 0 41 59 A 1 1 0 0 0 40 58 z M 52 58 A 1 1 0 0 0 51 59 A 1 1 0 0 0 52 60 A 1 1 0 0 0 53 59 A 1 1 0 0 0 52 58 z M 56 58 A 1 1 0 0 0 55 59 A 1 1 0 0 0 56 60 A 1 1 0 0 0 57 59 A 1 1 0 0 0 56 58 z"/></svg>