<svg fill="#000000" xmlns="http://www.w3.org/2000/svg"  viewBox="0 0 64 64" width="64px" height="64px"><path d="M 49.253906 0.00390625 C 48.488281 0.00390625 47.71875 0.292969 47.136719 0.878906 C 46.566406 1.445313 46.253906 2.199219 46.253906 3 C 46.253906 3.800781 46.566406 4.554688 47.136719 5.121094 L 49.253906 7.242188 L 43.597656 12.898438 L 38.648438 7.949219 C 37.476563 6.78125 35.574219 6.78125 34.40625 7.949219 C 33.234375 9.117188 33.234375 11.019531 34.40625 12.191406 L 35.113281 12.902344 L 12.28125 35.734375 C 10.824219 37.1875 10.410156 39.347656 11.21875 41.238281 L 11.875 42.765625 C 12.058594 43.195313 12.265625 43.609375 12.480469 44.015625 L 10.363281 46.132813 C 9.796875 46.699219 9.484375 47.453125 9.484375 48.253906 C 9.484375 49.054688 9.796875 49.808594 10.363281 50.375 L 11.070313 51.082031 L 1.292969 60.859375 C 0.902344 61.25 0.902344 61.882813 1.292969 62.273438 C 1.488281 62.46875 1.742188 62.566406 2 62.566406 C 2.257813 62.566406 2.511719 62.46875 2.707031 62.277344 L 12.484375 52.496094 L 13.191406 53.203125 C 13.757813 53.769531 14.511719 54.082031 15.3125 54.082031 C 16.113281 54.082031 16.867188 53.769531 17.433594 53.203125 L 19.550781 51.089844 C 19.960938 51.304688 20.375 51.511719 20.800781 51.691406 L 22.328125 52.347656 C 22.96875 52.625 23.644531 52.757813 24.308594 52.757813 C 25.605469 52.757813 26.871094 52.25 27.832031 51.289063 L 50.667969 28.453125 L 51.375 29.160156 C 51.960938 29.746094 52.730469 30.035156 53.496094 30.035156 C 54.265625 30.035156 55.03125 29.746094 55.621094 29.160156 C 56.789063 27.992188 56.785156 26.089844 55.617188 24.921875 L 50.667969 19.96875 L 56.324219 14.3125 L 58.445313 16.433594 C 59.011719 17 59.765625 17.3125 60.566406 17.3125 C 61.367188 17.3125 62.121094 17 62.6875 16.433594 C 63.859375 15.265625 63.859375 13.363281 62.6875 12.191406 L 51.375 0.878906 C 50.792969 0.292969 50.023438 0 49.253906 0.00390625 Z M 49.253906 2 C 49.511719 2 49.765625 2.097656 49.964844 2.292969 L 61.277344 13.605469 C 61.664063 13.996094 61.664063 14.632813 61.277344 15.019531 C 60.898438 15.398438 60.238281 15.398438 59.859375 15.019531 L 57.738281 12.902344 L 55.777344 10.9375 L 48.546875 3.707031 C 48.359375 3.519531 48.253906 3.265625 48.253906 3 C 48.253906 2.734375 48.359375 2.480469 48.546875 2.292969 C 48.746094 2.097656 49 2 49.253906 2 Z M 50.671875 8.65625 L 52.792969 10.777344 L 54.910156 12.902344 L 49.253906 18.558594 L 45.011719 14.3125 Z M 36.527344 9.070313 C 36.78125 9.070313 37.039063 9.167969 37.234375 9.363281 L 42.183594 14.3125 L 49.253906 21.386719 L 54.203125 26.332031 C 54.59375 26.722656 54.59375 27.359375 54.203125 27.75 C 53.816406 28.136719 53.179688 28.140625 52.789063 27.75 L 35.820313 10.78125 C 35.429688 10.390625 35.429688 9.753906 35.816406 9.363281 C 36.011719 9.167969 36.269531 9.070313 36.527344 9.070313 Z M 36.527344 14.3125 L 49.253906 27.042969 L 26.421875 49.875 C 25.550781 50.746094 24.253906 50.996094 23.117188 50.511719 L 21.589844 49.855469 C 18.035156 48.332031 15.238281 45.535156 13.714844 41.976563 L 13.058594 40.449219 C 12.570313 39.316406 12.820313 38.019531 13.691406 37.144531 Z M 36.527344 17.558594 C 36.273438 17.558594 36.015625 17.652344 35.820313 17.847656 C 35.429688 18.238281 35.429688 18.875 35.820313 19.265625 L 37.234375 20.675781 C 37.429688 20.871094 37.683594 20.96875 37.941406 20.96875 C 38.199219 20.96875 38.453125 20.871094 38.648438 20.675781 C 39.039063 20.289063 39.039063 19.65625 38.648438 19.265625 L 37.234375 17.847656 C 37.039063 17.652344 36.78125 17.558594 36.527344 17.558594 Z M 32.988281 21.09375 C 32.734375 21.09375 32.480469 21.1875 32.28125 21.386719 C 31.890625 21.777344 31.890625 22.40625 32.28125 22.796875 L 36.527344 27.042969 C 36.722656 27.238281 36.976563 27.335938 37.234375 27.335938 C 37.492188 27.335938 37.746094 27.238281 37.941406 27.042969 C 38.332031 26.652344 38.332031 26.019531 37.941406 25.628906 L 33.699219 21.386719 C 33.5 21.1875 33.246094 21.09375 32.988281 21.09375 Z M 29.453125 24.625 C 29.199219 24.625 28.945313 24.722656 28.75 24.921875 C 28.355469 25.3125 28.355469 25.941406 28.75 26.332031 L 30.160156 27.75 C 30.355469 27.941406 30.613281 28.042969 30.871094 28.042969 C 31.125 28.042969 31.382813 27.941406 31.578125 27.75 C 31.96875 27.355469 31.96875 26.726563 31.578125 26.332031 L 30.160156 24.921875 C 29.964844 24.722656 29.710938 24.625 29.453125 24.625 Z M 25.921875 28.160156 C 25.664063 28.160156 25.410156 28.257813 25.214844 28.453125 C 24.820313 28.847656 24.820313 29.476563 25.214844 29.871094 L 29.453125 34.113281 C 29.648438 34.308594 29.90625 34.40625 30.160156 34.40625 C 30.417969 34.40625 30.675781 34.308594 30.871094 34.113281 C 31.261719 33.722656 31.261719 33.089844 30.871094 32.699219 L 26.625 28.453125 C 26.429688 28.257813 26.175781 28.160156 25.921875 28.160156 Z M 22.386719 31.699219 C 22.128906 31.699219 21.875 31.792969 21.675781 31.988281 C 21.285156 32.378906 21.285156 33.011719 21.675781 33.40625 L 23.09375 34.820313 C 23.285156 35.015625 23.542969 35.113281 23.796875 35.113281 C 24.054688 35.113281 24.3125 35.015625 24.503906 34.820313 C 24.898438 34.429688 24.898438 33.796875 24.503906 33.40625 L 23.09375 31.988281 C 22.894531 31.792969 22.640625 31.699219 22.386719 31.699219 Z M 18.847656 35.234375 C 18.59375 35.234375 18.339844 35.332031 18.140625 35.527344 C 17.75 35.917969 17.75 36.550781 18.140625 36.941406 L 22.386719 41.183594 C 22.578125 41.378906 22.835938 41.476563 23.09375 41.476563 C 23.347656 41.476563 23.605469 41.378906 23.796875 41.183594 C 24.191406 40.792969 24.191406 40.160156 23.796875 39.769531 L 19.558594 35.527344 C 19.359375 35.332031 19.105469 35.234375 18.847656 35.234375 Z M 15.3125 38.769531 C 15.058594 38.769531 14.804688 38.867188 14.609375 39.0625 C 14.214844 39.453125 14.214844 40.085938 14.609375 40.476563 L 16.019531 41.890625 C 16.214844 42.085938 16.472656 42.183594 16.730469 42.183594 C 16.984375 42.183594 17.242188 42.085938 17.4375 41.890625 C 17.828125 41.5 17.828125 40.867188 17.4375 40.476563 L 16.019531 39.0625 C 15.824219 38.867188 15.570313 38.769531 15.3125 38.769531 Z M 13.550781 45.777344 C 14.703125 47.433594 16.136719 48.867188 17.792969 50.019531 L 16.019531 51.792969 C 15.644531 52.167969 14.984375 52.167969 14.609375 51.792969 L 11.78125 48.964844 C 11.589844 48.773438 11.484375 48.523438 11.484375 48.253906 C 11.484375 47.988281 11.589844 47.738281 11.78125 47.546875 Z"/></svg>