<svg fill="#000000" xmlns="http://www.w3.org/2000/svg"  viewBox="0 0 80 80" width="80px" height="80px"><path d="M 60 10 L 60 11 L 60 15 A 1 1 0 0 0 59 16 A 1 1 0 0 0 60 17 L 60 22 L 70 22 L 70 10 L 60 10 z M 62 12 L 68 12 L 68 20 L 62 20 L 62 12 z M 52 15 A 1 1 0 0 0 51 16 A 1 1 0 0 0 52 17 A 1 1 0 0 0 53 16 A 1 1 0 0 0 52 15 z M 56 15 A 1 1 0 0 0 55 16 A 1 1 0 0 0 56 17 A 1 1 0 0 0 57 16 A 1 1 0 0 0 56 15 z M 32 17 L 32 18 L 32 31 L 42 31 L 42 17 L 32 17 z M 34 19 L 40 19 L 40 29 L 34 29 L 34 19 z M 52 19 A 1 1 0 0 0 51 20 A 1 1 0 0 0 52 21 A 1 1 0 0 0 53 20 A 1 1 0 0 0 52 19 z M 26 23 A 1 1 0 0 0 25 24 A 1 1 0 0 0 26 25 A 1 1 0 0 0 27 24 A 1 1 0 0 0 26 23 z M 30 23 A 1 1 0 0 0 29 24 A 1 1 0 0 0 30 25 A 1 1 0 0 0 31 24 A 1 1 0 0 0 30 23 z M 44 23 A 1 1 0 0 0 43 24 A 1 1 0 0 0 44 25 A 1 1 0 0 0 45 24 A 1 1 0 0 0 44 23 z M 48 23 A 1 1 0 0 0 47 24 A 1 1 0 0 0 48 25 A 1 1 0 0 0 49 24 A 1 1 0 0 0 48 23 z M 52 23 A 1 1 0 0 0 51 24 A 1 1 0 0 0 52 25 A 1 1 0 0 0 53 24 A 1 1 0 0 0 52 23 z M 60 26 L 60 27 L 60 31 A 1 1 0 0 0 59 32 A 1 1 0 0 0 60 33 L 60 38 L 70 38 L 70 26 L 60 26 z M 26 27 A 1 1 0 0 0 25 28 A 1 1 0 0 0 26 29 A 1 1 0 0 0 27 28 A 1 1 0 0 0 26 27 z M 52 27 A 1 1 0 0 0 51 28 A 1 1 0 0 0 52 29 A 1 1 0 0 0 53 28 A 1 1 0 0 0 52 27 z M 62 28 L 68 28 L 68 36 L 62 36 L 62 28 z M 26 31 A 1 1 0 0 0 25 32 A 1 1 0 0 0 26 33 A 1 1 0 0 0 27 32 A 1 1 0 0 0 26 31 z M 52 31 A 1 1 0 0 0 51 32 A 1 1 0 0 0 52 33 A 1 1 0 0 0 53 32 A 1 1 0 0 0 52 31 z M 56 31 A 1 1 0 0 0 55 32 A 1 1 0 0 0 56 33 A 1 1 0 0 0 57 32 A 1 1 0 0 0 56 31 z M 10 33 L 10 34 L 10 47 L 20 47 L 20 33 L 10 33 z M 12 35 L 18 35 L 18 45 L 12 45 L 12 35 z M 26 35 A 1 1 0 0 0 25 36 A 1 1 0 0 0 26 37 A 1 1 0 0 0 27 36 A 1 1 0 0 0 26 35 z M 22 39 A 1 1 0 0 0 21 40 A 1 1 0 0 0 22 41 A 1 1 0 0 0 23 40 A 1 1 0 0 0 22 39 z M 26 39 A 1 1 0 0 0 25 40 A 1 1 0 0 0 26 41 A 1 1 0 0 0 27 40 A 1 1 0 0 0 26 39 z M 60 42 L 60 43 L 60 47 A 1 1 0 0 0 59 48 A 1 1 0 0 0 60 49 L 60 54 L 70 54 L 70 42 L 60 42 z M 26 43 A 1 1 0 0 0 25 44 A 1 1 0 0 0 26 45 A 1 1 0 0 0 27 44 A 1 1 0 0 0 26 43 z M 62 44 L 68 44 L 68 52 L 62 52 L 62 44 z M 26 47 A 1 1 0 0 0 25 48 A 1 1 0 0 0 26 49 A 1 1 0 0 0 27 48 A 1 1 0 0 0 26 47 z M 52 47 A 1 1 0 0 0 51 48 A 1 1 0 0 0 52 49 A 1 1 0 0 0 53 48 A 1 1 0 0 0 52 47 z M 56 47 A 1 1 0 0 0 55 48 A 1 1 0 0 0 56 49 A 1 1 0 0 0 57 48 A 1 1 0 0 0 56 47 z M 32 49 L 32 50 L 32 63 L 42 63 L 42 49 L 32 49 z M 26 51 A 1 1 0 0 0 25 52 A 1 1 0 0 0 26 53 A 1 1 0 0 0 27 52 A 1 1 0 0 0 26 51 z M 34 51 L 40 51 L 40 61 L 34 61 L 34 51 z M 52 51 A 1 1 0 0 0 51 52 A 1 1 0 0 0 52 53 A 1 1 0 0 0 53 52 A 1 1 0 0 0 52 51 z M 26 55 A 1 1 0 0 0 25 56 A 1 1 0 0 0 26 57 A 1 1 0 0 0 27 56 A 1 1 0 0 0 26 55 z M 30 55 A 1 1 0 0 0 29 56 A 1 1 0 0 0 30 57 A 1 1 0 0 0 31 56 A 1 1 0 0 0 30 55 z M 44 55 A 1 1 0 0 0 43 56 A 1 1 0 0 0 44 57 A 1 1 0 0 0 45 56 A 1 1 0 0 0 44 55 z M 48 55 A 1 1 0 0 0 47 56 A 1 1 0 0 0 48 57 A 1 1 0 0 0 49 56 A 1 1 0 0 0 48 55 z M 52 55 A 1 1 0 0 0 51 56 A 1 1 0 0 0 52 57 A 1 1 0 0 0 53 56 A 1 1 0 0 0 52 55 z M 60 58 L 60 59 L 60 63 A 1 1 0 0 0 59 64 A 1 1 0 0 0 60 65 L 60 70 L 70 70 L 70 58 L 60 58 z M 52 59 A 1 1 0 0 0 51 60 A 1 1 0 0 0 52 61 A 1 1 0 0 0 53 60 A 1 1 0 0 0 52 59 z M 62 60 L 68 60 L 68 68 L 62 68 L 62 60 z M 52 63 A 1 1 0 0 0 51 64 A 1 1 0 0 0 52 65 A 1 1 0 0 0 53 64 A 1 1 0 0 0 52 63 z M 56 63 A 1 1 0 0 0 55 64 A 1 1 0 0 0 56 65 A 1 1 0 0 0 57 64 A 1 1 0 0 0 56 63 z"/></svg>