<svg fill="#000000" xmlns="http://www.w3.org/2000/svg"  viewBox="0 0 64 64" width="64px" height="64px"><path d="M 7 6 C 5.347656 6 4 7.347656 4 9 L 4 51 C 4 52.652344 5.347656 54 7 54 L 57 54 C 58.652344 54 60 52.652344 60 51 L 60 9 C 60 7.347656 58.652344 6 57 6 Z M 7 8 L 57 8 C 57.550781 8 58 8.449219 58 9 L 58 51 C 58 51.550781 57.550781 52 57 52 L 7 52 C 6.449219 52 6 51.550781 6 51 L 6 18 L 47 18 C 47.554688 18 48 17.550781 48 17 C 48 16.449219 47.554688 16 47 16 L 6 16 L 6 9 C 6 8.449219 6.449219 8 7 8 Z M 10 10 C 9.445313 10 9 10.449219 9 11 L 9 13 C 9 13.550781 9.445313 14 10 14 C 10.554688 14 11 13.550781 11 13 L 11 11 C 11 10.449219 10.554688 10 10 10 Z M 15 10 C 14.445313 10 14 10.449219 14 11 L 14 13 C 14 13.550781 14.445313 14 15 14 C 15.554688 14 16 13.550781 16 13 L 16 11 C 16 10.449219 15.554688 10 15 10 Z M 20 10 C 19.445313 10 19 10.449219 19 11 L 19 13 C 19 13.550781 19.445313 14 20 14 C 20.554688 14 21 13.550781 21 13 L 21 11 C 21 10.449219 20.554688 10 20 10 Z M 25 10 C 24.445313 10 24 10.449219 24 11 L 24 13 C 24 13.550781 24.445313 14 25 14 C 25.554688 14 26 13.550781 26 13 L 26 11 C 26 10.449219 25.554688 10 25 10 Z M 30 10 C 29.445313 10 29 10.449219 29 11 L 29 13 C 29 13.550781 29.445313 14 30 14 C 30.554688 14 31 13.550781 31 13 L 31 11 C 31 10.449219 30.554688 10 30 10 Z M 35 10 C 34.445313 10 34 10.449219 34 11 L 34 13 C 34 13.550781 34.445313 14 35 14 C 35.554688 14 36 13.550781 36 13 L 36 11 C 36 10.449219 35.554688 10 35 10 Z M 40 10 C 39.445313 10 39 10.449219 39 11 L 39 13 C 39 13.550781 39.445313 14 40 14 C 40.554688 14 41 13.550781 41 13 L 41 11 C 41 10.449219 40.554688 10 40 10 Z M 45 10 C 44.445313 10 44 10.449219 44 11 L 44 13 C 44 13.550781 44.445313 14 45 14 C 45.554688 14 46 13.550781 46 13 L 46 11 C 46 10.449219 45.554688 10 45 10 Z M 50 10 C 49.445313 10 49 10.449219 49 11 L 49 13 C 49 13.550781 49.445313 14 50 14 C 50.554688 14 51 13.550781 51 13 L 51 11 C 51 10.449219 50.554688 10 50 10 Z M 55 10 C 54.445313 10 54 10.449219 54 11 L 54 13 C 54 13.550781 54.445313 14 55 14 C 55.554688 14 56 13.550781 56 13 L 56 11 C 56 10.449219 55.554688 10 55 10 Z M 51 16 C 50.445313 16 50 16.449219 50 17 C 50 17.550781 50.445313 18 51 18 L 55 18 C 55.554688 18 56 17.550781 56 17 C 56 16.449219 55.554688 16 55 16 Z M 26.515625 22 C 25.960938 22 25.515625 22.449219 25.515625 23 C 25.515625 23.550781 25.960938 24 26.515625 24 L 30.585938 24 L 15.292969 39.292969 C 14.902344 39.683594 14.902344 40.316406 15.292969 40.707031 C 15.488281 40.902344 15.742188 41 16 41 C 16.257813 41 16.511719 40.902344 16.707031 40.707031 L 32 25.414063 L 32 29.484375 C 32 30.035156 32.445313 30.484375 33 30.484375 C 33.554688 30.484375 34 30.035156 34 29.484375 L 34 23 C 34 22.871094 33.976563 22.738281 33.921875 22.617188 C 33.824219 22.371094 33.628906 22.175781 33.382813 22.078125 C 33.261719 22.027344 33.128906 22 33 22 Z M 45 22 C 44.445313 22 44 22.449219 44 23 L 44 28 L 39 28 C 38.445313 28 38 28.449219 38 29 L 38 34 L 33 34 C 32.445313 34 32 34.449219 32 35 L 32 40 L 27 40 C 26.445313 40 26 40.449219 26 41 L 26 45 L 21 45 C 20.445313 45 20 45.449219 20 46 L 20 48 L 13 48 C 12.445313 48 12 48.449219 12 49 C 12 49.550781 12.445313 50 13 50 L 53 50 C 53.554688 50 54 49.550781 54 49 C 54 48.449219 53.554688 48 53 48 L 52 48 L 52 23 C 52 22.449219 51.554688 22 51 22 Z M 46 24 L 50 24 L 50 48 L 46 48 Z M 40 30 L 44 30 L 44 48 L 40 48 Z M 34 36 L 38 36 L 38 48 L 34 48 Z M 13.3125 41.6875 C 13.058594 41.6875 12.800781 41.785156 12.605469 41.980469 L 11.292969 43.292969 C 10.902344 43.683594 10.902344 44.316406 11.292969 44.707031 C 11.488281 44.902344 11.742188 45 12 45 C 12.257813 45 12.511719 44.902344 12.707031 44.707031 L 14.019531 43.394531 C 14.410156 43.003906 14.410156 42.371094 14.019531 41.980469 C 13.824219 41.785156 13.566406 41.6875 13.3125 41.6875 Z M 28 42 L 32 42 L 32 48 L 28 48 Z M 22 47 L 26 47 L 26 48 L 22 48 Z"/></svg>