<?xml version="1.0"?><svg fill="#000000" xmlns="http://www.w3.org/2000/svg"  viewBox="0 0 80 80" width="80px" height="80px">    <path d="M 12.996094 7 L 13.019531 8.0234375 C 13.378531 22.722437 21.283719 31.136813 30.511719 38.132812 C 31.077719 37.718812 31.644891 37.31025 32.212891 36.90625 C 23.389891 30.28225 15.746594 22.424 15.058594 9 L 19.066406 9 C 19.787406 21.154 27.006969 28.141328 35.667969 34.486328 C 35.781969 34.407328 35.897719 34.328047 36.011719 34.248047 C 36.481719 33.922047 36.944203 33.600344 37.408203 33.277344 C 28.686203 26.947344 21.388437 20.066703 21.023438 7.9707031 L 20.992188 7 L 12.996094 7 z M 24 7 A 1 1 0 0 0 23 8 A 1 1 0 0 0 24 9 A 1 1 0 0 0 25 8 A 1 1 0 0 0 24 7 z M 28 7 A 1 1 0 0 0 27 8 A 1 1 0 0 0 28 9 A 1 1 0 0 0 29 8 A 1 1 0 0 0 28 7 z M 32 7 A 1 1 0 0 0 31 8 A 1 1 0 0 0 32 9 A 1 1 0 0 0 33 8 A 1 1 0 0 0 32 7 z M 36 7 A 1 1 0 0 0 35 8 A 1 1 0 0 0 36 9 A 1 1 0 0 0 37 8 A 1 1 0 0 0 36 7 z M 40 7 A 1 1 0 0 0 39 8 A 1 1 0 0 0 40 9 A 1 1 0 0 0 41 8 A 1 1 0 0 0 40 7 z M 44 7 A 1 1 0 0 0 43 8 A 1 1 0 0 0 44 9 A 1 1 0 0 0 45 8 A 1 1 0 0 0 44 7 z M 48 7 A 1 1 0 0 0 47 8 A 1 1 0 0 0 48 9 A 1 1 0 0 0 49 8 A 1 1 0 0 0 48 7 z M 52 7 A 1 1 0 0 0 51 8 A 1 1 0 0 0 52 9 A 1 1 0 0 0 53 8 A 1 1 0 0 0 52 7 z M 56 7 A 1 1 0 0 0 55 8 A 1 1 0 0 0 56 9 A 1 1 0 0 0 57 8 A 1 1 0 0 0 56 7 z M 59.007812 7 L 58.978516 7.9707031 C 58.761884 15.140859 56.196109 20.361137 52.308594 24.818359 C 48.421079 29.275581 43.181066 32.925986 37.720703 36.712891 C 31.858519 40.778518 25.821907 44.952917 21.160156 50.447266 C 16.498405 55.941614 13.245376 62.792912 13.021484 71.976562 L 12.996094 73 L 20.992188 73 L 21.021484 72.029297 C 21.238116 64.859141 23.803891 59.638863 27.691406 55.181641 C 31.578921 50.724419 36.820887 47.074014 42.28125 43.287109 C 48.142923 39.221489 54.178224 35.047079 58.839844 29.552734 C 63.501463 24.05839 66.754624 17.207088 66.978516 8.0234375 L 67.003906 7 L 59.007812 7 z M 60.863281 9 L 64.867188 9 C 64.440539 17.183986 61.561556 23.252032 57.314453 28.257812 C 52.882073 33.481969 47.001952 37.577198 41.140625 41.642578 C 35.679988 45.429673 30.300532 49.14916 26.185547 53.867188 C 22.256081 58.372509 19.576941 63.877916 19.136719 71 L 15.132812 71 C 15.559462 62.816014 18.43833 56.747965 22.685547 51.742188 C 27.118046 46.518036 32.997559 42.422794 38.859375 38.357422 C 44.320012 34.570327 49.701421 30.850841 53.816406 26.132812 C 57.745865 21.627501 60.42305 16.122064 60.863281 9 z M 26 14 A 1 1 0 0 0 25 15 A 1 1 0 0 0 26 16 A 1 1 0 0 0 27 15 A 1 1 0 0 0 26 14 z M 30 14 A 1 1 0 0 0 29 15 A 1 1 0 0 0 30 16 A 1 1 0 0 0 31 15 A 1 1 0 0 0 30 14 z M 34 14 A 1 1 0 0 0 33 15 A 1 1 0 0 0 34 16 A 1 1 0 0 0 35 15 A 1 1 0 0 0 34 14 z M 38 14 A 1 1 0 0 0 37 15 A 1 1 0 0 0 38 16 A 1 1 0 0 0 39 15 A 1 1 0 0 0 38 14 z M 42 14 A 1 1 0 0 0 41 15 A 1 1 0 0 0 42 16 A 1 1 0 0 0 43 15 A 1 1 0 0 0 42 14 z M 46 14 A 1 1 0 0 0 45 15 A 1 1 0 0 0 46 16 A 1 1 0 0 0 47 15 A 1 1 0 0 0 46 14 z M 50 14 A 1 1 0 0 0 49 15 A 1 1 0 0 0 50 16 A 1 1 0 0 0 51 15 A 1 1 0 0 0 50 14 z M 54 14 A 1 1 0 0 0 53 15 A 1 1 0 0 0 54 16 A 1 1 0 0 0 55 15 A 1 1 0 0 0 54 14 z M 28 21 A 1 1 0 0 0 27 22 A 1 1 0 0 0 28 23 A 1 1 0 0 0 29 22 A 1 1 0 0 0 28 21 z M 32 21 A 1 1 0 0 0 31 22 A 1 1 0 0 0 32 23 A 1 1 0 0 0 33 22 A 1 1 0 0 0 32 21 z M 36 21 A 1 1 0 0 0 35 22 A 1 1 0 0 0 36 23 A 1 1 0 0 0 37 22 A 1 1 0 0 0 36 21 z M 40 21 A 1 1 0 0 0 39 22 A 1 1 0 0 0 40 23 A 1 1 0 0 0 41 22 A 1 1 0 0 0 40 21 z M 44 21 A 1 1 0 0 0 43 22 A 1 1 0 0 0 44 23 A 1 1 0 0 0 45 22 A 1 1 0 0 0 44 21 z M 48 21 A 1 1 0 0 0 47 22 A 1 1 0 0 0 48 23 A 1 1 0 0 0 49 22 A 1 1 0 0 0 48 21 z M 52 21 A 1 1 0 0 0 51 22 A 1 1 0 0 0 52 23 A 1 1 0 0 0 53 22 A 1 1 0 0 0 52 21 z M 36 28 A 1 1 0 0 0 35 29 A 1 1 0 0 0 36 30 A 1 1 0 0 0 37 29 A 1 1 0 0 0 36 28 z M 40 28 A 1 1 0 0 0 39 29 A 1 1 0 0 0 40 30 A 1 1 0 0 0 41 29 A 1 1 0 0 0 40 28 z M 44 28 A 1 1 0 0 0 43 29 A 1 1 0 0 0 44 30 A 1 1 0 0 0 45 29 A 1 1 0 0 0 44 28 z M 49.488281 41.867188 C 48.922281 42.281188 48.355109 42.68975 47.787109 43.09375 C 56.610109 49.71775 64.253406 57.576 64.941406 71 L 60.933594 71 C 60.212594 58.846 52.993031 51.858672 44.332031 45.513672 C 44.218031 45.592672 44.102281 45.671953 43.988281 45.751953 C 43.518281 46.077953 43.055797 46.399656 42.591797 46.722656 C 51.313797 53.052656 58.611563 59.933297 58.976562 72.029297 L 59.007812 73 L 67.003906 73 L 66.980469 71.976562 C 66.621469 57.277563 58.716281 48.863188 49.488281 41.867188 z M 36 50 A 1 1 0 0 0 35 51 A 1 1 0 0 0 36 52 A 1 1 0 0 0 37 51 A 1 1 0 0 0 36 50 z M 40 50 A 1 1 0 0 0 39 51 A 1 1 0 0 0 40 52 A 1 1 0 0 0 41 51 A 1 1 0 0 0 40 50 z M 44 50 A 1 1 0 0 0 43 51 A 1 1 0 0 0 44 52 A 1 1 0 0 0 45 51 A 1 1 0 0 0 44 50 z M 28 57 A 1 1 0 0 0 27 58 A 1 1 0 0 0 28 59 A 1 1 0 0 0 29 58 A 1 1 0 0 0 28 57 z M 32 57 A 1 1 0 0 0 31 58 A 1 1 0 0 0 32 59 A 1 1 0 0 0 33 58 A 1 1 0 0 0 32 57 z M 36 57 A 1 1 0 0 0 35 58 A 1 1 0 0 0 36 59 A 1 1 0 0 0 37 58 A 1 1 0 0 0 36 57 z M 40 57 A 1 1 0 0 0 39 58 A 1 1 0 0 0 40 59 A 1 1 0 0 0 41 58 A 1 1 0 0 0 40 57 z M 44 57 A 1 1 0 0 0 43 58 A 1 1 0 0 0 44 59 A 1 1 0 0 0 45 58 A 1 1 0 0 0 44 57 z M 48 57 A 1 1 0 0 0 47 58 A 1 1 0 0 0 48 59 A 1 1 0 0 0 49 58 A 1 1 0 0 0 48 57 z M 52 57 A 1 1 0 0 0 51 58 A 1 1 0 0 0 52 59 A 1 1 0 0 0 53 58 A 1 1 0 0 0 52 57 z M 26 64 A 1 1 0 0 0 25 65 A 1 1 0 0 0 26 66 A 1 1 0 0 0 27 65 A 1 1 0 0 0 26 64 z M 30 64 A 1 1 0 0 0 29 65 A 1 1 0 0 0 30 66 A 1 1 0 0 0 31 65 A 1 1 0 0 0 30 64 z M 34 64 A 1 1 0 0 0 33 65 A 1 1 0 0 0 34 66 A 1 1 0 0 0 35 65 A 1 1 0 0 0 34 64 z M 38 64 A 1 1 0 0 0 37 65 A 1 1 0 0 0 38 66 A 1 1 0 0 0 39 65 A 1 1 0 0 0 38 64 z M 42 64 A 1 1 0 0 0 41 65 A 1 1 0 0 0 42 66 A 1 1 0 0 0 43 65 A 1 1 0 0 0 42 64 z M 46 64 A 1 1 0 0 0 45 65 A 1 1 0 0 0 46 66 A 1 1 0 0 0 47 65 A 1 1 0 0 0 46 64 z M 50 64 A 1 1 0 0 0 49 65 A 1 1 0 0 0 50 66 A 1 1 0 0 0 51 65 A 1 1 0 0 0 50 64 z M 54 64 A 1 1 0 0 0 53 65 A 1 1 0 0 0 54 66 A 1 1 0 0 0 55 65 A 1 1 0 0 0 54 64 z M 24 71 A 1 1 0 0 0 23 72 A 1 1 0 0 0 24 73 A 1 1 0 0 0 25 72 A 1 1 0 0 0 24 71 z M 28 71 A 1 1 0 0 0 27 72 A 1 1 0 0 0 28 73 A 1 1 0 0 0 29 72 A 1 1 0 0 0 28 71 z M 32 71 A 1 1 0 0 0 31 72 A 1 1 0 0 0 32 73 A 1 1 0 0 0 33 72 A 1 1 0 0 0 32 71 z M 36 71 A 1 1 0 0 0 35 72 A 1 1 0 0 0 36 73 A 1 1 0 0 0 37 72 A 1 1 0 0 0 36 71 z M 40 71 A 1 1 0 0 0 39 72 A 1 1 0 0 0 40 73 A 1 1 0 0 0 41 72 A 1 1 0 0 0 40 71 z M 44 71 A 1 1 0 0 0 43 72 A 1 1 0 0 0 44 73 A 1 1 0 0 0 45 72 A 1 1 0 0 0 44 71 z M 48 71 A 1 1 0 0 0 47 72 A 1 1 0 0 0 48 73 A 1 1 0 0 0 49 72 A 1 1 0 0 0 48 71 z M 52 71 A 1 1 0 0 0 51 72 A 1 1 0 0 0 52 73 A 1 1 0 0 0 53 72 A 1 1 0 0 0 52 71 z M 56 71 A 1 1 0 0 0 55 72 A 1 1 0 0 0 56 73 A 1 1 0 0 0 57 72 A 1 1 0 0 0 56 71 z"/></svg>