<svg width="80" height="80" viewBox="0 0 80 80" fill="none" xmlns="http://www.w3.org/2000/svg">
<path d="M42.7006 18.4023L43.5014 18L43.849 18.0625L44.4603 18.7168L44.3021 19.5977L43.5014 20L43.1537 19.9375L42.5424 19.2832L42.7006 18.4023Z" fill="black"/>
<path d="M51.4857 19.8652L52.2865 19.4648L52.6342 19.5254L53.2455 20.1797L53.0892 21.0625L52.2865 21.4648L51.9408 21.4023L51.3275 20.748L51.4857 19.8652Z" fill="black"/>
<path d="M55.4467 20.332L56.2474 19.9316L56.5951 19.9941L57.2064 20.6484L57.0482 21.5293L56.2474 21.9316L55.9017 21.8691L55.2885 21.2148L55.4467 20.332Z" fill="black"/>
<path d="M40.7025 21.8457L41.5053 21.4453L41.851 21.5059L42.4642 22.1602L42.306 23.043L41.5053 23.4453L41.1576 23.3828L40.5463 22.7285L40.7025 21.8457Z" fill="black"/>
<path d="M58.9467 22.1875L59.7474 21.7852L60.0951 21.8477L60.7064 22.502L60.5502 23.3848L59.7474 23.7852L59.4017 23.7227L58.7885 23.0684L58.9467 22.1875Z" fill="black"/>
<path d="M61.0814 25.5176L61.8822 25.1172L62.2279 25.1777L62.8412 25.832L62.683 26.7148L61.8822 27.1172L61.5346 27.0547L60.9232 26.4004L61.0814 25.5176Z" fill="black"/>
<path d="M39.7787 25.7168L40.5795 25.3145L40.9271 25.377L41.5385 26.0312L41.3803 26.9121L40.5795 27.3145L40.2318 27.252L39.6205 26.5977L39.7787 25.7168Z" fill="black"/>
<path d="M62.5248 28.6934L63.3256 28.293L63.6713 28.3535L64.2846 29.0098L64.1263 29.8906L63.3256 30.293L62.9779 30.2305L62.3666 29.5762L62.5248 28.6934Z" fill="black"/>
<path d="M66.4095 29.5449L67.2103 29.1426L67.558 29.2051L68.1693 29.8594L68.0111 30.7422L67.2103 31.1426L66.8646 31.082L66.2513 30.4258L66.4095 29.5449Z" fill="black"/>
<path d="M40.5228 29.5898L41.3256 29.1875L41.6713 29.25L42.2846 29.9043L42.1264 30.7871L41.3256 31.1875L40.9779 31.127L40.3666 30.4707L40.5228 29.5898Z" fill="black"/>
<path d="M69.4837 32.0078L70.2845 31.6055L70.6302 31.668L71.2435 32.3223L71.0853 33.2031L70.2845 33.6055L69.9369 33.543L69.3255 32.8887L69.4837 32.0078Z" fill="black"/>
<path d="M43.2806 32.4219L44.0814 32.0195L44.4271 32.082L45.0404 32.7363L44.8822 33.6191L44.0814 34.0195L43.7338 33.957L43.1224 33.3027L43.2806 32.4219Z" fill="black"/>
<path d="M46.9721 33.9238L47.7728 33.5215L48.1185 33.584L48.7318 34.2383L48.5736 35.1211L47.7728 35.5215L47.4252 35.459L46.8139 34.8047L46.9721 33.9238Z" fill="black"/>
<path d="M50.9037 34.6406L51.7045 34.2402L52.0521 34.3027L52.6635 34.957L52.5053 35.8379L51.7045 36.2402L51.3568 36.1777L50.7455 35.5234L50.9037 34.6406Z" fill="black"/>
<path d="M54.8334 35.375L55.6342 34.9746L55.9818 35.0371L56.5931 35.6914L56.4349 36.5723L55.6342 36.9746L55.2865 36.9121L54.6752 36.2578L54.8334 35.375Z" fill="black"/>
<path d="M70.474 35.8223L71.2767 35.4199L71.6224 35.4824L72.2357 36.1367L72.0775 37.0195L71.2767 37.4199L70.929 37.3574L70.3177 36.7031L70.474 35.8223Z" fill="black"/>
<path d="M58.5209 36.8789L59.3217 36.4785L59.6693 36.541L60.2806 37.1953L60.1224 38.0762L59.3217 38.4785L58.974 38.416L58.3627 37.7617L58.5209 36.8789Z" fill="black"/>
<path d="M69.806 39.752L70.6068 39.3496L70.9544 39.4121L71.5658 40.0664L71.4076 40.9473L70.6068 41.3496L70.2591 41.2871L69.6478 40.6328L69.806 39.752Z" fill="black"/>
<path d="M61.0912 39.8633L61.8939 39.4609L62.2396 39.5234L62.8529 40.1777L62.6947 41.0605L61.8939 41.4609L61.5463 41.3984L60.9349 40.7441L61.0912 39.8633Z" fill="black"/>
<path fill-rule="evenodd" clip-rule="evenodd" d="M7.50125 62H72.5013V61V46H7.49947C7.49782 46 7.49909 50.1202 7.50034 54.179C7.50156 58.1184 7.50275 62 7.50125 62ZM21.5013 48H9.50135V60H21.5013H27.5014H57.5014C57.5014 59.7348 57.6067 59.4804 57.7942 59.2929C57.9818 59.1054 58.2361 59 58.5014 59C58.7666 59 59.0209 59.1054 59.2085 59.2929C59.396 59.4804 59.5014 59.7348 59.5014 60H63.5014C63.5014 59.7348 63.6067 59.4804 63.7942 59.2929C63.9818 59.1054 64.2361 59 64.5014 59C64.7666 59 65.0209 59.1054 65.2085 59.2929C65.396 59.4804 65.5013 59.7348 65.5013 60H69.5013C69.5013 59.7348 69.6067 59.4804 69.7942 59.2929C69.9817 59.1054 70.2361 59 70.5013 59V55C70.2361 55 69.9817 54.8946 69.7942 54.7071C69.6067 54.5196 69.5013 54.2652 69.5013 54C69.5013 53.7348 69.6067 53.4804 69.7942 53.2929C69.9817 53.1054 70.2361 53 70.5013 53V49C70.2361 49 69.9817 48.8946 69.7942 48.7071C69.6067 48.5196 69.5013 48.2652 69.5013 48H65.5013C65.5013 48.2652 65.396 48.5196 65.2085 48.7071C65.0209 48.8946 64.7666 49 64.5014 49C64.2361 49 63.9818 48.8946 63.7942 48.7071C63.6067 48.5196 63.5014 48.2652 63.5014 48H59.5014C59.5014 48.2652 59.396 48.5196 59.2085 48.7071C59.0209 48.8946 58.7666 49 58.5014 49C58.2361 49 57.9818 48.8946 57.7942 48.7071C57.6067 48.5196 57.5014 48.2652 57.5014 48H27.5014H21.5013ZM55.5014 50C55.2361 50 54.9818 50.1054 54.7942 50.2929C54.6067 50.4804 54.5014 50.7348 54.5014 51C54.5014 51.2652 54.6067 51.5196 54.7942 51.7071C54.9818 51.8946 55.2361 52 55.5014 52C55.7666 52 56.0209 51.8946 56.2085 51.7071C56.396 51.5196 56.5014 51.2652 56.5014 51C56.5014 50.7348 56.396 50.4804 56.2085 50.2929C56.0209 50.1054 55.7666 50 55.5014 50ZM61.5014 50C61.2361 50 60.9818 50.1054 60.7942 50.2929C60.6067 50.4804 60.5014 50.7348 60.5014 51C60.5014 51.2652 60.6067 51.5196 60.7942 51.7071C60.9818 51.8946 61.2361 52 61.5014 52C61.7666 52 62.0209 51.8946 62.2085 51.7071C62.396 51.5196 62.5014 51.2652 62.5014 51C62.5014 50.7348 62.396 50.4804 62.2085 50.2929C62.0209 50.1054 61.7666 50 61.5014 50ZM67.5013 50C67.2361 50 66.9817 50.1054 66.7942 50.2929C66.6067 50.4804 66.5013 50.7348 66.5013 51C66.5013 51.2652 66.6067 51.5196 66.7942 51.7071C66.9817 51.8946 67.2361 52 67.5013 52C67.7665 52 68.0209 51.8946 68.2084 51.7071C68.396 51.5196 68.5013 51.2652 68.5013 51C68.5013 50.7348 68.396 50.4804 68.2084 50.2929C68.0209 50.1054 67.7665 50 67.5013 50ZM58.5014 53C58.2361 53 57.9818 53.1054 57.7942 53.2929C57.6067 53.4804 57.5014 53.7348 57.5014 54C57.5014 54.2652 57.6067 54.5196 57.7942 54.7071C57.9818 54.8946 58.2361 55 58.5014 55C58.7666 55 59.0209 54.8946 59.2085 54.7071C59.396 54.5196 59.5014 54.2652 59.5014 54C59.5014 53.7348 59.396 53.4804 59.2085 53.2929C59.0209 53.1054 58.7666 53 58.5014 53ZM64.5014 53C64.2361 53 63.9818 53.1054 63.7942 53.2929C63.6067 53.4804 63.5014 53.7348 63.5014 54C63.5014 54.2652 63.6067 54.5196 63.7942 54.7071C63.9818 54.8946 64.2361 55 64.5014 55C64.7666 55 65.0209 54.8946 65.2085 54.7071C65.396 54.5196 65.5013 54.2652 65.5013 54C65.5013 53.7348 65.396 53.4804 65.2085 53.2929C65.0209 53.1054 64.7666 53 64.5014 53ZM55.5014 56C55.2361 56 54.9818 56.1054 54.7942 56.2929C54.6067 56.4804 54.5014 56.7348 54.5014 57C54.5014 57.2652 54.6067 57.5196 54.7942 57.7071C54.9818 57.8946 55.2361 58 55.5014 58C55.7666 58 56.0209 57.8946 56.2085 57.7071C56.396 57.5196 56.5014 57.2652 56.5014 57C56.5014 56.7348 56.396 56.4804 56.2085 56.2929C56.0209 56.1054 55.7666 56 55.5014 56ZM61.5014 56C61.2361 56 60.9818 56.1054 60.7942 56.2929C60.6067 56.4804 60.5014 56.7348 60.5014 57C60.5014 57.2652 60.6067 57.5196 60.7942 57.7071C60.9818 57.8946 61.2361 58 61.5014 58C61.7666 58 62.0209 57.8946 62.2085 57.7071C62.396 57.5196 62.5014 57.2652 62.5014 57C62.5014 56.7348 62.396 56.4804 62.2085 56.2929C62.0209 56.1054 61.7666 56 61.5014 56ZM67.5013 56C67.2361 56 66.9817 56.1054 66.7942 56.2929C66.6067 56.4804 66.5013 56.7348 66.5013 57C66.5013 57.2652 66.6067 57.5196 66.7942 57.7071C66.9817 57.8946 67.2361 58 67.5013 58C67.7665 58 68.0209 57.8946 68.2084 57.7071C68.396 57.5196 68.5013 57.2652 68.5013 57C68.5013 56.7348 68.396 56.4804 68.2084 56.2929C68.0209 56.1054 67.7665 56 67.5013 56Z" fill="black"/>
</svg>
