<?xml version="1.0"?><svg fill="#000000" xmlns="http://www.w3.org/2000/svg"  viewBox="0 0 64 64" width="64px" height="64px">    <path d="M 17.890625 6 C 8.025625 6 0 14.025625 0 23.890625 C 0 29.084625 2.7592187 34.731828 8.1992188 40.673828 C 15.038219 48.191828 24.333672 54.283141 29.263672 57.244141 C 30.079672 57.738141 31.01475 57.998047 31.96875 57.998047 L 32.03125 57.998047 C 32.98525 57.998047 33.921375 57.738094 34.734375 57.246094 C 39.667375 54.283094 48.960875 48.191781 55.796875 40.675781 C 61.239875 34.731781 64 29.084625 64 23.890625 C 64 14.025625 55.974375 6 46.109375 6 C 41.376375 6 36.916828 7.8339688 33.548828 11.167969 C 33.276828 11.438969 32.541 12 32 12 C 31.459 12 30.722266 11.439063 30.447266 11.164062 C 27.082266 7.8340625 22.623625 6 17.890625 6 z M 17.890625 8 C 22.093625 8 26.053109 9.6290312 29.037109 12.582031 C 29.273109 12.819031 30.529 14 32 14 C 33.471 14 34.726984 12.818938 34.958984 12.585938 C 37.946984 9.6289375 41.906375 8 46.109375 8 C 54.871375 8 62 15.128625 62 23.890625 C 62 28.567625 59.416359 33.760172 54.318359 39.326172 C 47.404359 46.929172 37.598172 53.191203 33.701172 55.533203 C 33.192172 55.842203 32.626812 55.993047 32.007812 55.998047 L 32 55.998047 L 31.992188 55.998047 C 31.362188 55.998047 30.808922 55.84225 30.294922 55.53125 C 26.399922 53.19125 16.594734 46.929219 9.6777344 39.324219 C 4.5827344 33.760219 2 28.568625 2 23.890625 C 2 15.128625 9.128625 8 17.890625 8 z M 46 11 C 45.448 11 45 11.447 45 12 C 45 12.553 45.448 13 46 13 C 47.117 13 48.218484 13.166141 49.271484 13.494141 C 49.370484 13.524141 49.470359 13.539063 49.568359 13.539062 C 49.994359 13.539062 50.389438 13.264938 50.523438 12.835938 C 50.687438 12.308937 50.393234 11.747984 49.865234 11.583984 C 48.619234 11.195984 47.319 11 46 11 z M 52.849609 13.273438 C 52.596984 13.314312 52.360719 13.452281 52.199219 13.675781 C 51.876219 14.123781 51.977781 14.747312 52.425781 15.070312 C 54.540781 16.594312 56.049781 18.818984 56.675781 21.333984 C 56.788781 21.788984 57.196531 22.09375 57.644531 22.09375 C 57.724531 22.09375 57.805719 22.083453 57.886719 22.064453 C 58.422719 21.930453 58.748234 21.386563 58.615234 20.851562 C 57.875234 17.877562 56.093703 15.248266 53.595703 13.447266 C 53.371703 13.287266 53.102234 13.232563 52.849609 13.273438 z M 13.027344 32.957031 C 12.771969 32.937906 12.509781 33.016766 12.300781 33.197266 L 10.783203 34.501953 C 10.365203 34.861953 10.319688 35.493109 10.679688 35.912109 C 10.876688 36.142109 11.1565 36.259766 11.4375 36.259766 C 11.6685 36.259766 11.900844 36.181578 12.089844 36.017578 L 13.605469 34.712891 C 14.023469 34.352891 14.070937 33.721734 13.710938 33.302734 C 13.531437 33.093734 13.282719 32.976156 13.027344 32.957031 z M 16.335938 36.578125 C 16.079937 36.5755 15.823453 36.671234 15.626953 36.865234 L 14.197266 38.265625 C 13.802266 38.652625 13.796594 39.284687 14.183594 39.679688 C 14.378594 39.878687 14.639437 39.978516 14.898438 39.978516 C 15.151438 39.978516 15.403656 39.885359 15.597656 39.693359 L 17.027344 38.292969 C 17.422344 37.905969 17.428016 37.273906 17.041016 36.878906 C 16.847516 36.681406 16.591938 36.58075 16.335938 36.578125 z M 19.917969 39.919922 C 19.662594 39.933672 19.411563 40.045 19.226562 40.25 L 17.890625 41.738281 C 17.521625 42.149281 17.555797 42.782391 17.966797 43.150391 C 18.157797 43.322391 18.396766 43.40625 18.634766 43.40625 C 18.907766 43.40625 19.181906 43.294219 19.378906 43.074219 L 20.714844 41.585938 C 21.083844 41.174937 21.049672 40.541828 20.638672 40.173828 C 20.433172 39.989828 20.173344 39.906172 19.917969 39.919922 z M 23.679688 43.033203 C 23.425812 43.063953 23.184172 43.191703 23.013672 43.408203 L 21.777344 44.980469 C 21.435344 45.414469 21.510313 46.042766 21.945312 46.384766 C 22.128312 46.529766 22.3465 46.599609 22.5625 46.599609 C 22.8595 46.599609 23.152609 46.467797 23.349609 46.216797 L 24.585938 44.644531 C 24.927938 44.210531 24.852969 43.582234 24.417969 43.240234 C 24.199969 43.068734 23.933563 43.002453 23.679688 43.033203 z M 27.625 45.927734 C 27.37325 45.974359 27.140375 46.11625 26.984375 46.34375 L 25.851562 47.992188 C 25.539563 48.448187 25.654375 49.069812 26.109375 49.382812 C 26.282375 49.501812 26.480781 49.558594 26.675781 49.558594 C 26.993781 49.558594 27.307 49.407 27.5 49.125 L 28.632812 47.476562 C 28.944812 47.020562 28.83 46.398938 28.375 46.085938 C 28.147 45.929937 27.87675 45.881109 27.625 45.927734 z M 32.126953 48.5 C 31.741031 48.44675 31.343109 48.624219 31.130859 48.980469 L 30.107422 50.699219 C 29.825422 51.174219 29.980078 51.787312 30.455078 52.070312 C 30.615078 52.166312 30.792797 52.210938 30.966797 52.210938 C 31.307797 52.210938 31.639172 52.037656 31.826172 51.722656 L 32.849609 50.003906 C 33.131609 49.528906 32.976953 48.915813 32.501953 48.632812 C 32.383453 48.562063 32.255594 48.51775 32.126953 48.5 z"/></svg>