<?xml version="1.0"?><svg fill="#000000" xmlns="http://www.w3.org/2000/svg"  viewBox="0 0 64 64" width="64px" height="64px">    <path d="M 8 4 C 5.794 4 4 5.794 4 8 C 4 10.206 5.794 12 8 12 C 10.206 12 12 10.206 12 8 C 12 5.794 10.206 4 8 4 z M 8 6 C 9.103 6 10 6.897 10 8 C 10 9.103 9.103 10 8 10 C 6.897 10 6 9.103 6 8 C 6 6.897 6.897 6 8 6 z M 15 6 C 14.448 6 14 6.448 14 7 L 14 9 C 14 9.552 14.448 10 15 10 C 15.552 10 16 9.552 16 9 L 16 7 C 16 6.448 15.552 6 15 6 z M 20 6 C 19.448 6 19 6.448 19 7 L 19 9 C 19 9.552 19.448 10 20 10 C 20.552 10 21 9.552 21 9 L 21 7 C 21 6.448 20.552 6 20 6 z M 25 6 C 24.448 6 24 6.448 24 7 L 24 9 C 24 9.552 24.448 10 25 10 C 25.552 10 26 9.552 26 9 L 26 7 C 26 6.448 25.552 6 25 6 z M 30 6 C 29.448 6 29 6.448 29 7 L 29 9 C 29 9.552 29.448 10 30 10 C 30.552 10 31 9.552 31 9 L 31 7 C 31 6.448 30.552 6 30 6 z M 35 6 C 34.448 6 34 6.448 34 7 L 34 9 C 34 9.552 34.448 10 35 10 C 35.552 10 36 9.552 36 9 L 36 7 C 36 6.448 35.552 6 35 6 z M 40 6 C 39.448 6 39 6.448 39 7 L 39 9 C 39 9.552 39.448 10 40 10 C 40.552 10 41 9.552 41 9 L 41 7 C 41 6.448 40.552 6 40 6 z M 45 6 C 44.448 6 44 6.448 44 7 L 44 9 C 44 9.552 44.448 10 45 10 C 45.552 10 46 9.552 46 9 L 46 7 C 46 6.448 45.552 6 45 6 z M 49.875 6 C 49.323 6 48.875 6.448 48.875 7 L 48.875 9 C 48.875 9.552 49.323 10 49.875 10 C 50.427 10 50.875 9.552 50.875 9 L 50.875 7 C 50.875 6.448 50.427 6 49.875 6 z M 54.630859 9.09375 C 54.501 9.0925781 54.367734 9.1171719 54.240234 9.1699219 L 52.392578 9.9335938 C 51.881578 10.144594 51.638609 10.727281 51.849609 11.238281 C 52.008609 11.624281 52.380437 11.857422 52.773438 11.857422 C 52.900438 11.857422 53.029297 11.83325 53.154297 11.78125 L 55.003906 11.019531 C 55.514906 10.808531 55.757875 10.223891 55.546875 9.7128906 C 55.388625 9.3303906 55.020437 9.0972656 54.630859 9.09375 z M 53 14.28125 C 52.448 14.28125 52 14.72925 52 15.28125 C 52 15.83325 52.448 16.28125 53 16.28125 L 55 16.28125 C 55.552 16.28125 56 15.83325 56 15.28125 C 56 14.72925 55.552 14.28125 55 14.28125 L 53 14.28125 z M 33 15 C 28.589 15 25 18.589 25 23 C 25 27.061 31.442734 36.505359 32.177734 37.568359 C 32.364734 37.839359 32.671 38 33 38 C 33.329 38 33.635266 37.839359 33.822266 37.568359 C 34.557266 36.505359 41 27.061 41 23 C 41 18.589 37.411 15 33 15 z M 33 17 C 36.309 17 39 19.691 39 23 C 39 25.555 35.212 31.845031 33 35.207031 C 30.788 31.846031 27 25.557 27 23 C 27 19.691 29.691 17 33 17 z M 33 19 C 30.794 19 29 20.794 29 23 C 29 25.206 30.794 27 33 27 C 35.206 27 37 25.206 37 23 C 37 20.794 35.206 19 33 19 z M 53 19.125 C 52.448 19.125 52 19.573 52 20.125 C 52 20.677 52.448 21.125 53 21.125 L 55 21.125 C 55.552 21.125 56 20.677 56 20.125 C 56 19.573 55.552 19.125 55 19.125 L 53 19.125 z M 33 21 C 34.103 21 35 21.897 35 23 C 35 24.103 34.103 25 33 25 C 31.897 25 31 24.103 31 23 C 31 21.897 31.897 21 33 21 z M 54 23 C 51.794 23 50 24.794 50 27 C 50 29.206 51.794 31 54 31 C 56.206 31 58 29.206 58 27 C 58 24.794 56.206 23 54 23 z M 54 25 C 55.103 25 56 25.897 56 27 C 56 28.103 55.103 29 54 29 C 52.897 29 52 28.103 52 27 C 52 25.897 52.897 25 54 25 z M 52.9375 33.103516 C 52.3855 33.103516 51.9375 33.551516 51.9375 34.103516 C 51.9375 34.655516 52.3855 35.103516 52.9375 35.103516 L 54.9375 35.103516 C 55.4905 35.103516 55.9375 34.655516 55.9375 34.103516 C 55.9375 33.551516 55.4895 33.103516 54.9375 33.103516 L 52.9375 33.103516 z M 52.9375 37.607422 C 52.3855 37.607422 51.9375 38.055422 51.9375 38.607422 C 51.9375 39.159422 52.3855 39.607422 52.9375 39.607422 L 54.9375 39.607422 C 55.4905 39.607422 55.9375 39.159422 55.9375 38.607422 C 55.9375 38.055422 55.4895 37.607422 54.9375 37.607422 L 52.9375 37.607422 z M 52.048828 41.074219 C 51.793078 41.072094 51.536844 41.167328 51.339844 41.361328 C 50.945844 41.748328 50.939172 42.381391 51.326172 42.775391 L 52.728516 44.201172 C 52.924516 44.400172 53.182406 44.501953 53.441406 44.501953 C 53.694406 44.501953 53.948578 44.406844 54.142578 44.214844 C 54.536578 43.827844 54.541297 43.194781 54.154297 42.800781 L 52.753906 41.373047 C 52.559906 41.175547 52.304578 41.076344 52.048828 41.074219 z M 48.541016 41.9375 C 47.989016 41.9375 47.541016 42.3855 47.541016 42.9375 L 47.541016 44.9375 C 47.541016 45.4895 47.989016 45.9375 48.541016 45.9375 C 49.093016 45.9375 49.541016 45.4895 49.541016 44.9375 L 49.541016 42.9375 C 49.541016 42.3855 49.093016 41.9375 48.541016 41.9375 z M 13 42 C 12.448 42 12 42.448 12 43 L 12 45 C 12 45.552 12.448 46 13 46 C 13.552 46 14 45.552 14 45 L 14 43 C 14 42.448 13.552 42 13 42 z M 18 42 C 17.448 42 17 42.448 17 43 L 17 45 C 17 45.552 17.448 46 18 46 C 18.552 46 19 45.552 19 45 L 19 43 C 19 42.448 18.552 42 18 42 z M 23 42 C 22.448 42 22 42.448 22 43 L 22 45 C 22 45.552 22.448 46 23 46 C 23.552 46 24 45.552 24 45 L 24 43 C 24 42.448 23.552 42 23 42 z M 28 42 C 27.448 42 27 42.448 27 43 L 27 45 C 27 45.552 27.448 46 28 46 C 28.552 46 29 45.552 29 45 L 29 43 C 29 42.448 28.552 42 28 42 z M 33 42 C 32.448 42 32 42.448 32 43 L 32 45 C 32 45.552 32.448 46 33 46 C 33.552 46 34 45.552 34 45 L 34 43 C 34 42.448 33.552 42 33 42 z M 38 42 C 37.448 42 37 42.448 37 43 L 37 45 C 37 45.552 37.448 46 38 46 C 38.552 46 39 45.552 39 45 L 39 43 C 39 42.448 38.552 42 38 42 z M 43 42 C 42.448 42 42 42.448 42 43 L 42 45 C 42 45.552 42.448 46 43 46 C 43.552 46 44 45.552 44 45 L 44 43 C 44 42.448 43.552 42 43 42 z M 7.5566406 43.603516 C 7.3017656 43.580641 7.0381719 43.654531 6.8261719 43.832031 C 6.4031719 44.186031 6.3471719 44.818188 6.7011719 45.242188 L 7.984375 46.775391 C 8.182375 47.011391 8.4659531 47.134766 8.7519531 47.134766 C 8.9779531 47.134766 9.2055781 47.057391 9.3925781 46.900391 C 9.8155781 46.546391 9.8715781 45.916187 9.5175781 45.492188 L 8.234375 43.957031 C 8.056875 43.746031 7.8115156 43.626391 7.5566406 43.603516 z M 5 49 C 4.448 49 4 49.448 4 50 C 4 50.552 4.448 51 5 51 L 7 51 C 7.552 51 8 50.552 8 50 C 8 49.448 7.552 49 7 49 L 5 49 z M 56 52 C 53.794 52 52 53.794 52 56 C 52 58.206 53.794 60 56 60 C 58.206 60 60 58.206 60 56 C 60 53.794 58.206 52 56 52 z M 8.6621094 52.869141 C 8.4072344 52.892016 8.161375 53.013109 7.984375 53.224609 L 6.7011719 54.757812 C 6.3461719 55.181813 6.4031719 55.813969 6.8261719 56.167969 C 7.0131719 56.324969 7.24275 56.400391 7.46875 56.400391 C 7.75475 56.400391 8.0383281 56.278969 8.2363281 56.042969 L 9.5195312 54.507812 C 9.8745313 54.083813 9.8175313 53.453609 9.3945312 53.099609 C 9.1820312 52.921609 8.9169844 52.846266 8.6621094 52.869141 z M 13 54 C 12.448 54 12 54.448 12 55 L 12 57 C 12 57.552 12.448 58 13 58 C 13.552 58 14 57.552 14 57 L 14 55 C 14 54.448 13.552 54 13 54 z M 18 54 C 17.448 54 17 54.448 17 55 L 17 57 C 17 57.552 17.448 58 18 58 C 18.552 58 19 57.552 19 57 L 19 55 C 19 54.448 18.552 54 18 54 z M 23 54 C 22.448 54 22 54.448 22 55 L 22 57 C 22 57.552 22.448 58 23 58 C 23.552 58 24 57.552 24 57 L 24 55 C 24 54.448 23.552 54 23 54 z M 28 54 C 27.448 54 27 54.448 27 55 L 27 57 C 27 57.552 27.448 58 28 58 C 28.552 58 29 57.552 29 57 L 29 55 C 29 54.448 28.552 54 28 54 z M 33 54 C 32.448 54 32 54.448 32 55 L 32 57 C 32 57.552 32.448 58 33 58 C 33.552 58 34 57.552 34 57 L 34 55 C 34 54.448 33.552 54 33 54 z M 38 54 C 37.448 54 37 54.448 37 55 L 37 57 C 37 57.552 37.448 58 38 58 C 38.552 58 39 57.552 39 57 L 39 55 C 39 54.448 38.552 54 38 54 z M 43 54 C 42.448 54 42 54.448 42 55 L 42 57 C 42 57.552 42.448 58 43 58 C 43.552 58 44 57.552 44 57 L 44 55 C 44 54.448 43.552 54 43 54 z M 48 54 C 47.448 54 47 54.448 47 55 L 47 57 C 47 57.552 47.448 58 48 58 C 48.552 58 49 57.552 49 57 L 49 55 C 49 54.448 48.552 54 48 54 z M 56 54 C 57.103 54 58 54.897 58 56 C 58 57.103 57.103 58 56 58 C 54.897 58 54 57.103 54 56 C 54 54.897 54.897 54 56 54 z"/></svg>