<svg width="80" height="80" viewBox="0 0 80 80" fill="none" xmlns="http://www.w3.org/2000/svg">
<path d="M43.9961 9C40.1445 9 37 12.1445 37 16C37 19.8516 40.1445 23 43.9961 23C47.8555 23 51 19.8516 51 16C51 12.1484 47.8555 9 43.9961 9ZM43.9961 11C46.7734 11 49 13.2266 49 16C49 18.7695 46.7734 21 43.9961 21C41.2266 21 39 18.7695 39 16C39 13.2266 41.2266 11 43.9961 11ZM37.0156 24C34.8281 24 32.7148 24.7969 31.0742 26.2383L26.6992 30.0898C25.8594 30.8281 25.2891 31.8242 25.082 32.9258C24.793 34.5 24.293 37.1797 23.8672 39.4844C23.6523 40.6406 23.457 41.6992 23.3125 42.4844C23.2383 42.875 23.1797 43.1953 23.1367 43.4258C23.0937 43.6563 23.0781 43.7305 23.0625 43.8398C23.0078 44.1836 23.0039 44.5156 23.0039 44.5156C23.0039 44.5312 23.0039 44.5469 23.0039 44.5625C23.0391 46.4531 24.6016 48 26.5 48C27.957 48 29.2148 47.0977 29.7344 45.8203C29.7461 45.8008 29.8672 45.5508 29.9336 45.1836C29.9375 45.1523 30.3984 42.6641 30.8438 40.2812C31.25 38.0742 31.5977 36.207 31.6562 35.8945L34.0469 33.8945L32.1914 42.5078C32.0625 43.1016 32.0078 43.7031 32.0117 44.3008V44.3047C31.9922 44.3555 31.9766 44.4102 31.9648 44.4648L29.5469 54.9961L22.7266 64.7031C22.6055 64.8711 22.543 65.0742 22.5469 65.2812C22.2773 65.8164 22 66.3594 22 67C22 69.1992 23.8008 71 26 71C27.1719 71 28.1758 70.4258 28.9062 69.6172C29.0547 69.543 29.1797 69.4336 29.2734 69.3008L36.7227 58.6953C36.7813 58.6172 36.8242 58.5313 36.8555 58.4414L38.0273 54.9883L48.668 69.207C48.7734 69.3477 48.9141 69.457 49.0742 69.5273C49.957 70.5391 51.2617 71.1992 52.7383 70.9336C54.3398 70.6445 55.6016 69.3906 55.9219 67.8047V67.8008C56.1094 66.8672 55.9023 65.9844 55.5195 65.2266C55.4961 65.0937 55.4492 64.9688 55.3789 64.8594L43.3242 45.8516L44.7617 39.4727L45.1562 40.0352C45.5039 40.5352 46 40.918 46.5742 41.1289L56.7656 44.8984C56.8242 44.9219 56.8906 44.9375 56.9531 44.9492C57.0898 44.9687 57.2695 45 57.5 45C59.4219 45 61 43.4219 61 41.5C61 40.2578 60.3398 39.1602 59.3594 38.543C59.3047 38.5078 59.2461 38.4805 59.1836 38.4531L50.4258 35.1094L46.9648 29.5234C47.25 26.6289 44.9492 24 41.957 24H37.0156ZM37.0156 26H41.957C43.9258 26 45.3477 27.7812 44.918 29.6992L41.2812 45.8164C41.2227 46.0742 41.2695 46.3477 41.4102 46.5742L53.168 65.1055L53.9727 64.5625C53.5195 64.8672 53.3906 65.4727 53.6836 65.9336C53.9531 66.3555 54.0742 66.8477 53.9609 67.4102C53.8047 68.1719 53.1367 68.832 52.3828 68.9688C51.4883 69.1289 50.7383 68.7266 50.3164 68.0664C50.043 67.6367 49.4844 67.4805 49.0273 67.707L49.7695 67.3398L35.2344 47.918C34.168 46.4922 33.7695 44.6719 34.1445 42.9297L36.6172 31.4805C36.707 31.0625 36.5234 30.6328 36.1562 30.4141C35.793 30.1914 35.3242 30.2266 35 30.5L30.0977 34.5898C29.918 34.7383 29.7969 34.9453 29.7539 35.1758C29.7539 35.1758 29.3164 37.5352 28.875 39.918C28.4336 42.3008 28 44.6367 27.9648 44.8281C27.957 44.875 27.9023 45.0312 27.9023 45.0312C27.8945 45.0391 27.8906 45.0508 27.8906 45.0625C27.6641 45.6094 27.1367 46 26.5 46C25.6719 46 25.0273 45.3594 25.0078 44.5352C25.0117 44.4805 25.0234 44.2422 25.0352 44.1562C25.0391 44.1562 25.0391 44.1562 25.0352 44.1562C25.0273 44.2188 25.0625 44.0195 25.1055 43.7891C25.1445 43.5586 25.2031 43.2383 25.2773 42.8438C25.4219 42.0625 25.6172 41.0039 25.832 39.8516C26.2578 37.5469 26.7578 34.8672 27.0508 33.293C27.1758 32.6289 27.5117 32.0352 28.0156 31.5938L32.3945 27.7422C33.6719 26.6172 35.3164 26 37.0156 26ZM46.3672 32.3555L48.9062 36.4492C49.0195 36.6328 49.1914 36.7773 49.3945 36.8555L58.3086 40.2617C58.7227 40.5312 59 40.9688 59 41.5C59 42.3398 58.3398 43 57.5 43C57.4727 43 57.4062 42.9883 57.3438 42.9844L47.2656 39.2539C47.0742 39.1836 46.9102 39.0586 46.793 38.8906L45.3555 36.8398L46.3672 32.3555ZM33.125 48.3438C33.2812 48.6094 33.4453 48.8711 33.6328 49.1172L36.5742 53.0469L35.0039 57.6641L27.6992 68.0625C27.6953 68.0664 27.6953 68.0664 27.6953 68.0664C27.6719 68.0938 27.6523 68.1172 27.6328 68.1445C27.2695 68.6641 26.6836 69 26 69C24.8828 69 24 68.1172 24 67C24 66.5703 24.1367 66.1836 24.3672 65.8555C24.668 65.4258 24.5898 64.8359 24.1836 64.5039L24.9219 65.0586L31.2969 55.9844C31.3711 55.875 31.4258 55.7578 31.4531 55.6289L33.125 48.3438ZM11 64C10.4492 64 10 64.4492 10 65C10 65.5508 10.4492 66 11 66C11.5508 66 12 65.5508 12 65C12 64.4492 11.5508 64 11 64ZM15 64C14.4492 64 14 64.4492 14 65C14 65.5508 14.4492 66 15 66C15.5508 66 16 65.5508 16 65C16 64.4492 15.5508 64 15 64ZM19 64C18.4492 64 18 64.4492 18 65C18 65.5508 18.4492 66 19 66C19.5508 66 20 65.5508 20 65C20 64.4492 19.5508 64 19 64ZM35 64C34.4492 64 34 64.4492 34 65C34 65.5508 34.4492 66 35 66C35.5508 66 36 65.5508 36 65C36 64.4492 35.5508 64 35 64ZM39 64C38.4492 64 38 64.4492 38 65C38 65.5508 38.4492 66 39 66C39.5508 66 40 65.5508 40 65C40 64.4492 39.5508 64 39 64ZM43 64C42.4492 64 42 64.4492 42 65C42 65.5508 42.4492 66 43 66C43.5508 66 44 65.5508 44 65C44 64.4492 43.5508 64 43 64ZM59 64C58.4492 64 58 64.4492 58 65C58 65.5508 58.4492 66 59 66C59.5508 66 60 65.5508 60 65C60 64.4492 59.5508 64 59 64ZM63 64C62.4492 64 62 64.4492 62 65C62 65.5508 62.4492 66 63 66C63.5508 66 64 65.5508 64 65C64 64.4492 63.5508 64 63 64ZM67 64C66.4492 64 66 64.4492 66 65C66 65.5508 66.4492 66 67 66C67.5508 66 68 65.5508 68 65C68 64.4492 67.5508 64 67 64Z" fill="black"/>
</svg>
