<svg fill="#000000" xmlns="http://www.w3.org/2000/svg"  viewBox="0 0 80 80" width="80px" height="80px"><path d="M 40 7 C 21.786448 7 7 21.786448 7 40 C 7 58.213552 21.786448 73 40 73 C 58.213552 73 73 58.213552 73 40 C 73 21.786448 58.213552 7 40 7 z M 40 9 C 57.132672 9 71 22.867328 71 40 C 71 57.132672 57.132672 71 40 71 C 22.867328 71 9 57.132672 9 40 C 9 22.867328 22.867328 9 40 9 z M 40 12 A 1 1 0 0 0 39 13 A 1 1 0 0 0 40 14 A 1 1 0 0 0 41 13 A 1 1 0 0 0 40 12 z M 34.732422 12.519531 A 1 1 0 0 0 33.732422 13.519531 A 1 1 0 0 0 34.732422 14.519531 A 1 1 0 0 0 35.732422 13.519531 A 1 1 0 0 0 34.732422 12.519531 z M 45.267578 12.519531 A 1 1 0 0 0 44.267578 13.519531 A 1 1 0 0 0 45.267578 14.519531 A 1 1 0 0 0 46.267578 13.519531 A 1 1 0 0 0 45.267578 12.519531 z M 29.667969 14.054688 A 1 1 0 0 0 28.667969 15.054688 A 1 1 0 0 0 29.667969 16.054688 A 1 1 0 0 0 30.667969 15.054688 A 1 1 0 0 0 29.667969 14.054688 z M 50.332031 14.054688 A 1 1 0 0 0 49.332031 15.054688 A 1 1 0 0 0 50.332031 16.054688 A 1 1 0 0 0 51.332031 15.054688 A 1 1 0 0 0 50.332031 14.054688 z M 25 16.550781 A 1 1 0 0 0 24 17.550781 A 1 1 0 0 0 25 18.550781 A 1 1 0 0 0 26 17.550781 A 1 1 0 0 0 25 16.550781 z M 55 16.550781 A 1 1 0 0 0 54 17.550781 A 1 1 0 0 0 55 18.550781 A 1 1 0 0 0 56 17.550781 A 1 1 0 0 0 55 16.550781 z M 20.908203 19.908203 A 1 1 0 0 0 19.908203 20.908203 A 1 1 0 0 0 20.908203 21.908203 A 1 1 0 0 0 21.908203 20.908203 A 1 1 0 0 0 20.908203 19.908203 z M 59.091797 19.908203 A 1 1 0 0 0 58.091797 20.908203 A 1 1 0 0 0 59.091797 21.908203 A 1 1 0 0 0 60.091797 20.908203 A 1 1 0 0 0 59.091797 19.908203 z M 17.550781 24 A 1 1 0 0 0 16.550781 25 A 1 1 0 0 0 17.550781 26 A 1 1 0 0 0 18.550781 25 A 1 1 0 0 0 17.550781 24 z M 62.449219 24 A 1 1 0 0 0 61.449219 25 A 1 1 0 0 0 62.449219 26 A 1 1 0 0 0 63.449219 25 A 1 1 0 0 0 62.449219 24 z M 40 28 C 39.689359 28 39.378718 28.056626 39.083984 28.169922 L 39.082031 28.169922 L 21.09375 35.105469 C 20.439989 35.356915 20 35.991519 20 36.695312 L 20 37.695312 L 20.347656 37.695312 C 20.53767 37.951569 20.786986 38.166852 21.095703 38.285156 L 21.107422 38.289062 L 23 38.962891 L 23 46.949219 C 22.407261 47.298872 22 47.93915 22 48.667969 C 22 49.107901 22.112036 49.334438 22.222656 49.623047 C 22.333277 49.911656 22.468875 50.205574 22.601562 50.478516 C 22.866941 51.024399 23.128906 51.490234 23.128906 51.490234 L 24 53.042969 L 24.871094 51.490234 C 24.871094 51.490234 25.133059 51.024399 25.398438 50.478516 C 25.531126 50.205574 25.666723 49.911656 25.777344 49.623047 C 25.887964 49.334438 26 49.107901 26 48.667969 C 26 47.939135 25.592739 47.298867 25 46.949219 L 25 39.675781 L 29 41.101562 L 29 46 L 29 46.146484 L 29.017578 46.146484 C 29.062926 46.554758 29.276533 46.896911 29.503906 47.119141 C 29.758716 47.368185 30.04077 47.531911 30.357422 47.681641 C 30.990725 47.9811 31.779641 48.203975 32.732422 48.394531 C 34.637984 48.775644 37.184532 49 40 49 C 42.815468 49 45.362016 48.775644 47.267578 48.394531 C 48.220359 48.203975 49.009275 47.9811 49.642578 47.681641 C 49.95923 47.531911 50.241284 47.368185 50.496094 47.119141 C 50.723467 46.896911 50.937074 46.554758 50.982422 46.146484 L 51 46.146484 L 51 46 L 51 41.103516 L 58.894531 38.289062 L 58.90625 38.285156 C 59.21367 38.166227 59.462754 37.951363 59.652344 37.695312 L 60 37.695312 L 60 36.695312 C 60 35.992055 59.559837 35.356638 58.90625 35.105469 L 58.904297 35.105469 L 40.916016 28.169922 C 40.621282 28.056626 40.310641 28 40 28 z M 15.054688 28.667969 A 1 1 0 0 0 14.054688 29.667969 A 1 1 0 0 0 15.054688 30.667969 A 1 1 0 0 0 16.054688 29.667969 A 1 1 0 0 0 15.054688 28.667969 z M 64.945312 28.667969 A 1 1 0 0 0 63.945312 29.667969 A 1 1 0 0 0 64.945312 30.667969 A 1 1 0 0 0 65.945312 29.667969 A 1 1 0 0 0 64.945312 28.667969 z M 40 30 C 40.066988 30 40.133 30.012404 40.197266 30.037109 L 57.441406 36.685547 L 50.917969 39.009766 C 50.754129 38.446646 50.346767 37.967766 49.783203 37.738281 L 49.78125 37.738281 C 48.393896 37.175619 44.917451 36 40 36 C 35.082549 36 31.606151 37.175619 30.21875 37.738281 L 30.216797 37.738281 C 29.655001 37.967061 29.246572 38.445355 29.082031 39.007812 L 22.5625 36.683594 L 39.800781 30.037109 C 39.865047 30.012404 39.933012 30 40 30 z M 13.519531 33.732422 A 1 1 0 0 0 12.519531 34.732422 A 1 1 0 0 0 13.519531 35.732422 A 1 1 0 0 0 14.519531 34.732422 A 1 1 0 0 0 13.519531 33.732422 z M 66.480469 33.732422 A 1 1 0 0 0 65.480469 34.732422 A 1 1 0 0 0 66.480469 35.732422 A 1 1 0 0 0 67.480469 34.732422 A 1 1 0 0 0 66.480469 33.732422 z M 40 38 C 44.577591 38 47.780599 39.087453 49 39.580078 L 49 44.080078 C 48.491166 43.900076 47.933856 43.738724 47.267578 43.605469 C 45.362016 43.224356 42.815468 43 40 43 C 37.184532 43 34.637984 43.224356 32.732422 43.605469 C 32.066144 43.738724 31.508834 43.900076 31 44.080078 L 31 39.580078 C 32.219401 39.087453 35.422409 38 40 38 z M 13 39 A 1 1 0 0 0 12 40 A 1 1 0 0 0 13 41 A 1 1 0 0 0 14 40 A 1 1 0 0 0 13 39 z M 67 39 A 1 1 0 0 0 66 40 A 1 1 0 0 0 67 41 A 1 1 0 0 0 68 40 A 1 1 0 0 0 67 39 z M 13.519531 44.267578 A 1 1 0 0 0 12.519531 45.267578 A 1 1 0 0 0 13.519531 46.267578 A 1 1 0 0 0 14.519531 45.267578 A 1 1 0 0 0 13.519531 44.267578 z M 66.480469 44.267578 A 1 1 0 0 0 65.480469 45.267578 A 1 1 0 0 0 66.480469 46.267578 A 1 1 0 0 0 67.480469 45.267578 A 1 1 0 0 0 66.480469 44.267578 z M 40 45 C 42.70738 45 45.161274 45.223661 46.875 45.566406 C 47.54018 45.699442 47.966602 45.853286 48.359375 46 C 47.966602 46.146714 47.54018 46.300558 46.875 46.433594 C 45.161274 46.776339 42.70738 47 40 47 C 37.29262 47 34.838726 46.776339 33.125 46.433594 C 32.45982 46.300558 32.033398 46.146714 31.640625 46 C 32.033398 45.853286 32.45982 45.699442 33.125 45.566406 C 34.838726 45.223661 37.29262 45 40 45 z M 15.054688 49.332031 A 1 1 0 0 0 14.054688 50.332031 A 1 1 0 0 0 15.054688 51.332031 A 1 1 0 0 0 16.054688 50.332031 A 1 1 0 0 0 15.054688 49.332031 z M 64.945312 49.332031 A 1 1 0 0 0 63.945312 50.332031 A 1 1 0 0 0 64.945312 51.332031 A 1 1 0 0 0 65.945312 50.332031 A 1 1 0 0 0 64.945312 49.332031 z M 17.550781 54 A 1 1 0 0 0 16.550781 55 A 1 1 0 0 0 17.550781 56 A 1 1 0 0 0 18.550781 55 A 1 1 0 0 0 17.550781 54 z M 62.449219 54 A 1 1 0 0 0 61.449219 55 A 1 1 0 0 0 62.449219 56 A 1 1 0 0 0 63.449219 55 A 1 1 0 0 0 62.449219 54 z M 20.908203 58.091797 A 1 1 0 0 0 19.908203 59.091797 A 1 1 0 0 0 20.908203 60.091797 A 1 1 0 0 0 21.908203 59.091797 A 1 1 0 0 0 20.908203 58.091797 z M 59.091797 58.091797 A 1 1 0 0 0 58.091797 59.091797 A 1 1 0 0 0 59.091797 60.091797 A 1 1 0 0 0 60.091797 59.091797 A 1 1 0 0 0 59.091797 58.091797 z M 25 61.449219 A 1 1 0 0 0 24 62.449219 A 1 1 0 0 0 25 63.449219 A 1 1 0 0 0 26 62.449219 A 1 1 0 0 0 25 61.449219 z M 55 61.449219 A 1 1 0 0 0 54 62.449219 A 1 1 0 0 0 55 63.449219 A 1 1 0 0 0 56 62.449219 A 1 1 0 0 0 55 61.449219 z M 29.667969 63.945312 A 1 1 0 0 0 28.667969 64.945312 A 1 1 0 0 0 29.667969 65.945312 A 1 1 0 0 0 30.667969 64.945312 A 1 1 0 0 0 29.667969 63.945312 z M 50.332031 63.945312 A 1 1 0 0 0 49.332031 64.945312 A 1 1 0 0 0 50.332031 65.945312 A 1 1 0 0 0 51.332031 64.945312 A 1 1 0 0 0 50.332031 63.945312 z M 34.732422 65.480469 A 1 1 0 0 0 33.732422 66.480469 A 1 1 0 0 0 34.732422 67.480469 A 1 1 0 0 0 35.732422 66.480469 A 1 1 0 0 0 34.732422 65.480469 z M 45.267578 65.480469 A 1 1 0 0 0 44.267578 66.480469 A 1 1 0 0 0 45.267578 67.480469 A 1 1 0 0 0 46.267578 66.480469 A 1 1 0 0 0 45.267578 65.480469 z M 40 66 A 1 1 0 0 0 39 67 A 1 1 0 0 0 40 68 A 1 1 0 0 0 41 67 A 1 1 0 0 0 40 66 z"/></svg>