<svg fill="#000000" xmlns="http://www.w3.org/2000/svg"  viewBox="0 0 80 80" width="80px" height="80px"><path d="M 40 7 C 28.414063 7 19 16.414063 19 28 C 19 31.0625 20.3125 34.886719 22.214844 39.042969 C 24.117188 43.199219 26.632813 47.652344 29.144531 51.753906 C 34.171875 59.964844 39.195313 66.777344 39.195313 66.777344 L 40 67.867188 L 40.804688 66.777344 C 40.804688 66.777344 45.828125 59.964844 50.855469 51.753906 C 53.367188 47.652344 55.882813 43.199219 57.785156 39.042969 C 59.6875 34.886719 61 31.0625 61 28 C 61 16.414063 51.585938 7 40 7 Z M 40 9 C 50.503906 9 59 17.496094 59 28 C 59 30.460938 57.8125 34.167969 55.964844 38.207031 C 54.117188 42.25 51.632813 46.648438 49.144531 50.710938 C 44.816406 57.78125 41.050781 63.007813 40 64.453125 C 38.949219 63.007813 35.183594 57.78125 30.855469 50.710938 C 28.367188 46.648438 25.882813 42.25 24.035156 38.207031 C 22.1875 34.167969 21 30.460938 21 28 C 21 17.496094 29.496094 9 40 9 Z M 40 12 C 39.449219 12 39 12.449219 39 13 C 39 13.550781 39.449219 14 40 14 C 40.550781 14 41 13.550781 41 13 C 41 12.449219 40.550781 12 40 12 Z M 36.15625 12.511719 C 36.054688 12.507813 35.957031 12.519531 35.859375 12.546875 C 35.324219 12.6875 35.007813 13.234375 35.152344 13.769531 C 35.296875 14.304688 35.84375 14.621094 36.375 14.476563 C 36.910156 14.332031 37.226563 13.785156 37.082031 13.25 C 36.96875 12.828125 36.59375 12.527344 36.15625 12.511719 Z M 43.875 12.515625 C 43.425781 12.515625 43.03125 12.820313 42.917969 13.253906 C 42.773438 13.789063 43.089844 14.335938 43.625 14.480469 C 44.15625 14.621094 44.703125 14.304688 44.847656 13.769531 C 44.992188 13.238281 44.675781 12.691406 44.140625 12.546875 C 44.054688 12.523438 43.964844 12.511719 43.875 12.515625 Z M 32.476563 14.011719 C 32.308594 14.011719 32.144531 14.058594 32 14.140625 C 31.769531 14.273438 31.601563 14.492188 31.535156 14.75 C 31.464844 15.007813 31.5 15.28125 31.636719 15.511719 C 31.910156 15.988281 32.523438 16.152344 33 15.875 C 33.476563 15.597656 33.640625 14.988281 33.363281 14.511719 C 33.183594 14.191406 32.84375 14 32.476563 14.011719 Z M 47.453125 14.011719 C 47.113281 14.027344 46.804688 14.214844 46.636719 14.511719 C 46.5 14.738281 46.464844 15.011719 46.535156 15.269531 C 46.601563 15.527344 46.769531 15.746094 47 15.875 C 47.476563 16.152344 48.089844 15.988281 48.363281 15.511719 C 48.640625 15.03125 48.476563 14.421875 48 14.144531 C 47.835938 14.046875 47.644531 14.003906 47.453125 14.011719 Z M 29.40625 16.390625 C 29.136719 16.390625 28.875 16.496094 28.6875 16.6875 C 28.296875 17.074219 28.296875 17.710938 28.6875 18.097656 C 29.074219 18.488281 29.710938 18.488281 30.097656 18.097656 C 30.488281 17.710938 30.488281 17.074219 30.097656 16.6875 C 29.914063 16.5 29.667969 16.394531 29.40625 16.390625 Z M 50.621094 16.390625 C 50.351563 16.386719 50.089844 16.492188 49.898438 16.6875 C 49.507813 17.074219 49.507813 17.710938 49.898438 18.097656 C 50.289063 18.488281 50.921875 18.488281 51.3125 18.097656 C 51.703125 17.710938 51.703125 17.074219 51.3125 16.6875 C 51.128906 16.5 50.882813 16.398438 50.621094 16.390625 Z M 52.964844 19.5 C 52.796875 19.503906 52.632813 19.550781 52.488281 19.632813 C 52.257813 19.765625 52.089844 19.984375 52.023438 20.242188 C 51.953125 20.496094 51.988281 20.769531 52.125 21 C 52.398438 21.476563 53.011719 21.640625 53.488281 21.363281 C 53.964844 21.089844 54.132813 20.476563 53.855469 20 C 53.671875 19.683594 53.332031 19.492188 52.964844 19.5 Z M 26.964844 19.5 C 26.625 19.519531 26.316406 19.707031 26.144531 20 C 25.867188 20.476563 26.03125 21.089844 26.511719 21.363281 C 26.738281 21.5 27.011719 21.535156 27.269531 21.464844 C 27.527344 21.398438 27.746094 21.230469 27.875 21 C 28.152344 20.523438 27.988281 19.910156 27.511719 19.636719 C 27.34375 19.539063 27.152344 19.492188 26.964844 19.5 Z M 40 22 C 36.699219 22 34 24.699219 34 28 C 34 31.300781 36.699219 34 40 34 C 43.300781 34 46 31.300781 46 28 C 46 24.699219 43.300781 22 40 22 Z M 25.5 23.121094 C 25.054688 23.121094 24.660156 23.425781 24.546875 23.859375 C 24.476563 24.117188 24.511719 24.390625 24.644531 24.617188 C 24.777344 24.847656 24.996094 25.015625 25.253906 25.082031 C 25.789063 25.226563 26.335938 24.910156 26.480469 24.375 C 26.621094 23.84375 26.304688 23.296875 25.769531 23.152344 C 25.683594 23.128906 25.59375 23.117188 25.5 23.121094 Z M 54.527344 23.121094 C 54.425781 23.117188 54.328125 23.125 54.230469 23.152344 C 53.695313 23.296875 53.378906 23.84375 53.523438 24.375 C 53.589844 24.632813 53.757813 24.851563 53.988281 24.984375 C 54.21875 25.117188 54.492188 25.15625 54.75 25.085938 C 55.003906 25.015625 55.222656 24.847656 55.355469 24.621094 C 55.488281 24.390625 55.523438 24.117188 55.453125 23.859375 C 55.339844 23.4375 54.964844 23.136719 54.527344 23.121094 Z M 40 24 C 42.222656 24 44 25.777344 44 28 C 44 30.222656 42.222656 32 40 32 C 37.777344 32 36 30.222656 36 28 C 36 25.777344 37.777344 24 40 24 Z M 25 27 C 24.449219 27 24 27.449219 24 28 C 24 28.550781 24.449219 29 25 29 C 25.550781 29 26 28.550781 26 28 C 26 27.449219 25.550781 27 25 27 Z M 55 27 C 54.449219 27 54 27.449219 54 28 C 54 28.550781 54.449219 29 55 29 C 55.550781 29 56 28.550781 56 28 C 56 27.449219 55.550781 27 55 27 Z M 25.546875 30.882813 C 25.449219 30.878906 25.347656 30.890625 25.25 30.917969 C 24.71875 31.058594 24.402344 31.605469 24.546875 32.140625 C 24.6875 32.675781 25.234375 32.992188 25.769531 32.847656 C 26.304688 32.703125 26.621094 32.15625 26.476563 31.625 C 26.363281 31.199219 25.988281 30.898438 25.546875 30.882813 Z M 54.480469 30.882813 C 54.03125 30.886719 53.640625 31.191406 53.523438 31.625 C 53.378906 32.160156 53.695313 32.707031 54.230469 32.847656 C 54.765625 32.992188 55.3125 32.675781 55.453125 32.140625 C 55.597656 31.609375 55.28125 31.0625 54.75 30.917969 C 54.660156 30.894531 54.570313 30.882813 54.480469 30.882813 Z M 25.75 53.941406 C 15.296875 55.386719 7 58.464844 7 63 C 7 69.496094 24.003906 73 40 73 C 55.996094 73 73 69.496094 73 63 C 73 58.464844 64.703125 55.386719 54.25 53.941406 C 53.871094 54.566406 53.488281 55.183594 53.109375 55.789063 C 64.070313 57.183594 71 60.210938 71 63 C 71 66.785156 58.269531 71 40 71 C 21.730469 71 9 66.785156 9 63 C 9 60.210938 15.929688 57.183594 26.890625 55.789063 C 26.511719 55.183594 26.128906 54.566406 25.75 53.941406 Z"/></svg>