<svg fill="#000000" xmlns="http://www.w3.org/2000/svg"  viewBox="0 0 80 80" width="80px" height="80px"><path d="M 27 7 C 24.800781 7 23 8.800781 23 11 C 23 11.679688 23.1875 12.3125 23.492188 12.875 L 16.15625 19.644531 C 15.535156 19.242188 14.792969 19 14 19 C 11.800781 19 10 20.800781 10 23 C 10 25.199219 11.800781 27 14 27 C 16.199219 27 18 25.199219 18 23 C 18 22.320313 17.8125 21.6875 17.507813 21.125 L 24.839844 14.355469 C 25.464844 14.757813 26.203125 15 27 15 C 27.683594 15 28.320313 14.808594 28.886719 14.5 L 36.640625 22.855469 C 36.238281 23.476563 36 24.210938 36 25 C 36 27.199219 37.800781 29 40 29 C 42.199219 29 44 27.199219 44 25 C 44 24.714844 43.964844 24.433594 43.90625 24.164063 L 49.003906 21.617188 C 49.738281 22.457031 50.804688 23 52 23 C 54.199219 23 56 21.199219 56 19 C 56 18.625 55.929688 18.265625 55.832031 17.921875 L 61.164063 14.8125 C 61.890625 15.542969 62.894531 16 64 16 C 66.199219 16 68 14.199219 68 12 C 68 9.800781 66.199219 8 64 8 C 61.800781 8 60 9.800781 60 12 C 60 12.375 60.070313 12.730469 60.167969 13.078125 L 54.832031 16.1875 C 54.109375 15.457031 53.105469 15 52 15 C 49.800781 15 48 16.800781 48 19 C 48 19.285156 48.035156 19.566406 48.09375 19.835938 L 42.996094 22.386719 C 42.261719 21.542969 41.195313 21 40 21 C 39.316406 21 38.679688 21.191406 38.113281 21.5 L 30.359375 13.148438 C 30.761719 12.527344 31 11.789063 31 11 C 31 8.800781 29.199219 7 27 7 Z M 27 9 C 28.117188 9 29 9.882813 29 11 C 29 12.117188 28.117188 13 27 13 C 25.882813 13 25 12.117188 25 11 C 25 9.882813 25.882813 9 27 9 Z M 64 10 C 65.117188 10 66 10.882813 66 12 C 66 13.117188 65.117188 14 64 14 C 62.882813 14 62 13.117188 62 12 C 62 10.882813 62.882813 10 64 10 Z M 52 17 C 53.117188 17 54 17.882813 54 19 C 54 20.117188 53.117188 21 52 21 C 50.882813 21 50 20.117188 50 19 C 50 17.882813 50.882813 17 52 17 Z M 14 21 C 15.117188 21 16 21.882813 16 23 C 16 24.117188 15.117188 25 14 25 C 12.882813 25 12 24.117188 12 23 C 12 21.882813 12.882813 21 14 21 Z M 40 23 C 41.117188 23 42 23.882813 42 25 C 42 26.117188 41.117188 27 40 27 C 38.882813 27 38 26.117188 38 25 C 38 23.882813 38.882813 23 40 23 Z M 22 26.75 L 22 71 L 19 71 L 19 34.75 L 9 34.75 L 9 71 L 5 71 L 5 73 L 75 73 L 75 71 L 71 71 L 71 28.75 L 61 28.75 L 61 71 L 58 71 L 58 37.75 L 48 37.75 L 48 71 L 45 71 L 45 43.75 L 35 43.75 L 35 71 L 32 71 L 32 26.75 Z M 24 28.75 L 30 28.75 L 30 71 L 24 71 Z M 63 30.75 L 69 30.75 L 69 35 C 68.449219 35 68 35.449219 68 36 C 68 36.550781 68.449219 37 69 37 L 69 41 C 68.449219 41 68 41.449219 68 42 C 68 42.550781 68.449219 43 69 43 L 69 47 C 68.449219 47 68 47.449219 68 48 C 68 48.550781 68.449219 49 69 49 L 69 53 C 68.449219 53 68 53.449219 68 54 C 68 54.550781 68.449219 55 69 55 L 69 59 C 68.449219 59 68 59.449219 68 60 C 68 60.550781 68.449219 61 69 61 L 69 65 C 68.449219 65 68 65.449219 68 66 C 68 66.550781 68.449219 67 69 67 L 69 71 L 63 71 L 63 67 C 63.550781 67 64 66.550781 64 66 C 64 65.449219 63.550781 65 63 65 L 63 61 C 63.550781 61 64 60.550781 64 60 C 64 59.449219 63.550781 59 63 59 L 63 55 C 63.550781 55 64 54.550781 64 54 C 64 53.449219 63.550781 53 63 53 L 63 49 C 63.550781 49 64 48.550781 64 48 C 64 47.449219 63.550781 47 63 47 L 63 43 C 63.550781 43 64 42.550781 64 42 C 64 41.449219 63.550781 41 63 41 L 63 37 C 63.550781 37 64 36.550781 64 36 C 64 35.449219 63.550781 35 63 35 Z M 66 32 C 65.449219 32 65 32.449219 65 33 C 65 33.550781 65.449219 34 66 34 C 66.550781 34 67 33.550781 67 33 C 67 32.449219 66.550781 32 66 32 Z M 11 36.75 L 17 36.75 L 17 41 C 16.449219 41 16 41.449219 16 42 C 16 42.550781 16.449219 43 17 43 L 17 47 C 16.449219 47 16 47.449219 16 48 C 16 48.550781 16.449219 49 17 49 L 17 53 C 16.449219 53 16 53.449219 16 54 C 16 54.550781 16.449219 55 17 55 L 17 59 C 16.449219 59 16 59.449219 16 60 C 16 60.550781 16.449219 61 17 61 L 17 65 C 16.449219 65 16 65.449219 16 66 C 16 66.550781 16.449219 67 17 67 L 17 71 L 11 71 L 11 67 C 11.550781 67 12 66.550781 12 66 C 12 65.449219 11.550781 65 11 65 L 11 61 C 11.550781 61 12 60.550781 12 60 C 12 59.449219 11.550781 59 11 59 L 11 55 C 11.550781 55 12 54.550781 12 54 C 12 53.449219 11.550781 53 11 53 L 11 49 C 11.550781 49 12 48.550781 12 48 C 12 47.449219 11.550781 47 11 47 L 11 43 C 11.550781 43 12 42.550781 12 42 C 12 41.449219 11.550781 41 11 41 Z M 14 38 C 13.449219 38 13 38.449219 13 39 C 13 39.550781 13.449219 40 14 40 C 14.550781 40 15 39.550781 15 39 C 15 38.449219 14.550781 38 14 38 Z M 66 38 C 65.449219 38 65 38.449219 65 39 C 65 39.550781 65.449219 40 66 40 C 66.550781 40 67 39.550781 67 39 C 67 38.449219 66.550781 38 66 38 Z M 50 39.75 L 56 39.75 L 56 71 L 50 71 Z M 14 44 C 13.449219 44 13 44.449219 13 45 C 13 45.550781 13.449219 46 14 46 C 14.550781 46 15 45.550781 15 45 C 15 44.449219 14.550781 44 14 44 Z M 66 44 C 65.449219 44 65 44.449219 65 45 C 65 45.550781 65.449219 46 66 46 C 66.550781 46 67 45.550781 67 45 C 67 44.449219 66.550781 44 66 44 Z M 37 45.75 L 43 45.75 L 43 47 C 42.449219 47 42 47.449219 42 48 C 42 48.550781 42.449219 49 43 49 L 43 53 C 42.449219 53 42 53.449219 42 54 C 42 54.550781 42.449219 55 43 55 L 43 59 C 42.449219 59 42 59.449219 42 60 C 42 60.550781 42.449219 61 43 61 L 43 65 C 42.449219 65 42 65.449219 42 66 C 42 66.550781 42.449219 67 43 67 L 43 71 L 37 71 L 37 67 C 37.550781 67 38 66.550781 38 66 C 38 65.449219 37.550781 65 37 65 L 37 61 C 37.550781 61 38 60.550781 38 60 C 38 59.449219 37.550781 59 37 59 L 37 55 C 37.550781 55 38 54.550781 38 54 C 38 53.449219 37.550781 53 37 53 L 37 49 C 37.550781 49 38 48.550781 38 48 C 38 47.449219 37.550781 47 37 47 Z M 14 50 C 13.449219 50 13 50.449219 13 51 C 13 51.550781 13.449219 52 14 52 C 14.550781 52 15 51.550781 15 51 C 15 50.449219 14.550781 50 14 50 Z M 40 50 C 39.449219 50 39 50.449219 39 51 C 39 51.550781 39.449219 52 40 52 C 40.550781 52 41 51.550781 41 51 C 41 50.449219 40.550781 50 40 50 Z M 66 50 C 65.449219 50 65 50.449219 65 51 C 65 51.550781 65.449219 52 66 52 C 66.550781 52 67 51.550781 67 51 C 67 50.449219 66.550781 50 66 50 Z M 14 56 C 13.449219 56 13 56.449219 13 57 C 13 57.550781 13.449219 58 14 58 C 14.550781 58 15 57.550781 15 57 C 15 56.449219 14.550781 56 14 56 Z M 40 56 C 39.449219 56 39 56.449219 39 57 C 39 57.550781 39.449219 58 40 58 C 40.550781 58 41 57.550781 41 57 C 41 56.449219 40.550781 56 40 56 Z M 66 56 C 65.449219 56 65 56.449219 65 57 C 65 57.550781 65.449219 58 66 58 C 66.550781 58 67 57.550781 67 57 C 67 56.449219 66.550781 56 66 56 Z M 14 62 C 13.449219 62 13 62.449219 13 63 C 13 63.550781 13.449219 64 14 64 C 14.550781 64 15 63.550781 15 63 C 15 62.449219 14.550781 62 14 62 Z M 40 62 C 39.449219 62 39 62.449219 39 63 C 39 63.550781 39.449219 64 40 64 C 40.550781 64 41 63.550781 41 63 C 41 62.449219 40.550781 62 40 62 Z M 66 62 C 65.449219 62 65 62.449219 65 63 C 65 63.550781 65.449219 64 66 64 C 66.550781 64 67 63.550781 67 63 C 67 62.449219 66.550781 62 66 62 Z M 14 68 C 13.449219 68 13 68.449219 13 69 C 13 69.550781 13.449219 70 14 70 C 14.550781 70 15 69.550781 15 69 C 15 68.449219 14.550781 68 14 68 Z M 40 68 C 39.449219 68 39 68.449219 39 69 C 39 69.550781 39.449219 70 40 70 C 40.550781 70 41 69.550781 41 69 C 41 68.449219 40.550781 68 40 68 Z M 66 68 C 65.449219 68 65 68.449219 65 69 C 65 69.550781 65.449219 70 66 70 C 66.550781 70 67 69.550781 67 69 C 67 68.449219 66.550781 68 66 68 Z"/></svg>