<svg fill="#000000" xmlns="http://www.w3.org/2000/svg"  viewBox="0 0 80 80" width="80px" height="80px"><path d="M 14 10 C 11.801847 10 10 11.801847 10 14 L 10 66 C 10 68.198153 11.801847 70 14 70 L 66 70 C 68.198153 70 70 68.198153 70 66 L 70 56.855469 C 71.715801 56.4056 73 54.850335 73 53 L 73 47 C 73 45.149665 71.715801 43.5944 70 43.144531 L 70 14 C 70 11.801847 68.198153 10 66 10 L 14 10 z M 14 12 L 66 12 C 67.121847 12 68 12.878153 68 14 L 68 43 L 66.154297 43 A 1.0001 1.0001 0 0 0 65.984375 42.986328 A 1.0001 1.0001 0 0 0 65.839844 43 L 61.154297 43 A 1.0001 1.0001 0 0 0 60.984375 42.986328 A 1.0001 1.0001 0 0 0 60.839844 43 L 56.154297 43 A 1.0001 1.0001 0 0 0 55.984375 42.986328 A 1.0001 1.0001 0 0 0 55.839844 43 L 51.154297 43 A 1.0001 1.0001 0 0 0 50.984375 42.986328 A 1.0001 1.0001 0 0 0 50.839844 43 L 46.154297 43 A 1.0001 1.0001 0 0 0 45.984375 42.986328 A 1.0001 1.0001 0 0 0 45.839844 43 L 41.154297 43 A 1.0001 1.0001 0 0 0 40.984375 42.986328 A 1.0001 1.0001 0 0 0 40.839844 43 L 36.154297 43 A 1.0001 1.0001 0 0 0 35.984375 42.986328 A 1.0001 1.0001 0 0 0 35.839844 43 L 31.154297 43 A 1.0001 1.0001 0 0 0 30.984375 42.986328 A 1.0001 1.0001 0 0 0 30.839844 43 L 24 43 L 19 43 A 1.0001 1.0001 0 0 0 18 44 L 18 56 A 1.0001 1.0001 0 0 0 19 57 L 24 57 L 68 57 L 68 66 C 68 67.121847 67.121847 68 66 68 L 14 68 C 12.878153 68 12 67.121847 12 66 L 12 14 C 12 12.878153 12.878153 12 14 12 z M 39.984375 17.986328 A 1.0001 1.0001 0 0 0 39.796875 18.007812 C 34.713163 18.049813 31.281079 19.601203 29.150391 21.199219 C 26.990391 22.819219 26.105469 24.552734 26.105469 24.552734 A 1.0001 1.0001 0 0 0 26.064453 25.351562 L 29.064453 33.351562 A 1.0001 1.0001 0 0 0 30 34 L 50 34 A 1.0001 1.0001 0 0 0 50.935547 33.351562 L 53.935547 25.351562 A 1.0001 1.0001 0 0 0 53.894531 24.552734 C 53.894531 24.552734 53.009609 22.819219 50.849609 21.199219 C 48.718362 19.600781 45.28515 18.049022 40.199219 18.007812 A 1.0001 1.0001 0 0 0 39.984375 17.986328 z M 39 20.037109 L 39 23 A 1.0001 1.0001 0 1 0 41 23 L 41 20.037109 C 43.413138 20.142897 45.345797 20.607834 46.867188 21.236328 L 46.050781 23.683594 A 1.0005646 1.0005646 0 1 0 47.949219 24.316406 L 48.671875 22.148438 C 49.025365 22.363682 49.358346 22.581747 49.650391 22.800781 C 51.116014 23.899999 51.667113 24.74646 51.886719 25.119141 L 49.306641 32 L 42.166016 32 L 42.947266 27.314453 A 1 1 0 0 0 42 26 A 1 1 0 0 0 41 27 L 38.5 32 L 30.693359 32 L 28.113281 25.119141 C 28.332887 24.74646 28.883986 23.899999 30.349609 22.800781 C 30.641654 22.581747 30.974635 22.363682 31.328125 22.148438 L 32.050781 24.316406 A 1.0005646 1.0005646 0 1 0 33.949219 23.683594 L 33.132812 21.236328 C 34.654203 20.607834 36.586862 20.142897 39 20.037109 z M 15 24 C 14.45 24 14 24.45 14 25 C 14 25.55 14.45 26 15 26 C 15.55 26 16 25.55 16 25 C 16 24.45 15.55 24 15 24 z M 19 24 C 18.45 24 18 24.45 18 25 C 18 25.55 18.45 26 19 26 C 19.55 26 20 25.55 20 25 C 20 24.45 19.55 24 19 24 z M 23 24 C 22.45 24 22 24.45 22 25 C 22 25.55 22.45 26 23 26 C 23.55 26 24 25.55 24 25 C 24 24.45 23.55 24 23 24 z M 57 24 C 56.45 24 56 24.45 56 25 C 56 25.55 56.45 26 57 26 C 57.55 26 58 25.55 58 25 C 58 24.45 57.55 24 57 24 z M 61 24 C 60.45 24 60 24.45 60 25 C 60 25.55 60.45 26 61 26 C 61.55 26 62 25.55 62 25 C 62 24.45 61.55 24 61 24 z M 65 24 C 64.45 24 64 24.45 64 25 C 64 25.55 64.45 26 65 26 C 65.55 26 66 25.55 66 25 C 66 24.45 65.55 24 65 24 z M 20 45 L 23 45 L 23 48 A 1.0001 1.0001 0 0 0 24 49 C 24.56503 49 25 49.43497 25 50 C 25 50.56503 24.56503 51 24 51 A 1.0001 1.0001 0 0 0 23 52 L 23 55 L 20 55 L 20 45 z M 25 45 L 30 45 L 30 49 A 1.0001 1.0001 0 1 0 32 49 L 32 45 L 35 45 L 35 47 A 1.0001 1.0001 0 1 0 37 47 L 37 45 L 40 45 L 40 49 A 1.0001 1.0001 0 1 0 42 49 L 42 45 L 45 45 L 45 47 A 1.0001 1.0001 0 1 0 47 47 L 47 45 L 50 45 L 50 49 A 1.0001 1.0001 0 1 0 52 49 L 52 45 L 55 45 L 55 47 A 1.0001 1.0001 0 1 0 57 47 L 57 45 L 60 45 L 60 49 A 1.0001 1.0001 0 1 0 62 49 L 62 45 L 65 45 L 65 47 A 1.0001 1.0001 0 1 0 67 47 L 67 45 L 69 45 C 70.116666 45 71 45.883334 71 47 L 71 53 C 71 54.116666 70.116666 55 69 55 L 25 55 L 25 52.583984 C 26.106694 52.14058 27 51.256622 27 50 C 27 48.743378 26.106694 47.85942 25 47.416016 L 25 45 z"/></svg>