<svg width="80" height="80" viewBox="0 0 80 80" fill="none" xmlns="http://www.w3.org/2000/svg">
<path d="M51.1922 7C50.5663 7 49.9404 7.23702 49.4676 7.70985L47.7017 9.47574C47.5021 9.67532 47.3549 9.90645 47.2396 10.1491L46.4122 9.33599C45.9394 8.86316 45.3135 8.62614 44.6876 8.62614C44.0617 8.62614 43.4359 8.86316 42.963 9.33599L39.6059 12.6931C38.6603 13.6387 38.6603 15.1966 39.6059 16.1423L48.8753 25.4116L42.3326 31.9543C42.2637 32.0043 42.2032 32.0649 42.1531 32.1337L33.1379 41.149C33.067 41.2001 33.0048 41.2623 32.9537 41.3332L26.411 47.8759L17.1417 38.6065C16.6688 38.1337 16.043 37.8967 15.4171 37.8967C14.7912 37.8967 14.1653 38.1337 13.6925 38.6065L10.3354 41.9636C9.38972 42.9093 9.38972 44.4672 10.3354 45.4128L11.1485 46.2402C10.9058 46.3557 10.6747 46.5027 10.4751 46.7023L8.70924 48.4682C7.76358 49.4139 7.76358 50.9717 8.70924 51.9174L15.5394 58.7475L11.4851 62.8018C11.3327 62.9542 11.2471 63.161 11.2471 63.3766C11.2471 63.5922 11.3327 63.799 11.4851 63.9515L16.084 68.5504C16.2365 68.7028 16.4433 68.7885 16.6589 68.7885C16.8745 68.7885 17.0813 68.7028 17.2338 68.5504L21.288 64.4962L28.0832 71.2914C29.0289 72.237 30.5867 72.237 31.5324 71.2914L33.2983 69.5255C33.4984 69.3254 33.6466 69.0939 33.762 68.8506L34.6576 69.7351C35.6033 70.6808 37.1612 70.6808 38.1068 69.7351L41.4639 66.378C42.4096 65.4323 42.4096 63.8745 41.4639 62.9288L32.1597 53.6245L38.6769 47.1073C38.7706 47.0459 38.8506 46.9659 38.912 46.8722L47.8748 37.9094C47.9685 37.8481 48.0485 37.7681 48.1098 37.6744L54.6239 31.1603L63.9282 40.4645C64.8739 41.4102 66.4317 41.4102 67.3774 40.4645L70.7345 37.1074C71.6801 36.1618 71.6801 34.6039 70.7345 33.6582L69.85 32.7626C70.0933 32.6472 70.3248 32.499 70.5249 32.2989C70.5254 32.2989 70.5259 32.2989 70.5265 32.2989L72.2908 30.533C73.2364 29.5873 73.2364 28.0295 72.2908 27.0838L65.4956 20.2886L69.5498 16.2344C69.7022 16.0819 69.7879 15.8751 69.7879 15.6595C69.7879 15.4439 69.7022 15.2371 69.5498 15.0847L64.9509 10.4857C64.8739 10.4087 64.7822 10.3479 64.6813 10.307C64.5803 10.2661 64.4722 10.2459 64.3633 10.2475C64.1521 10.2509 63.9505 10.3363 63.8012 10.4857L59.7469 14.54L52.9168 7.70985C52.444 7.23702 51.8181 7 51.1922 7ZM51.1922 8.61661C51.3985 8.61661 51.6049 8.6974 51.7671 8.85958L59.0561 16.1486C59.1179 16.2425 59.1985 16.3225 59.2927 16.3837L63.6551 20.7476C63.7168 20.8414 63.7974 20.9214 63.8917 20.9826L71.141 28.2335C71.4654 28.5579 71.4654 29.0589 71.141 29.3833L69.3751 31.1492C69.0775 31.4468 68.6378 31.4581 68.3159 31.2095L67.9269 30.8157C67.8523 30.7373 67.763 30.6746 67.6639 30.6312C67.5649 30.5879 67.4582 30.5647 67.3501 30.563C67.242 30.5613 67.1346 30.5813 67.0343 30.6216C66.934 30.6619 66.8427 30.7219 66.7658 30.7979C66.689 30.8739 66.628 30.9645 66.5866 31.0644C66.5451 31.1643 66.524 31.2714 66.5245 31.3795C66.5249 31.4876 66.547 31.5946 66.5892 31.6941C66.6315 31.7936 66.6932 31.8837 66.7708 31.9591L66.9566 32.1464C66.9901 32.2018 67.03 32.253 67.0757 32.2989C67.124 32.3473 67.1799 32.3825 67.2313 32.4259L69.5816 34.8048C69.5826 34.8059 69.5837 34.8069 69.5848 34.808C69.9091 35.1323 69.9091 35.6334 69.5848 35.9577L66.2277 39.3148C65.9033 39.6392 65.4023 39.6392 65.0779 39.3148L50.6951 24.932C50.6433 24.8597 50.58 24.7964 50.5078 24.7446L40.7557 14.9926C40.4313 14.6682 40.4313 14.1672 40.7557 13.8428L44.1128 10.4857C44.4371 10.1614 44.9381 10.1614 45.2625 10.4857C45.2641 10.4873 45.2657 10.4889 45.2673 10.4905L47.265 12.4533C47.3107 12.5 47.3619 12.5411 47.4175 12.5756C47.501 12.6982 47.5933 12.8165 47.7017 12.9249C47.7766 13.003 47.8664 13.0653 47.9657 13.1082C48.065 13.1511 48.1718 13.1738 48.28 13.1749C48.3882 13.176 48.4955 13.1555 48.5956 13.1146C48.6958 13.0737 48.7868 13.0132 48.8633 12.9368C48.9398 12.8603 49.0002 12.7693 49.0411 12.6691C49.082 12.569 49.1025 12.4617 49.1014 12.3535C49.1003 12.2453 49.0776 12.1385 49.0347 12.0392C48.9918 11.9399 48.9295 11.8501 48.8514 11.7752C48.5271 11.4508 48.5271 10.9498 48.8514 10.6255L50.6173 8.85958C50.7795 8.6974 50.9859 8.61661 51.1922 8.61661ZM64.376 12.2103L67.8252 15.6595L64.3458 19.1389L60.8966 15.6897L64.376 12.2103ZM50.2743 13.4998C50.0587 13.4998 49.8519 13.5855 49.6994 13.7379C49.5469 13.8904 49.4612 14.0972 49.4612 14.3129C49.4612 14.5285 49.5469 14.7353 49.6994 14.8878C49.8519 15.0403 50.0587 15.1259 50.2743 15.1259C50.49 15.1259 50.6968 15.0403 50.8492 14.8878C51.0017 14.7353 51.0874 14.5285 51.0874 14.3129C51.0874 14.0972 51.0017 13.8904 50.8492 13.7379C50.6968 13.5855 50.49 13.4998 50.2743 13.4998ZM52.7135 15.939C52.4979 15.939 52.2911 16.0247 52.1386 16.1772C51.9861 16.3296 51.9005 16.5364 51.9005 16.7521C51.9005 16.9677 51.9861 17.1745 52.1386 17.327C52.2911 17.4795 52.4979 17.5652 52.7135 17.5652C52.9292 17.5652 53.136 17.4795 53.2885 17.327C53.4409 17.1745 53.5266 16.9677 53.5266 16.7521C53.5266 16.5364 53.4409 16.3296 53.2885 16.1772C53.136 16.0247 52.9292 15.939 52.7135 15.939ZM55.1527 18.3782C54.9371 18.3782 54.7303 18.4639 54.5778 18.6164C54.4253 18.7689 54.3397 18.9757 54.3397 19.1913C54.3397 19.4069 54.4253 19.6137 54.5778 19.7662C54.7303 19.9187 54.9371 20.0044 55.1527 20.0044C55.3684 20.0044 55.5752 19.9187 55.7277 19.7662C55.8801 19.6137 55.9658 19.4069 55.9658 19.1913C55.9658 18.9757 55.8801 18.7689 55.7277 18.6164C55.5752 18.4639 55.3684 18.3782 55.1527 18.3782ZM57.6094 20.8349C57.3938 20.8349 57.187 20.9206 57.0345 21.0731C56.882 21.2255 56.7964 21.4323 56.7964 21.648C56.7964 21.8636 56.882 22.0704 57.0345 22.2229C57.187 22.3754 57.3938 22.4611 57.6094 22.4611C57.8251 22.4611 58.0319 22.3754 58.1844 22.2229C58.3368 22.0704 58.4225 21.8636 58.4225 21.648C58.4225 21.4323 58.3368 21.2255 58.1844 21.0731C58.0319 20.9206 57.8251 20.8349 57.6094 20.8349ZM60.0486 23.2741C59.833 23.2741 59.6262 23.3598 59.4737 23.5123C59.3212 23.6647 59.2356 23.8716 59.2356 24.0872C59.2356 24.3028 59.3212 24.5096 59.4737 24.6621C59.6262 24.8146 59.833 24.9003 60.0486 24.9003C60.2643 24.9003 60.4711 24.8146 60.6236 24.6621C60.776 24.5096 60.8617 24.3028 60.8617 24.0872C60.8617 23.8716 60.776 23.6647 60.6236 23.5123C60.4711 23.3598 60.2643 23.2741 60.0486 23.2741ZM62.4879 25.7133C62.2722 25.7133 62.0654 25.799 61.9129 25.9515C61.7604 26.104 61.6748 26.3108 61.6748 26.5264C61.6748 26.742 61.7604 26.9489 61.9129 27.1013C62.0654 27.2538 62.2722 27.3395 62.4879 27.3395C62.7035 27.3395 62.9103 27.2538 63.0628 27.1013C63.2153 26.9489 63.3009 26.742 63.3009 26.5264C63.3009 26.3108 63.2153 26.104 63.0628 25.9515C62.9103 25.799 62.7035 25.7133 62.4879 25.7133ZM50.025 26.5613L53.4742 30.0105L47.4159 36.0689L43.9667 32.6197L50.025 26.5613ZM64.9271 28.1525C64.7114 28.1525 64.5046 28.2382 64.3521 28.3907C64.1997 28.5432 64.114 28.75 64.114 28.9656C64.114 29.1813 64.1997 29.3881 64.3521 29.5405C64.5046 29.693 64.7114 29.7787 64.9271 29.7787C65.1427 29.7787 65.3495 29.693 65.502 29.5405C65.6545 29.3881 65.7401 29.1813 65.7401 28.9656C65.7401 28.75 65.6545 28.5432 65.502 28.3907C65.3495 28.2382 65.1427 28.1525 64.9271 28.1525ZM42.8169 33.7694L46.2661 37.2186L38.218 45.2667L34.7688 41.8175L42.8169 33.7694ZM15.4171 39.5133C15.6234 39.5133 15.8298 39.5941 15.9919 39.7563L40.3142 64.0785C40.6386 64.4029 40.6386 64.9039 40.3142 65.2283L36.9571 68.5854C36.6327 68.9097 36.1317 68.9097 35.8074 68.5854C35.8063 68.5843 35.8053 68.5832 35.8042 68.5822L33.4253 66.2319C33.3819 66.1805 33.3466 66.1246 33.2983 66.0763C33.2505 66.0268 33.1966 65.9836 33.1379 65.9476L32.9584 65.7714C32.8831 65.6939 32.793 65.6321 32.6935 65.5899C32.594 65.5476 32.487 65.5256 32.3789 65.5251C32.2708 65.5246 32.1637 65.5457 32.0638 65.5872C31.9639 65.6286 31.8733 65.6896 31.7973 65.7664C31.7213 65.8433 31.6613 65.9346 31.621 66.0349C31.5807 66.1352 31.5607 66.2426 31.5624 66.3507C31.564 66.4588 31.5872 66.5655 31.6306 66.6645C31.674 66.7636 31.7367 66.8529 31.8151 66.9275L32.2105 67.3181C32.457 67.6401 32.4454 68.0789 32.1486 68.3757L30.3827 70.1416C30.0583 70.466 29.5573 70.466 29.2329 70.1416L9.85897 50.7677C9.53462 50.4433 9.53462 49.9423 9.85897 49.6179L11.6249 47.8521C11.9492 47.5277 12.4502 47.5277 12.7746 47.8521C12.8495 47.9301 12.9393 47.9924 13.0386 48.0353C13.1379 48.0782 13.2447 48.1009 13.3529 48.102C13.4611 48.1031 13.5684 48.0826 13.6685 48.0417C13.7687 48.0008 13.8597 47.9404 13.9361 47.8639C14.0126 47.7874 14.0731 47.6964 14.114 47.5962C14.1549 47.4961 14.1754 47.3888 14.1743 47.2806C14.1732 47.1724 14.1505 47.0656 14.1076 46.9663C14.0647 46.867 14.0024 46.7772 13.9243 46.7023C13.8151 46.5931 13.6955 46.5005 13.5718 46.4165C13.5382 46.3617 13.4982 46.311 13.4527 46.2656L11.4899 44.2679C11.4883 44.2663 11.4867 44.2647 11.4851 44.2631C11.1608 43.9387 11.1608 43.4377 11.4851 43.1134L14.8422 39.7563C15.0044 39.5941 15.2107 39.5133 15.4171 39.5133ZM33.6191 42.9673L37.0683 46.4165L31.0099 52.4748L27.5607 49.0256L33.6191 42.9673ZM15.3123 48.4619C15.0966 48.4619 14.8898 48.5475 14.7373 48.7C14.5849 48.8525 14.4992 49.0593 14.4992 49.2749C14.4992 49.4906 14.5849 49.6974 14.7373 49.8499C14.8898 50.0023 15.0966 50.088 15.3123 50.088C15.5279 50.088 15.7347 50.0023 15.8872 49.8499C16.0397 49.6974 16.1253 49.4906 16.1253 49.2749C16.1253 49.0593 16.0397 48.8525 15.8872 48.7C15.7347 48.5475 15.5279 48.4619 15.3123 48.4619ZM17.7515 50.9011C17.5358 50.9011 17.329 50.9867 17.1766 51.1392C17.0241 51.2917 16.9384 51.4985 16.9384 51.7141C16.9384 51.9298 17.0241 52.1366 17.1766 52.2891C17.329 52.4415 17.5358 52.5272 17.7515 52.5272C17.9671 52.5272 18.1739 52.4415 18.3264 52.2891C18.4789 52.1366 18.5645 51.9298 18.5645 51.7141C18.5645 51.4985 18.4789 51.2917 18.3264 51.1392C18.1739 50.9867 17.9671 50.9011 17.7515 50.9011ZM20.1907 53.3403C19.9751 53.3403 19.7682 53.4259 19.6158 53.5784C19.4633 53.7309 19.3776 53.9377 19.3776 54.1534C19.3776 54.369 19.4633 54.5758 19.6158 54.7283C19.7682 54.8808 19.9751 54.9664 20.1907 54.9664C20.4063 54.9664 20.6131 54.8808 20.7656 54.7283C20.9181 54.5758 21.0038 54.369 21.0038 54.1534C21.0038 53.9377 20.9181 53.7309 20.7656 53.5784C20.6131 53.4259 20.4063 53.3403 20.1907 53.3403ZM22.6474 55.797C22.4317 55.797 22.2249 55.8826 22.0724 56.0351C21.92 56.1876 21.8343 56.3944 21.8343 56.61C21.8343 56.8257 21.92 57.0325 22.0724 57.185C22.2249 57.3374 22.4317 57.4231 22.6474 57.4231C22.863 57.4231 23.0698 57.3374 23.2223 57.185C23.3748 57.0325 23.4604 56.8257 23.4604 56.61C23.4604 56.3944 23.3748 56.1876 23.2223 56.0351C23.0698 55.8826 22.863 55.797 22.6474 55.797ZM25.0866 58.2362C24.8709 58.2362 24.6641 58.3218 24.5117 58.4743C24.3592 58.6268 24.2735 58.8336 24.2735 59.0492C24.2735 59.2649 24.3592 59.4717 24.5117 59.6242C24.6641 59.7767 24.8709 59.8623 25.0866 59.8623C25.3022 59.8623 25.509 59.7767 25.6615 59.6242C25.814 59.4717 25.8997 59.2649 25.8997 59.0492C25.8997 58.8336 25.814 58.6268 25.6615 58.4743C25.509 58.3218 25.3022 58.2362 25.0866 58.2362ZM16.6891 59.8973L20.1383 63.3465L16.6589 66.8258L13.2097 63.3766L16.6891 59.8973ZM27.5258 60.6754C27.3102 60.6754 27.1033 60.761 26.9509 60.9135C26.7984 61.066 26.7127 61.2728 26.7127 61.4885C26.7127 61.7041 26.7984 61.9109 26.9509 62.0634C27.1033 62.2159 27.3102 62.3015 27.5258 62.3015C27.7414 62.3015 27.9482 62.2159 28.1007 62.0634C28.2532 61.9109 28.3389 61.7041 28.3389 61.4885C28.3389 61.2728 28.2532 61.066 28.1007 60.9135C27.9482 60.761 27.7414 60.6754 27.5258 60.6754ZM29.965 63.1146C29.7494 63.1146 29.5426 63.2003 29.3901 63.3527C29.2376 63.5052 29.1519 63.712 29.1519 63.9277C29.1519 64.1433 29.2376 64.3501 29.3901 64.5026C29.5426 64.6551 29.7494 64.7407 29.965 64.7407C30.1807 64.7407 30.3875 64.6551 30.5399 64.5026C30.6924 64.3501 30.7781 64.1433 30.7781 63.9277C30.7781 63.712 30.6924 63.5052 30.5399 63.3527C30.3875 63.2003 30.1807 63.1146 29.965 63.1146Z" fill="black"/>
</svg>
