<svg width="80" height="80" viewBox="0 0 80 80" fill="none" xmlns="http://www.w3.org/2000/svg">
<path d="M20.9844 9.98438C20.9375 9.98828 20.8867 9.99219 20.8398 10H16.0977L14.1367 28.6523C14.0508 29.0859 14 29.5352 14 30C14 33.5 16.6367 36.2891 20 36.7969V64C20 67.3008 22.6992 70 26 70C29.3008 70 32 67.3008 32 64V36.7969C35.3633 36.2891 38 33.5 38 30C38 29.5352 37.9492 29.0859 37.8633 28.6523L37.8594 28.6406L35.9023 10H31.1562C31.0977 9.99219 31.043 9.98438 30.9844 9.98438C30.9375 9.98828 30.8867 9.99219 30.8398 10H26.1562C26.0977 9.99219 26.043 9.98438 25.9844 9.98438C25.9375 9.98828 25.8867 9.99219 25.8398 10H21.1562C21.0977 9.99219 21.043 9.98438 20.9844 9.98438ZM49 10V64C49 67.3008 51.6992 70 55 70C58.3008 70 61 67.3008 61 64V45.4805L66.082 41.4141L65.9844 40.8359L62.6289 20.6992C61.6016 14.5312 56.2539 10 50 10H49ZM17.9023 12H20V23C19.9961 23.3594 20.1836 23.6953 20.4961 23.8789C20.8086 24.0586 21.1914 24.0586 21.5039 23.8789C21.8164 23.6953 22.0039 23.3594 22 23V12H25V23C24.9961 23.3594 25.1836 23.6953 25.4961 23.8789C25.8086 24.0586 26.1914 24.0586 26.5039 23.8789C26.8164 23.6953 27.0039 23.3594 27 23V12H30V23C29.9961 23.3594 30.1836 23.6953 30.4961 23.8789C30.8086 24.0586 31.1914 24.0586 31.5039 23.8789C31.8164 23.6953 32.0039 23.3594 32 23V12H34.0977L35.8789 28.9102L35.8906 28.9609C35.9609 29.2969 36 29.6445 36 30C36 32.7734 33.7734 35 31 35V37L30 36V64C30 66.2188 28.2188 68 26 68C23.7812 68 22 66.2188 22 64V36L21 37V35C18.2266 35 16 32.7734 16 30C16 29.6445 16.0391 29.2969 16.1094 28.9609L16.1211 28.9102L17.9023 12ZM51 12.1797C55.8281 12.6406 59.8477 16.1602 60.6562 21.0312L63.918 40.5859L57.1484 46H59V64C59 66.2188 57.2188 68 55 68C52.7812 68 51 66.2188 51 64V12.1797ZM21 26C20.4492 26 20 26.4492 20 27C20 27.5508 20.4492 28 21 28C21.5508 28 22 27.5508 22 27C22 26.4492 21.5508 26 21 26ZM26 26C25.4492 26 25 26.4492 25 27C25 27.5508 25.4492 28 26 28C26.5508 28 27 27.5508 27 27C27 26.4492 26.5508 26 26 26ZM31 26C30.4492 26 30 26.4492 30 27C30 27.5508 30.4492 28 31 28C31.5508 28 32 27.5508 32 27C32 26.4492 31.5508 26 31 26ZM26 35C25.4492 35 25 35.4492 25 36C25 36.5508 25.4492 37 26 37C26.5508 37 27 36.5508 27 36C27 35.4492 26.5508 35 26 35ZM26 39C25.4492 39 25 39.4492 25 40C25 40.5508 25.4492 41 26 41C26.5508 41 27 40.5508 27 40C27 39.4492 26.5508 39 26 39ZM26 43C25.4492 43 25 43.4492 25 44C25 44.5508 25.4492 45 26 45C26.5508 45 27 44.5508 27 44C27 43.4492 26.5508 43 26 43ZM55 43C54.4492 43 54 43.4492 54 44C54 44.5508 54.4492 45 55 45C55.5508 45 56 44.5508 56 44C56 43.4492 55.5508 43 55 43ZM26 47C25.4492 47 25 47.4492 25 48C25 48.5508 25.4492 49 26 49C26.5508 49 27 48.5508 27 48C27 47.4492 26.5508 47 26 47ZM55 47C54.4492 47 54 47.4492 54 48C54 48.5508 54.4492 49 55 49C55.5508 49 56 48.5508 56 48C56 47.4492 55.5508 47 55 47ZM26 51C25.4492 51 25 51.4492 25 52C25 52.5508 25.4492 53 26 53C26.5508 53 27 52.5508 27 52C27 51.4492 26.5508 51 26 51ZM55 51C54.4492 51 54 51.4492 54 52C54 52.5508 54.4492 53 55 53C55.5508 53 56 52.5508 56 52C56 51.4492 55.5508 51 55 51ZM26 55C25.4492 55 25 55.4492 25 56C25 56.5508 25.4492 57 26 57C26.5508 57 27 56.5508 27 56C27 55.4492 26.5508 55 26 55ZM55 55C54.4492 55 54 55.4492 54 56C54 56.5508 54.4492 57 55 57C55.5508 57 56 56.5508 56 56C56 55.4492 55.5508 55 55 55ZM26 59C25.4492 59 25 59.4492 25 60C25 60.5508 25.4492 61 26 61C26.5508 61 27 60.5508 27 60C27 59.4492 26.5508 59 26 59ZM55 59C54.4492 59 54 59.4492 54 60C54 60.5508 54.4492 61 55 61C55.5508 61 56 60.5508 56 60C56 59.4492 55.5508 59 55 59ZM26 63C25.4492 63 25 63.4492 25 64C25 64.5508 25.4492 65 26 65C26.5508 65 27 64.5508 27 64C27 63.4492 26.5508 63 26 63ZM55 63C54.4492 63 54 63.4492 54 64C54 64.5508 54.4492 65 55 65C55.5508 65 56 64.5508 56 64C56 63.4492 55.5508 63 55 63Z" fill="black"/>
</svg>
