<svg fill="#000000" xmlns="http://www.w3.org/2000/svg"  viewBox="0 0 64 64" width="64px" height="64px"><path d="M 30.265625 6 C 28.47853 6 27.065772 7.5974263 27.287109 9.3710938 L 28.787109 21.371094 A 1.0001 1.0001 0 0 0 28.787109 21.373047 C 28.975048 22.866068 30.260424 24 31.765625 24 L 32.234375 24 C 33.739576 24 35.025034 22.865464 35.212891 21.373047 A 1.0001 1.0001 0 0 0 35.212891 21.371094 L 36.712891 9.3710938 C 36.932705 7.5977767 35.52147 6 33.734375 6 L 30.265625 6 z M 30.265625 8 L 33.734375 8 C 34.35328 8 34.804702 8.510364 34.728516 9.125 L 33.228516 21.123047 C 33.164372 21.63263 32.747174 22 32.234375 22 L 31.765625 22 C 31.252826 22 30.835546 21.631979 30.771484 21.123047 L 29.271484 9.1230469 C 29.196099 8.5096457 29.64742 8 30.265625 8 z M 12.974609 16.005859 C 12.766793 16.005175 12.558574 16.025292 12.355469 16.066406 C 11.543049 16.230863 10.79815 16.723766 10.351562 17.498047 L 8.6171875 20.501953 C 7.7245517 22.049585 8.4018352 24.070591 10.048828 24.765625 L 21.191406 29.466797 C 22.577832 30.051812 24.202919 29.507467 24.955078 28.203125 L 25.189453 27.796875 C 25.94116 26.493319 25.601803 24.812843 24.402344 23.904297 L 14.759766 16.605469 C 14.225345 16.200892 13.598058 16.007914 12.974609 16.005859 z M 51.027344 16.005859 C 50.404444 16.007914 49.776608 16.200892 49.242188 16.605469 L 39.599609 23.904297 C 38.40015 24.812843 38.060793 26.493319 38.8125 27.796875 L 39.044922 28.203125 C 39.797081 29.507465 41.424122 30.051812 42.810547 29.466797 L 53.951172 24.765625 C 55.598165 24.070591 56.277401 22.049585 55.384766 20.501953 L 53.650391 17.498047 C 53.203804 16.723766 52.456951 16.230863 51.644531 16.066406 C 51.441426 16.025292 51.234977 16.005175 51.027344 16.005859 z M 12.748047 18.007812 C 13.015127 17.953772 13.306295 18.014612 13.552734 18.201172 L 23.193359 25.5 C 23.6019 25.809454 23.713324 26.352431 23.457031 26.796875 L 23.222656 27.203125 C 22.966816 27.646785 22.440325 27.823985 21.96875 27.625 L 10.826172 22.923828 C 10.255165 22.682862 10.040245 22.038322 10.349609 21.501953 L 12.083984 18.498047 C 12.238398 18.230328 12.480967 18.061856 12.748047 18.007812 z M 51.251953 18.007812 C 51.519033 18.061853 51.763555 18.230328 51.917969 18.498047 L 53.652344 21.501953 C 53.961708 22.038322 53.744834 22.682862 53.173828 22.923828 L 42.033203 27.625 C 41.56213 27.823774 41.03544 27.64575 40.779297 27.203125 L 40.544922 26.796875 C 40.288629 26.352431 40.3981 25.809454 40.806641 25.5 L 50.449219 18.201172 C 50.695659 18.014607 50.984873 17.953769 51.251953 18.007812 z M 13.992188 30.015625 C 13.439188 30.017625 12.994094 30.466531 12.996094 31.019531 L 13.003906 33.019531 C 13.005906 33.570531 13.452906 34.015625 14.003906 34.015625 L 14.005859 34.015625 C 14.558859 34.013625 15.005906 33.564719 15.003906 33.011719 L 14.996094 31.011719 C 14.994094 30.460719 14.547094 30.015625 13.996094 30.015625 L 13.992188 30.015625 z M 59.992188 30.015625 C 59.439187 30.017625 58.994094 30.466531 58.996094 31.019531 L 59.003906 33.019531 C 59.005906 33.570531 59.452906 34.015625 60.003906 34.015625 L 60.005859 34.015625 C 60.558859 34.013625 61.005906 33.564719 61.003906 33.011719 L 60.996094 31.011719 C 60.994094 30.460719 60.547094 30.015625 59.996094 30.015625 L 59.992188 30.015625 z M 8.9921875 30.033203 C 8.4391875 30.035203 7.9940938 30.484109 7.9960938 31.037109 L 8.0039062 33.035156 C 8.0059063 33.587156 8.4529062 34.03125 9.0039062 34.03125 L 9.0058594 34.03125 C 9.5588594 34.02925 10.005906 33.580344 10.003906 33.027344 L 9.9960938 31.029297 C 9.9940937 30.478297 9.5470938 30.033203 8.9960938 30.033203 L 8.9921875 30.033203 z M 54.992188 30.033203 C 54.439187 30.035203 53.994094 30.484109 53.996094 31.037109 L 54.003906 33.035156 C 54.005906 33.587156 54.452906 34.03125 55.003906 34.03125 L 55.005859 34.03125 C 55.558859 34.02925 56.005906 33.580344 56.003906 33.027344 L 55.996094 31.029297 C 55.994094 30.478297 55.547094 30.033203 54.996094 30.033203 L 54.992188 30.033203 z M 3.9921875 30.050781 C 3.4391875 30.052781 2.9940938 30.501687 2.9960938 31.054688 L 3.0039062 33.054688 C 3.0059062 33.605688 3.4529062 34.050781 4.0039062 34.050781 L 4.0058594 34.050781 C 4.5588594 34.048781 5.0059062 33.599875 5.0039062 33.046875 L 4.9960938 31.046875 C 4.9940937 30.495875 4.5470938 30.050781 3.9960938 30.050781 L 3.9921875 30.050781 z M 49.992188 30.050781 C 49.439187 30.052781 48.994094 30.501687 48.996094 31.054688 L 49.003906 33.054688 C 49.005906 33.605688 49.452906 34.050781 50.003906 34.050781 L 50.005859 34.050781 C 50.558859 34.048781 51.005906 33.599875 51.003906 33.046875 L 50.996094 31.046875 C 50.994094 30.495875 50.547094 30.050781 49.996094 30.050781 L 49.992188 30.050781 z M 22.257812 34.300781 C 21.898402 34.311546 21.53606 34.386951 21.189453 34.533203 L 10.048828 39.234375 C 8.4018352 39.929409 7.7225985 41.950415 8.6152344 43.498047 L 10.349609 46.501953 C 11.242782 48.050515 13.332693 48.473402 14.757812 47.394531 L 24.400391 40.095703 C 25.59985 39.187157 25.939207 37.506681 25.1875 36.203125 L 24.955078 35.796875 C 24.578998 35.144705 23.984236 34.683312 23.310547 34.457031 C 22.973702 34.343891 22.617223 34.290017 22.257812 34.300781 z M 41.742188 34.300781 C 41.383265 34.290017 41.026298 34.34389 40.689453 34.457031 C 40.015764 34.683312 39.421002 35.144705 39.044922 35.796875 L 38.810547 36.203125 C 38.05884 37.506681 38.398197 39.187157 39.597656 40.095703 L 49.240234 47.394531 C 50.665355 48.473402 52.755265 48.050515 53.648438 46.501953 L 55.382812 43.498047 C 56.275449 41.950415 55.598165 39.929409 53.951172 39.234375 L 42.808594 34.533203 C 42.461987 34.38695 42.10111 34.311546 41.742188 34.300781 z M 22.326172 36.294922 C 22.446124 36.290694 22.564501 36.308345 22.675781 36.345703 C 22.897869 36.420263 23.092768 36.5758 23.220703 36.796875 L 23.455078 37.203125 C 23.711371 37.647569 23.6019 38.190546 23.193359 38.5 L 13.550781 45.798828 C 13.057902 46.171957 12.390859 46.037391 12.082031 45.501953 L 10.347656 42.498047 C 10.038292 41.961678 10.255166 41.317138 10.826172 41.076172 L 21.966797 36.375 C 22.08469 36.325255 22.206219 36.29915 22.326172 36.294922 z M 41.671875 36.294922 C 41.791339 36.299149 41.913356 36.32525 42.03125 36.375 L 53.173828 41.076172 C 53.744835 41.317138 53.959755 41.961678 53.650391 42.498047 L 51.916016 45.501953 C 51.607188 46.037391 50.940145 46.171957 50.447266 45.798828 L 40.806641 38.5 C 40.3981 38.190546 40.286676 37.647569 40.542969 37.203125 L 40.777344 36.796875 C 40.905264 36.575045 41.101658 36.420422 41.324219 36.345703 C 41.435499 36.308343 41.552411 36.290694 41.671875 36.294922 z M 31.765625 40 C 30.260424 40 28.974966 41.134536 28.787109 42.626953 A 1.0001 1.0001 0 0 0 28.787109 42.628906 L 27.287109 54.628906 C 27.067295 56.402223 28.47853 58 30.265625 58 L 33.734375 58 C 35.52147 58 36.934228 56.402574 36.712891 54.628906 L 35.212891 42.628906 A 1.0001 1.0001 0 0 0 35.212891 42.626953 C 35.024952 41.133932 33.739576 40 32.234375 40 L 31.765625 40 z M 31.765625 42 L 32.234375 42 C 32.747174 42 33.164454 42.368021 33.228516 42.876953 L 34.728516 54.875 C 34.805179 55.489333 34.35328 56 33.734375 56 L 30.265625 56 C 29.64742 56 29.196575 55.490658 29.271484 54.876953 L 29.271484 54.875 L 30.771484 42.876953 C 30.835628 42.367417 31.252826 42 31.765625 42 z"/></svg>