<svg fill="#000000" xmlns="http://www.w3.org/2000/svg"  viewBox="0 0 80 80" width="80px" height="80px"><path d="M 15 9 L 15 71 L 48.003906 71 C 46.949906 70.437 45.963641 69.765 45.056641 69 L 17 69 L 17 11 L 49 11 L 49 25 L 63 25 L 63 40.519531 C 63.694 40.833531 64.36 41.194703 65 41.595703 L 65 23.585938 L 50.414062 9 L 15 9 z M 51 12.414062 L 61.585938 23 L 51 23 L 51 12.414062 z M 22 13 A 1 1 0 0 0 21 14 A 1 1 0 0 0 22 15 A 1 1 0 0 0 23 14 A 1 1 0 0 0 22 13 z M 22 17 A 1 1 0 0 0 21 18 A 1 1 0 0 0 22 19 A 1 1 0 0 0 23 18 A 1 1 0 0 0 22 17 z M 22 21 A 1 1 0 0 0 21 22 A 1 1 0 0 0 22 23 A 1 1 0 0 0 23 22 A 1 1 0 0 0 22 21 z M 22 25 A 1 1 0 0 0 21 26 A 1 1 0 0 0 22 27 A 1 1 0 0 0 23 26 A 1 1 0 0 0 22 25 z M 22 29 A 1 1 0 0 0 21 30 A 1 1 0 0 0 22 31 A 1 1 0 0 0 23 30 A 1 1 0 0 0 22 29 z M 30 31 L 30 33 L 56 33 L 56 31 L 30 31 z M 22 33 A 1 1 0 0 0 21 34 A 1 1 0 0 0 22 35 A 1 1 0 0 0 23 34 A 1 1 0 0 0 22 33 z M 22 37 A 1 1 0 0 0 21 38 A 1 1 0 0 0 22 39 A 1 1 0 0 0 23 38 A 1 1 0 0 0 22 37 z M 30 37 L 30 39 L 56 39 L 56 37 L 30 37 z M 22 41 A 1 1 0 0 0 21 42 A 1 1 0 0 0 22 43 A 1 1 0 0 0 23 42 A 1 1 0 0 0 22 41 z M 56 42 C 48.279858 42 42 48.279858 42 56 C 42 63.720142 48.279858 70 56 70 C 59.500678 70 62.697125 68.699599 65.154297 66.568359 L 67.015625 68.429688 L 66.78125 68.664062 C 65.93525 69.510064 65.934013 70.912402 66.78125 71.757812 L 74.382812 79.357422 C 75.228224 80.204659 76.630562 80.205328 77.476562 79.359375 L 79.357422 77.476562 C 80.204659 76.631152 80.205328 75.228814 79.359375 74.382812 L 71.757812 66.78125 C 71.335109 66.357631 70.773004 66.146521 70.210938 66.146484 C 69.64887 66.146448 69.087063 66.35825 68.664062 66.78125 L 68.429688 67.015625 L 66.568359 65.154297 C 68.699599 62.697125 70 59.500678 70 56 C 70 48.279858 63.720142 42 56 42 z M 30 43 L 30 45 L 43.050781 45 C 43.663781 44.28 44.333641 43.609 45.056641 43 L 30 43 z M 56 44 C 62.639262 44 68 49.360738 68 56 C 68 62.639262 62.639262 68 56 68 C 49.360738 68 44 62.639262 44 56 C 44 49.360738 49.360738 44 56 44 z M 22 45 A 1 1 0 0 0 21 46 A 1 1 0 0 0 22 47 A 1 1 0 0 0 23 46 A 1 1 0 0 0 22 45 z M 56 46 A 1 1 0 0 0 55 47 A 1 1 0 0 0 56 48 A 1 1 0 0 0 57 47 A 1 1 0 0 0 56 46 z M 51.498047 47.205078 A 1 1 0 0 0 50.498047 48.205078 A 1 1 0 0 0 51.498047 49.205078 A 1 1 0 0 0 52.498047 48.205078 A 1 1 0 0 0 51.498047 47.205078 z M 60.498047 47.207031 A 1 1 0 0 0 59.498047 48.207031 A 1 1 0 0 0 60.498047 49.207031 A 1 1 0 0 0 61.498047 48.207031 A 1 1 0 0 0 60.498047 47.207031 z M 22 49 A 1 1 0 0 0 21 50 A 1 1 0 0 0 22 51 A 1 1 0 0 0 23 50 A 1 1 0 0 0 22 49 z M 30 49 L 30 51 L 39.75 51 C 39.962 50.312 40.226531 49.648 40.519531 49 L 30 49 z M 63.792969 50.498047 A 1 1 0 0 0 62.792969 51.498047 A 1 1 0 0 0 63.792969 52.498047 A 1 1 0 0 0 64.792969 51.498047 A 1 1 0 0 0 63.792969 50.498047 z M 48.205078 50.501953 A 1 1 0 0 0 47.205078 51.501953 A 1 1 0 0 0 48.205078 52.501953 A 1 1 0 0 0 49.205078 51.501953 A 1 1 0 0 0 48.205078 50.501953 z M 22 53 A 1 1 0 0 0 21 54 A 1 1 0 0 0 22 55 A 1 1 0 0 0 23 54 A 1 1 0 0 0 22 53 z M 30 55 L 30 57 L 39.050781 57 C 39.031781 56.667 39 56.338 39 56 C 39 55.662 39.031781 55.333 39.050781 55 L 30 55 z M 47 55 A 1 1 0 0 0 46 56 A 1 1 0 0 0 47 57 A 1 1 0 0 0 48 56 A 1 1 0 0 0 47 55 z M 65 55 A 1 1 0 0 0 64 56 A 1 1 0 0 0 65 57 A 1 1 0 0 0 66 56 A 1 1 0 0 0 65 55 z M 22 57 A 1 1 0 0 0 21 58 A 1 1 0 0 0 22 59 A 1 1 0 0 0 23 58 A 1 1 0 0 0 22 57 z M 48.205078 59.498047 A 1 1 0 0 0 47.205078 60.498047 A 1 1 0 0 0 48.205078 61.498047 A 1 1 0 0 0 49.205078 60.498047 A 1 1 0 0 0 48.205078 59.498047 z M 63.792969 59.501953 A 1 1 0 0 0 62.792969 60.501953 A 1 1 0 0 0 63.792969 61.501953 A 1 1 0 0 0 64.792969 60.501953 A 1 1 0 0 0 63.792969 59.501953 z M 22 61 A 1 1 0 0 0 21 62 A 1 1 0 0 0 22 63 A 1 1 0 0 0 23 62 A 1 1 0 0 0 22 61 z M 60.498047 62.792969 A 1 1 0 0 0 59.498047 63.792969 A 1 1 0 0 0 60.498047 64.792969 A 1 1 0 0 0 61.498047 63.792969 A 1 1 0 0 0 60.498047 62.792969 z M 51.498047 62.794922 A 1 1 0 0 0 50.498047 63.794922 A 1 1 0 0 0 51.498047 64.794922 A 1 1 0 0 0 52.498047 63.794922 A 1 1 0 0 0 51.498047 62.794922 z M 56 64 A 1 1 0 0 0 55 65 A 1 1 0 0 0 56 66 A 1 1 0 0 0 57 65 A 1 1 0 0 0 56 64 z M 22 65 A 1 1 0 0 0 21 66 A 1 1 0 0 0 22 67 A 1 1 0 0 0 23 66 A 1 1 0 0 0 22 65 z M 70.210938 68.134766 C 70.256532 68.134921 70.301502 68.154933 70.341797 68.195312 L 77.945312 75.796875 C 78.027312 75.878875 78.026072 75.979958 77.945312 76.060547 L 76.0625 77.945312 C 75.9805 78.027312 75.879417 78.026072 75.798828 77.945312 L 75.796875 77.945312 L 68.195312 70.341797 C 68.114553 70.261207 68.113314 70.160125 68.195312 70.078125 L 70.078125 68.195312 C 70.119125 68.154314 70.165342 68.134611 70.210938 68.134766 z"/></svg>