<svg fill="#000000" xmlns="http://www.w3.org/2000/svg"  viewBox="0 0 80 80" width="80px" height="80px"><path d="M 35.167969 5.148438 C 34.894531 5.144531 34.632813 5.25 34.441406 5.445313 C 34.054688 5.832031 34.054688 6.46875 34.441406 6.859375 C 34.832031 7.246094 35.46875 7.246094 35.859375 6.859375 C 36.246094 6.46875 36.246094 5.832031 35.859375 5.445313 C 35.671875 5.257813 35.425781 5.15625 35.167969 5.148438 Z M 66.863281 5.152344 C 66.59375 5.148438 66.332031 5.253906 66.140625 5.445313 C 65.75 5.835938 65.75 6.46875 66.140625 6.859375 C 66.328125 7.046875 66.582031 7.152344 66.847656 7.152344 C 67.113281 7.152344 67.367188 7.046875 67.558594 6.859375 C 67.945313 6.46875 67.945313 5.835938 67.558594 5.445313 C 67.371094 5.261719 67.125 5.15625 66.863281 5.152344 Z M 51 7 C 43.28125 7 37 13.28125 37 21 C 37 25.757813 38.945313 28.601563 40.769531 30.558594 C 41.683594 31.535156 42.550781 32.316406 43.136719 33.027344 C 43.71875 33.734375 44 34.292969 44 35 L 44 41 C 44 43.199219 45.800781 45 48 45 L 49.277344 45 C 49.625 45.59375 50.261719 46 51 46 C 51.738281 46 52.375 45.59375 52.722656 45 L 54 45 C 56.199219 45 58 43.199219 58 41 L 58 35 C 58 34.292969 58.28125 33.734375 58.863281 33.027344 C 59.449219 32.316406 60.316406 31.535156 61.230469 30.558594 C 63.054688 28.601563 65 25.757813 65 21 C 65 13.28125 58.71875 7 51 7 Z M 64.035156 7.976563 C 63.765625 7.972656 63.503906 8.078125 63.3125 8.273438 C 62.921875 8.660156 62.921875 9.296875 63.3125 9.6875 C 63.703125 10.074219 64.335938 10.074219 64.726563 9.6875 C 65.117188 9.296875 65.117188 8.660156 64.726563 8.273438 C 64.542969 8.085938 64.296875 7.984375 64.035156 7.976563 Z M 37.996094 7.980469 C 37.722656 7.976563 37.460938 8.082031 37.269531 8.273438 C 36.882813 8.664063 36.882813 9.296875 37.269531 9.6875 C 37.660156 10.078125 38.296875 10.078125 38.6875 9.6875 C 39.074219 9.296875 39.074219 8.664063 38.6875 8.273438 C 38.5 8.089844 38.253906 7.984375 37.996094 7.980469 Z M 51 9 C 57.640625 9 63 14.359375 63 21 C 63 25.242188 61.445313 27.398438 59.769531 29.191406 C 58.933594 30.089844 58.050781 30.871094 57.324219 31.753906 C 56.59375 32.640625 56 33.707031 56 35 L 54 35 L 54 23.582031 C 55.105469 23.140625 56 22.257813 56 21 C 56 19.355469 54.644531 18 53 18 C 52.222656 18 51.535156 18.339844 51 18.832031 C 50.464844 18.339844 49.777344 18 49 18 C 47.355469 18 46 19.355469 46 21 C 46 22.257813 46.894531 23.140625 48 23.582031 L 48 35 L 46 35 C 46 33.707031 45.40625 32.640625 44.675781 31.753906 C 43.949219 30.871094 43.066406 30.089844 42.230469 29.191406 C 40.554688 27.398438 39 25.242188 39 21 C 39 14.359375 44.359375 9 51 9 Z M 67.714844 13.492188 C 67.578125 13.492188 67.445313 13.515625 67.324219 13.566406 C 66.8125 13.78125 66.570313 14.363281 66.78125 14.875 C 66.992188 15.386719 67.578125 15.628906 68.089844 15.417969 C 68.597656 15.203125 68.839844 14.621094 68.628906 14.109375 C 68.476563 13.738281 68.113281 13.496094 67.714844 13.492188 Z M 34.3125 13.496094 C 33.902344 13.484375 33.527344 13.730469 33.371094 14.109375 C 33.160156 14.621094 33.402344 15.203125 33.910156 15.417969 C 34.421875 15.628906 35.003906 15.386719 35.21875 14.875 C 35.429688 14.363281 35.1875 13.78125 34.675781 13.566406 C 34.5625 13.519531 34.4375 13.496094 34.3125 13.496094 Z M 29 20 C 28.449219 20 28 20.449219 28 21 C 28 21.550781 28.449219 22 29 22 C 29.550781 22 30 21.550781 30 21 C 30 20.449219 29.550781 20 29 20 Z M 33 20 C 32.449219 20 32 20.449219 32 21 C 32 21.550781 32.449219 22 33 22 C 33.550781 22 34 21.550781 34 21 C 34 20.449219 33.550781 20 33 20 Z M 49 20 C 49.566406 20 50 20.433594 50 21 L 52 21 C 52 20.433594 52.433594 20 53 20 C 53.566406 20 54 20.433594 54 21 C 54 21.566406 53.566406 22 53 22 L 52 22 L 52 35 L 50 35 L 50 22 L 49 22 C 48.433594 22 48 21.566406 48 21 C 48 20.433594 48.433594 20 49 20 Z M 69 20 C 68.449219 20 68 20.449219 68 21 C 68 21.550781 68.449219 22 69 22 C 69.550781 22 70 21.550781 70 21 C 70 20.449219 69.550781 20 69 20 Z M 73 20 C 72.449219 20 72 20.449219 72 21 C 72 21.550781 72.449219 22 73 22 C 73.550781 22 74 21.550781 74 21 C 74 20.449219 73.550781 20 73 20 Z M 67.730469 26.503906 C 67.316406 26.496094 66.941406 26.738281 66.78125 27.121094 C 66.570313 27.632813 66.8125 28.214844 67.324219 28.425781 C 67.835938 28.640625 68.417969 28.398438 68.628906 27.886719 C 68.84375 27.375 68.601563 26.792969 68.089844 26.578125 C 67.976563 26.53125 67.851563 26.507813 67.730469 26.503906 Z M 34.300781 26.503906 C 34.167969 26.503906 34.035156 26.53125 33.910156 26.582031 C 33.402344 26.792969 33.160156 27.378906 33.371094 27.890625 C 33.582031 28.398438 34.167969 28.640625 34.675781 28.429688 C 35.1875 28.21875 35.429688 27.632813 35.21875 27.125 C 35.066406 26.75 34.703125 26.507813 34.300781 26.503906 Z M 37.996094 32.019531 C 37.722656 32.015625 37.460938 32.121094 37.269531 32.3125 C 36.882813 32.703125 36.882813 33.339844 37.269531 33.730469 C 37.660156 34.117188 38.296875 34.117188 38.6875 33.730469 C 39.074219 33.339844 39.074219 32.703125 38.6875 32.3125 C 38.5 32.128906 38.253906 32.027344 37.996094 32.019531 Z M 64.035156 32.019531 C 63.765625 32.015625 63.503906 32.121094 63.3125 32.3125 C 62.921875 32.703125 62.921875 33.339844 63.3125 33.730469 C 63.703125 34.117188 64.335938 34.117188 64.726563 33.730469 C 64.914063 33.539063 65.019531 33.285156 65.019531 33.019531 C 65.019531 32.753906 64.914063 32.5 64.726563 32.3125 C 64.542969 32.128906 64.292969 32.023438 64.035156 32.019531 Z M 35.164063 34.847656 C 34.894531 34.84375 34.632813 34.949219 34.441406 35.140625 C 34.253906 35.328125 34.148438 35.582031 34.148438 35.847656 C 34.148438 36.113281 34.253906 36.367188 34.441406 36.558594 C 34.832031 36.945313 35.46875 36.945313 35.859375 36.558594 C 36.046875 36.367188 36.152344 36.113281 36.152344 35.847656 C 36.152344 35.582031 36.046875 35.328125 35.859375 35.140625 C 35.671875 34.957031 35.425781 34.851563 35.164063 34.847656 Z M 66.863281 34.847656 C 66.59375 34.84375 66.332031 34.949219 66.140625 35.140625 C 65.75 35.53125 65.75 36.167969 66.140625 36.558594 C 66.328125 36.746094 66.582031 36.851563 66.847656 36.851563 C 67.113281 36.851563 67.367188 36.746094 67.558594 36.558594 C 67.945313 36.167969 67.945313 35.53125 67.558594 35.140625 C 67.371094 34.957031 67.125 34.851563 66.863281 34.847656 Z M 46 37 L 56 37 L 56 39 L 50 39 L 50 41 L 56 41 C 56 42.117188 55.117188 43 54 43 L 48 43 C 46.882813 43 46 42.117188 46 41 L 48 41 L 48 39 L 46 39 Z M 23 39 C 22.019531 39 21.082031 39.1875 20.21875 39.511719 C 20.1875 39.515625 20.226563 39.496094 20.113281 39.53125 L 20.140625 39.523438 C 17.976563 40.179688 7.734375 43.035156 7.734375 43.035156 C 7.375 43.121094 7.09375 43.394531 7 43.746094 C 6.902344 44.101563 7.007813 44.480469 7.273438 44.734375 C 7.535156 44.984375 7.917969 45.074219 8.265625 44.964844 C 8.265625 44.964844 18.28125 42.175781 20.652344 41.457031 C 20.722656 41.445313 20.792969 41.429688 20.859375 41.402344 C 21.53125 41.144531 22.246094 41 23 41 C 24.097656 41 25.117188 41.296875 26.003906 41.8125 C 26.039063 41.835938 26.078125 41.851563 26.113281 41.867188 C 26.121094 41.871094 26.128906 41.875 26.136719 41.878906 C 32.4375 44.855469 45.238281 51.261719 45.269531 51.28125 L 45.277344 51.28125 C 45.214844 51.25 45.222656 51.253906 45.34375 51.332031 C 45.367188 51.347656 45.390625 51.363281 45.410156 51.375 C 46.359375 51.886719 47 52.855469 47 54 C 47 54.601563 46.824219 55.148438 46.519531 55.621094 C 45.640625 56.988281 43.9375 57.277344 42.347656 56.511719 C 42.328125 56.503906 42.308594 56.496094 42.292969 56.484375 L 41.609375 56.207031 C 41.277344 56.058594 40.886719 56.105469 40.597656 56.328125 C 40.308594 56.546875 40.160156 56.910156 40.214844 57.269531 C 40.265625 57.628906 40.511719 57.933594 40.855469 58.0625 L 41.535156 58.339844 L 41.480469 58.3125 C 43.492188 59.28125 45.949219 59.0625 47.519531 57.53125 L 48.609375 58.277344 C 48.886719 58.46875 49.246094 58.503906 49.558594 58.375 L 65.964844 51.59375 L 65.546875 50.761719 C 65.785156 51.234375 66.347656 51.441406 66.832031 51.234375 C 67.191406 51.082031 67.582031 51 68 51 C 69.667969 51 71 52.332031 71 54 C 71 55.140625 70.363281 56.105469 69.425781 56.621094 C 68.972656 56.867188 68.78125 57.425781 68.996094 57.902344 L 68.621094 57.058594 L 48.90625 67.523438 C 48.9375 67.507813 48.910156 67.519531 48.863281 67.535156 C 48.816406 67.550781 48.769531 67.566406 48.726563 67.589844 C 48.1875 67.847656 47.613281 68 47 68 C 46.410156 68 45.855469 67.863281 45.339844 67.625 C 45.316406 67.617188 45.292969 67.605469 45.269531 67.597656 C 45.195313 67.570313 45.183594 67.5625 45.234375 67.589844 L 20.390625 57.078125 C 20.164063 56.984375 19.914063 56.972656 19.683594 57.050781 L 7.683594 61.050781 C 7.160156 61.226563 6.875 61.792969 7.050781 62.316406 C 7.226563 62.839844 7.792969 63.125 8.316406 62.949219 L 19.957031 59.066406 L 44.429688 69.417969 C 44.582031 69.488281 44.613281 69.488281 44.578125 69.472656 C 45.308594 69.800781 46.128906 70 47 70 C 47.941406 70 48.820313 69.765625 49.59375 69.390625 C 49.652344 69.371094 49.707031 69.359375 49.78125 69.320313 C 49.792969 69.316406 49.804688 69.308594 49.8125 69.304688 L 70.378906 58.390625 C 70.546875 58.300781 70.683594 58.167969 70.777344 58.003906 C 72.066406 57.105469 73 55.695313 73 54 C 73 51.25 70.75 49 68 49 C 67.453125 49 66.945313 49.148438 66.453125 49.3125 L 66.449219 49.3125 C 66.316406 49.3125 66.183594 49.335938 66.0625 49.390625 L 49.292969 56.320313 L 48.46875 55.761719 C 48.699219 55.191406 49 54.648438 49 54 C 49 52.101563 47.917969 50.453125 46.359375 49.613281 L 46.429688 49.65625 C 46.464844 49.675781 46.398438 49.613281 46.21875 49.515625 C 46.210938 49.511719 46.203125 49.507813 46.191406 49.503906 C 46.191406 49.503906 33.328125 43.058594 26.96875 40.058594 C 26.960938 40.054688 26.953125 40.050781 26.949219 40.046875 C 26.835938 40 26.828125 40 26.878906 40.019531 C 25.730469 39.378906 24.410156 39 23 39 Z M 29 52 C 28.449219 52 28 52.449219 28 53 C 28 53.550781 28.449219 54 29 54 C 29.550781 54 30 53.550781 30 53 C 30 52.449219 29.550781 52 29 52 Z M 32 53 C 31.449219 53 31 53.449219 31 54 C 31 54.550781 31.449219 55 32 55 C 32.550781 55 33 54.550781 33 54 C 33 53.449219 32.550781 53 32 53 Z M 35 54 C 34.449219 54 34 54.449219 34 55 C 34 55.550781 34.449219 56 35 56 C 35.550781 56 36 55.550781 36 55 C 36 54.449219 35.550781 54 35 54 Z M 38 55 C 37.449219 55 37 55.449219 37 56 C 37 56.550781 37.449219 57 38 57 C 38.550781 57 39 56.550781 39 56 C 39 55.449219 38.550781 55 38 55 Z"/></svg>