<svg width="80" height="80" viewBox="0 0 80 80" fill="none" xmlns="http://www.w3.org/2000/svg">
<path d="M40.4922 9C31.4277 9.07575 25.0708 13.5844 22.668 15.5234C20.8003 17.0321 15.3139 21.5867 13.0371 29.7305C12.5575 31.4461 9.16528 42.6813 15.2461 49.6562C17.4925 52.2326 19.9359 52.7603 22.1953 53.2461C24.4547 53.7319 26.6167 54.2003 29.3164 56.7305C31.523 58.7987 32.3176 60.6113 33.3184 62.5938C34.3191 64.5762 35.5457 66.7045 38.4082 68.8066C39.4693 69.5857 42.8787 72.0385 47.7539 72.5605C55.5837 73.3998 61.4907 68.6795 62.6211 67.7832C68.813 62.8742 70.9293 55.369 71.5 49.0352C72.0707 42.7013 71.1118 37.476 70.9805 36.8066C70.58 34.7671 67.2995 19.0782 53.4492 12.1074C47.4084 9.06678 41.9054 8.98852 40.4922 9ZM40.5078 11C41.8026 10.9895 46.9336 11.0652 52.5508 13.8926C65.4285 20.3738 68.65 35.3109 69.0195 37.1934C69.1222 37.717 70.0514 42.8219 69.5078 48.8555C68.9642 54.8891 66.964 61.7888 61.3789 66.2168C60.2493 67.1125 54.897 71.3151 47.9668 70.5723C43.652 70.1103 40.6147 67.9443 39.5918 67.1934C37.0143 65.3005 36.0767 63.6174 35.1055 61.6934C34.1342 59.7693 33.149 57.5803 30.6836 55.2695C27.6673 52.4427 24.8956 51.7809 22.6172 51.291C20.3388 50.8011 18.6405 50.5074 16.7539 48.3438V48.3418C11.6462 42.4847 14.4685 32.0378 14.9629 30.2695C17.0681 22.7393 22.0975 18.5554 23.9238 17.0801C26.163 15.2731 32.1003 11.0703 40.5078 11ZM39.5 20.8809C33.1219 20.8809 27.9277 26.0567 27.9277 32.4199C27.9277 38.7831 33.1219 43.9609 39.5 43.9609C45.8781 43.9609 51.0723 38.7831 51.0723 32.4199C51.0723 26.0567 45.8781 20.8809 39.5 20.8809ZM39.5 22.8809C44.8006 22.8809 49.0723 27.141 49.0723 32.4199C49.0723 37.6989 44.8006 41.9609 39.5 41.9609C34.1994 41.9609 29.9277 37.6989 29.9277 32.4199C29.9277 27.141 34.1994 22.8809 39.5 22.8809ZM62.707 34.8418C62.5775 34.8288 62.443 34.8409 62.3105 34.8809C61.7905 35.0409 61.4904 35.6009 61.6504 36.1309C61.7804 36.5609 62.1794 36.8301 62.6094 36.8301C62.6994 36.8301 62.8004 36.8191 62.9004 36.7891C63.4304 36.6291 63.7305 36.0691 63.5605 35.5391C63.4405 35.1416 63.0956 34.8807 62.707 34.8418ZM63.8027 38.7246C63.674 38.7002 63.5379 38.7005 63.4004 38.7305C62.8604 38.8405 62.5209 39.3702 62.6309 39.9102C62.7309 40.3802 63.1394 40.6992 63.6094 40.6992C63.6794 40.6992 63.7503 40.6997 63.8203 40.6797C64.3603 40.5697 64.6998 40.04 64.5898 39.5C64.5073 39.095 64.189 38.7977 63.8027 38.7246ZM64.1309 42.6602C63.5809 42.7202 63.1802 43.2098 63.2402 43.7598C63.3002 44.2698 63.7305 44.6504 64.2305 44.6504H64.3398C64.8898 44.5904 65.2905 44.1008 65.2305 43.5508C65.1705 43.0008 64.6809 42.6002 64.1309 42.6602ZM64.4492 46.6504C63.8892 46.6404 63.4395 47.0906 63.4395 47.6406C63.4295 48.1906 63.8797 48.6404 64.4297 48.6504H64.4395C64.9895 48.6504 65.4295 48.2004 65.4395 47.6504C65.4395 47.1004 64.9992 46.6504 64.4492 46.6504ZM64.2891 50.6406C63.7491 50.5706 63.2399 50.95 63.1699 51.5C63.0899 52.04 63.4695 52.5509 64.0195 52.6309H64.1602C64.6502 52.6309 65.0804 52.2695 65.1504 51.7695C65.2204 51.2295 64.8391 50.7206 64.2891 50.6406ZM63.2031 54.541C62.8145 54.5799 62.4696 54.8427 62.3496 55.2402C62.1796 55.7702 62.4798 56.3302 63.0098 56.4902C63.0998 56.5202 63.2008 56.5391 63.3008 56.5391C63.7308 56.5391 64.1198 56.2601 64.2598 55.8301C64.4198 55.3001 64.1196 54.7401 63.5996 54.5801C63.4671 54.5401 63.3327 54.528 63.2031 54.541ZM38.9707 57C38.8401 57.0037 38.7076 57.0323 38.5801 57.0898C38.0801 57.3198 37.8598 57.9099 38.0898 58.4199C38.2598 58.7799 38.62 59 39 59C39.14 59 39.2799 58.9702 39.4199 58.9102C39.9199 58.6802 40.1402 58.0898 39.9102 57.5898C39.7377 57.2073 39.3626 56.9887 38.9707 57ZM61.8574 58.2188C61.4665 58.1752 61.0716 58.3607 60.8691 58.7207C60.5991 59.2007 60.77 59.8101 61.25 60.0801C61.41 60.1701 61.5802 60.2109 61.7402 60.2109C62.0902 60.2109 62.4294 60.0292 62.6094 59.6992H62.6191C62.8891 59.2192 62.7202 58.6098 62.2402 58.3398C62.1177 58.2723 61.9877 58.2333 61.8574 58.2188ZM41.2207 60.3438C40.9657 60.33 40.705 60.4146 40.5 60.5996C40.09 60.9696 40.0499 61.5998 40.4199 62.0098C40.6199 62.2298 40.8899 62.3398 41.1699 62.3398C41.4099 62.3398 41.6498 62.2598 41.8398 62.0898C42.2498 61.7198 42.2802 61.0897 41.9102 60.6797C41.7252 60.4697 41.4757 60.3575 41.2207 60.3438ZM59.3496 61.3691C59.0946 61.3604 58.8359 61.4506 58.6309 61.6406C58.2309 62.0206 58.2098 62.6505 58.5898 63.0605C58.7798 63.2705 59.0503 63.3691 59.3203 63.3691C59.5603 63.3691 59.81 63.2796 60 63.0996C60.4 62.7196 60.4191 62.0895 60.0391 61.6895C59.8541 61.4845 59.6046 61.3779 59.3496 61.3691ZM44.3867 62.8203C43.9962 62.78 43.6052 62.9723 43.4102 63.3398C43.1502 63.8198 43.3305 64.4295 43.8105 64.6895C43.9605 64.7695 44.1291 64.8105 44.2891 64.8105C44.6391 64.8105 44.9899 64.6291 45.1699 64.2891C45.4299 63.8091 45.2495 63.1995 44.7695 62.9395C44.647 62.872 44.5169 62.8338 44.3867 62.8203ZM55.9844 63.4512C55.8539 63.4445 55.7198 63.4623 55.5898 63.5098C55.0698 63.7098 54.81 64.2808 55 64.8008C55.15 65.2008 55.5295 65.4492 55.9395 65.4492C56.0495 65.4492 56.1693 65.4306 56.2793 65.3906C56.7993 65.2006 57.0709 64.6294 56.8809 64.1094C56.7384 63.7194 56.3758 63.4713 55.9844 63.4512ZM48.2305 64.1406C47.6905 64.0406 47.1703 64.3995 47.0703 64.9395C46.9703 65.4795 47.3291 65.9996 47.8691 66.0996C47.9291 66.1196 47.9908 66.1191 48.0508 66.1191C48.5308 66.1191 48.9491 65.7808 49.0391 65.3008C49.1391 64.7508 48.7705 64.2306 48.2305 64.1406ZM51.9492 64.3008C51.3992 64.3508 50.9891 64.8309 51.0391 65.3809C51.0791 65.9009 51.5191 66.3008 52.0391 66.3008C52.0591 66.3008 52.0891 66.2991 52.1191 66.2891C52.6691 66.2491 53.0793 65.7609 53.0293 65.2109C52.9893 64.6609 52.4992 64.2508 51.9492 64.3008Z" fill="black"/>
</svg>
