<svg fill="#000000" xmlns="http://www.w3.org/2000/svg"  viewBox="0 0 50 50" width="50px" height="50px"><path d="M 21.8125 0 C 21.335938 0.0898438 20.992188 0.511719 21 1 C 21 6.605469 21.476563 10.722656 22.34375 13.71875 C 23.152344 16.507813 24.320313 18.378906 25.875 19.375 C 25.84375 19.996094 25.8125 20.632813 25.8125 21.3125 C 25.8125 21.710938 25.835938 22.691406 25.78125 24.09375 C 25.726563 25.496094 25.574219 27.25 25.1875 28.9375 C 24.800781 30.625 24.179688 32.199219 23.28125 33.3125 C 22.382813 34.425781 21.28125 35.09375 19.59375 35.09375 C 16.746094 35.09375 15.441406 34.691406 14.15625 34.25 C 12.871094 33.808594 11.523438 33.3125 9.1875 33.3125 C 7.007813 33.3125 4.75 34.402344 2.84375 37.6875 C 1.605469 39.828125 0.0625 44.375 0.0625 44.375 C -0.0351563 44.628906 -0.0234375 44.910156 0.09375 45.15625 C 0.09375 45.15625 0.554688 46.054688 1.5625 46.75 C 2.570313 47.445313 4.195313 47.984375 6.375 47.59375 C 6.75 47.523438 7.054688 47.246094 7.15625 46.875 C 7.308594 46.34375 7.511719 45.261719 7.9375 44.21875 C 8.152344 43.695313 8.414063 43.21875 8.65625 42.9375 C 8.898438 42.65625 9.046875 42.59375 9.1875 42.59375 C 9.988281 42.59375 10.472656 42.605469 11.03125 42.8125 C 11.589844 43.019531 12.308594 43.480469 13.40625 44.53125 C 16.234375 47.15625 19.542969 49.8125 25.90625 49.8125 C 36.230469 49.8125 46.40625 43.136719 49.09375 30.21875 L 49.0625 30.21875 C 50.753906 22.273438 49.46875 16.539063 46.84375 12.8125 C 44.21875 9.085938 40.339844 7.40625 37 7.40625 C 34.019531 7.40625 31.257813 7.921875 29.21875 9.84375 C 29.011719 9.289063 28.828125 8.582031 28.71875 7.65625 C 28.515625 5.933594 28.5 3.644531 28.5 1 C 28.5 0.449219 28.050781 0 27.5 0 L 22 0 C 21.96875 0 21.9375 0 21.90625 0 C 21.875 0 21.84375 0 21.8125 0 Z M 23.0625 2 L 26.53125 2 C 26.539063 4.183594 26.558594 6.25 26.75 7.875 C 26.925781 9.371094 27.1875 10.65625 27.8125 11.625 C 26.996094 12.988281 26.40625 14.730469 26.09375 16.90625 C 25.410156 16.136719 24.761719 14.960938 24.25 13.1875 C 23.523438 10.671875 23.125 6.910156 23.0625 2 Z M 37 9.40625 C 39.660156 9.40625 42.96875 10.773438 45.21875 13.96875 C 47.46875 17.164063 48.734375 22.226563 47.125 29.78125 C 44.613281 41.863281 35.382813 47.8125 25.90625 47.8125 C 20.070313 47.8125 17.554688 45.636719 14.78125 43.0625 C 13.578125 41.914063 12.667969 41.28125 11.75 40.9375 C 10.832031 40.59375 9.988281 40.59375 9.1875 40.59375 C 8.328125 40.59375 7.632813 41.078125 7.15625 41.625 C 6.679688 42.171875 6.355469 42.828125 6.09375 43.46875 C 5.699219 44.4375 5.59375 45.101563 5.46875 45.625 C 4.148438 45.738281 3.253906 45.464844 2.71875 45.09375 C 2.285156 44.792969 2.253906 44.648438 2.15625 44.5 C 2.394531 43.832031 3.683594 40.207031 4.5625 38.6875 C 6.253906 35.773438 7.566406 35.3125 9.1875 35.3125 C 11.25 35.3125 12.160156 35.695313 13.5 36.15625 C 14.839844 36.617188 16.542969 37.09375 19.59375 37.09375 C 21.855469 37.09375 23.652344 36.070313 24.84375 34.59375 C 26.035156 33.117188 26.699219 31.238281 27.125 29.375 C 27.550781 27.511719 27.722656 25.640625 27.78125 24.15625 C 27.839844 22.671875 27.8125 21.515625 27.8125 21.3125 C 27.8125 16.953125 28.511719 14.199219 29.625 12.46875 C 29.839844 12.332031 29.996094 12.121094 30.0625 11.875 C 30.0625 11.863281 30.0625 11.855469 30.0625 11.84375 C 30.160156 11.722656 30.273438 11.609375 30.375 11.5 C 31.914063 9.898438 34.117188 9.40625 37 9.40625 Z"/></svg>