<svg fill="#000000" xmlns="http://www.w3.org/2000/svg"  viewBox="0 0 80 80" width="80px" height="80px"><path d="M 40 7 C 36.053003 7 31.471139 7.8898635 30.984375 7.9863281 A 1.0001 1.0001 0 0 0 30.242188 8.3339844 L 22.390625 15.205078 L 15.789062 19.605469 C 12.172663 22.015319 10 26.076708 10 30.421875 L 10 59 A 1.0001 1.0001 0 0 0 11 60 L 18 60 L 18 70 A 1.0001 1.0001 0 0 0 19 71 L 37.832031 71 A 1.0001 1.0001 0 0 0 38.158203 71 L 61 71 A 1.0001 1.0001 0 0 0 62 70 L 62 60 L 69 60 A 1.0001 1.0001 0 0 0 70 59 L 70 30.421875 C 70 26.076708 67.827152 22.016279 64.210938 19.605469 L 57.685547 15.255859 A 1.0001 1.0001 0 0 0 57.542969 15.146484 L 49.761719 8.3378906 A 1.0001 1.0001 0 0 0 49.027344 7.9882812 C 48.569628 7.8974333 43.961276 7 40 7 z M 40 9 C 43.137364 9 46.717163 9.6051159 47.982422 9.8359375 C 47.944755 11.34339 47.8083 12.757101 47.589844 14.087891 A 1 1 0 0 0 47.283203 15.697266 C 46.315723 20.053468 44.497204 23.531108 42.634766 26.748047 C 41.712865 28.340421 40.882893 29.863855 40.039062 31.400391 C 38.856512 30.26388 34.197399 25.312449 32.570312 15.822266 A 1 1 0 0 0 32.306641 14.048828 C 32.144377 12.728166 32.052129 11.315143 32.023438 9.8339844 C 33.295252 9.6021518 36.868248 9 40 9 z M 49.925781 11.136719 L 55.443359 15.964844 L 51.375 19.21875 A 1.0001 1.0001 0 0 0 51.050781 20.316406 L 52.824219 25.632812 L 40.435547 34.923828 C 41.447359 32.628154 42.87269 30.329984 44.365234 27.751953 C 46.89079 23.38963 49.482186 18.237659 49.925781 11.136719 z M 30.070312 11.140625 C 30.778294 25.333139 38.287523 32.538649 39.025391 33.214844 C 38.90449 33.465304 38.780793 33.724176 38.667969 33.976562 L 27.179688 25.621094 L 28.949219 20.316406 A 1.0001 1.0001 0 0 0 28.625 19.21875 L 24.558594 15.964844 L 30.070312 11.140625 z M 36 13 A 1 1 0 0 0 36 15 A 1 1 0 0 0 36 13 z M 40 13 A 1 1 0 0 0 40 15 A 1 1 0 0 0 40 13 z M 44 13 A 1 1 0 0 0 44 15 A 1 1 0 0 0 44 13 z M 22.945312 17.238281 L 26.830078 20.345703 L 25.050781 25.683594 A 1.0001 1.0001 0 0 0 25.412109 26.808594 L 37.951172 35.927734 C 37.406759 37.534893 37 39.187321 37 41 L 37 69 L 20 69 L 20 59 A 1.0001 1.0001 0 0 0 19 58 L 12 58 L 12 30.421875 C 12 26.743042 13.836837 23.309681 16.898438 21.269531 L 22.945312 17.238281 z M 57.054688 17.238281 L 63.101562 21.269531 C 66.163348 23.310719 68 26.743042 68 30.421875 L 68 58 L 61 58 A 1.0001 1.0001 0 0 0 60 59 L 60 69 L 39 69 L 39 41 C 39 39.424746 39.740123 37.944699 41 37 L 54.599609 26.800781 A 1.0001 1.0001 0 0 0 54.949219 25.683594 L 53.169922 20.345703 L 57.054688 17.238281 z M 19 34 A 1 1 0 0 0 19 36 A 1 1 0 0 0 19 34 z M 51 34 A 1.0001 1.0001 0 0 0 50 35 L 50 41 C 50 42.64497 51.35503 44 53 44 L 57 44 A 1.0001 1.0001 0 1 0 57 42 L 53 42 C 52.43497 42 52 41.56503 52 41 L 52 36 L 57 36 A 1.0001 1.0001 0 1 0 57 34 L 51 34 z M 61 34 A 1 1 0 0 0 61 36 A 1 1 0 0 0 61 34 z M 19 38 A 1 1 0 0 0 19 40 A 1 1 0 0 0 19 38 z M 61 38 A 1 1 0 0 0 61 40 A 1 1 0 0 0 61 38 z M 19 42 A 1 1 0 0 0 19 44 A 1 1 0 0 0 19 42 z M 43.5 42 A 1.5 1.5 0 0 0 43.5 45 A 1.5 1.5 0 0 0 43.5 42 z M 61 42 A 1 1 0 0 0 61 44 A 1 1 0 0 0 61 42 z M 19 46 A 1 1 0 0 0 19 48 A 1 1 0 0 0 19 46 z M 61 46 A 1 1 0 0 0 61 48 A 1 1 0 0 0 61 46 z M 43.5 49 A 1.5 1.5 0 0 0 43.5 52 A 1.5 1.5 0 0 0 43.5 49 z M 19 50 A 1 1 0 0 0 19 52 A 1 1 0 0 0 19 50 z M 23 50 A 1.0001 1.0001 0 1 0 23 52 L 28 52 L 28 59 C 28 59.56503 27.56503 60 27 60 L 23 60 A 1.0001 1.0001 0 1 0 23 62 L 27 62 C 28.64497 62 30 60.64497 30 59 L 30 51 A 1.0001 1.0001 0 0 0 29 50 L 23 50 z M 51 50 A 1.0001 1.0001 0 0 0 50 51 L 50 60 C 50 61.64497 51.35503 63 53 63 L 57 63 A 1.0001 1.0001 0 1 0 57 61 L 53 61 C 52.43497 61 52 60.56503 52 60 L 52 52 L 57 52 A 1.0001 1.0001 0 1 0 57 50 L 51 50 z M 61 50 A 1 1 0 0 0 61 52 A 1 1 0 0 0 61 50 z M 19 54 A 1 1 0 0 0 19 56 A 1 1 0 0 0 19 54 z M 61 54 A 1 1 0 0 0 61 56 A 1 1 0 0 0 61 54 z M 43.5 55 A 1.5 1.5 0 0 0 43.5 58 A 1.5 1.5 0 0 0 43.5 55 z"/></svg>