<svg fill="#000000" xmlns="http://www.w3.org/2000/svg"  viewBox="0 0 80 80" width="80px" height="80px"><path d="M 18 4 C 10.832 4 5 9.832 5 17 C 5 24.168 10.832 30 18 30 C 19.529 30 21.017828 29.72775 22.423828 29.21875 L 21.123047 27.544922 C 20.118047 27.841922 19.071 28 18 28 C 11.935 28 7 23.065 7 17 C 7 10.935 11.935 6 18 6 C 23.727464 6 28.441622 10.402442 28.949219 16 L 18 16 A 1.0001 1.0001 0 0 0 17.210938 17.613281 L 39.527344 46.355469 L 39.978516 63.185547 L 33.744141 64.431641 C 31.572522 64.865964 30 66.785434 30 69 L 30 70 L 31 70 L 32 70 L 54 70 L 55 70 L 56 70 L 56 69 C 56 66.785434 54.426339 64.865873 52.253906 64.431641 L 46.021484 63.185547 L 46.472656 46.355469 L 68.789062 17.613281 A 1.0001 1.0001 0 0 0 68 16 L 30.949219 16 C 30.435624 9.2986479 24.830669 4 18 4 z M 18 8 A 1 1 0 0 0 17 9 A 1 1 0 0 0 18 10 A 1 1 0 0 0 19 9 A 1 1 0 0 0 18 8 z M 12 10 A 1 1 0 0 0 11 11 A 1 1 0 0 0 12 12 A 1 1 0 0 0 13 11 A 1 1 0 0 0 12 10 z M 24 10 A 1 1 0 0 0 23 11 A 1 1 0 0 0 24 12 A 1 1 0 0 0 25 11 A 1 1 0 0 0 24 10 z M 18 11 A 1 1 0 0 0 17 12 A 1 1 0 0 0 18 13 A 1 1 0 0 0 19 12 A 1 1 0 0 0 18 11 z M 14 12 A 1 1 0 0 0 13 13 A 1 1 0 0 0 14 14 A 1 1 0 0 0 15 13 A 1 1 0 0 0 14 12 z M 22 12 A 1 1 0 0 0 21 13 A 1 1 0 0 0 22 14 A 1 1 0 0 0 23 13 A 1 1 0 0 0 22 12 z M 10 16 A 1 1 0 0 0 9 17 A 1 1 0 0 0 10 18 A 1 1 0 0 0 11 17 A 1 1 0 0 0 10 16 z M 13 16 A 1 1 0 0 0 12 17 A 1 1 0 0 0 13 18 A 1 1 0 0 0 14 17 A 1 1 0 0 0 13 16 z M 20.041016 18 L 30 18 L 65.958984 18 L 44.710938 45.361328 A 1.0003738 1.0003738 0 0 0 44.691406 45.386719 A 1.0003738 1.0003738 0 0 0 44.544922 45.648438 A 1.0003738 1.0003738 0 0 0 44.494141 45.839844 A 1.0003738 1.0003738 0 0 0 44.482422 45.931641 A 1.0001376 1.0001376 0 0 0 44.482422 45.939453 A 1.0003738 1.0003738 0 0 0 44.480469 45.972656 L 43.978516 64.814453 L 51.861328 66.392578 C 52.740636 66.568339 53.306613 67.222675 53.644531 68 L 32.355469 68 C 32.6934 67.222648 33.258245 66.568273 34.136719 66.392578 L 42.021484 64.814453 L 41.519531 45.982422 A 1.0001376 1.0001376 0 0 0 41.519531 45.972656 A 1.0001 1.0001 0 0 0 41.224609 45.277344 L 20.041016 18 z M 14 20 A 1 1 0 0 0 13 21 A 1 1 0 0 0 14 22 A 1 1 0 0 0 15 21 A 1 1 0 0 0 14 20 z M 29 20 A 1 1 0 0 0 28 21 A 1 1 0 0 0 29 22 A 1 1 0 0 0 30 21 A 1 1 0 0 0 29 20 z M 18 21 A 1 1 0 0 0 17 22 A 1 1 0 0 0 18 23 A 1 1 0 0 0 19 22 A 1 1 0 0 0 18 21 z M 12 22 A 1 1 0 0 0 11 23 A 1 1 0 0 0 12 24 A 1 1 0 0 0 13 23 A 1 1 0 0 0 12 22 z M 18 24 A 1 1 0 0 0 17 25 A 1 1 0 0 0 18 26 A 1 1 0 0 0 19 25 A 1 1 0 0 0 18 24 z M 27 24 A 1 1 0 0 0 26 25 A 1 1 0 0 0 27 26 A 1 1 0 0 0 28 25 A 1 1 0 0 0 27 24 z M 31 24 A 1 1 0 0 0 30 25 A 1 1 0 0 0 31 26 A 1 1 0 0 0 32 25 A 1 1 0 0 0 31 24 z M 35 24 A 1 1 0 0 0 34 25 A 1 1 0 0 0 35 26 A 1 1 0 0 0 36 25 A 1 1 0 0 0 35 24 z M 39 24 A 1 1 0 0 0 38 25 A 1 1 0 0 0 39 26 A 1 1 0 0 0 40 25 A 1 1 0 0 0 39 24 z M 43 24 A 1 1 0 0 0 42 25 A 1 1 0 0 0 43 26 A 1 1 0 0 0 44 25 A 1 1 0 0 0 43 24 z M 47 24 A 1 1 0 0 0 46 25 A 1 1 0 0 0 47 26 A 1 1 0 0 0 48 25 A 1 1 0 0 0 47 24 z M 51 24 A 1 1 0 0 0 50 25 A 1 1 0 0 0 51 26 A 1 1 0 0 0 52 25 A 1 1 0 0 0 51 24 z M 55 24 A 1 1 0 0 0 54 25 A 1 1 0 0 0 55 26 A 1 1 0 0 0 56 25 A 1 1 0 0 0 55 24 z M 59 24 A 1 1 0 0 0 58 25 A 1 1 0 0 0 59 26 A 1 1 0 0 0 60 25 A 1 1 0 0 0 59 24 z"/></svg>