<svg fill="#000000" xmlns="http://www.w3.org/2000/svg"  viewBox="0 0 80 80" width="80px" height="80px"><path d="M 15 9 L 15 71 L 41 71 L 41 69 L 17 69 L 17 11 L 63 11 L 63 47 L 63 50 L 63 52.142578 C 63.327 52.057578 63.659 52 64 52 C 64.344 52 64.676 52.057625 65 52.140625 L 65 50 L 65 47 L 65 9 L 15 9 z M 22 13 A 1 1 0 0 0 21 14 A 1 1 0 0 0 22 15 A 1 1 0 0 0 23 14 A 1 1 0 0 0 22 13 z M 22 17 A 1 1 0 0 0 21 18 A 1 1 0 0 0 22 19 A 1 1 0 0 0 23 18 A 1 1 0 0 0 22 17 z M 34 17 C 31.250421 17 29 19.250421 29 22 C 29 23.520809 29.702607 24.871949 30.783203 25.791016 C 28.539954 26.959845 27 29.304632 27 32 L 29 32 C 29 29.226334 31.226334 27 34 27 C 36.773666 27 39 29.226334 39 32 L 41 32 C 41 29.304632 39.460046 26.959845 37.216797 25.791016 C 38.297393 24.871949 39 23.520809 39 22 C 39 19.250421 36.749579 17 34 17 z M 45 18 L 45 20 L 57 20 L 57 18 L 45 18 z M 34 19 C 35.668699 19 37 20.331301 37 22 C 37 23.668699 35.668699 25 34 25 C 32.331301 25 31 23.668699 31 22 C 31 20.331301 32.331301 19 34 19 z M 22 21 A 1 1 0 0 0 21 22 A 1 1 0 0 0 22 23 A 1 1 0 0 0 23 22 A 1 1 0 0 0 22 21 z M 45 24 L 45 26 L 57 26 L 57 24 L 45 24 z M 22 25 A 1 1 0 0 0 21 26 A 1 1 0 0 0 22 27 A 1 1 0 0 0 23 26 A 1 1 0 0 0 22 25 z M 22 29 A 1 1 0 0 0 21 30 A 1 1 0 0 0 22 31 A 1 1 0 0 0 23 30 A 1 1 0 0 0 22 29 z M 45 30 L 45 32 L 57 32 L 57 30 L 45 30 z M 22 33 A 1 1 0 0 0 21 34 A 1 1 0 0 0 22 35 A 1 1 0 0 0 23 34 A 1 1 0 0 0 22 33 z M 22 37 A 1 1 0 0 0 21 38 A 1 1 0 0 0 22 39 A 1 1 0 0 0 23 38 A 1 1 0 0 0 22 37 z M 22 41 A 1 1 0 0 0 21 42 A 1 1 0 0 0 22 43 A 1 1 0 0 0 23 42 A 1 1 0 0 0 22 41 z M 27 41 L 27 43 L 57 43 L 57 41 L 27 41 z M 22 45 A 1 1 0 0 0 21 46 A 1 1 0 0 0 22 47 A 1 1 0 0 0 23 46 A 1 1 0 0 0 22 45 z M 27 48 L 27 50 L 51 50 L 51 48 L 27 48 z M 22 49 A 1 1 0 0 0 21 50 A 1 1 0 0 0 22 51 A 1 1 0 0 0 23 50 A 1 1 0 0 0 22 49 z M 22 53 A 1 1 0 0 0 21 54 A 1 1 0 0 0 22 55 A 1 1 0 0 0 23 54 A 1 1 0 0 0 22 53 z M 27 55 L 27 57 L 57 57 L 57 55 L 27 55 z M 64 55 C 63.871 55 63.741187 55.025172 63.617188 55.076172 C 63.243188 55.231172 63 55.596 63 56 L 63 62 L 45 62 C 44.447 62 44 62.448 44 63 L 44 71 C 44 71.552 44.447 72 45 72 L 63 72 L 63 78 C 63 78.404 63.243187 78.768828 63.617188 78.923828 C 63.990187 79.078828 64.421031 78.994031 64.707031 78.707031 L 75.707031 67.707031 C 76.098031 67.316031 76.098031 66.683969 75.707031 66.292969 L 64.707031 55.292969 C 64.516031 55.100969 64.26 55 64 55 z M 22 57 A 1 1 0 0 0 21 58 A 1 1 0 0 0 22 59 A 1 1 0 0 0 23 58 A 1 1 0 0 0 22 57 z M 65 58.414062 L 73.585938 67 L 65 75.585938 L 65 70 L 46 70 L 46 64 L 65 64 L 65 58.414062 z M 22 61 A 1 1 0 0 0 21 62 A 1 1 0 0 0 22 63 A 1 1 0 0 0 23 62 A 1 1 0 0 0 22 61 z M 27 62 L 27 64 L 41 64 L 41 62 L 27 62 z M 22 65 A 1 1 0 0 0 21 66 A 1 1 0 0 0 22 67 A 1 1 0 0 0 23 66 A 1 1 0 0 0 22 65 z"/></svg>