<svg fill="#000000" xmlns="http://www.w3.org/2000/svg"  viewBox="0 0 80 80" width="80px" height="80px"><path d="M 15 9 L 15 71 L 65 71 L 65 9 Z M 17 11 L 63 11 L 63 69 L 17 69 Z M 22 13 C 21.449219 13 21 13.449219 21 14 C 21 14.550781 21.449219 15 22 15 C 22.550781 15 23 14.550781 23 14 C 23 13.449219 22.550781 13 22 13 Z M 22 17 C 21.449219 17 21 17.449219 21 18 C 21 18.550781 21.449219 19 22 19 C 22.550781 19 23 18.550781 23 18 C 23 17.449219 22.550781 17 22 17 Z M 29 17 L 29 19 L 55 19 L 55 17 Z M 22 21 C 21.449219 21 21 21.449219 21 22 C 21 22.550781 21.449219 23 22 23 C 22.550781 23 23 22.550781 23 22 C 23 21.449219 22.550781 21 22 21 Z M 22 25 C 21.449219 25 21 25.449219 21 26 C 21 26.550781 21.449219 27 22 27 C 22.550781 27 23 26.550781 23 26 C 23 25.449219 22.550781 25 22 25 Z M 26 25 C 25.449219 25 25 25.449219 25 26 C 25 26.550781 25.449219 27 26 27 C 26.550781 27 27 26.550781 27 26 C 27 25.449219 26.550781 25 26 25 Z M 30 25 C 29.449219 25 29 25.449219 29 26 C 29 26.550781 29.449219 27 30 27 C 30.550781 27 31 26.550781 31 26 C 31 25.449219 30.550781 25 30 25 Z M 34 25 C 33.449219 25 33 25.449219 33 26 C 33 26.550781 33.449219 27 34 27 C 34.550781 27 35 26.550781 35 26 C 35 25.449219 34.550781 25 34 25 Z M 38 25 C 37.449219 25 37 25.449219 37 26 C 37 26.550781 37.449219 27 38 27 C 38.550781 27 39 26.550781 39 26 C 39 25.449219 38.550781 25 38 25 Z M 42 25 C 41.449219 25 41 25.449219 41 26 C 41 26.550781 41.449219 27 42 27 C 42.550781 27 43 26.550781 43 26 C 43 25.449219 42.550781 25 42 25 Z M 46 25 C 45.449219 25 45 25.449219 45 26 C 45 26.550781 45.449219 27 46 27 C 46.550781 27 47 26.550781 47 26 C 47 25.449219 46.550781 25 46 25 Z M 50 25 C 49.449219 25 49 25.449219 49 26 C 49 26.550781 49.449219 27 50 27 C 50.550781 27 51 26.550781 51 26 C 51 25.449219 50.550781 25 50 25 Z M 54 25 C 53.449219 25 53 25.449219 53 26 C 53 26.550781 53.449219 27 54 27 C 54.550781 27 55 26.550781 55 26 C 55 25.449219 54.550781 25 54 25 Z M 58 25 C 57.449219 25 57 25.449219 57 26 C 57 26.550781 57.449219 27 58 27 C 58.550781 27 59 26.550781 59 26 C 59 25.449219 58.550781 25 58 25 Z M 22 29 C 21.449219 29 21 29.449219 21 30 C 21 30.550781 21.449219 31 22 31 C 22.550781 31 23 30.550781 23 30 C 23 29.449219 22.550781 29 22 29 Z M 22 33 C 21.449219 33 21 33.449219 21 34 C 21 34.550781 21.449219 35 22 35 C 22.550781 35 23 34.550781 23 34 C 23 33.449219 22.550781 33 22 33 Z M 29 33 L 29 35 L 44 35 L 44 33 Z M 50 33 C 49.449219 33 49 33.449219 49 34 C 49 34.550781 49.449219 35 50 35 C 50.550781 35 51 34.550781 51 34 C 51 33.449219 50.550781 33 50 33 Z M 54 33 C 53.449219 33 53 33.449219 53 34 C 53 34.550781 53.449219 35 54 35 C 54.550781 35 55 34.550781 55 34 C 55 33.449219 54.550781 33 54 33 Z M 22 37 C 21.449219 37 21 37.449219 21 38 C 21 38.550781 21.449219 39 22 39 C 22.550781 39 23 38.550781 23 38 C 23 37.449219 22.550781 37 22 37 Z M 29 39 L 29 41 L 39 41 L 39 39 Z M 50 39 C 49.449219 39 49 39.449219 49 40 C 49 40.550781 49.449219 41 50 41 C 50.550781 41 51 40.550781 51 40 C 51 39.449219 50.550781 39 50 39 Z M 54 39 C 53.449219 39 53 39.449219 53 40 C 53 40.550781 53.449219 41 54 41 C 54.550781 41 55 40.550781 55 40 C 55 39.449219 54.550781 39 54 39 Z M 22 41 C 21.449219 41 21 41.449219 21 42 C 21 42.550781 21.449219 43 22 43 C 22.550781 43 23 42.550781 23 42 C 23 41.449219 22.550781 41 22 41 Z M 22 45 C 21.449219 45 21 45.449219 21 46 C 21 46.550781 21.449219 47 22 47 C 22.550781 47 23 46.550781 23 46 C 23 45.449219 22.550781 45 22 45 Z M 29 45 L 29 47 L 44 47 L 44 45 Z M 50 45 C 49.449219 45 49 45.449219 49 46 C 49 46.550781 49.449219 47 50 47 C 50.550781 47 51 46.550781 51 46 C 51 45.449219 50.550781 45 50 45 Z M 54 45 C 53.449219 45 53 45.449219 53 46 C 53 46.550781 53.449219 47 54 47 C 54.550781 47 55 46.550781 55 46 C 55 45.449219 54.550781 45 54 45 Z M 22 49 C 21.449219 49 21 49.449219 21 50 C 21 50.550781 21.449219 51 22 51 C 22.550781 51 23 50.550781 23 50 C 23 49.449219 22.550781 49 22 49 Z M 22 53 C 21.449219 53 21 53.449219 21 54 C 21 54.550781 21.449219 55 22 55 C 22.550781 55 23 54.550781 23 54 C 23 53.449219 22.550781 53 22 53 Z M 26 53 C 25.449219 53 25 53.449219 25 54 C 25 54.550781 25.449219 55 26 55 C 26.550781 55 27 54.550781 27 54 C 27 53.449219 26.550781 53 26 53 Z M 30 53 C 29.449219 53 29 53.449219 29 54 C 29 54.550781 29.449219 55 30 55 C 30.550781 55 31 54.550781 31 54 C 31 53.449219 30.550781 53 30 53 Z M 34 53 C 33.449219 53 33 53.449219 33 54 C 33 54.550781 33.449219 55 34 55 C 34.550781 55 35 54.550781 35 54 C 35 53.449219 34.550781 53 34 53 Z M 38 53 C 37.449219 53 37 53.449219 37 54 C 37 54.550781 37.449219 55 38 55 C 38.550781 55 39 54.550781 39 54 C 39 53.449219 38.550781 53 38 53 Z M 42 53 C 41.449219 53 41 53.449219 41 54 C 41 54.550781 41.449219 55 42 55 C 42.550781 55 43 54.550781 43 54 C 43 53.449219 42.550781 53 42 53 Z M 46 53 C 45.449219 53 45 53.449219 45 54 C 45 54.550781 45.449219 55 46 55 C 46.550781 55 47 54.550781 47 54 C 47 53.449219 46.550781 53 46 53 Z M 50 53 C 49.449219 53 49 53.449219 49 54 C 49 54.550781 49.449219 55 50 55 C 50.550781 55 51 54.550781 51 54 C 51 53.449219 50.550781 53 50 53 Z M 54 53 C 53.449219 53 53 53.449219 53 54 C 53 54.550781 53.449219 55 54 55 C 54.550781 55 55 54.550781 55 54 C 55 53.449219 54.550781 53 54 53 Z M 58 53 C 57.449219 53 57 53.449219 57 54 C 57 54.550781 57.449219 55 58 55 C 58.550781 55 59 54.550781 59 54 C 59 53.449219 58.550781 53 58 53 Z M 22 57 C 21.449219 57 21 57.449219 21 58 C 21 58.550781 21.449219 59 22 59 C 22.550781 59 23 58.550781 23 58 C 23 57.449219 22.550781 57 22 57 Z M 22 61 C 21.449219 61 21 61.449219 21 62 C 21 62.550781 21.449219 63 22 63 C 22.550781 63 23 62.550781 23 62 C 23 61.449219 22.550781 61 22 61 Z M 37 61 L 37 63 L 46 63 L 46 61 Z M 50 61 L 50 63 L 59 63 L 59 61 Z M 22 65 C 21.449219 65 21 65.449219 21 66 C 21 66.550781 21.449219 67 22 67 C 22.550781 67 23 66.550781 23 66 C 23 65.449219 22.550781 65 22 65 Z"/></svg>