<svg fill="#000000" xmlns="http://www.w3.org/2000/svg"  viewBox="0 0 80 80" width="80px" height="80px"><path d="M 9 11 C 6.8026661 11 5 12.802666 5 15 L 5 27 L 5 28 L 5 65 C 5 67.197334 6.8026661 69 9 69 L 71 69 C 73.197334 69 75 67.197334 75 65 L 75 27 C 75 24.802666 73.197334 23 71 23 L 70 23 L 70 21 C 70 18.802666 68.197334 17 66 17 L 28.166016 17 L 27.205078 14.693359 L 27.205078 14.691406 C 26.27448 12.459084 24.086456 11 21.667969 11 L 9 11 z M 9 13 L 21.667969 13 C 23.284912 13 24.7376 13.968195 25.359375 15.460938 L 26.833984 19 L 66 19 C 67.116666 19 68 19.883334 68 21 L 68 23 L 9 23 C 8.2573422 23 7.5981308 23.261659 7 23.619141 L 7 15 C 7 13.883334 7.8833339 13 9 13 z M 9 25 L 71 25 C 72.116666 25 73 25.883334 73 27 L 73 65 C 73 66.116666 72.116666 67 71 67 L 9 67 C 7.8833339 67 7 66.116666 7 65 L 7 28 L 7 27 C 7 25.883334 7.8833339 25 9 25 z M 69 26 A 1 1 0 0 0 68 27 A 1 1 0 0 0 69 28 A 1 1 0 0 0 70 27 A 1 1 0 0 0 69 26 z M 69 30 A 1 1 0 0 0 68 31 A 1 1 0 0 0 69 32 A 1 1 0 0 0 70 31 A 1 1 0 0 0 69 30 z M 37 31 A 1.0001 1.0001 0 0 0 36 32 L 36 40 L 28 40 A 1.0001 1.0001 0 0 0 27 41 L 27 47 A 1.0001 1.0001 0 0 0 28 48 L 36 48 L 36 56 A 1.0001 1.0001 0 0 0 37 57 L 43 57 A 1.0001 1.0001 0 0 0 44 56 L 44 48 L 52 48 A 1.0001 1.0001 0 0 0 53 47 L 53 41 A 1.0001 1.0001 0 0 0 52 40 L 44 40 L 44 32 A 1.0001 1.0001 0 0 0 43 31 L 37 31 z M 38 33 L 42 33 L 42 41 A 1.0001 1.0001 0 0 0 43 42 L 51 42 L 51 46 L 43 46 A 1.0001 1.0001 0 0 0 42 47 L 42 55 L 38 55 L 38 47 A 1.0001 1.0001 0 0 0 37 46 L 29 46 L 29 42 L 37 42 A 1.0001 1.0001 0 0 0 38 41 L 38 33 z M 69 34 A 1 1 0 0 0 68 35 A 1 1 0 0 0 69 36 A 1 1 0 0 0 70 35 A 1 1 0 0 0 69 34 z M 69 38 A 1 1 0 0 0 68 39 A 1 1 0 0 0 69 40 A 1 1 0 0 0 70 39 A 1 1 0 0 0 69 38 z M 69 42 A 1 1 0 0 0 68 43 A 1 1 0 0 0 69 44 A 1 1 0 0 0 70 43 A 1 1 0 0 0 69 42 z M 69 46 A 1 1 0 0 0 68 47 A 1 1 0 0 0 69 48 A 1 1 0 0 0 70 47 A 1 1 0 0 0 69 46 z M 69 50 A 1 1 0 0 0 68 51 A 1 1 0 0 0 69 52 A 1 1 0 0 0 70 51 A 1 1 0 0 0 69 50 z M 69 54 A 1 1 0 0 0 68 55 A 1 1 0 0 0 69 56 A 1 1 0 0 0 70 55 A 1 1 0 0 0 69 54 z M 69 58 A 1 1 0 0 0 68 59 A 1 1 0 0 0 69 60 A 1 1 0 0 0 70 59 A 1 1 0 0 0 69 58 z M 9 62 A 1 1 0 0 0 8 63 A 1 1 0 0 0 9 64 A 1 1 0 0 0 10 63 A 1 1 0 0 0 9 62 z M 13 62 A 1 1 0 0 0 12 63 A 1 1 0 0 0 13 64 A 1 1 0 0 0 14 63 A 1 1 0 0 0 13 62 z M 17 62 A 1 1 0 0 0 16 63 A 1 1 0 0 0 17 64 A 1 1 0 0 0 18 63 A 1 1 0 0 0 17 62 z M 21 62 A 1 1 0 0 0 20 63 A 1 1 0 0 0 21 64 A 1 1 0 0 0 22 63 A 1 1 0 0 0 21 62 z M 25 62 A 1 1 0 0 0 24 63 A 1 1 0 0 0 25 64 A 1 1 0 0 0 26 63 A 1 1 0 0 0 25 62 z M 29 62 A 1 1 0 0 0 28 63 A 1 1 0 0 0 29 64 A 1 1 0 0 0 30 63 A 1 1 0 0 0 29 62 z M 33 62 A 1 1 0 0 0 32 63 A 1 1 0 0 0 33 64 A 1 1 0 0 0 34 63 A 1 1 0 0 0 33 62 z M 37 62 A 1 1 0 0 0 36 63 A 1 1 0 0 0 37 64 A 1 1 0 0 0 38 63 A 1 1 0 0 0 37 62 z M 41 62 A 1 1 0 0 0 40 63 A 1 1 0 0 0 41 64 A 1 1 0 0 0 42 63 A 1 1 0 0 0 41 62 z M 45 62 A 1 1 0 0 0 44 63 A 1 1 0 0 0 45 64 A 1 1 0 0 0 46 63 A 1 1 0 0 0 45 62 z M 49 62 A 1 1 0 0 0 48 63 A 1 1 0 0 0 49 64 A 1 1 0 0 0 50 63 A 1 1 0 0 0 49 62 z M 53 62 A 1 1 0 0 0 52 63 A 1 1 0 0 0 53 64 A 1 1 0 0 0 54 63 A 1 1 0 0 0 53 62 z M 57 62 A 1 1 0 0 0 56 63 A 1 1 0 0 0 57 64 A 1 1 0 0 0 58 63 A 1 1 0 0 0 57 62 z M 61 62 A 1 1 0 0 0 60 63 A 1 1 0 0 0 61 64 A 1 1 0 0 0 62 63 A 1 1 0 0 0 61 62 z M 65 62 A 1 1 0 0 0 64 63 A 1 1 0 0 0 65 64 A 1 1 0 0 0 66 63 A 1 1 0 0 0 65 62 z M 69 62 A 1 1 0 0 0 68 63 A 1 1 0 0 0 69 64 A 1 1 0 0 0 70 63 A 1 1 0 0 0 69 62 z"/></svg>