<svg fill="#000000" xmlns="http://www.w3.org/2000/svg"  viewBox="0 0 80 80" width="80px" height="80px"><path d="M 51.962891 5.9980469 A 1.0001 1.0001 0 0 0 51.794922 6.0214844 L 28.388672 10.910156 C 28.388672 10.910156 28.386719 10.910156 28.386719 10.910156 C 26.219781 11.323353 24.913308 13.313119 25.054688 15.255859 C 25.125397 16.227511 25.580666 17.212758 26.435547 17.910156 C 27.228539 18.557067 28.354434 18.906588 29.707031 18.958984 A 1.0001 1.0001 0 0 0 30 19 L 30 46.714844 C 29.9956 46.732904 29.989208 46.754351 29.986328 46.769531 C 29.974808 46.830241 29.972573 46.872256 29.970703 46.90625 C 29.967003 46.97424 29.968303 47.011575 29.970703 47.044922 C 29.975603 47.111612 29.983808 47.152116 29.992188 47.195312 C 30.000588 47.238512 30.008837 47.278052 30.029297 47.341797 C 30.036197 47.363287 30.051283 47.397507 30.064453 47.429688 L 34.445312 71.048828 C 34.898186 73.860938 37.316598 75.991541 40.181641 76 A 1.0001 1.0001 0 0 0 40.183594 76 L 40.304688 76 A 1.0001 1.0001 0 0 0 40.308594 76 C 43.173001 75.9915 45.58822 73.861392 46.042969 71.050781 C 46.042969 71.050781 47.027152 65.027751 48.011719 58.980469 C 48.504002 55.956827 48.995917 52.926725 49.365234 50.640625 C 49.549893 49.497575 49.704572 48.539769 49.8125 47.861328 C 49.86646 47.522108 49.9082 47.252288 49.9375 47.0625 C 49.95215 46.96761 49.964436 46.894287 49.972656 46.837891 C 49.976756 46.809691 49.979322 46.786692 49.982422 46.763672 C 49.985422 46.740662 49.994141 46.827412 49.994141 46.607422 L 50 19 L 52 19 A 1.0001 1.0001 0 1 0 52 17 L 49 17 L 31 17 L 30 17 C 28.842432 17 28.12926 16.708602 27.701172 16.359375 C 27.273084 16.010148 27.083493 15.585723 27.048828 15.109375 C 26.979498 14.156678 27.619735 13.092597 28.763672 12.875 A 1.0001 1.0001 0 0 0 28.78125 12.871094 L 31.841797 12.232422 L 32.201172 13.978516 L 47.876953 10.753906 L 47.505859 8.9589844 L 52.205078 7.9785156 A 1.0001 1.0001 0 0 0 51.962891 5.9980469 z M 32 19 L 48 19 L 47.994141 46.537109 C 47.993414 46.542209 47.993087 46.542808 47.992188 46.548828 C 47.985487 46.594688 47.975127 46.665862 47.960938 46.757812 C 47.932547 46.941713 47.891608 47.209215 47.837891 47.546875 C 47.730459 48.222196 47.575154 49.180019 47.390625 50.322266 C 47.021567 52.606759 46.529326 55.634969 46.037109 58.658203 C 45.052676 64.70467 44.068359 70.728516 44.068359 70.728516 A 1.0001 1.0001 0 0 0 44.068359 70.730469 C 43.766529 72.600237 42.180794 73.993501 40.304688 74 L 40.1875 74 C 38.310543 73.9945 36.721053 72.600356 36.419922 70.730469 A 1.0001 1.0001 0 0 0 36.416016 70.707031 L 32 46.912109 L 32 19 z M 34 31 A 1 1 0 0 0 34 33 A 1 1 0 0 0 34 31 z M 38 31 A 1 1 0 0 0 38 33 A 1 1 0 0 0 38 31 z M 42 31 A 1 1 0 0 0 42 33 A 1 1 0 0 0 42 31 z M 46 31 A 1 1 0 0 0 46 33 A 1 1 0 0 0 46 31 z M 34 41 A 1 1 0 0 0 34 43 A 1 1 0 0 0 34 41 z M 38 41 A 1 1 0 0 0 38 43 A 1 1 0 0 0 38 41 z M 42 41 A 1 1 0 0 0 42 43 A 1 1 0 0 0 42 41 z M 46 41 A 1 1 0 0 0 46 43 A 1 1 0 0 0 46 41 z M 38 51 A 1 1 0 0 0 38 53 A 1 1 0 0 0 38 51 z M 42 51 A 1 1 0 0 0 42 53 A 1 1 0 0 0 42 51 z"/></svg>