<?xml version="1.0"?><svg fill="#000000" xmlns="http://www.w3.org/2000/svg"  viewBox="0 0 80 80" width="80px" height="80px">    <path d="M 31.642578 11 C 29.855591 11 28.203796 12.288197 28.017578 14.142578 C 27.82853 16.028015 29.210648 17.615988 31 17.890625 L 31 38.679688 L 29.4375 40.863281 C 28.418278 37.564144 26.059667 34.868239 23 33.353516 L 23 24 A 1.0001 1.0001 0 1 0 23 22 L 22.154297 22 A 1.0001 1.0001 0 0 0 21.984375 21.986328 A 1.0001 1.0001 0 0 0 21.839844 22 L 13.154297 22 A 1.0001 1.0001 0 0 0 12.984375 21.986328 A 1.0001 1.0001 0 0 0 12.839844 22 L 12 22 A 1.0001 1.0001 0 1 0 12 24 L 12 33.365234 C 7.8763251 35.410207 5 39.596169 5 44.5 C 5 49.584146 8.0469742 53.964899 12.416016 55.914062 A 1.0001 1.0001 0 0 0 12.824219 56 L 18.603516 56 L 14.964844 61.083984 C 12.597202 64.324239 14.973367 69 18.986328 69 L 59.015625 69 C 63.028587 69 65.4027 64.324106 63.035156 61.083984 L 59.396484 56 L 69 56 C 70.64497 56 72 54.64497 72 53 L 72 31 C 72 30.5 72.664407 28.657513 73.394531 27.197266 C 74.124655 25.737018 74.857422 24.513672 74.857422 24.513672 A 1.0001 1.0001 0 0 0 74 23 L 53 23 A 1.0001 1.0001 0 0 0 52 24 L 52 45.666016 L 47 38.679688 L 47 17.765625 C 48.497054 17.479439 49.821008 16.464799 49.982422 14.857422 L 49.982422 14.855469 C 50.18825 12.7908 48.538776 11 46.5 11 L 31.642578 11 z M 31.642578 13 L 46.5 13 C 47.392558 13 48.085078 13.731773 47.992188 14.658203 C 47.917445 15.406777 47.185809 16 46.357422 16 L 45 16 A 1 1 0 0 0 44 17 A 1 1 0 0 0 45 18 L 45 39.320312 L 61.416016 62.259766 L 61.419922 62.263672 C 62.894384 64.281556 61.514663 67 59.015625 67 L 18.986328 67 C 16.48729 67 15.10572 64.281417 16.580078 62.263672 L 16.583984 62.259766 L 33 39.320312 L 33 39 L 33 18 A 1 1 0 0 0 34 17 A 1 1 0 0 0 33 16 L 31.5 16 C 30.607442 16 29.914922 15.268227 30.007812 14.341797 C 30.082555 13.593223 30.814191 13 31.642578 13 z M 37 16 A 1 1 0 0 0 36 17 A 1 1 0 0 0 37 18 A 1 1 0 0 0 38 17 A 1 1 0 0 0 37 16 z M 41 16 A 1 1 0 0 0 40 17 A 1 1 0 0 0 41 18 A 1 1 0 0 0 42 17 A 1 1 0 0 0 41 16 z M 14 24 L 21 24 L 21 33.914062 A 1.0001 1.0001 0 0 0 21.609375 34.835938 C 24.930709 36.249425 27.370264 39.327827 27.890625 43.023438 L 20.035156 54 A 1.0001 1.0001 0 0 0 20 54 L 13.09375 54 C 9.5043934 52.331387 7 48.727748 7 44.5 C 7 40.150572 9.6372975 36.434784 13.392578 34.835938 A 1.0001 1.0001 0 0 0 14 33.914062 L 14 24 z M 54 25 L 72.316406 25 C 72.03714 25.499525 71.96157 25.590532 71.605469 26.302734 C 70.835593 27.842487 70 29.5 70 31 L 70 36 A 1 1 0 0 0 69 37 A 1 1 0 0 0 70 38 L 70 53 C 70 53.56503 69.56503 54 69 54 L 58 54 A 1.0001 1.0001 0 0 0 57.966797 54.001953 L 53.935547 48.369141 A 1.0001 1.0001 0 0 0 54 48 L 54 38 A 1 1 0 0 0 55 37 A 1 1 0 0 0 54 36 L 54 25 z M 58 36 A 1 1 0 0 0 57 37 A 1 1 0 0 0 58 38 A 1 1 0 0 0 59 37 A 1 1 0 0 0 58 36 z M 62 36 A 1 1 0 0 0 61 37 A 1 1 0 0 0 62 38 A 1 1 0 0 0 63 37 A 1 1 0 0 0 62 36 z M 66 36 A 1 1 0 0 0 65 37 A 1 1 0 0 0 66 38 A 1 1 0 0 0 67 37 A 1 1 0 0 0 66 36 z M 9 41 A 1 1 0 0 0 8 42 A 1 1 0 0 0 9 43 A 1 1 0 0 0 10 42 A 1 1 0 0 0 9 41 z M 13 41 A 1 1 0 0 0 12 42 A 1 1 0 0 0 13 43 A 1 1 0 0 0 14 42 A 1 1 0 0 0 13 41 z M 17 41 A 1 1 0 0 0 16 42 A 1 1 0 0 0 17 43 A 1 1 0 0 0 18 42 A 1 1 0 0 0 17 41 z M 21 41 A 1 1 0 0 0 20 42 A 1 1 0 0 0 21 43 A 1 1 0 0 0 22 42 A 1 1 0 0 0 21 41 z M 25 41 A 1 1 0 0 0 24 42 A 1 1 0 0 0 25 43 A 1 1 0 0 0 26 42 A 1 1 0 0 0 25 41 z M 29 48 A 1 1 0 0 0 28 49 A 1 1 0 0 0 29 50 A 1 1 0 0 0 30 49 A 1 1 0 0 0 29 48 z M 33 48 A 1 1 0 0 0 32 49 A 1 1 0 0 0 33 50 A 1 1 0 0 0 34 49 A 1 1 0 0 0 33 48 z M 37 48 A 1 1 0 0 0 36 49 A 1 1 0 0 0 37 50 A 1 1 0 0 0 38 49 A 1 1 0 0 0 37 48 z M 41 48 A 1 1 0 0 0 40 49 A 1 1 0 0 0 41 50 A 1 1 0 0 0 42 49 A 1 1 0 0 0 41 48 z M 45 48 A 1 1 0 0 0 44 49 A 1 1 0 0 0 45 50 A 1 1 0 0 0 46 49 A 1 1 0 0 0 45 48 z M 49 48 A 1 1 0 0 0 48 49 A 1 1 0 0 0 49 50 A 1 1 0 0 0 50 49 A 1 1 0 0 0 49 48 z"/></svg>