<svg fill="#000000" xmlns="http://www.w3.org/2000/svg"  viewBox="0 0 64 64" width="64px" height="64px"><path d="M 10 2 C 8.898438 2 8 2.898438 8 4 L 8 8 C 8 9.101563 8.898438 10 10 10 L 10 13.503906 C 9.179688 13.070313 8.234375 12.9375 7.304688 13.167969 C 5.917969 13.515625 4.851563 14.59375 4.519531 15.984375 L 0.46875 32.96875 C -0.191406 35.753906 0.519531 38.71875 2.378906 40.898438 L 8.320313 47.859375 C 9.328125 49.042969 9.726563 50.597656 9.410156 52.125 L 8.523438 58.390625 C 8.335938 59.277344 8.5625 60.191406 9.132813 60.894531 C 9.703125 61.597656 10.550781 62 11.457031 62 L 21 62 C 22.652344 62 24 60.652344 24 59 L 24 47.472656 C 24 44.347656 22.875 41.328125 20.828125 38.964844 L 18.261719 36 L 45.738281 36 L 43.171875 38.964844 C 41.125 41.328125 40 44.347656 40 47.472656 L 40 59 C 40 60.652344 41.347656 62 43 62 L 52.542969 62 C 53.449219 62 54.296875 61.597656 54.871094 60.890625 C 55.441406 60.1875 55.664063 59.277344 55.480469 58.390625 L 54.589844 52.125 C 54.273438 50.597656 54.671875 49.042969 55.683594 47.859375 L 61.621094 40.894531 C 63.480469 38.71875 64.191406 35.753906 63.53125 32.96875 L 59.480469 15.984375 C 59.148438 14.59375 58.082031 13.511719 56.6875 13.164063 C 55.765625 12.933594 54.820313 13.070313 54 13.503906 L 54 10 C 55.101563 10 56 9.101563 56 8 L 56 4 C 56 2.898438 55.101563 2 54 2 Z M 10 4 L 54 4 L 54 8 L 51 8 C 50.449219 8 50 8.449219 50 9 C 50 9.550781 50.449219 10 51 10 L 52 10 L 52 27.28125 C 51.429688 27.367188 50.878906 27.570313 50.386719 27.890625 C 49.445313 28.5 48.792969 29.488281 48.601563 30.59375 L 48.3125 32.246094 C 48.210938 32.851563 47.945313 33.421875 47.578125 33.875 L 47.46875 34 L 16.53125 34 L 16.441406 33.894531 C 16.050781 33.421875 15.789063 32.851563 15.6875 32.246094 L 15.398438 30.59375 C 15.207031 29.488281 14.554688 28.5 13.613281 27.890625 C 13.121094 27.570313 12.570313 27.367188 12 27.28125 L 12 10 L 39 10 C 39.554688 10 40 9.550781 40 9 C 40 8.449219 39.554688 8 39 8 L 10 8 Z M 43 8 C 42.449219 8 42 8.449219 42 9 C 42 9.550781 42.449219 10 43 10 L 47 10 C 47.550781 10 48 9.550781 48 9 C 48 8.449219 47.550781 8 47 8 Z M 27 12 C 25.347656 12 24 13.347656 24 15 C 24 16.652344 25.347656 18 27 18 L 37 18 C 38.652344 18 40 16.652344 40 15 C 40 13.347656 38.652344 12 37 12 Z M 27 14 L 37 14 C 37.550781 14 38 14.449219 38 15 C 38 15.550781 37.550781 16 37 16 L 27 16 C 26.449219 16 26 15.550781 26 15 C 26 14.449219 26.449219 14 27 14 Z M 8.234375 15.050781 C 8.636719 15.050781 9.03125 15.183594 9.351563 15.441406 C 9.796875 15.792969 10.050781 16.316406 10.046875 16.878906 L 9.945313 27.476563 C 9.066406 27.761719 8.40625 28.515625 8.242188 29.433594 L 7.804688 31.863281 C 7.390625 34.160156 7.9375 36.558594 9.300781 38.449219 L 11.730469 41.816406 C 12.054688 42.265625 12.679688 42.367188 13.125 42.042969 C 13.574219 41.71875 13.675781 41.09375 13.351563 40.644531 L 10.921875 37.28125 C 9.871094 35.828125 9.453125 33.984375 9.773438 32.21875 L 10.210938 29.785156 C 10.246094 29.582031 10.402344 29.417969 10.601563 29.367188 L 10.90625 29.292969 C 11.460938 29.152344 12.039063 29.246094 12.523438 29.5625 C 13.007813 29.878906 13.328125 30.363281 13.425781 30.933594 L 13.714844 32.589844 C 13.878906 33.53125 14.285156 34.421875 14.910156 35.183594 L 19.316406 40.269531 C 21.046875 42.269531 22 44.828125 22 47.472656 L 22 54 L 11.0625 54 L 11.367188 52.53125 C 11.8125 50.394531 11.253906 48.21875 9.839844 46.5625 L 3.898438 39.597656 C 2.453125 37.90625 1.898438 35.601563 2.414063 33.433594 L 6.464844 16.449219 C 6.621094 15.785156 7.132813 15.273438 7.796875 15.109375 C 7.941406 15.070313 8.089844 15.050781 8.234375 15.050781 Z M 55.796875 15.050781 C 55.933594 15.054688 56.074219 15.074219 56.210938 15.109375 C 56.871094 15.273438 57.378906 15.789063 57.535156 16.449219 L 61.585938 33.433594 C 62.101563 35.601563 61.542969 37.90625 60.097656 39.597656 L 54.160156 46.5625 C 52.746094 48.21875 52.1875 50.394531 52.632813 52.53125 L 52.9375 54 L 42 54 L 42 47.472656 C 42 44.828125 42.953125 42.273438 44.683594 40.273438 L 49.109375 35.164063 C 49.714844 34.425781 50.121094 33.535156 50.285156 32.589844 L 50.574219 30.9375 C 50.671875 30.367188 50.992188 29.878906 51.476563 29.5625 C 51.816406 29.34375 52.199219 29.234375 52.59375 29.234375 C 52.757813 29.234375 52.929688 29.253906 53.097656 29.296875 L 53.398438 29.371094 C 53.597656 29.417969 53.753906 29.582031 53.792969 29.785156 L 54.230469 32.21875 C 54.546875 33.984375 54.125 35.828125 53.078125 37.28125 L 50.652344 40.648438 C 50.328125 41.09375 50.429688 41.722656 50.875 42.046875 C 51.324219 42.367188 51.949219 42.265625 52.269531 41.816406 L 54.703125 38.453125 C 56.066406 36.558594 56.609375 34.160156 56.199219 31.867188 L 55.761719 29.433594 C 55.59375 28.515625 54.9375 27.765625 54.058594 27.480469 L 53.957031 16.882813 C 53.953125 16.320313 54.203125 15.792969 54.644531 15.441406 C 54.980469 15.179688 55.382813 15.046875 55.796875 15.050781 Z M 17 28 C 16.449219 28 16 28.449219 16 29 L 16 31 C 16 31.550781 16.449219 32 17 32 C 17.550781 32 18 31.550781 18 31 L 18 29 C 18 28.449219 17.550781 28 17 28 Z M 22 28 C 21.449219 28 21 28.449219 21 29 L 21 31 C 21 31.550781 21.449219 32 22 32 C 22.550781 32 23 31.550781 23 31 L 23 29 C 23 28.449219 22.550781 28 22 28 Z M 27 28 C 26.449219 28 26 28.449219 26 29 L 26 31 C 26 31.550781 26.449219 32 27 32 C 27.550781 32 28 31.550781 28 31 L 28 29 C 28 28.449219 27.550781 28 27 28 Z M 32 28 C 31.449219 28 31 28.449219 31 29 L 31 31 C 31 31.550781 31.449219 32 32 32 C 32.550781 32 33 31.550781 33 31 L 33 29 C 33 28.449219 32.550781 28 32 28 Z M 37 28 C 36.449219 28 36 28.449219 36 29 L 36 31 C 36 31.550781 36.449219 32 37 32 C 37.550781 32 38 31.550781 38 31 L 38 29 C 38 28.449219 37.550781 28 37 28 Z M 42 28 C 41.449219 28 41 28.449219 41 29 L 41 31 C 41 31.550781 41.449219 32 42 32 C 42.550781 32 43 31.550781 43 31 L 43 29 C 43 28.449219 42.550781 28 42 28 Z M 47 28 C 46.449219 28 46 28.449219 46 29 L 46 31 C 46 31.550781 46.449219 32 47 32 C 47.550781 32 48 31.550781 48 31 L 48 29 C 48 28.449219 47.550781 28 47 28 Z M 10.644531 56 L 22 56 L 22 59 C 22 59.550781 21.550781 60 21 60 L 11.457031 60 C 11.15625 60 10.875 59.863281 10.683594 59.628906 C 10.492188 59.398438 10.417969 59.09375 10.480469 58.796875 Z M 42 56 L 53.355469 56 L 53.519531 58.796875 C 53.582031 59.09375 53.507813 59.394531 53.316406 59.628906 C 53.125 59.863281 52.839844 60 52.539063 60 L 43 60 C 42.449219 60 42 59.550781 42 59 Z"/></svg>