<svg width="80" height="80" viewBox="0 0 80 80" fill="none" xmlns="http://www.w3.org/2000/svg">
<path d="M40 7C21.7866 7 7 21.7866 7 40C7 58.2134 21.7866 73 40 73C58.2134 73 73 58.2134 73 40C73 21.7866 58.2134 7 40 7ZM40 9C57.1326 9 71 22.8674 71 40C71 57.1326 57.1326 71 40 71C22.8674 71 9 57.1326 9 40C9 22.8674 22.8674 9 40 9ZM40 11C39.4696 11 38.9609 11.2107 38.5858 11.5858C38.2107 11.9609 38 12.4696 38 13C38 13.5304 38.2107 14.0391 38.5858 14.4142C38.9609 14.7893 39.4696 15 40 15C40.5304 15 41.0391 14.7893 41.4142 14.4142C41.7893 14.0391 42 13.5304 42 13C42 12.4696 41.7893 11.9609 41.4142 11.5858C41.0391 11.2107 40.5304 11 40 11ZM33.1504 12.9297C33.0217 12.9118 32.8874 12.9193 32.7539 12.9551C32.2209 13.0981 31.9039 13.6457 32.0469 14.1797C32.1899 14.7127 32.7375 15.0297 33.2715 14.8867C33.8045 14.7437 34.1215 14.1961 33.9785 13.6621C33.8713 13.2616 33.5365 12.9833 33.1504 12.9297ZM46.8516 12.9316C46.4652 12.9855 46.1299 13.2624 46.0234 13.6621C45.8804 14.1951 46.1975 14.7457 46.7305 14.8887C47.2635 15.0317 47.8121 14.7146 47.9551 14.1816C48.0981 13.6486 47.781 13.0981 47.248 12.9551C47.1145 12.9193 46.9803 12.9137 46.8516 12.9316ZM26.375 15.623C26.246 15.6391 26.1178 15.6827 25.998 15.752C25.52 16.028 25.3568 16.6392 25.6328 17.1172C25.9088 17.5952 26.52 17.7584 26.998 17.4824C27.476 17.2064 27.6412 16.5952 27.3652 16.1172C27.1582 15.7579 26.7619 15.5748 26.375 15.623ZM53.623 15.625C53.2362 15.5771 52.8418 15.7587 52.6348 16.1172C52.3588 16.5952 52.522 17.2084 53 17.4844C53.478 17.7604 54.0892 17.5952 54.3652 17.1172C54.6412 16.6392 54.478 16.028 54 15.752C53.8802 15.683 53.752 15.641 53.623 15.625ZM20.9082 19.9082C20.6522 19.9082 20.3962 20.0057 20.2012 20.2012C19.8102 20.5922 19.8102 21.2252 20.2012 21.6152C20.5922 22.0062 21.2252 22.0062 21.6152 21.6152C22.0062 21.2242 22.0062 20.5912 21.6152 20.2012C21.4202 20.0057 21.1642 19.9082 20.9082 19.9082ZM59.0918 19.9082C58.8359 19.9082 58.5803 20.0062 58.3848 20.2012C57.9938 20.5922 57.9938 21.2252 58.3848 21.6152C58.7758 22.0062 59.4088 22.0062 59.7988 21.6152C60.1898 21.2242 60.1898 20.5912 59.7988 20.2012C59.6038 20.0062 59.3477 19.9082 59.0918 19.9082ZM54.4941 24.0039L49.3711 25.7109C47.7647 26.2464 46.9219 28.0608 47.5586 29.5254L40.9707 36.1133C40.6624 36.0436 40.3395 36 40 36C38.75 36 37.6852 36.5048 37.002 37.2734C36.3187 38.0421 36 39.0278 36 40C36 40.3332 36.0522 40.6651 36.1289 40.9922L36.1113 40.9746L26.7969 50.2871C24.8936 48.9723 22.8367 49.135 22.5352 49.1777L22.8164 51.1562C22.9647 51.1352 24.8245 50.9049 26.2109 52.2891C26.3119 52.3901 27.6214 53.7407 27.3438 55.6816L29.3223 55.9648C29.6273 53.8324 28.8262 52.5063 28.2148 51.7012L37.0996 42.8145C37.7846 43.5292 38.8025 44 40 44C41.25 44 42.3148 43.4952 42.998 42.7266C43.6813 41.9579 44 40.9722 44 40C44 39.0278 43.6813 38.0421 42.998 37.2734C42.9427 37.2112 42.8708 37.1622 42.8105 37.1035L48.9746 30.9395C50.439 31.5751 52.2518 30.7329 52.7871 29.127L54.4941 24.0039ZM63.2578 25.5059C63.1289 25.5218 63.0004 25.5638 62.8809 25.6328C62.4029 25.9088 62.2396 26.52 62.5156 26.998C62.7916 27.476 63.4029 27.6412 63.8809 27.3652C64.3589 27.0892 64.5221 26.476 64.2461 25.998C64.0391 25.6395 63.6445 25.458 63.2578 25.5059ZM16.7402 25.5078C16.3535 25.4599 15.959 25.6415 15.752 26C15.476 26.478 15.6392 27.0892 16.1172 27.3652C16.5952 27.6412 17.2064 27.478 17.4824 27C17.7584 26.522 17.5952 25.9108 17.1172 25.6348C16.9977 25.5658 16.8691 25.5238 16.7402 25.5078ZM13.7812 32.0215C13.3951 32.0751 13.0604 32.3534 12.9531 32.7539C12.8101 33.2869 13.1272 33.8355 13.6602 33.9785C14.1932 34.1215 14.7418 33.8045 14.8848 33.2715C15.0278 32.7385 14.7107 32.1899 14.1777 32.0469C14.0442 32.0111 13.91 32.0036 13.7812 32.0215ZM66.2168 32.0215C66.0881 32.0035 65.9536 32.0111 65.8203 32.0469C65.2873 32.1899 64.9703 32.7375 65.1133 33.2715C65.2563 33.8045 65.8058 34.1215 66.3398 33.9785C66.8728 33.8355 67.1899 33.2879 67.0469 32.7539C66.9396 32.3542 66.6028 32.0753 66.2168 32.0215ZM13 38C12.4696 38 11.9609 38.2107 11.5858 38.5858C11.2107 38.9609 11 39.4696 11 40C11 40.5304 11.2107 41.0391 11.5858 41.4142C11.9609 41.7893 12.4696 42 13 42C13.5304 42 14.0391 41.7893 14.4142 41.4142C14.7893 41.0391 15 40.5304 15 40C15 39.4696 14.7893 38.9609 14.4142 38.5858C14.0391 38.2107 13.5304 38 13 38ZM40 38C40.75 38 41.1852 38.2452 41.502 38.6016C41.8187 38.9579 42 39.4722 42 40C42 40.5278 41.8187 41.0421 41.502 41.3984C41.1852 41.7548 40.75 42 40 42C39.25 42 38.8148 41.7548 38.498 41.3984C38.1813 41.0421 38 40.5278 38 40C38 39.4722 38.1813 38.9579 38.498 38.6016C38.8148 38.2452 39.25 38 40 38ZM67 38C66.4696 38 65.9609 38.2107 65.5858 38.5858C65.2107 38.9609 65 39.4696 65 40C65 40.5304 65.2107 41.0391 65.5858 41.4142C65.9609 41.7893 66.4696 42 67 42C67.5304 42 68.0391 41.7893 68.4142 41.4142C68.7893 41.0391 69 40.5304 69 40C69 39.4696 68.7893 38.9609 68.4142 38.5858C68.0391 38.2107 67.5304 38 67 38ZM14.0566 45.998C13.9279 45.9801 13.7937 45.9857 13.6602 46.0215C13.1272 46.1645 12.8101 46.7121 12.9531 47.2461C13.0961 47.7791 13.6437 48.0961 14.1777 47.9531C14.7107 47.8101 15.0278 47.2625 14.8848 46.7285C14.7775 46.3288 14.4427 46.0519 14.0566 45.998ZM65.9414 46C65.5554 46.0536 65.2205 46.3319 65.1133 46.7324C64.9703 47.2654 65.2873 47.814 65.8203 47.957C66.3533 48.1 66.9019 47.783 67.0449 47.25C67.1879 46.717 66.8709 46.1684 66.3379 46.0254C66.2046 45.9896 66.0701 45.9821 65.9414 46ZM16.4941 52.5059C16.3652 52.5218 16.2367 52.5638 16.1172 52.6328C15.6392 52.9088 15.476 53.52 15.752 53.998C16.028 54.476 16.6392 54.6412 17.1172 54.3652C17.5952 54.0892 17.7584 53.476 17.4824 52.998C17.2754 52.6395 16.8809 52.458 16.4941 52.5059ZM63.5039 52.5078C63.1172 52.4599 62.7226 52.6435 62.5156 53.002C62.2396 53.48 62.4029 54.0912 62.8809 54.3672C63.3589 54.6432 63.9701 54.48 64.2461 54.002C64.5221 53.524 64.3589 52.9108 63.8809 52.6348C63.7614 52.5658 63.6328 52.5238 63.5039 52.5078ZM20.9082 58.0918C20.6522 58.0918 20.3962 58.1893 20.2012 58.3848C19.8102 58.7758 19.8102 59.4088 20.2012 59.7988C20.5922 60.1898 21.2252 60.1898 21.6152 59.7988C22.0062 59.4078 22.0062 58.7748 21.6152 58.3848C21.4202 58.1893 21.1642 58.0918 20.9082 58.0918ZM59.0918 58.0918C58.8358 58.0918 58.5798 58.1898 58.3848 58.3848C57.9938 58.7758 57.9938 59.4088 58.3848 59.7988C58.7758 60.1898 59.4088 60.1898 59.7988 59.7988C60.1898 59.4078 60.1898 58.7748 59.7988 58.3848C59.6038 58.1898 59.3478 58.0918 59.0918 58.0918ZM53.375 62.3887C53.2461 62.4046 53.1175 62.4466 52.998 62.5156C52.52 62.7916 52.3568 63.4029 52.6328 63.8809C52.9088 64.3589 53.52 64.5221 53.998 64.2461C54.476 63.9701 54.6412 63.3589 54.3652 62.8809C54.1582 62.5224 53.7617 62.3408 53.375 62.3887ZM26.623 62.3906C26.2363 62.3427 25.8398 62.5243 25.6328 62.8828C25.3568 63.3608 25.52 63.972 25.998 64.248C26.476 64.524 27.0892 64.3608 27.3652 63.8828C27.6412 63.4048 27.476 62.7936 26.998 62.5176C26.8785 62.4486 26.752 62.4066 26.623 62.3906ZM40 65C39.4696 65 38.9609 65.2107 38.5858 65.5858C38.2107 65.9609 38 66.4696 38 67C38 67.5304 38.2107 68.0391 38.5858 68.4142C38.9609 68.7893 39.4696 69 40 69C40.5304 69 41.0391 68.7893 41.4142 68.4142C41.7893 68.0391 42 67.5304 42 67C42 66.4696 41.7893 65.9609 41.4142 65.5858C41.0391 65.2107 40.5304 65 40 65ZM47.125 65.0898C46.9963 65.072 46.862 65.0795 46.7285 65.1152C46.1955 65.2582 45.8785 65.8058 46.0215 66.3398C46.1645 66.8728 46.7121 67.1899 47.2461 67.0469C47.7791 66.9039 48.0961 66.3563 47.9531 65.8223C47.8459 65.4218 47.5111 65.1434 47.125 65.0898ZM32.873 65.0918C32.4869 65.1454 32.1522 65.4218 32.0449 65.8223C31.9019 66.3553 32.219 66.9058 32.752 67.0488C33.285 67.1918 33.8336 66.8748 33.9766 66.3418C34.1196 65.8088 33.8025 65.2582 33.2695 65.1152C33.136 65.0795 33.0017 65.0739 32.873 65.0918Z" fill="black"/>
</svg>
