<svg fill="#000000" xmlns="http://www.w3.org/2000/svg"  viewBox="0 0 64 64" width="64px" height="64px"><path d="M 3 6 C 1.347656 6 0 7.347656 0 9 C 0 10.300781 0.839844 11.402344 2 11.816406 L 2 40.1875 C 0.839844 40.597656 0 41.699219 0 43 L 0 49 C 0 50.652344 1.347656 52 3 52 L 8.078125 52 C 8.566406 55.386719 11.480469 58 15 58 C 18.519531 58 21.433594 55.386719 21.921875 52 L 44.078125 52 C 44.566406 55.386719 47.480469 58 51 58 C 54.519531 58 57.433594 55.386719 57.921875 52 L 61 52 C 62.652344 52 64 50.652344 64 49 L 64 43 C 64 41.683594 63.144531 40.578125 61.964844 40.171875 C 61.976563 40.117188 62 40.0625 62 40 L 62 36.175781 C 62 35.214844 61.726563 34.277344 61.203125 33.46875 L 54.019531 22.296875 C 53.097656 20.859375 51.527344 20 49.816406 20 L 48 20 L 48 18 C 48 17.449219 47.550781 17 47 17 C 46.449219 17 46 17.449219 46 18 L 46 20 L 42 20 L 42 11.816406 C 43.160156 11.402344 44 10.300781 44 9 C 44 7.347656 42.652344 6 41 6 Z M 3 8 L 41 8 C 41.550781 8 42 8.449219 42 9 C 42 9.550781 41.550781 10 41 10 L 3 10 C 2.449219 10 2 9.550781 2 9 C 2 8.449219 2.449219 8 3 8 Z M 4 12 L 40 12 L 40 40 L 4 40 Z M 22 14 C 15.382813 14 10 19.382813 10 26 C 10 32.617188 15.382813 38 22 38 C 28.617188 38 34 32.617188 34 26 C 34 19.382813 28.617188 14 22 14 Z M 22 16 C 27.515625 16 32 20.484375 32 26 C 32 31.515625 27.515625 36 22 36 C 16.484375 36 12 31.515625 12 26 C 12 20.484375 16.484375 16 22 16 Z M 42 22 L 49.816406 22 C 50.839844 22 51.785156 22.515625 52.339844 23.375 L 59.523438 34.550781 C 59.835938 35.039063 60 35.601563 60 36.175781 L 60 40 L 42 40 Z M 27 22.054688 C 26.746094 22.054688 26.488281 22.152344 26.292969 22.347656 L 20 28.640625 L 17.707031 26.347656 C 17.316406 25.957031 16.683594 25.957031 16.292969 26.347656 C 15.902344 26.738281 15.902344 27.371094 16.292969 27.761719 L 19.292969 30.761719 C 19.488281 30.957031 19.742188 31.054688 20 31.054688 C 20.257813 31.054688 20.511719 30.957031 20.707031 30.761719 L 27.707031 23.761719 C 28.097656 23.371094 28.097656 22.738281 27.707031 22.347656 C 27.511719 22.152344 27.253906 22.054688 27 22.054688 Z M 46 24 C 44.898438 24 44 24.898438 44 26 L 44 32 C 44 33.101563 44.898438 34 46 34 L 53.195313 34 C 53.921875 34 54.59375 33.605469 54.945313 32.96875 C 55.296875 32.335938 55.277344 31.558594 54.890625 30.941406 L 51.140625 24.9375 C 50.773438 24.351563 50.136719 24 49.445313 24 Z M 46 26 L 49.445313 26 L 53.203125 32 L 46 32 Z M 45 36 C 44.449219 36 44 36.449219 44 37 C 44 37.550781 44.449219 38 45 38 L 47 38 C 47.550781 38 48 37.550781 48 37 C 48 36.449219 47.550781 36 47 36 Z M 3 42 L 61 42 C 61.550781 42 62 42.449219 62 43 L 62 49 C 62 49.550781 61.550781 50 61 50 L 57.921875 50 C 57.433594 46.613281 54.519531 44 51 44 C 47.480469 44 44.566406 46.613281 44.078125 50 L 21.921875 50 C 21.433594 46.613281 18.519531 44 15 44 C 11.480469 44 8.566406 46.613281 8.078125 50 L 3 50 C 2.449219 50 2 49.550781 2 49 L 2 48 C 2.550781 48 3 47.550781 3 47 L 3 45 C 3 44.449219 2.550781 44 2 44 L 2 43 C 2 42.449219 2.449219 42 3 42 Z M 7 44 C 6.449219 44 6 44.449219 6 45 L 6 47 C 6 47.550781 6.449219 48 7 48 C 7.550781 48 8 47.550781 8 47 L 8 45 C 8 44.449219 7.550781 44 7 44 Z M 23 44 C 22.449219 44 22 44.449219 22 45 L 22 47 C 22 47.550781 22.449219 48 23 48 C 23.550781 48 24 47.550781 24 47 L 24 45 C 24 44.449219 23.550781 44 23 44 Z M 28 44 C 27.449219 44 27 44.449219 27 45 L 27 47 C 27 47.550781 27.449219 48 28 48 C 28.550781 48 29 47.550781 29 47 L 29 45 C 29 44.449219 28.550781 44 28 44 Z M 33 44 C 32.449219 44 32 44.449219 32 45 L 32 47 C 32 47.550781 32.449219 48 33 48 C 33.550781 48 34 47.550781 34 47 L 34 45 C 34 44.449219 33.550781 44 33 44 Z M 38 44 C 37.449219 44 37 44.449219 37 45 L 37 47 C 37 47.550781 37.449219 48 38 48 C 38.550781 48 39 47.550781 39 47 L 39 45 C 39 44.449219 38.550781 44 38 44 Z M 43 44 C 42.449219 44 42 44.449219 42 45 L 42 47 C 42 47.550781 42.449219 48 43 48 C 43.550781 48 44 47.550781 44 47 L 44 45 C 44 44.449219 43.550781 44 43 44 Z M 59 44 C 58.449219 44 58 44.449219 58 45 L 58 47 C 58 47.550781 58.449219 48 59 48 C 59.550781 48 60 47.550781 60 47 L 60 45 C 60 44.449219 59.550781 44 59 44 Z M 15 46 C 17.757813 46 20 48.242188 20 51 C 20 53.757813 17.757813 56 15 56 C 12.242188 56 10 53.757813 10 51 C 10 48.242188 12.242188 46 15 46 Z M 51 46 C 53.757813 46 56 48.242188 56 51 C 56 53.757813 53.757813 56 51 56 C 48.242188 56 46 53.757813 46 51 C 46 48.242188 48.242188 46 51 46 Z M 15 49 C 13.894531 49 13 49.894531 13 51 C 13 52.105469 13.894531 53 15 53 C 16.105469 53 17 52.105469 17 51 C 17 49.894531 16.105469 49 15 49 Z M 51 49 C 49.894531 49 49 49.894531 49 51 C 49 52.105469 49.894531 53 51 53 C 52.105469 53 53 52.105469 53 51 C 53 49.894531 52.105469 49 51 49 Z"/></svg>