<svg fill="#000000" xmlns="http://www.w3.org/2000/svg"  viewBox="0 0 80 80" width="80px" height="80px"><path d="M 15 10 C 12.242188 10 10 12.242188 10 15 L 10 64 L 40.515625 64 L 39.515625 62 L 12 62 L 12 20 C 12.550781 20 13 19.550781 13 19 C 13 18.449219 12.550781 18 12 18 L 12 15 C 12 13.347656 13.347656 12 15 12 L 65 12 C 66.652344 12 68 13.347656 68 15 L 68 18 C 67.449219 18 67 18.449219 67 19 C 67 19.550781 67.449219 20 68 20 L 68 44.515625 L 70 46.515625 L 70 15 C 70 12.242188 67.757813 10 65 10 Z M 16 18 C 15.449219 18 15 18.449219 15 19 C 15 19.550781 15.449219 20 16 20 C 16.550781 20 17 19.550781 17 19 C 17 18.449219 16.550781 18 16 18 Z M 20 18 C 19.449219 18 19 18.449219 19 19 C 19 19.550781 19.449219 20 20 20 C 20.550781 20 21 19.550781 21 19 C 21 18.449219 20.550781 18 20 18 Z M 24 18 C 23.449219 18 23 18.449219 23 19 C 23 19.550781 23.449219 20 24 20 C 24.550781 20 25 19.550781 25 19 C 25 18.449219 24.550781 18 24 18 Z M 28 18 C 27.449219 18 27 18.449219 27 19 C 27 19.550781 27.449219 20 28 20 C 28.550781 20 29 19.550781 29 19 C 29 18.449219 28.550781 18 28 18 Z M 32 18 C 31.449219 18 31 18.449219 31 19 C 31 19.550781 31.449219 20 32 20 C 32.550781 20 33 19.550781 33 19 C 33 18.449219 32.550781 18 32 18 Z M 36 18 C 35.449219 18 35 18.449219 35 19 C 35 19.550781 35.449219 20 36 20 C 36.550781 20 37 19.550781 37 19 C 37 18.449219 36.550781 18 36 18 Z M 40 18 C 39.449219 18 39 18.449219 39 19 C 39 19.550781 39.449219 20 40 20 C 40.550781 20 41 19.550781 41 19 C 41 18.449219 40.550781 18 40 18 Z M 44 18 C 43.449219 18 43 18.449219 43 19 C 43 19.550781 43.449219 20 44 20 C 44.550781 20 45 19.550781 45 19 C 45 18.449219 44.550781 18 44 18 Z M 48 18 C 47.449219 18 47 18.449219 47 19 C 47 19.550781 47.449219 20 48 20 C 48.550781 20 49 19.550781 49 19 C 49 18.449219 48.550781 18 48 18 Z M 52 18 C 51.449219 18 51 18.449219 51 19 C 51 19.550781 51.449219 20 52 20 C 52.550781 20 53 19.550781 53 19 C 53 18.449219 52.550781 18 52 18 Z M 56 18 C 55.449219 18 55 18.449219 55 19 C 55 19.550781 55.449219 20 56 20 C 56.550781 20 57 19.550781 57 19 C 57 18.449219 56.550781 18 56 18 Z M 60 18 C 59.449219 18 59 18.449219 59 19 C 59 19.550781 59.449219 20 60 20 C 60.550781 20 61 19.550781 61 19 C 61 18.449219 60.550781 18 60 18 Z M 64 18 C 63.449219 18 63 18.449219 63 19 C 63 19.550781 63.449219 20 64 20 C 64.550781 20 65 19.550781 65 19 C 65 18.449219 64.550781 18 64 18 Z M 23 29 C 21.894531 29 21 29.894531 21 31 C 21 32.105469 21.894531 33 23 33 C 24.105469 33 25 32.105469 25 31 C 25 29.894531 24.105469 29 23 29 Z M 28 30 L 28 32 L 57 32 L 57 30 Z M 23 37 C 21.894531 37 21 37.894531 21 39 C 21 40.105469 21.894531 41 23 41 C 24.105469 41 25 40.105469 25 39 C 25 37.894531 24.105469 37 23 37 Z M 28 38 L 28 40 L 57 40 L 57 38 Z M 56 42 C 48.28125 42 42 48.28125 42 56 C 42 63.71875 48.28125 70 56 70 C 59.5 70 62.695313 68.699219 65.15625 66.566406 L 67.015625 68.429688 L 66.78125 68.664063 C 65.933594 69.511719 65.933594 70.914063 66.78125 71.757813 L 74.382813 79.359375 C 75.226563 80.203125 76.628906 80.207031 77.476563 79.359375 L 79.359375 77.476563 C 80.203125 76.632813 80.207031 75.230469 79.359375 74.382813 L 71.757813 66.78125 C 71.335938 66.359375 70.773438 66.148438 70.210938 66.144531 C 69.648438 66.144531 69.085938 66.359375 68.664063 66.78125 L 68.429688 67.015625 L 66.566406 65.15625 C 68.699219 62.695313 70 59.5 70 56 C 70 48.28125 63.71875 42 56 42 Z M 56 44 C 62.640625 44 68 49.359375 68 56 C 68 62.640625 62.640625 68 56 68 C 49.359375 68 44 62.640625 44 56 C 44 49.359375 49.359375 44 56 44 Z M 23 45 C 21.894531 45 21 45.894531 21 47 C 21 48.105469 21.894531 49 23 49 C 24.105469 49 25 48.105469 25 47 C 25 45.894531 24.105469 45 23 45 Z M 28 46 L 28 48 L 41 48 L 42 46 Z M 56 46 C 55.449219 46 55 46.449219 55 47 C 55 47.550781 55.449219 48 56 48 C 56.550781 48 57 47.550781 57 47 C 57 46.449219 56.550781 46 56 46 Z M 51.472656 47.203125 C 51.308594 47.207031 51.144531 47.253906 51 47.339844 C 50.769531 47.46875 50.601563 47.6875 50.53125 47.945313 C 50.464844 48.203125 50.5 48.476563 50.632813 48.703125 C 50.910156 49.183594 51.519531 49.347656 52 49.070313 C 52.476563 48.792969 52.640625 48.183594 52.363281 47.703125 C 52.183594 47.386719 51.839844 47.195313 51.472656 47.203125 Z M 60.453125 47.207031 C 60.113281 47.226563 59.804688 47.414063 59.632813 47.707031 C 59.355469 48.183594 59.519531 48.796875 60 49.074219 C 60.226563 49.207031 60.5 49.242188 60.757813 49.171875 C 61.015625 49.105469 61.234375 48.9375 61.363281 48.707031 C 61.640625 48.230469 61.476563 47.617188 61 47.34375 C 60.832031 47.246094 60.640625 47.199219 60.453125 47.207031 Z M 63.769531 50.5 C 63.601563 50.503906 63.4375 50.550781 63.292969 50.632813 C 62.816406 50.910156 62.648438 51.519531 62.925781 52 C 63.058594 52.226563 63.277344 52.394531 63.535156 52.464844 C 63.789063 52.535156 64.0625 52.5 64.292969 52.363281 C 64.523438 52.234375 64.691406 52.015625 64.757813 51.757813 C 64.828125 51.5 64.792969 51.226563 64.65625 51 C 64.476563 50.683594 64.132813 50.492188 63.769531 50.5 Z M 48.15625 50.5 C 47.816406 50.519531 47.507813 50.707031 47.339844 51 C 47.0625 51.480469 47.226563 52.089844 47.703125 52.367188 C 48.183594 52.644531 48.792969 52.480469 49.070313 52 C 49.203125 51.773438 49.238281 51.5 49.171875 51.242188 C 49.101563 50.984375 48.933594 50.765625 48.703125 50.636719 C 48.539063 50.539063 48.347656 50.492188 48.15625 50.5 Z M 47 55 C 46.449219 55 46 55.449219 46 56 C 46 56.550781 46.449219 57 47 57 C 47.550781 57 48 56.550781 48 56 C 48 55.449219 47.550781 55 47 55 Z M 65 55 C 64.449219 55 64 55.449219 64 56 C 64 56.550781 64.449219 57 65 57 C 65.550781 57 66 56.550781 66 56 C 66 55.449219 65.550781 55 65 55 Z M 48.183594 59.5 C 48.015625 59.503906 47.851563 59.546875 47.703125 59.632813 C 47.226563 59.910156 47.0625 60.519531 47.339844 61 C 47.46875 61.226563 47.6875 61.394531 47.945313 61.464844 C 48.203125 61.535156 48.476563 61.5 48.703125 61.363281 C 48.933594 61.234375 49.101563 61.015625 49.171875 60.757813 C 49.238281 60.5 49.203125 60.226563 49.070313 60 C 48.886719 59.679688 48.546875 59.488281 48.183594 59.5 Z M 63.746094 59.503906 C 63.40625 59.519531 63.097656 59.707031 62.925781 60 C 62.648438 60.480469 62.816406 61.089844 63.292969 61.367188 C 63.769531 61.644531 64.382813 61.480469 64.65625 61 C 64.933594 60.523438 64.769531 59.914063 64.292969 59.636719 C 64.128906 59.539063 63.9375 59.496094 63.746094 59.503906 Z M 60.472656 62.792969 C 60.308594 62.796875 60.144531 62.84375 60 62.925781 C 59.769531 63.058594 59.601563 63.277344 59.53125 63.535156 C 59.464844 63.789063 59.5 64.0625 59.632813 64.292969 C 59.910156 64.769531 60.519531 64.933594 61 64.65625 C 61.476563 64.382813 61.640625 63.769531 61.363281 63.292969 C 61.183594 62.976563 60.839844 62.785156 60.472656 62.792969 Z M 51.453125 62.796875 C 51.113281 62.8125 50.804688 63 50.632813 63.296875 C 50.355469 63.773438 50.519531 64.382813 51 64.660156 C 51.226563 64.792969 51.5 64.828125 51.757813 64.761719 C 52.015625 64.691406 52.234375 64.523438 52.363281 64.296875 C 52.640625 63.816406 52.476563 63.207031 52 62.929688 C 51.832031 62.832031 51.640625 62.789063 51.453125 62.796875 Z M 56 64 C 55.449219 64 55 64.449219 55 65 C 55 65.550781 55.449219 66 56 66 C 56.550781 66 57 65.550781 57 65 C 57 64.449219 56.550781 64 56 64 Z M 70.210938 68.136719 C 70.257813 68.136719 70.300781 68.15625 70.34375 68.195313 L 77.945313 75.796875 C 78.027344 75.878906 78.027344 75.980469 77.945313 76.0625 L 76.0625 77.945313 C 75.980469 78.027344 75.878906 78.027344 75.796875 77.945313 L 68.195313 70.34375 C 68.113281 70.261719 68.113281 70.160156 68.195313 70.078125 L 70.078125 68.195313 C 70.117188 68.15625 70.164063 68.132813 70.210938 68.136719 Z"/></svg>