<?xml version="1.0"?><svg fill="#000000" xmlns="http://www.w3.org/2000/svg"  viewBox="0 0 80 80" width="80px" height="80px">    <path d="M 11.71875 10 L 13.21875 16 L 14 16 L 14 70 L 31.558594 70 C 31.749594 69.313 31.979719 68.644 32.261719 68 L 16 68 L 16 16 C 16.551 16 17 15.551 17 15 C 17 14.449 16.551 14 16 14 L 14.78125 14 L 14.28125 12 L 61.71875 12 L 61.21875 14 L 60 14 C 59.449 14 59 14.449 59 15 C 59 15.551 59.449 16 60 16 L 60 51.017578 C 60.569 50.257578 61.242 49.584672 62 49.013672 L 62 16 L 62.78125 16 L 64.28125 10 L 11.71875 10 z M 20 14 C 19.449 14 19 14.449 19 15 C 19 15.551 19.449 16 20 16 C 20.551 16 21 15.551 21 15 C 21 14.449 20.551 14 20 14 z M 24 14 C 23.449 14 23 14.449 23 15 C 23 15.551 23.449 16 24 16 C 24.551 16 25 15.551 25 15 C 25 14.449 24.551 14 24 14 z M 28 14 C 27.449 14 27 14.449 27 15 C 27 15.551 27.449 16 28 16 C 28.551 16 29 15.551 29 15 C 29 14.449 28.551 14 28 14 z M 32 14 C 31.449 14 31 14.449 31 15 C 31 15.551 31.449 16 32 16 C 32.551 16 33 15.551 33 15 C 33 14.449 32.551 14 32 14 z M 36 14 C 35.449 14 35 14.449 35 15 C 35 15.551 35.449 16 36 16 C 36.551 16 37 15.551 37 15 C 37 14.449 36.551 14 36 14 z M 40 14 C 39.449 14 39 14.449 39 15 C 39 15.551 39.449 16 40 16 C 40.551 16 41 15.551 41 15 C 41 14.449 40.551 14 40 14 z M 44 14 C 43.449 14 43 14.449 43 15 C 43 15.551 43.449 16 44 16 C 44.551 16 45 15.551 45 15 C 45 14.449 44.551 14 44 14 z M 48 14 C 47.449 14 47 14.449 47 15 C 47 15.551 47.449 16 48 16 C 48.551 16 49 15.551 49 15 C 49 14.449 48.551 14 48 14 z M 52 14 C 51.449 14 51 14.449 51 15 C 51 15.551 51.449 16 52 16 C 52.551 16 53 15.551 53 15 C 53 14.449 52.551 14 52 14 z M 56 14 C 55.449 14 55 14.449 55 15 C 55 15.551 55.449 16 56 16 C 56.551 16 57 15.551 57 15 C 57 14.449 56.551 14 56 14 z M 20 20 L 20 28 L 30 28 L 30 27 L 30 20 L 20 20 z M 33 20 L 33 28 L 43 28 L 43 27 L 43 20 L 33 20 z M 46 20 L 46 28 L 56 28 L 56 27 L 56 20 L 46 20 z M 22 22 L 28 22 L 28 26 L 22 26 L 22 22 z M 35 22 L 41 22 L 41 26 L 35 26 L 35 22 z M 48 22 L 54 22 L 54 26 L 48 26 L 48 22 z M 20 32 L 20 33 L 20 40 L 30 40 L 30 32 L 20 32 z M 33 32 L 33 33 L 33 40 L 43 40 L 43 32 L 33 32 z M 46 32 L 46 33 L 46 40 L 56 40 L 56 32 L 46 32 z M 22 34 L 28 34 L 28 38 L 22 38 L 22 34 z M 35 34 L 41 34 L 41 38 L 35 38 L 35 34 z M 48 34 L 54 34 L 54 38 L 48 38 L 48 34 z M 20 44 L 20 45 L 20 52 L 30 52 L 30 44 L 20 44 z M 33 44 L 33 52 L 37.353516 52 C 37.776516 51.271 38.284094 50.598 38.871094 50 L 35 50 L 35 46 L 41 46 L 41 48.353516 C 41.628 47.988516 42.295 47.682938 43 47.460938 L 43 44 L 33 44 z M 46 44 L 46 47 C 46.685 47 47.354 47.069172 48 47.201172 L 48 46 L 54 46 L 54 50 L 53.128906 50 C 53.715906 50.598 54.222484 51.271 54.646484 52 L 56 52 L 56 44 L 46 44 z M 22 46 L 28 46 L 28 50 L 22 50 L 22 46 z M 46 50 C 42.145666 50 39 53.145666 39 57 C 39 59.35552 40.179175 61.44102 41.972656 62.710938 C 37.333972 64.37129 34 68.797421 34 74 L 36 74 C 36 68.463069 40.463069 64 46 64 C 51.536931 64 56 68.463069 56 74 L 58 74 C 58 68.463069 62.463069 64 68 64 C 73.536931 64 78 68.463069 78 74 L 80 74 C 80 68.797421 76.666028 64.37129 72.027344 62.710938 C 73.820825 61.44102 75 59.35552 75 57 L 75 56 L 74.796875 56 C 74.290525 52.636854 71.50012 50 68 50 C 64.145666 50 61 53.145666 61 57 C 61 59.35552 62.179175 61.44102 63.972656 62.710938 C 60.848771 63.829089 58.318765 66.197431 57 69.220703 C 55.681235 66.197431 53.151229 63.829088 50.027344 62.710938 C 51.820825 61.44102 53 59.35552 53 57 L 53 56 L 52.796875 56 C 52.290525 52.636854 49.50012 50 46 50 z M 46 52 C 48.773666 52 51 54.226334 51 57 C 51 59.773666 48.773666 62 46 62 C 43.226334 62 41 59.773666 41 57 C 41 54.226334 43.226334 52 46 52 z M 68 52 C 70.773666 52 73 54.226334 73 57 C 73 59.773666 70.773666 62 68 62 C 65.226334 62 63 59.773666 63 57 C 63 54.226334 65.226334 52 68 52 z M 20 56 L 20 57 L 20 64 L 30 64 L 30 56 L 20 56 z M 33 56 L 33 64 L 34.851562 64 C 35.514563 63.264 36.247969 62.594 37.042969 62 L 35 62 L 35 58 L 36.064453 58 C 36.031453 57.67 36 57.339 36 57 C 36 56.662 36.017781 56.329 36.050781 56 L 33 56 z M 22 58 L 28 58 L 28 62 L 22 62 L 22 58 z M 40 72 C 39.449 72 39 72.449 39 73 C 39 73.551 39.449 74 40 74 C 40.551 74 41 73.551 41 73 C 41 72.449 40.551 72 40 72 z M 44 72 C 43.449 72 43 72.449 43 73 C 43 73.551 43.449 74 44 74 C 44.551 74 45 73.551 45 73 C 45 72.449 44.551 72 44 72 z M 48 72 C 47.449 72 47 72.449 47 73 C 47 73.551 47.449 74 48 74 C 48.551 74 49 73.551 49 73 C 49 72.449 48.551 72 48 72 z M 52 72 C 51.449 72 51 72.449 51 73 C 51 73.551 51.449 74 52 74 C 52.551 74 53 73.551 53 73 C 53 72.449 52.551 72 52 72 z M 62 72 C 61.449 72 61 72.449 61 73 C 61 73.551 61.449 74 62 74 C 62.551 74 63 73.551 63 73 C 63 72.449 62.551 72 62 72 z M 66 72 C 65.449 72 65 72.449 65 73 C 65 73.551 65.449 74 66 74 C 66.551 74 67 73.551 67 73 C 67 72.449 66.551 72 66 72 z M 70 72 C 69.449 72 69 72.449 69 73 C 69 73.551 69.449 74 70 74 C 70.551 74 71 73.551 71 73 C 71 72.449 70.551 72 70 72 z M 74 72 C 73.449 72 73 72.449 73 73 C 73 73.551 73.449 74 74 74 C 74.551 74 75 73.551 75 73 C 75 72.449 74.551 72 74 72 z"/></svg>