<svg fill="#000000" xmlns="http://www.w3.org/2000/svg"  viewBox="0 0 64 64" width="64px" height="64px"><path d="M 43.40625 3.480469 C 42.628906 3.480469 41.851563 3.761719 41.28125 4.328125 C 40.113281 5.5 40.113281 7.402344 41.28125 8.570313 L 5.929688 43.929688 C 2.03125 47.828125 2.03125 54.171875 5.929688 58.074219 C 7.878906 60.019531 10.441406 60.996094 13 60.996094 C 15.558594 60.996094 18.121094 60.019531 20.070313 58.074219 L 55.425781 22.71875 C 56.011719 23.300781 56.777344 23.59375 57.546875 23.59375 C 58.316406 23.59375 59.082031 23.300781 59.667969 22.71875 C 60.234375 22.152344 60.546875 21.398438 60.546875 20.59375 C 60.546875 19.792969 60.234375 19.039063 59.671875 18.472656 L 45.527344 4.328125 C 44.960938 3.765625 44.183594 3.480469 43.40625 3.480469 Z M 43.40625 5.453125 C 43.671875 5.453125 43.921875 5.554688 44.109375 5.742188 L 58.253906 19.890625 C 58.445313 20.078125 58.546875 20.328125 58.546875 20.59375 C 58.546875 20.863281 58.445313 21.113281 58.253906 21.300781 C 57.863281 21.695313 57.234375 21.695313 56.84375 21.300781 L 56.136719 20.59375 L 43.40625 7.867188 L 42.699219 7.15625 C 42.308594 6.769531 42.308594 6.132813 42.699219 5.742188 C 42.886719 5.554688 43.136719 5.453125 43.40625 5.453125 Z M 42.699219 9.984375 L 54.011719 21.300781 L 43.921875 31.390625 C 43.167969 29.875 41.480469 29 39.21875 28.25 L 38.65625 28.0625 C 35.074219 26.867188 32.800781 24.597656 31.703125 21.121094 C 31.691406 21.085938 31.667969 21.0625 31.65625 21.03125 Z M 41.285156 15.683594 C 40.390625 15.683594 39.492188 16.023438 38.8125 16.703125 C 37.445313 18.070313 37.445313 20.289063 38.8125 21.65625 C 39.492188 22.335938 40.390625 22.675781 41.285156 22.675781 C 42.179688 22.675781 43.078125 22.335938 43.761719 21.65625 C 45.125 20.289063 45.125 18.070313 43.761719 16.703125 C 43.078125 16.023438 42.179688 15.683594 41.285156 15.683594 Z M 41.285156 17.683594 C 41.671875 17.683594 42.054688 17.828125 42.34375 18.121094 C 42.929688 18.703125 42.929688 19.65625 42.34375 20.238281 C 41.761719 20.824219 40.8125 20.824219 40.222656 20.238281 C 39.640625 19.65625 39.640625 18.703125 40.222656 18.121094 C 40.515625 17.828125 40.902344 17.683594 41.285156 17.683594 Z M 30.113281 22.574219 C 31.511719 26.21875 34.09375 28.648438 38.019531 29.957031 L 38.589844 30.144531 C 41.535156 31.128906 42.21875 31.933594 42.339844 32.972656 L 18.65625 56.65625 C 17.144531 58.167969 15.136719 59 13 59 C 10.863281 59 8.855469 58.167969 7.34375 56.65625 C 5.832031 55.144531 5 53.136719 5 51 C 5 48.863281 5.832031 46.855469 7.34375 45.34375 Z M 30.675781 32.152344 C 29.609375 32.152344 28.605469 32.566406 27.847656 33.324219 C 26.289063 34.882813 26.289063 37.417969 27.847656 38.980469 C 28.628906 39.757813 29.652344 40.148438 30.675781 40.148438 C 31.699219 40.148438 32.726563 39.757813 33.503906 38.980469 C 35.066406 37.417969 35.066406 34.882813 33.503906 33.324219 C 32.75 32.566406 31.746094 32.152344 30.675781 32.152344 Z M 30.675781 34.152344 C 31.210938 34.152344 31.714844 34.359375 32.09375 34.734375 C 32.871094 35.515625 32.871094 36.785156 32.09375 37.5625 C 31.3125 38.34375 30.039063 38.339844 29.265625 37.5625 C 28.484375 36.785156 28.484375 35.515625 29.265625 34.734375 C 29.640625 34.359375 30.144531 34.152344 30.675781 34.152344 Z M 17.949219 38.808594 C 17.179688 38.808594 16.414063 39.101563 15.828125 39.6875 C 14.660156 40.859375 14.660156 42.757813 15.828125 43.929688 C 16.414063 44.515625 17.179688 44.808594 17.949219 44.808594 C 18.71875 44.808594 19.484375 44.515625 20.070313 43.929688 L 20.074219 43.929688 C 21.238281 42.757813 21.238281 40.859375 20.070313 39.6875 C 19.484375 39.101563 18.71875 38.808594 17.949219 38.808594 Z M 17.949219 40.808594 C 18.207031 40.808594 18.460938 40.90625 18.65625 41.101563 C 19.046875 41.492188 19.046875 42.125 18.65625 42.515625 C 18.265625 42.90625 17.632813 42.90625 17.242188 42.515625 C 16.851563 42.125 16.851563 41.492188 17.242188 41.101563 C 17.4375 40.90625 17.691406 40.808594 17.949219 40.808594 Z M 10.171875 45.757813 C 9.914063 45.757813 9.660156 45.855469 9.464844 46.050781 L 8.050781 47.464844 C 7.660156 47.855469 7.660156 48.488281 8.050781 48.878906 C 8.246094 49.074219 8.5 49.171875 8.757813 49.171875 C 9.015625 49.171875 9.269531 49.074219 9.464844 48.878906 L 10.878906 47.464844 C 11.269531 47.074219 11.269531 46.441406 10.878906 46.050781 C 10.683594 45.855469 10.429688 45.757813 10.171875 45.757813 Z M 13.707031 49.292969 C 13.453125 49.292969 13.195313 49.390625 13 49.585938 L 11.585938 51 C 11.195313 51.390625 11.195313 52.023438 11.585938 52.414063 C 11.78125 52.609375 12.035156 52.707031 12.292969 52.707031 C 12.550781 52.707031 12.804688 52.609375 13 52.414063 L 14.414063 51 C 14.804688 50.609375 14.804688 49.976563 14.414063 49.585938 C 14.21875 49.390625 13.960938 49.292969 13.707031 49.292969 Z M 17.242188 52.828125 C 16.988281 52.828125 16.730469 52.925781 16.535156 53.121094 L 15.121094 54.535156 C 14.730469 54.925781 14.730469 55.558594 15.121094 55.949219 C 15.316406 56.144531 15.570313 56.242188 15.828125 56.242188 C 16.085938 56.242188 16.339844 56.144531 16.535156 55.949219 L 17.949219 54.535156 C 18.339844 54.144531 18.339844 53.511719 17.949219 53.121094 C 17.753906 52.925781 17.496094 52.828125 17.242188 52.828125 Z"/></svg>