<svg fill="#000000" xmlns="http://www.w3.org/2000/svg"  viewBox="0 0 80 80" width="80px" height="80px"><path d="M 11 15 L 11 18 L 6 18 L 6 67 L 35.503906 67 C 36.285156 68.746094 37.972656 70 40 70 C 42.027344 70 43.714844 68.746094 44.496094 67 L 74 67 L 74 18 L 69 18 L 69 15 L 43 15 C 41.789063 15 40.734375 15.578125 40 16.4375 C 39.265625 15.578125 38.210938 15 37 15 Z M 13 17 L 37 17 C 38.117188 17 39 17.882813 39 19 L 41 19 C 41 17.882813 41.882813 17 43 17 L 67 17 L 67 60 L 43 60 C 41.789063 60 40.734375 60.578125 40 61.4375 C 39.265625 60.578125 38.210938 60 37 60 L 13 60 Z M 8 20 L 11 20 L 11 62 L 37 62 C 38.117188 62 39 62.882813 39 64 L 41 64 C 41 62.882813 41.882813 62 43 62 L 69 62 L 69 20 L 72 20 L 72 65 L 43.085938 65 L 42.890625 65.75 C 42.554688 67.042969 41.40625 68 40 68 C 38.59375 68 37.445313 67.042969 37.109375 65.75 L 36.914063 65 L 8 65 Z M 40 21 C 39.449219 21 39 21.449219 39 22 C 39 22.550781 39.449219 23 40 23 C 40.550781 23 41 22.550781 41 22 C 41 21.449219 40.550781 21 40 21 Z M 40 25 C 39.449219 25 39 25.449219 39 26 C 39 26.550781 39.449219 27 40 27 C 40.550781 27 41 26.550781 41 26 C 41 25.449219 40.550781 25 40 25 Z M 55 25 C 53.34375 25 52 26.34375 52 28 C 52 29.65625 53.34375 31 55 31 C 56.65625 31 58 29.65625 58 28 C 58 26.34375 56.65625 25 55 25 Z M 40 29 C 39.449219 29 39 29.449219 39 30 C 39 30.550781 39.449219 31 40 31 C 40.550781 31 41 30.550781 41 30 C 41 29.449219 40.550781 29 40 29 Z M 40 33 C 39.449219 33 39 33.449219 39 34 C 39 34.550781 39.449219 35 40 35 C 40.550781 35 41 34.550781 41 34 C 41 33.449219 40.550781 33 40 33 Z M 52 35 L 52 37 L 53 37 L 53 49 L 52 49 L 52 51 L 58 51 L 58 49 L 57 49 L 57 35 Z M 40 37 C 39.449219 37 39 37.449219 39 38 C 39 38.550781 39.449219 39 40 39 C 40.550781 39 41 38.550781 41 38 C 41 37.449219 40.550781 37 40 37 Z M 40 41 C 39.449219 41 39 41.449219 39 42 C 39 42.550781 39.449219 43 40 43 C 40.550781 43 41 42.550781 41 42 C 41 41.449219 40.550781 41 40 41 Z M 40 45 C 39.449219 45 39 45.449219 39 46 C 39 46.550781 39.449219 47 40 47 C 40.550781 47 41 46.550781 41 46 C 41 45.449219 40.550781 45 40 45 Z M 40 49 C 39.449219 49 39 49.449219 39 50 C 39 50.550781 39.449219 51 40 51 C 40.550781 51 41 50.550781 41 50 C 41 49.449219 40.550781 49 40 49 Z M 40 53 C 39.449219 53 39 53.449219 39 54 C 39 54.550781 39.449219 55 40 55 C 40.550781 55 41 54.550781 41 54 C 41 53.449219 40.550781 53 40 53 Z M 40 57 C 39.449219 57 39 57.449219 39 58 C 39 58.550781 39.449219 59 40 59 C 40.550781 59 41 58.550781 41 58 C 41 57.449219 40.550781 57 40 57 Z"/></svg>