<svg fill="#000000" xmlns="http://www.w3.org/2000/svg"  viewBox="0 0 80 80" width="80px" height="80px"><path d="M 29 19 C 27.390625 19 25.96875 19.785156 25.050781 20.972656 C 24.28125 20.582031 23.507813 20.296875 22.734375 20.144531 C 21.734375 19.949219 20.726563 19.960938 19.703125 20.203125 C 17.660156 20.683594 15.621094 21.984375 13.144531 24.035156 C 10.339844 26.359375 4.359375 31.347656 4.359375 31.347656 C 3.933594 31.703125 3.878906 32.335938 4.230469 32.757813 C 4.585938 33.183594 5.214844 33.242188 5.640625 32.886719 C 5.640625 32.886719 11.625 27.894531 14.421875 25.578125 C 16.796875 23.609375 18.628906 22.511719 20.164063 22.144531 C 21.53125 21.824219 22.726563 22.03125 24.167969 22.785156 C 24.066406 23.179688 24 23.578125 24 24 L 24 44.453125 L 21.285156 45.734375 C 20.957031 45.882813 20.730469 46.199219 20.699219 46.558594 C 20.667969 46.917969 20.832031 47.265625 21.128906 47.472656 C 21.429688 47.675781 21.816406 47.703125 22.140625 47.542969 L 39.8125 39.203125 L 39.316406 38.707031 C 39.621094 39.011719 40.078125 39.085938 40.464844 38.902344 C 41.304688 38.492188 42.25 38 43 38 C 45.21875 38 47 39.78125 47 42 C 47 43.265625 46.40625 44.371094 45.480469 45.109375 C 45.070313 45.4375 44.984375 46.027344 45.28125 46.460938 L 44.726563 45.738281 L 28.292969 58.402344 C 25.355469 60.664063 21.753906 61.890625 18.046875 61.890625 L 6 61.890625 C 5.640625 61.886719 5.304688 62.074219 5.121094 62.386719 C 4.941406 62.699219 4.941406 63.082031 5.121094 63.394531 C 5.304688 63.707031 5.640625 63.894531 6 63.890625 L 18.046875 63.890625 C 21.65625 63.890625 25.175781 62.847656 28.195313 60.910156 C 29.203125 62.179688 30.757813 63 32.5 63 C 34.210938 63 35.511719 61.898438 36.414063 60.933594 C 36.484375 60.855469 36.460938 60.855469 36.53125 60.777344 C 37.402344 62.664063 39.292969 64 41.5 64 C 43.199219 64 44.519531 63.144531 45.359375 62.09375 C 45.757813 61.59375 45.863281 61.066406 46.113281 60.53125 C 46.863281 61.296875 48.109375 62 49.964844 62 C 51.449219 62 52.78125 61.429688 53.792969 60.488281 C 54.804688 59.546875 55.515625 58.261719 55.957031 56.785156 L 55.964844 56.769531 L 57.019531 53 L 71 53 C 73.75 53 76 50.75 76 48 L 76 24 C 76 21.25 73.75 19 71 19 Z M 29 21 L 71 21 C 72.667969 21 74 22.332031 74 24 L 74 26 L 26 26 L 26 24 C 26 22.332031 27.332031 21 29 21 Z M 26 30 L 74 30 L 74 48 C 74 49.667969 72.667969 51 71 51 L 41.175781 51 L 46.738281 46.714844 C 46.890625 46.597656 47.007813 46.4375 47.070313 46.253906 C 48.207031 45.167969 49 43.703125 49 42 C 49 38.699219 46.300781 36 43 36 C 41.539063 36 40.367188 36.71875 39.644531 37.074219 C 39.628906 37.082031 39.613281 37.089844 39.597656 37.09375 L 26 43.511719 Z M 31 32 C 30.449219 32 30 32.449219 30 33 C 30 33.550781 30.449219 34 31 34 C 31.550781 34 32 33.550781 32 33 C 32 32.449219 31.550781 32 31 32 Z M 35 32 C 34.449219 32 34 32.449219 34 33 C 34 33.550781 34.449219 34 35 34 C 35.550781 34 36 33.550781 36 33 C 36 32.449219 35.550781 32 35 32 Z M 39 32 C 38.449219 32 38 32.449219 38 33 C 38 33.550781 38.449219 34 39 34 C 39.550781 34 40 33.550781 40 33 C 40 32.449219 39.550781 32 39 32 Z M 43 32 C 42.449219 32 42 32.449219 42 33 C 42 33.550781 42.449219 34 43 34 C 43.550781 34 44 33.550781 44 33 C 44 32.449219 43.550781 32 43 32 Z M 40 41 C 39.449219 41 39 41.449219 39 42 C 39 42.550781 39.449219 43 40 43 C 40.550781 43 41 42.550781 41 42 C 41 41.449219 40.550781 41 40 41 Z M 42 44 C 41.449219 44 41 44.449219 41 45 C 41 45.550781 41.449219 46 42 46 C 42.550781 46 43 45.550781 43 45 C 43 44.449219 42.550781 44 42 44 Z M 38.578125 53 L 54.941406 53 L 54.042969 56.21875 C 53.679688 57.425781 53.113281 58.390625 52.429688 59.027344 C 51.746094 59.664063 50.964844 60 49.964844 60 C 48.5 60 47.835938 59.519531 47.441406 59.078125 C 47.046875 58.640625 46.976563 58.285156 46.976563 58.285156 L 45.042969 58.21875 C 44.773438 59.113281 44.371094 60.125 43.796875 60.84375 C 43.222656 61.5625 42.578125 62 41.5 62 C 39.554688 62 38 60.445313 38 58.5 L 36.132813 58 C 36.132813 58 35.675781 58.785156 34.949219 59.566406 C 34.222656 60.351563 33.273438 61 32.5 61 C 31.417969 61 30.464844 60.511719 29.824219 59.746094 Z M 38 54 C 37.449219 54 37 54.449219 37 55 C 37 55.550781 37.449219 56 38 56 C 38.550781 56 39 55.550781 39 55 C 39 54.449219 38.550781 54 38 54 Z M 47 54 C 46.449219 54 46 54.449219 46 55 C 46 55.550781 46.449219 56 47 56 C 47.550781 56 48 55.550781 48 55 C 48 54.449219 47.550781 54 47 54 Z"/></svg>