<svg fill="#000000" xmlns="http://www.w3.org/2000/svg"  viewBox="0 0 50 50" width="50px" height="50px"><path d="M 9.9550781 -0.0078125 A 1.0001 1.0001 0 0 0 9.3925781 1.7949219 C 9.3925781 1.7949219 20.644472 10.436534 27.207031 13.734375 C 29.630337 14.9527 29.706349 18.257285 27.355469 19.621094 A 1.0001 1.0001 0 0 0 27.355469 19.623047 C 25.880302 20.479359 24.143678 20.965453 23.484375 21.015625 C 23.184378 21.038599 22.933548 20.826543 22.875 20.46875 C 22.030242 15.306588 17.294638 11.311469 12.916016 8.5 C 8.5373925 5.6885306 4.3632813 4.0683594 4.3632812 4.0683594 A 1.0001 1.0001 0 1 0 3.6367188 5.9316406 C 3.6367188 5.9316406 7.6495597 7.4955629 11.835938 10.183594 C 16.022315 12.871624 20.229149 16.691131 20.900391 20.792969 C 21.111843 22.085176 22.268716 23.114744 23.636719 23.009766 C 24.843416 22.917936 26.616542 22.363251 28.359375 21.351562 C 31.986495 19.247373 31.856163 13.83294 28.105469 11.947266 C 21.988028 8.8731066 10.607422 0.20507812 10.607422 0.20507812 A 1.0001 1.0001 0 0 0 9.9550781 -0.0078125 z M 34.042969 10.921875 C 33.647915 10.913171 33.234117 10.9421 32.804688 11.013672 A 1.0001 1.0001 0 0 0 32.074219 12.447266 C 32.999683 14.298194 33.21875 15.883333 33.21875 17 C 33.21875 18.116667 33.019531 18.683594 33.019531 18.683594 A 1.0001 1.0001 0 0 0 33.96875 20 C 35.690972 20 37.070272 19.397739 37.933594 18.431641 C 38.796916 17.465542 39.12095 16.192284 38.960938 14.992188 C 38.680915 12.892019 36.808343 10.982806 34.042969 10.921875 z M 34.791016 12.970703 C 36.190706 13.232889 36.843535 14.245457 36.978516 15.257812 C 37.068506 15.932716 36.890586 16.596958 36.441406 17.099609 C 36.158395 17.416313 35.690768 17.646385 35.113281 17.806641 C 35.160919 17.454517 35.21875 17.481773 35.21875 17 C 35.21875 15.943201 34.92957 14.519254 34.373047 12.974609 C 34.501337 12.985619 34.673413 12.948673 34.791016 12.970703 z M 31.332031 22.888672 C 30.789697 22.927671 30.257244 23.139155 29.820312 23.544922 C 28.727162 24.560042 25.875834 25.051486 23.630859 25.103516 C 22.777643 25.122886 22.08744 25.758659 21.900391 26.46875 C 21.713341 27.178841 22.001086 28.072848 22.734375 28.509766 C 23.703658 29.088144 24.664238 29.671483 24.904297 29.832031 A 1.0001 1.0001 0 0 0 24.90625 29.833984 C 26.121451 30.644119 26.418009 30.962086 26.558594 31.326172 C 26.699178 31.690257 26.71584 32.482632 26.878906 34.03125 L 28.001953 49.074219 A 1.0008028 1.0008028 0 1 0 29.998047 48.925781 L 28.871094 33.851562 A 1.0001 1.0001 0 0 0 28.869141 33.822266 C 28.716207 32.369883 28.782991 31.535633 28.423828 30.605469 C 28.064805 29.675672 27.312436 29.033272 26.017578 28.169922 L 26.015625 28.169922 C 25.700576 27.959284 24.939076 27.50379 24.185547 27.052734 C 26.526409 26.972554 29.371657 26.690689 31.179688 25.011719 C 31.416539 24.791761 31.84647 24.855746 32.050781 25.158203 C 32.607847 25.982599 33.277582 26.967502 33.535156 27.994141 C 33.79273 29.020779 33.742616 30.046446 32.679688 31.375 A 1.0001 1.0001 0 0 0 32.460938 32.03125 L 33 49.03125 A 1.0004882 1.0004882 0 1 0 35 48.96875 L 34.466797 32.160156 C 35.559415 30.546432 35.817849 28.875897 35.474609 27.507812 C 35.098433 26.008451 34.243966 24.833668 33.707031 24.039062 C 33.274187 23.398291 32.593182 23.004561 31.875 22.90625 C 31.695455 22.881673 31.512809 22.875672 31.332031 22.888672 z M 24.412109 31.986328 A 1.0001 1.0001 0 0 0 23.460938 33.033203 L 24 49.033203 A 1.0005511 1.0005511 0 0 0 26 48.966797 L 25.460938 32.966797 A 1.0001 1.0001 0 0 0 24.412109 31.986328 z"/></svg>