<svg fill="#000000" xmlns="http://www.w3.org/2000/svg"  viewBox="0 0 80 80" width="80px" height="80px"><path d="M 40 7 C 27.309534 7 17 17.309534 17 30 C 17 33.339283 18.438315 37.538514 20.527344 42.103516 C 22.616372 46.668517 25.383374 51.566091 28.146484 56.078125 C 33.672705 65.102193 39.195312 72.59375 39.195312 72.59375 L 40 73.685547 L 40.804688 72.59375 C 40.804688 72.59375 46.327295 65.102193 51.853516 56.078125 C 54.616626 51.566091 57.383628 46.668517 59.472656 42.103516 C 61.561685 37.538514 63 33.339283 63 30 C 63 17.309534 52.690466 7 40 7 z M 40 9 C 51.609534 9 61 18.390466 61 30 C 61 32.735717 59.688315 36.822424 57.652344 41.271484 C 55.616372 45.720545 52.883374 50.563987 50.146484 55.033203 C 45.316174 62.920881 41.069749 68.79945 40 70.269531 C 38.930251 68.79945 34.683826 62.920881 29.853516 55.033203 C 27.116626 50.563987 24.383628 45.720545 22.347656 41.271484 C 20.311685 36.822424 19 32.735717 19 30 C 19 18.390466 28.390466 9 40 9 z M 34 16.365234 A 1.0001 1.0001 0 1 0 34 18.365234 A 1.0001 1.0001 0 1 0 34 16.365234 z M 46 16.365234 A 1.0001 1.0001 0 1 0 46 18.365234 A 1.0001 1.0001 0 1 0 46 16.365234 z M 30.720703 18.533203 L 29.919922 18.933594 L 29.761719 19.816406 L 30.375 20.470703 L 30.720703 20.533203 L 31.521484 20.130859 L 31.679688 19.25 L 31.068359 18.595703 L 30.720703 18.533203 z M 49.279297 18.533203 L 48.478516 18.933594 L 48.320312 19.816406 L 48.931641 20.470703 L 49.279297 20.533203 L 50.080078 20.130859 L 50.238281 19.25 L 49.625 18.595703 L 49.279297 18.533203 z M 28.181641 21.53125 L 27.380859 21.931641 L 27.222656 22.814453 L 27.835938 23.46875 L 28.181641 23.53125 L 28.984375 23.128906 L 29.140625 22.248047 L 28.529297 21.59375 L 28.181641 21.53125 z M 51.818359 21.53125 L 51.015625 21.931641 L 50.859375 22.814453 L 51.470703 23.46875 L 51.818359 23.53125 L 52.619141 23.128906 L 52.777344 22.248047 L 52.164062 21.59375 L 51.818359 21.53125 z M 40 23 C 36.145851 23 33 26.145851 33 30 C 33 33.854149 36.145851 37 40 37 C 43.854149 37 47 33.854149 47 30 C 47 26.145851 43.854149 23 40 23 z M 40 25 C 42.773268 25 45 27.226732 45 30 C 45 32.773268 42.773268 35 40 35 C 37.226732 35 35 32.773268 35 30 C 35 27.226732 37.226732 25 40 25 z M 26.570312 25.109375 L 25.767578 25.509766 L 25.611328 26.392578 L 26.222656 27.046875 L 26.570312 27.109375 L 27.371094 26.707031 L 27.529297 25.824219 L 26.916016 25.169922 L 26.570312 25.109375 z M 53.429688 25.109375 L 52.628906 25.509766 L 52.470703 26.392578 L 53.083984 27.046875 L 53.429688 27.109375 L 54.232422 26.707031 L 54.388672 25.824219 L 53.777344 25.169922 L 53.429688 25.109375 z M 26 28.994141 L 25.199219 29.396484 L 25.041016 30.277344 L 25.654297 30.931641 L 26 30.994141 L 26.800781 30.59375 L 26.958984 29.710938 L 26.347656 29.056641 L 26 28.994141 z M 54 28.994141 L 53.199219 29.396484 L 53.041016 30.277344 L 53.652344 30.931641 L 54 30.994141 L 54.800781 30.59375 L 54.958984 29.710938 L 54.345703 29.056641 L 54 28.994141 z M 26.554688 32.882812 L 25.753906 33.285156 L 25.595703 34.166016 L 26.207031 34.820312 L 26.554688 34.882812 L 27.355469 34.482422 L 27.513672 33.599609 L 26.900391 32.945312 L 26.554688 32.882812 z M 53.445312 32.882812 L 52.644531 33.285156 L 52.486328 34.166016 L 53.099609 34.820312 L 53.445312 34.882812 L 54.246094 34.482422 L 54.404297 33.599609 L 53.792969 32.945312 L 53.445312 32.882812 z M 28.162109 36.466797 L 27.361328 36.867188 L 27.203125 37.75 L 27.816406 38.404297 L 28.162109 38.466797 L 28.964844 38.064453 L 29.121094 37.183594 L 28.509766 36.527344 L 28.162109 36.466797 z M 51.837891 36.466797 L 51.035156 36.867188 L 50.878906 37.75 L 51.490234 38.404297 L 51.837891 38.466797 L 52.638672 38.064453 L 52.796875 37.183594 L 52.183594 36.527344 L 51.837891 36.466797 z M 30.714844 39.453125 L 29.912109 39.855469 L 29.755859 40.736328 L 30.367188 41.390625 L 30.714844 41.453125 L 31.515625 41.050781 L 31.673828 40.169922 L 31.060547 39.515625 L 30.714844 39.453125 z M 49.285156 39.453125 L 48.484375 39.855469 L 48.326172 40.736328 L 48.939453 41.390625 L 49.285156 41.453125 L 50.087891 41.050781 L 50.244141 40.169922 L 49.632812 39.515625 L 49.285156 39.453125 z M 34 41.634766 A 1.0001 1.0001 0 1 0 34 43.634766 A 1.0001 1.0001 0 1 0 34 41.634766 z M 46 41.634766 A 1.0001 1.0001 0 1 0 46 43.634766 A 1.0001 1.0001 0 1 0 46 41.634766 z"/></svg>