<svg fill="#000000" xmlns="http://www.w3.org/2000/svg"  viewBox="0 0 80 80" width="80px" height="80px"><path d="M 29 8 C 26.802666 8 25 9.8026661 25 12 L 25 17 A 1.0001 1.0001 0 0 0 26 18 L 29 18 L 29 20 L 23.5 20 C 21.578812 20 20 21.578812 20 23.5 C 20 24.479187 20.415709 25.362396 21.072266 26 C 18.099572 27.471933 16 30.467458 16 34 L 16 70 C 16 72.197334 17.802666 74 20 74 L 41 74 C 43.197334 74 45 72.197334 45 70 L 45 34 C 45 30.467458 42.900428 27.471933 39.927734 26 C 40.584291 25.362396 41 24.479187 41 23.5 C 41 21.578812 39.421188 20 37.5 20 L 31 20 L 31 18 L 34 18 A 1.0001 1.0001 0 0 0 35 17 L 35 12 C 35 9.8026661 33.197334 8 31 8 L 29 8 z M 29 10 L 31 10 C 32.116666 10 33 10.883334 33 12 L 33 16 L 30.167969 16 A 1.0001 1.0001 0 0 0 29.841797 16 L 27 16 L 27 12 C 27 10.883334 27.883334 10 29 10 z M 38 11 A 1 1 0 0 0 38 13 A 1 1 0 0 0 38 11 z M 44 11 A 1 1 0 0 0 44 13 A 1 1 0 0 0 44 11 z M 50 11 A 1 1 0 0 0 50 13 A 1 1 0 0 0 50 11 z M 56 11 A 1 1 0 0 0 56 13 A 1 1 0 0 0 56 11 z M 62 11 A 1 1 0 0 0 62 13 A 1 1 0 0 0 62 11 z M 68 11 A 1 1 0 0 0 68 13 A 1 1 0 0 0 68 11 z M 41 14 A 1 1 0 0 0 41 16 A 1 1 0 0 0 41 14 z M 47 14 A 1 1 0 0 0 47 16 A 1 1 0 0 0 47 14 z M 53 14 A 1 1 0 0 0 53 16 A 1 1 0 0 0 53 14 z M 59 14 A 1 1 0 0 0 59 16 A 1 1 0 0 0 59 14 z M 65 14 A 1 1 0 0 0 65 16 A 1 1 0 0 0 65 14 z M 50 17 A 1 1 0 0 0 50 19 A 1 1 0 0 0 50 17 z M 56 17 A 1 1 0 0 0 56 19 A 1 1 0 0 0 56 17 z M 62 17 A 1 1 0 0 0 62 19 A 1 1 0 0 0 62 17 z M 68 17 A 1 1 0 0 0 68 19 A 1 1 0 0 0 68 17 z M 59 20 A 1 1 0 0 0 59 22 A 1 1 0 0 0 59 20 z M 65 20 A 1 1 0 0 0 65 22 A 1 1 0 0 0 65 20 z M 23.5 22 L 37.5 22 C 38.340812 22 39 22.659188 39 23.5 C 39 24.340812 38.340812 25 37.5 25 L 36 25 A 1.0001 1.0001 0 0 0 35.617188 25.082031 A 1.0001 1.0001 0 0 0 35.615234 25.082031 C 35.613876 25.082551 35.612684 25.083458 35.611328 25.083984 A 1.0001 1.0001 0 0 0 35.359375 25.244141 C 35.337741 25.261961 35.30904 25.269085 35.289062 25.289062 C 35.266217 25.314446 35.256596 25.346375 35.236328 25.373047 A 1.0001 1.0001 0 0 0 35.117188 25.558594 A 1.0001 1.0001 0 0 0 35.113281 25.564453 C 35.104022 25.583565 35.088265 25.599493 35.080078 25.619141 C 35.072402 25.637564 35.075057 25.658876 35.068359 25.677734 A 1.0001 1.0001 0 0 0 35.019531 25.910156 C 35.016315 25.940735 35 25.969289 35 26 C 35 26.07 35.010531 26.129219 35.019531 26.199219 C 35.030531 26.259219 35.050078 26.320859 35.080078 26.380859 C 35.100078 26.440859 35.129922 26.500547 35.169922 26.560547 L 35.289062 26.710938 C 35.311937 26.732723 35.344286 26.742055 35.369141 26.761719 A 1.0001 1.0001 0 0 0 35.599609 26.910156 A 1.0001 1.0001 0 0 0 35.603516 26.912109 C 35.615952 26.917486 35.628001 26.920884 35.640625 26.925781 A 1.0001 1.0001 0 0 0 36 27 C 39.877484 27 43 30.122516 43 34 L 43 70 C 43 71.116666 42.116666 72 41 72 L 20 72 C 18.883334 72 18 71.116666 18 70 L 18 34 C 18 30.122516 21.122516 27 25 27 C 25.26 27 25.520937 26.890938 25.710938 26.710938 C 25.800938 26.610938 25.869922 26.500859 25.919922 26.380859 C 25.969922 26.260859 26 26.13 26 26 C 26 25.74 25.890937 25.479063 25.710938 25.289062 C 25.521875 25.104976 25.259971 25.012627 25 25.011719 L 25 25 L 23.5 25 C 22.659188 25 22 24.340812 22 23.5 C 22 22.659188 22.659188 22 23.5 22 z M 62 23 A 1 1 0 0 0 62 25 A 1 1 0 0 0 62 23 z M 68 23 A 1 1 0 0 0 68 25 A 1 1 0 0 0 68 23 z M 28.669922 25 C 28.108922 25 27.669922 25.45 27.669922 26 C 27.669922 26.55 28.108922 27 28.669922 27 C 29.219922 27 29.669922 26.55 29.669922 26 C 29.669922 25.45 29.219922 25 28.669922 25 z M 32.330078 25 C 31.780078 25 31.330078 25.45 31.330078 26 C 31.330078 26.55 31.780078 27 32.330078 27 C 32.880078 27 33.330078 26.55 33.330078 26 C 33.330078 25.45 32.880078 25 32.330078 25 z M 30.5 40 C 25.265137 40 21 44.265141 21 49.5 C 21 54.734859 25.265137 59 30.5 59 C 35.734863 59 40 54.734859 40 49.5 C 40 44.265141 35.734863 40 30.5 40 z M 30.5 42 C 32.239889 42 33.833613 42.592565 35.103516 43.580078 C 35.097144 43.593795 35.085907 43.605152 35.080078 43.619141 C 35.030078 43.739141 35 43.87 35 44 C 35 44.26 35.108063 44.520938 35.289062 44.710938 C 35.478062 44.890938 35.74 45 36 45 C 36.145461 45 36.286719 44.95834 36.419922 44.896484 C 37.407435 46.166388 38 47.760112 38 49.5 C 38 53.653981 34.653984 57 30.5 57 C 28.761097 57 27.167993 56.408375 25.898438 55.421875 C 25.904135 55.408108 25.915103 55.394627 25.919922 55.380859 C 25.950922 55.320859 25.968516 55.259219 25.978516 55.199219 C 25.989516 55.129219 26 55.07 26 55 C 26 54.74 25.890937 54.479062 25.710938 54.289062 C 25.423574 54.001699 24.950968 53.944513 24.580078 54.103516 C 23.592565 52.833612 23 51.239888 23 49.5 C 23 45.346019 26.346016 42 30.5 42 z M 33.25 45.748047 C 32.992625 45.748047 32.734063 45.844062 32.539062 46.039062 C 32.148063 46.429062 32.148063 47.070937 32.539062 47.460938 C 32.739062 47.650938 32.99 47.75 33.25 47.75 C 33.51 47.75 33.760937 47.650937 33.960938 47.460938 C 34.350938 47.070938 34.350938 46.429063 33.960938 46.039062 C 33.765438 45.844063 33.507375 45.748047 33.25 45.748047 z M 30.5 48.498047 C 30.242625 48.498047 29.984063 48.594062 29.789062 48.789062 C 29.398063 49.179062 29.398063 49.820937 29.789062 50.210938 C 29.989062 50.400938 30.24 50.5 30.5 50.5 C 30.76 50.5 31.010938 50.400937 31.210938 50.210938 C 31.600938 49.820938 31.600938 49.179063 31.210938 48.789062 C 31.015438 48.594063 30.757375 48.498047 30.5 48.498047 z M 27.75 51.248047 C 27.492625 51.248047 27.234063 51.344062 27.039062 51.539062 C 26.648063 51.929062 26.648063 52.570937 27.039062 52.960938 C 27.239062 53.150938 27.49 53.25 27.75 53.25 C 28.01 53.25 28.260938 53.150937 28.460938 52.960938 C 28.850938 52.570938 28.850938 51.929063 28.460938 51.539062 C 28.265438 51.344063 28.007375 51.248047 27.75 51.248047 z"/></svg>