<svg width="80" height="80" viewBox="0 0 80 80" fill="none" xmlns="http://www.w3.org/2000/svg">
<path d="M24 7C23.3663 7.00056 22.7491 7.20175 22.2369 7.57472C21.7246 7.9477 21.3436 8.4733 21.1484 9.07617C17.5769 9.23975 14.8902 9.70687 12.8711 10.8301C11.5268 11.5779 10.5072 12.6575 9.88086 14.0332C9.25449 15.409 9 17.0476 9 19C9 23.1283 11.2785 31.7833 14.9512 39.7168C16.7875 43.6835 18.9727 47.4311 21.4668 50.2441C23.6958 52.7581 26.2211 54.5655 29 54.9238V55.5C29 65.0992 36.7629 72.897 46.3418 72.9844C46.394 72.9938 46.4469 72.999 46.5 73C56.1534 73 64 65.1534 64 55.5V40.9316C67.9366 40.4363 71 37.0673 71 33C71 28.5936 67.4064 25 63 25C58.5936 25 55 28.5936 55 33C55 37.0673 58.0634 40.4363 62 40.9316V55.5C62 64.0726 55.0726 71 46.5 71C37.9274 71 31 64.0726 31 55.5V54.9238C33.7789 54.5655 36.3042 52.7581 38.5332 50.2441C41.0273 47.4311 43.2125 43.6835 45.0488 39.7168C48.7215 31.7833 51 23.1283 51 19C51 17.0476 50.7455 15.409 50.1191 14.0332C49.4928 12.6575 48.4732 11.5779 47.1289 10.8301C45.1098 9.70687 42.4231 9.23975 38.8516 9.07617C38.6564 8.4733 38.2754 7.9477 37.7631 7.57472C37.2509 7.20175 36.6337 7.00056 36 7C35.2044 7 34.4413 7.31607 33.8787 7.87868C33.3161 8.44129 33 9.20435 33 10C33 10.7956 33.3161 11.5587 33.8787 12.1213C34.4413 12.6839 35.2044 13 36 13C36.6039 12.9994 37.1936 12.8166 37.6919 12.4755C38.1902 12.1343 38.574 11.6507 38.793 11.0879C42.2052 11.2655 44.623 11.7252 46.1562 12.5781C47.1812 13.1483 47.8386 13.8525 48.2988 14.8633C48.759 15.874 49 17.2244 49 19C49 22.1183 47.0522 30.0726 43.875 37.4004C43.7793 37.5267 43.7151 37.674 43.6875 37.8301C43.534 38.1774 43.3933 38.5316 43.2344 38.875C43.0409 39.293 42.8283 39.6923 42.627 40.1035L42.4668 39.9316L42.1191 39.8691L41.3184 40.2715L41.1602 41.1543L41.7715 41.8086H41.7773C40.3353 44.5264 38.7335 47.0028 37.0371 48.916C34.7457 51.5005 32.3459 53 30 53C27.6541 53 25.2543 51.5005 22.9629 48.916C21.2486 46.9825 19.6296 44.4764 18.1758 41.7246L18.6797 41.4707L18.8379 40.5898L18.2246 39.9355L17.8789 39.873L17.3828 40.123C17.1782 39.7054 16.9622 39.2997 16.7656 38.875C16.6057 38.5296 16.4629 38.1737 16.3086 37.8242C16.2816 37.6714 16.2194 37.527 16.127 37.4023C12.9491 30.0739 11 22.1186 11 19C11 17.2244 11.241 15.874 11.7012 14.8633C12.1614 13.8525 12.8188 13.1483 13.8438 12.5781C15.3763 11.7256 17.7931 11.2657 21.2031 11.0879C21.4224 11.6513 21.8067 12.1354 22.3058 12.4766C22.8049 12.8178 23.3954 13.0002 24 13C24.7956 13 25.5587 12.6839 26.1213 12.1213C26.6839 11.5587 27 10.7956 27 10C27 9.20435 26.6839 8.44129 26.1213 7.87868C25.5587 7.31607 24.7956 7 24 7ZM63 27C66.3256 27 69 29.6744 69 33C69 36.3256 66.3256 39 63 39C59.6744 39 57 36.3256 57 33C57 29.6744 59.6744 27 63 27ZM63 29C60.8027 29 59 30.8027 59 33C59 35.1973 60.8027 37 63 37C65.1973 37 67 35.1973 67 33C67 30.8027 65.1973 29 63 29ZM63 31C64.1164 31 65 31.8836 65 33C65 34.1164 64.1164 35 63 35C61.8836 35 61 34.1164 61 33C61 31.8836 61.8836 31 63 31ZM20.9102 42.2363L20.1094 42.6387L19.9512 43.5195L20.5645 44.1738L20.9102 44.2363L21.7109 43.8359L21.8691 42.9531L21.2578 42.2988L20.9102 42.2363ZM39.0918 42.2422L38.291 42.6445L38.1328 43.5254L38.7461 44.1816L39.0918 44.2422L39.8926 43.8418L40.0508 42.959L39.4395 42.3047L39.0918 42.2422ZM24.3496 43.9492L23.5488 44.3496L23.3906 45.2324L24.0039 45.8867L24.3496 45.9492L25.1504 45.5469L25.3086 44.666L24.6973 44.0117L24.3496 43.9492ZM35.6562 43.9648L34.8555 44.3672L34.6973 45.248L35.3086 45.9043L35.6562 45.9648L36.457 45.5645L36.6152 44.6816L36.0039 44.0273L35.6562 43.9648ZM28.0801 44.8613L27.2793 45.2637L27.1211 46.1445L27.7344 46.8008L28.0801 46.8613L28.8809 46.4609L29.0391 45.5781L28.4277 44.9238L28.0801 44.8613ZM31.9219 44.8711L31.1211 45.2734L30.9629 46.1562L31.5742 46.8105L31.9219 46.8711L32.7227 46.4707L32.8809 45.5879L32.2695 44.9336L31.9219 44.8711Z" fill="black"/>
</svg>
