<svg fill="#000000" xmlns="http://www.w3.org/2000/svg"  viewBox="0 0 64 64" width="64px" height="64px"><path d="M 15.332031 6 C 14.257813 6 13.191406 6.355469 12.332031 7 L 7 11 C 5.746094 11.9375 5 13.433594 5 15 L 5 53 C 5 54.652344 6.347656 56 8 56 L 56 56 C 57.652344 56 59 54.652344 59 53 L 59 15 C 59 13.433594 58.253906 11.9375 57 11 L 51.667969 7 C 50.808594 6.355469 49.742188 6 48.667969 6 Z M 15.332031 8 L 26.621094 8 C 26.613281 8.015625 26.605469 8.035156 26.597656 8.050781 L 25.261719 12.0625 L 8.921875 12.0625 L 13.53125 8.601563 C 14.050781 8.210938 14.6875 8 15.332031 8 Z M 29.4375 8 L 32.5625 8 C 32.992188 8 33.371094 8.269531 33.511719 8.679688 L 34.640625 12.0625 L 34.847656 12.699219 C 34.949219 13.007813 35 13.332031 35 13.652344 L 35 24 L 27 24 L 27 13.652344 C 27 13.332031 27.050781 13.007813 27.152344 12.699219 L 27.359375 12.0625 L 28.488281 8.679688 C 28.628906 8.269531 29.007813 8 29.4375 8 Z M 35.378906 8 L 48.667969 8 C 49.3125 8 49.949219 8.210938 50.46875 8.601563 L 55.800781 12.597656 C 56.554688 13.164063 57 14.0625 57 15 L 57 53 C 57 53.550781 56.550781 54 56 54 L 8 54 C 7.449219 54 7 53.550781 7 53 L 7 15 C 7 14.675781 7.070313 14.363281 7.171875 14.0625 L 25 14.0625 L 25 24 C 25 25.101563 25.898438 26 27 26 L 35 26 C 36.101563 26 37 25.101563 37 24 L 37 14.0625 L 44 14.0625 C 44.550781 14.0625 45 13.609375 45 13.0625 C 45 12.5 44.550781 12.0625 44 12.0625 L 36.738281 12.0625 L 35.402344 8.050781 C 35.394531 8.035156 35.386719 8.015625 35.378906 8 Z M 48 12.058594 C 47.445313 12.058594 47 12.503906 47 13.058594 C 47 13.609375 47.445313 14.058594 48 14.058594 L 52 14.058594 C 52.554688 14.058594 53 13.609375 53 13.058594 C 53 12.503906 52.554688 12.058594 52 12.058594 Z M 12 30 C 11.445313 30 11 30.449219 11 31 L 11 35 C 11 37.414063 12.722656 39.433594 15 39.898438 L 15 44 L 14 44 C 13.445313 44 13 44.449219 13 45 C 13 45.550781 13.445313 46 14 46 L 18 46 C 18.554688 46 19 45.550781 19 45 C 19 44.449219 18.554688 44 18 44 L 17 44 L 17 39.898438 C 19.277344 39.433594 21 37.414063 21 35 L 21 31 C 21 30.449219 20.554688 30 20 30 Z M 32 30 C 28.140625 30 25 33.140625 25 37 C 25 37.550781 25.445313 38 26 38 L 31 38 L 31 43 C 31 43.550781 30.550781 44 30 44 C 29.449219 44 29 43.550781 29 43 C 29 42.449219 28.554688 42 28 42 C 27.445313 42 27 42.449219 27 43 C 27 44.652344 28.347656 46 30 46 C 31.652344 46 33 44.652344 33 43 L 33 38 L 38 38 C 38.554688 38 39 37.550781 39 37 C 39 33.140625 35.859375 30 32 30 Z M 13 32 L 19 32 L 19 35 C 19 36.652344 17.652344 38 16 38 C 14.347656 38 13 36.652344 13 35 Z M 32 32 C 34.414063 32 36.433594 33.722656 36.898438 36 L 27.101563 36 C 27.566406 33.722656 29.585938 32 32 32 Z M 10 48.058594 C 9.445313 48.058594 9 48.503906 9 49.058594 L 9 51.058594 C 9 51.609375 9.445313 52.058594 10 52.058594 C 10.554688 52.058594 11 51.609375 11 51.058594 L 11 49.058594 C 11 48.503906 10.554688 48.058594 10 48.058594 Z M 15 48.058594 C 14.445313 48.058594 14 48.503906 14 49.058594 L 14 51.058594 C 14 51.609375 14.445313 52.058594 15 52.058594 C 15.554688 52.058594 16 51.609375 16 51.058594 L 16 49.058594 C 16 48.503906 15.554688 48.058594 15 48.058594 Z M 20 48.058594 C 19.445313 48.058594 19 48.503906 19 49.058594 L 19 51.058594 C 19 51.609375 19.445313 52.058594 20 52.058594 C 20.554688 52.058594 21 51.609375 21 51.058594 L 21 49.058594 C 21 48.503906 20.554688 48.058594 20 48.058594 Z M 25 48.058594 C 24.445313 48.058594 24 48.503906 24 49.058594 L 24 51.058594 C 24 51.609375 24.445313 52.058594 25 52.058594 C 25.554688 52.058594 26 51.609375 26 51.058594 L 26 49.058594 C 26 48.503906 25.554688 48.058594 25 48.058594 Z M 30 48.058594 C 29.445313 48.058594 29 48.503906 29 49.058594 L 29 51.058594 C 29 51.609375 29.445313 52.058594 30 52.058594 C 30.554688 52.058594 31 51.609375 31 51.058594 L 31 49.058594 C 31 48.503906 30.554688 48.058594 30 48.058594 Z M 35 48.058594 C 34.445313 48.058594 34 48.503906 34 49.058594 L 34 51.058594 C 34 51.609375 34.445313 52.058594 35 52.058594 C 35.554688 52.058594 36 51.609375 36 51.058594 L 36 49.058594 C 36 48.503906 35.554688 48.058594 35 48.058594 Z M 40 48.058594 C 39.445313 48.058594 39 48.503906 39 49.058594 L 39 51.058594 C 39 51.609375 39.445313 52.058594 40 52.058594 C 40.554688 52.058594 41 51.609375 41 51.058594 L 41 49.058594 C 41 48.503906 40.554688 48.058594 40 48.058594 Z M 45 48.058594 C 44.445313 48.058594 44 48.503906 44 49.058594 L 44 51.058594 C 44 51.609375 44.445313 52.058594 45 52.058594 C 45.554688 52.058594 46 51.609375 46 51.058594 L 46 49.058594 C 46 48.503906 45.554688 48.058594 45 48.058594 Z M 50 48.058594 C 49.445313 48.058594 49 48.503906 49 49.058594 L 49 51.058594 C 49 51.609375 49.445313 52.058594 50 52.058594 C 50.554688 52.058594 51 51.609375 51 51.058594 L 51 49.058594 C 51 48.503906 50.554688 48.058594 50 48.058594 Z M 55 48.058594 C 54.445313 48.058594 54 48.503906 54 49.058594 L 54 51.058594 C 54 51.609375 54.445313 52.058594 55 52.058594 C 55.554688 52.058594 56 51.609375 56 51.058594 L 56 49.058594 C 56 48.503906 55.554688 48.058594 55 48.058594 Z"/></svg>