<?xml version="1.0"?><svg fill="#000000" xmlns="http://www.w3.org/2000/svg"  viewBox="0 0 64 64" width="64px" height="64px">    <path d="M 38 4 C 29.178 4 22 11.178 22 20 C 22 28.822 29.178 36 38 36 C 46.822 36 54 28.822 54 20 C 54 11.178 46.822 4 38 4 z M 38 6 C 45.72 6 52 12.28 52 20 C 52 27.72 45.72 34 38 34 C 30.28 34 24 27.72 24 20 C 24 12.28 30.28 6 38 6 z M 38 11 C 37.447 11 37 11.448 37 12 L 37 13 C 34.794 13 33 14.794 33 17 C 33 19.206 34.794 21 37 21 L 39 21 C 40.103 21 41 21.897 41 23 C 41 24.103 40.103 25 39 25 L 39 23 C 39 22.448 38.553 22 38 22 C 37.447 22 37 22.448 37 23 L 37 25 C 35.897 25 35 24.103 35 23 C 35 22.448 34.553 22 34 22 C 33.447 22 33 22.448 33 23 C 33 25.206 34.794 27 37 27 L 37 28 C 37 28.552 37.447 29 38 29 C 38.553 29 39 28.552 39 28 L 39 27 C 41.206 27 43 25.206 43 23 C 43 20.794 41.206 19 39 19 L 39 17 C 39 16.448 38.553 16 38 16 C 37.447 16 37 16.448 37 17 L 37 19 C 35.897 19 35 18.103 35 17 C 35 15.897 35.897 15 37 15 L 39 15 C 40.103 15 41 15.897 41 17 C 41 17.552 41.447 18 42 18 C 42.553 18 43 17.552 43 17 C 43 14.794 41.206 13 39 13 L 39 12 C 39 11.448 38.553 11 38 11 z M 18.294922 36.322266 C 17.691125 36.308609 17.085719 36.336953 16.480469 36.408203 L 4.6503906 37.798828 C 3.1393906 37.976828 2 39.257297 2 40.779297 L 2 53.439453 C 2 54.369453 2.4202969 55.231687 3.1542969 55.804688 C 3.8872969 56.376688 4.8245625 56.574609 5.7265625 56.349609 L 12.289062 54.710938 C 13.962063 54.294938 15.724047 54.505594 17.248047 55.308594 L 29.835938 61.9375 C 31.147938 62.6285 32.586344 62.974609 34.027344 62.974609 C 35.449344 62.974609 36.872875 62.638844 38.171875 61.964844 L 59.474609 50.917969 C 61.032609 50.109969 61.998047 48.517859 61.998047 46.755859 C 61.999047 45.296859 61.337594 43.947688 60.183594 43.054688 C 59.029594 42.160688 57.555531 41.860562 56.144531 42.226562 L 42.736328 45.701172 C 42.472328 44.920172 42.017297 44.208672 41.404297 43.638672 C 40.391297 42.696672 39.024625 42.213547 37.640625 42.310547 L 35.449219 42.46875 C 34.591219 42.53275 33.733031 42.369906 32.957031 42.003906 L 23.544922 37.5625 C 21.893422 36.78325 20.106313 36.363234 18.294922 36.322266 z M 18.25 38.322266 C 19.783 38.357422 21.295359 38.711844 22.693359 39.371094 L 32.105469 43.8125 C 33.191469 44.3245 34.39475 44.547844 35.59375 44.464844 L 37.785156 44.306641 C 38.626156 44.248641 39.427922 44.529516 40.044922 45.103516 C 40.660922 45.676516 41 46.456828 41 47.298828 L 41 47.705078 C 41 48.098078 40.769156 48.456187 40.410156 48.617188 L 37.458984 49.943359 C 35.243984 50.938359 32.679781 50.990844 30.425781 50.089844 L 25.382812 48.070312 C 24.867812 47.864312 24.287031 48.114906 24.082031 48.628906 C 23.876031 49.141906 24.125672 49.722734 24.638672 49.927734 L 29.683594 51.947266 C 32.439594 53.051266 35.572297 52.984578 38.279297 51.767578 L 41.228516 50.441406 C 42.304516 49.958406 43 48.884078 43 47.705078 L 56.646484 44.160156 C 57.456484 43.952156 58.297984 44.125719 58.958984 44.636719 C 59.619984 45.147719 60 45.920672 60 46.763672 C 60 47.768672 59.446687 48.679578 58.554688 49.142578 L 37.251953 60.1875 C 35.217953 61.2405 32.793578 61.234969 30.767578 60.167969 L 18.179688 53.539062 C 16.875688 52.852063 15.438281 52.501953 13.988281 52.501953 C 13.258281 52.501953 12.526641 52.591484 11.806641 52.771484 L 5.2421875 54.410156 C 4.9421875 54.485156 4.6307187 54.419516 4.3867188 54.228516 C 4.1407187 54.037516 4 53.749453 4 53.439453 L 4 40.779297 C 4 40.272297 4.3798125 39.844156 4.8828125 39.785156 L 16.714844 38.394531 C 17.227344 38.334781 17.739 38.310547 18.25 38.322266 z M 7 41 C 6.448 41 6 41.448 6 42 C 6 42.552 6.448 43 7 43 L 9 43 C 9.552 43 10 42.552 10 42 C 10 41.448 9.552 41 9 41 L 7 41 z M 7 46 C 6.448 46 6 46.448 6 47 C 6 47.552 6.448 48 7 48 L 9 48 C 9.552 48 10 47.552 10 47 C 10 46.448 9.552 46 9 46 L 7 46 z M 7 51 C 6.448 51 6 51.448 6 52 C 6 52.552 6.448 53 7 53 L 9 53 C 9.552 53 10 52.552 10 52 C 10 51.448 9.552 51 9 51 L 7 51 z"/></svg>