<?xml version="1.0"?><svg fill="#000000" xmlns="http://www.w3.org/2000/svg"  viewBox="0 0 80 80" width="80px" height="80px">    <path d="M 56 7 C 51.311742 7 47.054284 8.9038085 43.978516 11.978516 L 11.478516 44.478516 A 1.0001 1.0001 0 0 0 11.257812 44.816406 C 8.631548 47.806309 7 51.706444 7 56 C 7 65.377379 14.622621 73 24 73 C 28.294114 73 32.195497 71.369057 35.185547 68.742188 A 1.0001 1.0001 0 0 0 35.521484 68.521484 L 38.324219 65.71875 C 41.900746 70.153004 47.368683 73 53.5 73 C 64.257708 73 73 64.257708 73 53.5 C 73 47.368683 70.153004 41.900746 65.71875 38.324219 L 68.021484 36.021484 C 71.096191 32.945716 73 28.688258 73 24 C 73 14.622621 65.377379 7 56 7 z M 56 9 C 64.296621 9 71 15.703379 71 24 C 71 28.147742 69.322715 31.891191 66.607422 34.607422 L 64.074219 37.138672 C 61.024739 35.161676 57.399503 34 53.5 34 C 48.480658 34 43.915596 35.919886 40.457031 39.042969 L 30.099609 28.685547 L 45.392578 13.392578 C 48.108809 10.677285 51.852258 9 56 9 z M 56 12 A 1 1 0 0 0 55 13 A 1 1 0 0 0 56 14 A 1 1 0 0 0 57 13 A 1 1 0 0 0 56 12 z M 60.210938 12.835938 A 1 1 0 0 0 59.210938 13.835938 A 1 1 0 0 0 60.210938 14.835938 A 1 1 0 0 0 61.210938 13.835938 A 1 1 0 0 0 60.210938 12.835938 z M 51.791016 12.837891 A 1 1 0 0 0 50.791016 13.837891 A 1 1 0 0 0 51.791016 14.837891 A 1 1 0 0 0 52.791016 13.837891 A 1 1 0 0 0 51.791016 12.837891 z M 48.222656 15.222656 A 1 1 0 0 0 47.222656 16.222656 A 1 1 0 0 0 48.222656 17.222656 A 1 1 0 0 0 49.222656 16.222656 A 1 1 0 0 0 48.222656 15.222656 z M 45 18 A 1 1 0 0 0 44 19 A 1 1 0 0 0 45 20 A 1 1 0 0 0 46 19 A 1 1 0 0 0 45 18 z M 42 21 A 1 1 0 0 0 41 22 A 1 1 0 0 0 42 23 A 1 1 0 0 0 43 22 A 1 1 0 0 0 42 21 z M 39 24 A 1 1 0 0 0 38 25 A 1 1 0 0 0 39 26 A 1 1 0 0 0 40 25 A 1 1 0 0 0 39 24 z M 36 27 A 1 1 0 0 0 35 28 A 1 1 0 0 0 36 29 A 1 1 0 0 0 37 28 A 1 1 0 0 0 36 27 z M 28.685547 30.099609 L 39.042969 40.457031 C 35.919886 43.915596 34 48.480658 34 53.5 C 34 57.399503 35.161676 61.024739 37.138672 64.074219 L 34.291016 66.923828 A 1.0001 1.0001 0 0 0 34.115234 67.052734 C 31.442583 69.499144 27.907196 71 24 71 C 15.703379 71 9 64.296621 9 56 C 9 52.092804 10.500856 48.557417 12.947266 45.884766 A 1.0001 1.0001 0 0 0 13.072266 45.712891 L 28.685547 30.099609 z M 28 35 A 1 1 0 0 0 27 36 A 1 1 0 0 0 28 37 A 1 1 0 0 0 29 36 A 1 1 0 0 0 28 35 z M 53.5 36 C 63.176828 36 71 43.823172 71 53.5 C 71 63.176828 63.176828 71 53.5 71 C 43.823172 71 36 63.176828 36 53.5 C 36 43.823172 43.823172 36 53.5 36 z M 25 38 A 1 1 0 0 0 24 39 A 1 1 0 0 0 25 40 A 1 1 0 0 0 26 39 A 1 1 0 0 0 25 38 z M 22 41 A 1 1 0 0 0 21 42 A 1 1 0 0 0 22 43 A 1 1 0 0 0 23 42 A 1 1 0 0 0 22 41 z M 63.046875 42.953125 A 1.0001 1.0001 0 0 0 62.236328 43.349609 L 43.333984 62.251953 A 1.0001 1.0001 0 0 0 43.953125 64.046875 A 1.0001 1.0001 0 0 0 44.763672 63.650391 L 63.666016 44.748047 A 1.0001 1.0001 0 0 0 63.046875 42.953125 z M 19 44 A 1 1 0 0 0 18 45 A 1 1 0 0 0 19 46 A 1 1 0 0 0 20 45 A 1 1 0 0 0 19 44 z M 65.738281 46.794922 L 64.9375 47.197266 L 64.779297 48.078125 L 65.392578 48.732422 L 65.738281 48.794922 L 66.541016 48.394531 L 66.697266 47.511719 L 66.085938 46.857422 L 65.738281 46.794922 z M 16.222656 47.222656 A 1 1 0 0 0 15.222656 48.222656 A 1 1 0 0 0 16.222656 49.222656 A 1 1 0 0 0 17.222656 48.222656 A 1 1 0 0 0 16.222656 47.222656 z M 13.837891 50.791016 A 1 1 0 0 0 12.837891 51.791016 A 1 1 0 0 0 13.837891 52.791016 A 1 1 0 0 0 14.837891 51.791016 A 1 1 0 0 0 13.837891 50.791016 z M 66.939453 51.326172 L 66.138672 51.726562 L 65.980469 52.609375 L 66.59375 53.263672 L 66.939453 53.326172 L 67.740234 52.923828 L 67.898438 52.042969 L 67.287109 51.386719 L 66.939453 51.326172 z M 13 55 A 1 1 0 0 0 12 56 A 1 1 0 0 0 13 57 A 1 1 0 0 0 14 56 A 1 1 0 0 0 13 55 z M 66.535156 55.994141 L 65.734375 56.394531 L 65.576172 57.277344 L 66.1875 57.931641 L 66.535156 57.994141 L 67.335938 57.591797 L 67.494141 56.710938 L 66.880859 56.056641 L 66.535156 55.994141 z M 13.837891 59.210938 A 1 1 0 0 0 12.837891 60.210938 A 1 1 0 0 0 13.837891 61.210938 A 1 1 0 0 0 14.837891 60.210938 A 1 1 0 0 0 13.837891 59.210938 z M 64.554688 60.240234 L 63.753906 60.642578 L 63.595703 61.523438 L 64.208984 62.179688 L 64.554688 62.240234 L 65.355469 61.839844 L 65.513672 60.957031 L 64.902344 60.302734 L 64.554688 60.240234 z M 61.242188 63.556641 L 60.441406 63.958984 L 60.283203 64.839844 L 60.896484 65.494141 L 61.242188 65.556641 L 62.042969 65.15625 L 62.201172 64.273438 L 61.589844 63.619141 L 61.242188 63.556641 z M 47.794922 64.738281 L 46.994141 65.138672 L 46.835938 66.021484 L 47.447266 66.675781 L 47.794922 66.738281 L 48.595703 66.335938 L 48.753906 65.455078 L 48.142578 64.800781 L 47.794922 64.738281 z M 56.994141 65.537109 L 56.193359 65.939453 L 56.035156 66.822266 L 56.648438 67.476562 L 56.994141 67.537109 L 57.794922 67.136719 L 57.953125 66.253906 L 57.341797 65.599609 L 56.994141 65.537109 z M 52.324219 65.947266 L 51.523438 66.349609 L 51.365234 67.230469 L 51.976562 67.884766 L 52.324219 67.947266 L 53.125 67.546875 L 53.283203 66.664062 L 52.671875 66.009766 L 52.324219 65.947266 z"/></svg>