<svg width="80" height="80" viewBox="0 0 80 80" fill="none" xmlns="http://www.w3.org/2000/svg">
<path d="M26 8C22.1445 8 19 11.1445 19 15C19 18.8555 22.1445 22 26 22C29.8555 22 33 18.8555 33 15C33 11.1445 29.8555 8 26 8ZM26 10C28.7734 10 31 12.2266 31 15C31 17.7734 28.7734 20 26 20C23.2266 20 21 17.7734 21 15C21 12.2266 23.2266 10 26 10ZM53 10C49.6992 10 47 12.6992 47 16C47 19.3008 49.6992 22 53 22C56.3008 22 59 19.3008 59 16C59 12.6992 56.3008 10 53 10ZM53 12C55.2227 12 57 13.7773 57 16C57 18.2227 55.2227 20 53 20C50.7773 20 49 18.2227 49 16C49 13.7773 50.7773 12 53 12ZM20 24C15.5938 24 12 27.5938 12 32V48C12 50.1992 13.8008 52 16 52H17V66.3008C17 68.6953 18.7969 70.8672 21.2617 70.9961C22.8008 71.0742 24.1289 70.3125 25 69.1836C25.8711 70.3125 27.1992 71.0742 28.7383 70.9961C31.2031 70.8672 33 68.6953 33 66.3008V58.8125C33.3164 58.9258 33.6484 59 34 59H35V68C35 69.6445 36.3555 71 38 71H42C43.6445 71 45 69.6445 45 68V59H46V67C46 69.1992 47.8008 71 50 71C51.2109 71 52.2656 70.4219 53 69.5625C53.7344 70.4219 54.7891 71 56 71C58.1992 71 60 69.1992 60 67V55H65C65.3125 55 65.6055 54.8555 65.793 54.6094C65.9844 54.3633 66.0469 54.043 65.9688 53.7422L64.9258 49.8398C65.125 49.875 65.2891 50 65.5 50C67.4219 50 69 48.4219 69 46.5C69 46.1562 68.8906 45.8437 68.7969 45.5273C68.8008 45.3945 68.7773 45.2656 68.7305 45.1406L61.7539 27.2656C61.6602 27.0234 61.4727 26.8281 61.2344 26.7188C60.3867 25.1641 58.8906 24 57 24H49C47.7852 24 46.6602 24.4375 45.7969 25.1641C45.5078 25.3906 45.3672 25.7539 45.4258 26.1133C45.4883 26.4727 45.7383 26.7695 46.0781 26.8906C46.4219 27.0156 46.8047 26.9375 47.0781 26.6992C47.5977 26.2617 48.2617 26 49 26H57C58.3164 26 59.4023 26.8398 59.8164 28.0117C59.8633 28.1484 59.9414 28.2695 60.043 28.375L66.8242 45.7539L66.8281 45.7695C66.8398 45.8164 66.8555 45.8633 66.875 45.9062C66.957 46.0898 67 46.2891 67 46.5C67 47.3398 66.3398 48 65.5 48C64.9297 48 64.4531 47.6875 64.1953 47.2188C64.1797 47.1914 64.168 47.168 64.1523 47.1406L64.1367 47.0547L64.0977 46.957L63.4453 46.3477L62.5625 46.5039L62.1602 47.3047L62.2227 47.6523L62.2578 47.7461L62.3281 47.8125C62.332 47.8594 62.3398 47.9102 62.3555 47.957L63.6992 53H59.1562C59.0977 52.9922 59.043 52.9844 58.9844 52.9844C58.9375 52.9883 58.8867 52.9922 58.8398 53H49V47C49 43.1445 45.8555 40 42 40H38C35.9219 40 34.0586 40.918 32.7734 42.3633C32.582 42.1328 32.3008 42 32 42C31.4492 42 31 42.4492 31 43C31 43.4414 31.2891 43.8281 31.707 43.9531C31.2617 44.8789 31 45.9102 31 47V66.3008C31 67.6992 29.9609 68.9258 28.6367 68.9961C27.1758 69.0742 26 67.9375 26 66.5C25.9922 65.9531 25.5469 65.5156 25 65.5156C24.4531 65.5156 24.0078 65.9531 24 66.5C24 67.9375 22.8242 69.0742 21.3633 68.9961C20.0391 68.9258 19 67.6992 19 66.3008V51C19 50.4492 18.5508 50 18 50H16C14.8828 50 14 49.1172 14 48V32C14 28.6758 16.6758 26 20 26H30C31.1328 26 32.1875 26.3125 33.0898 26.8555C33.3945 27.0508 33.7852 27.0664 34.1055 26.8945C34.4258 26.7188 34.6289 26.3867 34.6289 26.0234C34.6328 25.6602 34.4375 25.3203 34.1211 25.1406C32.918 24.418 31.5039 24 30 24H20ZM40 26C36.6992 26 34 28.6992 34 32C34 35.3008 36.6992 38 40 38C43.3008 38 46 35.3008 46 32C46 28.6992 43.3008 26 40 26ZM40 28C42.2227 28 44 29.7773 44 32C44 34.2227 42.2227 36 40 36C37.7773 36 36 34.2227 36 32C36 29.7773 37.7773 28 40 28ZM18 34C17.4492 34 17 34.4492 17 35C17 35.5508 17.4492 36 18 36C18.5508 36 19 35.5508 19 35C19 34.4492 18.5508 34 18 34ZM32 34C31.4492 34 31 34.4492 31 35C31 35.5508 31.4492 36 32 36C32.5508 36 33 35.5508 33 35C33 34.4492 32.5508 34 32 34ZM59.1914 34.8047L58.3125 34.9648L57.9062 35.7617L57.9688 36.1094L58.0039 36.2031L58.6562 36.8164L59.543 36.6602L59.9414 35.8594L59.8828 35.5117L59.8477 35.418L59.1914 34.8047ZM18 38C17.4492 38 17 38.4492 17 39C17 39.5508 17.4492 40 18 40C18.5508 40 19 39.5508 19 39C19 38.4492 18.5508 38 18 38ZM32 38C31.4492 38 31 38.4492 31 39C31 39.5508 31.4492 40 32 40C32.5508 40 33 39.5508 33 39C33 38.4492 32.5508 38 32 38ZM60.6094 38.6523L59.7305 38.8086L59.3281 39.6094L59.3906 39.957L59.4219 40.0508L60.0781 40.6641L60.957 40.5078L61.3594 39.707L61.2969 39.3594L61.2656 39.2656L60.6094 38.6523ZM18 42C17.4492 42 17 42.4492 17 43C17 43.5508 17.4492 44 18 44C18.5508 44 19 43.5508 19 43C19 42.4492 18.5508 42 18 42ZM38 42H42C44.7734 42 47 44.2266 47 47V53.832C46.9805 53.9414 46.9805 54.0508 47 54.1562V56C47 56.5664 46.5664 57 46 57H44C43.4492 57 43 57.4492 43 58V68C43 68.5664 42.5664 69 42 69H38C37.4336 69 37 68.5664 37 68V58C37 57.4492 36.5508 57 36 57H34C33.4336 57 33 56.5664 33 56V47C33 44.2266 35.2266 42 38 42ZM62.0312 42.5L61.1445 42.6562L60.7461 43.457L60.8047 43.8047L60.8398 43.8984L61.4961 44.5117L62.375 44.3555L62.7812 43.5508L62.7188 43.207L62.6836 43.1133L62.0312 42.5ZM18 46C17.4492 46 17 46.4492 17 47C17 47.5508 17.4492 48 18 48C18.5508 48 19 47.5508 19 47C19 46.4492 18.5508 46 18 46ZM25 49C24.4492 49 24 49.4492 24 50C24 50.5508 24.4492 51 25 51C25.5508 51 26 50.5508 26 50C26 49.4492 25.5508 49 25 49ZM36 49C35.4492 49 35 49.4492 35 50C35 50.5508 35.4492 51 36 51C36.5508 51 37 50.5508 37 50C37 49.4492 36.5508 49 36 49ZM44 49C43.4492 49 43 49.4492 43 50C43 50.5508 43.4492 51 44 51C44.5508 51 45 50.5508 45 50C45 49.4492 44.5508 49 44 49ZM25 53C24.4492 53 24 53.4492 24 54C24 54.5508 24.4492 55 25 55C25.5508 55 26 54.5508 26 54C26 53.4492 25.5508 53 25 53ZM36 53C35.4492 53 35 53.4492 35 54C35 54.5508 35.4492 55 36 55C36.5508 55 37 54.5508 37 54C37 53.4492 36.5508 53 36 53ZM44 53C43.4492 53 43 53.4492 43 54C43 54.5508 43.4492 55 44 55C44.5508 55 45 54.5508 45 54C45 53.4492 44.5508 53 44 53ZM49 55H52C52 55.5508 52.4492 56 53 56C53.5508 56 54 55.5508 54 55H58V67C58 68.1172 57.1172 69 56 69C54.8828 69 54 68.1172 54 67C53.9922 66.4531 53.5469 66.0156 53 66.0156C52.4531 66.0156 52.0078 66.4531 52 67C52 68.1172 51.1172 69 50 69C48.8828 69 48 68.1172 48 67V58.2148C48.6094 57.6641 49 56.875 49 56V55ZM25 57C24.4492 57 24 57.4492 24 58C24 58.5508 24.4492 59 25 59C25.5508 59 26 58.5508 26 58C26 57.4492 25.5508 57 25 57ZM53 58C52.4492 58 52 58.4492 52 59C52 59.5508 52.4492 60 53 60C53.5508 60 54 59.5508 54 59C54 58.4492 53.5508 58 53 58ZM25 61C24.4492 61 24 61.4492 24 62C24 62.5508 24.4492 63 25 63C25.5508 63 26 62.5508 26 62C26 61.4492 25.5508 61 25 61ZM53 62C52.4492 62 52 62.4492 52 63C52 63.5508 52.4492 64 53 64C53.5508 64 54 63.5508 54 63C54 62.4492 53.5508 62 53 62Z" fill="black"/>
</svg>
