<?xml version="1.0"?><svg fill="#000000" xmlns="http://www.w3.org/2000/svg"  viewBox="0 0 80 80" width="80px" height="80px">    <path d="M 31 10 C 28.802666 10 27 11.802666 27 14 L 27 16.183594 C 26.151241 16.48511 25.48511 17.151241 25.183594 18 L 7 18 L 7 36 L 7 41 L 7 70 L 47.527344 70 L 49.527344 68 L 9 68 L 9 45.890625 C 10.272 47.190625 12.042 48 14 48 L 56.851562 48 C 57.512563 47.263 58.243109 46.594 59.037109 46 L 14 46 C 11.243 46 9 43.757 9 41 L 9 36 L 9 20 L 71 20 L 71 32 L 71 36 L 71 41 L 71 43.333984 C 71.683 43.472984 72.354 43.646 73 43.875 L 73 41 L 73 36 L 73 18 L 54.816406 18 C 54.51489 17.151241 53.848759 16.48511 53 16.183594 L 53 14 C 53 11.802666 51.197334 10 49 10 L 31 10 z M 31 12 L 32.277344 12 C 32.623613 12.595634 33.261054 13 34 13 L 46 13 C 46.738946 13 47.376387 12.595634 47.722656 12 L 49 12 C 50.116666 12 51 12.883334 51 14 L 51 16.183594 C 50.151241 16.48511 49.48511 17.151241 49.183594 18 L 30.816406 18 C 30.51489 17.151241 29.848759 16.48511 29 16.183594 L 29 14 C 29 12.883334 29.883334 12 31 12 z M 40 38 A 2 2 0 0 0 38 40 A 2 2 0 0 0 40 42 A 2 2 0 0 0 42 40 A 2 2 0 0 0 40 38 z M 67.998047 46 C 61.381047 46 55.998047 51.383 55.998047 58 C 55.998047 60.949 57.07275 63.648234 58.84375 65.740234 L 55.980469 68.605469 L 55.943359 68.568359 C 55.213359 67.836359 53.935172 67.836359 53.201172 68.568359 L 46.566406 75.203125 C 45.811406 75.958125 45.810406 77.188359 46.566406 77.943359 L 48.054688 79.431641 C 48.419688 79.797641 48.908781 80 49.425781 80 C 49.942781 80 50.428922 79.799594 50.794922 79.433594 L 57.431641 72.796875 C 58.187641 72.040875 58.187641 70.811641 57.431641 70.056641 L 57.394531 70.019531 L 60.257812 67.154297 C 62.349813 68.925297 65.049047 70 67.998047 70 C 74.615047 70 79.998047 64.617 79.998047 58 C 79.998047 51.383 74.615047 46 67.998047 46 z M 12 48 A 1 1 0 0 0 11 49 A 1 1 0 0 0 12 50 A 1 1 0 0 0 13 49 A 1 1 0 0 0 12 48 z M 67.998047 48 C 73.512047 48 77.998047 52.486 77.998047 58 C 77.998047 63.514 73.512047 68 67.998047 68 C 62.484047 68 57.998047 63.514 57.998047 58 C 57.998047 52.486 62.484047 48 67.998047 48 z M 12 52 A 1 1 0 0 0 11 53 A 1 1 0 0 0 12 54 A 1 1 0 0 0 13 53 A 1 1 0 0 0 12 52 z M 12 56 A 1 1 0 0 0 11 57 A 1 1 0 0 0 12 58 A 1 1 0 0 0 13 57 A 1 1 0 0 0 12 56 z M 12 60 A 1 1 0 0 0 11 61 A 1 1 0 0 0 12 62 A 1 1 0 0 0 13 61 A 1 1 0 0 0 12 60 z M 12 64 A 1 1 0 0 0 11 65 A 1 1 0 0 0 12 66 A 1 1 0 0 0 13 65 A 1 1 0 0 0 12 64 z M 16 64 A 1 1 0 0 0 15 65 A 1 1 0 0 0 16 66 A 1 1 0 0 0 17 65 A 1 1 0 0 0 16 64 z M 20 64 A 1 1 0 0 0 19 65 A 1 1 0 0 0 20 66 A 1 1 0 0 0 21 65 A 1 1 0 0 0 20 64 z M 24 64 A 1 1 0 0 0 23 65 A 1 1 0 0 0 24 66 A 1 1 0 0 0 25 65 A 1 1 0 0 0 24 64 z M 28 64 A 1 1 0 0 0 27 65 A 1 1 0 0 0 28 66 A 1 1 0 0 0 29 65 A 1 1 0 0 0 28 64 z M 32 64 A 1 1 0 0 0 31 65 A 1 1 0 0 0 32 66 A 1 1 0 0 0 33 65 A 1 1 0 0 0 32 64 z M 36 64 A 1 1 0 0 0 35 65 A 1 1 0 0 0 36 66 A 1 1 0 0 0 37 65 A 1 1 0 0 0 36 64 z M 40 64 A 1 1 0 0 0 39 65 A 1 1 0 0 0 40 66 A 1 1 0 0 0 41 65 A 1 1 0 0 0 40 64 z M 44 64 A 1 1 0 0 0 43 65 A 1 1 0 0 0 44 66 A 1 1 0 0 0 45 65 A 1 1 0 0 0 44 64 z M 48 64 A 1 1 0 0 0 47 65 A 1 1 0 0 0 48 66 A 1 1 0 0 0 49 65 A 1 1 0 0 0 48 64 z M 52 64 A 1 1 0 0 0 51 65 A 1 1 0 0 0 52 66 A 1 1 0 0 0 53 65 A 1 1 0 0 0 52 64 z M 54.617188 69.982422 L 55.974609 71.425781 L 49.382812 78.017578 L 47.980469 76.529297 L 54.617188 69.982422 z"/></svg>