<svg fill="#000000" xmlns="http://www.w3.org/2000/svg"  viewBox="0 0 64 64" width="64px" height="64px"><path d="M 31.984375 3.9863281 A 1.0001 1.0001 0 0 0 31.841797 4 L 29 4 A 1.0001 1.0001 0 1 0 29 6 L 31 6 L 31 9.0253906 C 28.386301 9.1377177 25.886163 9.6897705 23.568359 10.605469 L 22.337891 7.8398438 L 24.166016 7.0273438 A 1.0001 1.0001 0 0 0 23.708984 5.109375 A 1.0001 1.0001 0 0 0 23.351562 5.2011719 L 20.765625 6.3535156 A 1.0001 1.0001 0 0 0 20.466797 6.4863281 L 17.871094 7.640625 A 1.0001 1.0001 0 1 0 18.683594 9.4667969 L 20.509766 8.6542969 L 21.742188 11.419922 C 19.451612 12.565299 17.37678 14.078131 15.599609 15.886719 L 13.347656 13.859375 L 14.685547 12.373047 A 1.0001 1.0001 0 0 0 13.96875 10.693359 A 1.0001 1.0001 0 0 0 13.199219 11.035156 L 11.316406 13.128906 L 11.308594 13.134766 A 1.0001 1.0001 0 0 0 11.078125 13.390625 L 9.1855469 15.494141 A 1.0001 1.0001 0 1 0 10.671875 16.832031 L 12.009766 15.345703 L 14.259766 17.371094 C 12.650184 19.320032 11.35732 21.53831 10.455078 23.947266 L 7.5820312 23.013672 L 8.1992188 21.111328 A 1.0001 1.0001 0 0 0 7.2519531 19.789062 A 1.0001 1.0001 0 0 0 6.2988281 20.494141 L 5.4238281 23.1875 A 1.0001 1.0001 0 0 0 5.3203125 23.501953 L 4.4433594 26.201172 A 1.0001 1.0001 0 1 0 6.3457031 26.818359 L 6.9628906 24.916016 L 9.8398438 25.851562 C 9.296598 27.809748 9 29.870198 9 32 C 9 32.472859 9.0186598 32.940414 9.046875 33.40625 L 6.0371094 33.722656 L 5.828125 31.734375 A 1.0001 1.0001 0 0 0 4.8125 30.824219 A 1.0001 1.0001 0 0 0 3.8398438 31.943359 L 4.1367188 34.765625 A 1.0001 1.0001 0 0 0 4.1699219 35.087891 L 4.4667969 37.910156 A 1.0001 1.0001 0 1 0 6.4550781 37.701172 L 6.2460938 35.712891 L 9.2519531 35.396484 C 9.6336513 37.968401 10.444825 40.399708 11.605469 42.621094 L 8.9824219 44.134766 L 7.9824219 42.402344 A 1.0001 1.0001 0 0 0 7.0703125 41.890625 A 1.0001 1.0001 0 0 0 6.2519531 43.402344 L 7.6679688 45.855469 A 1.0001 1.0001 0 0 0 7.8339844 46.140625 L 9.2519531 48.597656 A 1.0001 1.0001 0 1 0 10.982422 47.597656 L 9.9824219 45.865234 L 12.607422 44.349609 C 13.981157 46.500448 15.70176 48.407038 17.691406 49.992188 L 15.908203 52.447266 L 14.291016 51.271484 A 1.0001 1.0001 0 1 0 13.115234 52.888672 L 15.412109 54.556641 A 1.0001 1.0001 0 0 0 15.669922 54.744141 L 17.96875 56.416016 A 1.0001 1.0001 0 1 0 19.144531 54.798828 L 17.527344 53.623047 L 19.308594 51.171875 C 21.405488 52.56388 23.740192 53.625188 26.242188 54.271484 L 25.615234 57.224609 L 23.660156 56.808594 A 1.0001 1.0001 0 1 0 23.244141 58.763672 L 26.009766 59.351562 A 1.0001 1.0001 0 0 0 26.339844 59.421875 L 29.113281 60.011719 A 1.0001 1.0001 0 1 0 29.529297 58.056641 L 27.570312 57.640625 L 28.201172 54.681641 C 29.437566 54.887711 30.70565 55 32 55 C 33.29435 55 34.562434 54.887711 35.798828 54.681641 L 36.429688 57.640625 L 34.470703 58.056641 A 1.0001 1.0001 0 1 0 34.886719 60.011719 L 37.658203 59.421875 A 1.0001 1.0001 0 0 0 37.982422 59.353516 L 40.755859 58.763672 A 1.0001 1.0001 0 1 0 40.339844 56.808594 L 38.384766 57.224609 L 37.757812 54.271484 C 40.259808 53.625188 42.594512 52.56388 44.691406 51.171875 L 46.472656 53.623047 L 44.855469 54.798828 A 1.0001 1.0001 0 1 0 46.03125 56.416016 L 48.330078 54.746094 A 1.0001 1.0001 0 0 0 48.583984 54.560547 L 50.884766 52.888672 A 1.0001 1.0001 0 1 0 49.708984 51.271484 L 48.091797 52.447266 L 46.308594 49.992188 C 48.29824 48.407038 50.018843 46.500448 51.392578 44.349609 L 54.017578 45.865234 L 53.017578 47.597656 A 1.0001 1.0001 0 1 0 54.748047 48.597656 L 56.164062 46.144531 A 1.0001 1.0001 0 0 0 56.330078 45.859375 L 57.748047 43.402344 A 1.0001 1.0001 0 0 0 56.898438 41.890625 A 1.0001 1.0001 0 0 0 56.017578 42.402344 L 55.017578 44.134766 L 52.394531 42.621094 C 53.555175 40.399708 54.366349 37.968401 54.748047 35.396484 L 57.753906 35.712891 L 57.544922 37.701172 A 1.0001 1.0001 0 1 0 59.533203 37.910156 L 59.830078 35.085938 A 1.0001 1.0001 0 0 0 59.863281 34.773438 L 60.160156 31.943359 A 1.0001 1.0001 0 0 0 59.15625 30.824219 A 1.0001 1.0001 0 0 0 58.171875 31.734375 L 57.962891 33.722656 L 54.953125 33.40625 C 54.98134 32.940414 55 32.472859 55 32 C 55 29.870198 54.703402 27.809748 54.160156 25.851562 L 57.037109 24.916016 L 57.654297 26.818359 A 1.0001 1.0001 0 1 0 59.556641 26.201172 L 58.679688 23.505859 A 1.0001 1.0001 0 0 0 58.578125 23.189453 L 57.701172 20.494141 A 1.0001 1.0001 0 0 0 56.716797 19.789062 A 1.0001 1.0001 0 0 0 55.800781 21.111328 L 56.417969 23.013672 L 53.544922 23.947266 C 52.64268 21.53831 51.349816 19.320032 49.740234 17.371094 L 51.990234 15.345703 L 53.328125 16.832031 A 1.0001 1.0001 0 1 0 54.814453 15.494141 L 52.923828 13.392578 A 1.0001 1.0001 0 0 0 52.699219 13.144531 L 50.800781 11.035156 A 1.0001 1.0001 0 0 0 50 10.695312 A 1.0001 1.0001 0 0 0 49.314453 12.373047 L 50.652344 13.859375 L 48.400391 15.886719 C 46.62322 14.078131 44.548388 12.565299 42.257812 11.419922 L 43.490234 8.6542969 L 45.316406 9.4667969 A 1.0001 1.0001 0 1 0 46.128906 7.640625 L 43.537109 6.4863281 A 1.0001 1.0001 0 0 0 43.240234 6.3554688 L 40.648438 5.2011719 A 1.0001 1.0001 0 0 0 40.261719 5.109375 A 1.0001 1.0001 0 0 0 39.833984 7.0273438 L 41.662109 7.8398438 L 40.431641 10.605469 C 38.113837 9.6897705 35.613699 9.1377177 33 9.0253906 L 33 6 L 35 6 A 1.0001 1.0001 0 1 0 35 4 L 32.167969 4 A 1.0001 1.0001 0 0 0 31.984375 3.9863281 z M 31.863281 11.003906 A 1.0001 1.0001 0 0 0 32.138672 11.003906 C 35.033411 11.022661 37.786406 11.626518 40.289062 12.701172 A 1.0001 1.0001 0 0 0 40.740234 12.917969 C 43.334451 14.106608 45.636464 15.805758 47.53125 17.890625 C 47.535286 17.895066 47.538936 17.899852 47.542969 17.904297 A 1.0001 1.0001 0 0 0 47.630859 18 C 49.542583 20.133392 51.03453 22.647694 51.949219 25.433594 A 1.000281 1.000281 0 0 0 52.003906 25.59375 C 52.648738 27.613063 53 29.765013 53 32 C 53 32.718296 52.964722 33.427348 52.894531 34.126953 C 52.893816 34.134081 52.8933 34.141312 52.892578 34.148438 A 1.0004865 1.0004865 0 0 0 52.880859 34.242188 C 52.574102 37.139097 51.6711 39.853586 50.310547 42.275391 A 1.0001 1.0001 0 0 0 50.066406 42.675781 C 48.599795 45.154595 46.643707 47.300363 44.322266 48.986328 C 42.027102 50.653209 39.392658 51.879416 36.525391 52.507812 A 1.0001 1.0001 0 0 0 36.189453 52.582031 C 34.835964 52.855344 33.43483 53 32 53 C 30.566615 53 29.166675 52.856761 27.814453 52.583984 C 27.813716 52.583836 27.813237 52.58218 27.8125 52.582031 A 1.0001 1.0001 0 0 0 27.476562 52.507812 C 24.598699 51.877369 21.955432 50.644871 19.654297 48.96875 C 17.344824 47.286556 15.396827 45.149825 13.935547 42.681641 A 1.0001 1.0001 0 0 0 13.689453 42.277344 C 12.327533 39.853558 11.42538 37.135987 11.119141 34.236328 A 1.0004865 1.0004865 0 0 0 11.105469 34.130859 C 11.035023 33.430005 11 32.719618 11 32 C 11 29.766539 11.350154 27.615773 11.994141 25.597656 A 1.000281 1.000281 0 0 0 12.044922 25.449219 C 12.955521 22.66825 14.441495 20.157418 16.345703 18.025391 A 1.0001 1.0001 0 0 0 16.361328 18.009766 A 1.0001 1.0001 0 0 0 16.453125 17.910156 C 18.350663 15.817288 20.656584 14.110086 23.257812 12.917969 A 1.0001 1.0001 0 0 0 23.712891 12.701172 C 26.21568 11.626712 28.968452 11.022398 31.863281 11.003906 z M 41.160156 15.150391 A 1.0001 1.0001 0 0 0 40.277344 15.662109 L 39.132812 17.644531 A 1.0001607 1.0001607 0 0 0 40.865234 18.644531 L 42.009766 16.664062 A 1.0001 1.0001 0 0 0 41.160156 15.150391 z M 22.810547 15.152344 A 1.0001 1.0001 0 0 0 21.990234 16.664062 L 23.134766 18.644531 A 1.0001607 1.0001607 0 1 0 24.867188 17.644531 L 23.722656 15.662109 A 1.0001 1.0001 0 0 0 22.810547 15.152344 z M 32 16 C 30.75 16 29.685226 16.504756 29.001953 17.273438 C 28.318681 18.042119 28 19.027778 28 20 C 28 20.972222 28.318681 21.957881 29.001953 22.726562 C 29.685226 23.495244 30.75 24 32 24 C 33.25 24 34.314774 23.495244 34.998047 22.726562 C 35.681319 21.957881 36 20.972222 36 20 C 36 19.027778 35.681319 18.042119 34.998047 17.273438 C 34.314774 16.504756 33.25 16 32 16 z M 32 18 C 32.749999 18 33.185226 18.245244 33.501953 18.601562 C 33.81868 18.957881 34 19.472222 34 20 C 34 20.527778 33.81868 21.042119 33.501953 21.398438 C 33.185226 21.754756 32.749999 22 32 22 C 31.250001 22 30.814774 21.754756 30.498047 21.398438 C 30.18132 21.042119 30 20.527778 30 20 C 30 19.472222 30.18132 18.957881 30.498047 18.601562 C 30.814774 18.245244 31.250001 18 32 18 z M 22 22 C 20.75 22 19.685226 22.504756 19.001953 23.273438 C 18.318681 24.042119 18 25.027778 18 26 C 18 26.972222 18.318681 27.957882 19.001953 28.726562 C 19.685226 29.495244 20.75 30 22 30 C 23.25 30 24.314774 29.495244 24.998047 28.726562 C 25.681319 27.957881 26 26.972222 26 26 C 26 25.027778 25.681319 24.042118 24.998047 23.273438 C 24.314774 22.504756 23.25 22 22 22 z M 42 22 C 40.75 22 39.685226 22.504756 39.001953 23.273438 C 38.318681 24.042119 38 25.027778 38 26 C 38 26.972222 38.318681 27.957882 39.001953 28.726562 C 39.685226 29.495244 40.75 30 42 30 C 43.25 30 44.314774 29.495244 44.998047 28.726562 C 45.681319 27.957881 46 26.972222 46 26 C 46 25.027778 45.681319 24.042118 44.998047 23.273438 C 44.314774 22.504756 43.25 22 42 22 z M 22 24 C 22.749999 24 23.185226 24.245244 23.501953 24.601562 C 23.81868 24.957881 24 25.472222 24 26 C 24 26.527778 23.81868 27.042118 23.501953 27.398438 C 23.185226 27.754756 22.749999 28 22 28 C 21.250001 28 20.814774 27.754756 20.498047 27.398438 C 20.18132 27.042119 20 26.527778 20 26 C 20 25.472222 20.18132 24.957882 20.498047 24.601562 C 20.814774 24.245244 21.250001 24 22 24 z M 42 24 C 42.749999 24 43.185226 24.245244 43.501953 24.601562 C 43.81868 24.957881 44 25.472222 44 26 C 44 26.527778 43.81868 27.042118 43.501953 27.398438 C 43.185226 27.754756 42.749999 28 42 28 C 41.250001 28 40.814774 27.754756 40.498047 27.398438 C 40.18132 27.042119 40 26.527778 40 26 C 40 25.472222 40.18132 24.957882 40.498047 24.601562 C 40.814774 24.245244 41.250001 24 42 24 z M 32 28 C 30.75 28 29.685226 28.504756 29.001953 29.273438 C 28.318681 30.042119 28 31.027778 28 32 C 28 32.972222 28.318681 33.957881 29.001953 34.726562 C 29.685226 35.495244 30.75 36 32 36 C 33.25 36 34.314774 35.495244 34.998047 34.726562 C 35.681319 33.957881 36 32.972222 36 32 C 36 31.027778 35.681319 30.042118 34.998047 29.273438 C 34.314774 28.504756 33.25 28 32 28 z M 32 30 C 32.749999 30 33.185226 30.245244 33.501953 30.601562 C 33.81868 30.957881 34 31.472222 34 32 C 34 32.527778 33.81868 33.042119 33.501953 33.398438 C 33.185226 33.754756 32.749999 34 32 34 C 31.250001 34 30.814774 33.754756 30.498047 33.398438 C 30.18132 33.042119 30 32.527778 30 32 C 30 31.472222 30.18132 30.957882 30.498047 30.601562 C 30.814774 30.245244 31.250001 30 32 30 z M 13.712891 31 A 1.0001 1.0001 0 1 0 13.712891 33 L 16.001953 33 A 1.0001 1.0001 0 1 0 16.001953 31 L 13.712891 31 z M 47.998047 31 A 1.0001 1.0001 0 1 0 47.998047 33 L 50.287109 33 A 1.0001 1.0001 0 1 0 50.287109 31 L 47.998047 31 z M 22 34 C 20.75 34 19.685226 34.504756 19.001953 35.273438 C 18.318681 36.042119 18 37.027778 18 38 C 18 38.972222 18.318681 39.957881 19.001953 40.726562 C 19.685226 41.495244 20.75 42 22 42 C 23.25 42 24.314774 41.495244 24.998047 40.726562 C 25.681319 39.957881 26 38.972222 26 38 C 26 37.027778 25.681319 36.042119 24.998047 35.273438 C 24.314774 34.504756 23.25 34 22 34 z M 42 34 C 40.75 34 39.685226 34.504756 39.001953 35.273438 C 38.318681 36.042119 38 37.027778 38 38 C 38 38.972222 38.318681 39.957881 39.001953 40.726562 C 39.685226 41.495244 40.75 42 42 42 C 43.25 42 44.314774 41.495244 44.998047 40.726562 C 45.681319 39.957881 46 38.972222 46 38 C 46 37.027778 45.681319 36.042119 44.998047 35.273438 C 44.314774 34.504756 43.25 34 42 34 z M 22 36 C 22.749999 36 23.185226 36.245244 23.501953 36.601562 C 23.81868 36.957881 24 37.472222 24 38 C 24 38.527778 23.81868 39.042119 23.501953 39.398438 C 23.185226 39.754756 22.749999 40 22 40 C 21.250001 40 20.814774 39.754756 20.498047 39.398438 C 20.18132 39.042119 20 38.527778 20 38 C 20 37.472222 20.18132 36.957881 20.498047 36.601562 C 20.814774 36.245244 21.250001 36 22 36 z M 42 36 C 42.749999 36 43.185226 36.245244 43.501953 36.601562 C 43.81868 36.957881 44 37.472222 44 38 C 44 38.527778 43.81868 39.042119 43.501953 39.398438 C 43.185226 39.754756 42.749999 40 42 40 C 41.250001 40 40.814774 39.754756 40.498047 39.398438 C 40.18132 39.042119 40 38.527778 40 38 C 40 37.472222 40.18132 36.957881 40.498047 36.601562 C 40.814774 36.245244 41.250001 36 42 36 z M 32 40 C 30.75 40 29.685226 40.504756 29.001953 41.273438 C 28.318681 42.042119 28 43.027778 28 44 C 28 44.972222 28.318681 45.957881 29.001953 46.726562 C 29.685226 47.495244 30.75 48 32 48 C 33.25 48 34.314774 47.495245 34.998047 46.726562 C 35.681319 45.957881 36 44.972222 36 44 C 36 43.027778 35.681319 42.042118 34.998047 41.273438 C 34.314774 40.504756 33.25 40 32 40 z M 32 42 C 32.749999 42 33.185226 42.245244 33.501953 42.601562 C 33.81868 42.957881 34 43.472222 34 44 C 34 44.527778 33.81868 45.042119 33.501953 45.398438 C 33.185226 45.754756 32.749999 46 32 46 C 31.250001 46 30.814774 45.754755 30.498047 45.398438 C 30.18132 45.042119 30 44.527778 30 44 C 30 43.472222 30.18132 42.957881 30.498047 42.601562 C 30.814774 42.245244 31.250001 42 32 42 z M 24.017578 44.841797 A 1.0001 1.0001 0 0 0 23.134766 45.355469 L 21.990234 47.335938 A 1.0006493 1.0006493 0 1 0 23.722656 48.337891 L 24.867188 46.355469 A 1.0001 1.0001 0 0 0 24.017578 44.841797 z M 39.953125 44.84375 A 1.0001 1.0001 0 0 0 39.132812 46.355469 L 40.277344 48.337891 A 1.0006493 1.0006493 0 1 0 42.009766 47.335938 L 40.865234 45.355469 A 1.0001 1.0001 0 0 0 39.953125 44.84375 z"/></svg>