<?xml version="1.0"?><svg fill="#000000" xmlns="http://www.w3.org/2000/svg"  viewBox="0 0 64 64" width="64px" height="64px">    <path d="M 32 0.11914062 C 29.94 0.11914062 27.879141 0.7590625 26.119141 2.0390625 L 23.419922 4 L 9 4 C 7.35 4 6 5.35 6 7 L 6 59 C 6 60.65 7.35 62 9 62 L 55 62 C 56.65 62 58 60.65 58 59 L 58 7 C 58 5.35 56.65 4 55 4 L 40.580078 4 L 37.880859 2.0390625 C 36.120859 0.7590625 34.06 0.11914063 32 0.11914062 z M 32 2.1230469 C 33.65 2.1230469 35.300938 2.6351563 36.710938 3.6601562 L 37.179688 4 L 39.919922 6 L 40.759766 6.609375 C 41.539766 7.169375 42 8.0790625 42 9.0390625 L 42 10 L 42 11 C 42 11.55 41.55 12 41 12 L 23 12 C 22.45 12 22 11.55 22 11 L 22 10 L 22 9.0390625 C 22 8.0790625 22.460234 7.169375 23.240234 6.609375 L 24.080078 6 L 26.820312 4 L 27.289062 3.6601562 C 28.699063 2.6351563 30.35 2.1230469 32 2.1230469 z M 32 4 A 2 2 0 0 0 30 6 A 2 2 0 0 0 32 8 A 2 2 0 0 0 34 6 A 2 2 0 0 0 32 4 z M 9 6 L 21.029297 6 C 20.369297 6.86 20 7.9290625 20 9.0390625 L 20 10 L 14 10 C 12.9 10 12 10.9 12 12 L 12 54 C 12 55.1 12.9 56 14 56 L 50 56 C 51.1 56 52 55.1 52 54 L 52 12 C 52 10.88 51.12 10 50 10 L 44 10 L 44 9.0390625 C 44 7.9290625 43.630703 6.86 42.970703 6 L 55 6 C 55.55 6 56 6.45 56 7 L 56 59 C 56 59.55 55.55 60 55 60 L 9 60 C 8.45 60 8 59.55 8 59 L 8 7 C 8 6.45 8.45 6 9 6 z M 14 12 L 20.179688 12 C 20.589688 13.16 21.7 14 23 14 L 41 14 C 42.3 14 43.410313 13.16 43.820312 12 L 50 12 L 50 54 L 14 54 L 14 12 z M 17 16 C 16.447 16 16 16.447 16 17 L 16 19 C 16 19.553 16.447 20 17 20 C 17.553 20 18 19.553 18 19 L 18 17 C 18 16.447 17.553 16 17 16 z M 22 16 C 21.447 16 21 16.447 21 17 L 21 19 C 21 19.553 21.447 20 22 20 C 22.553 20 23 19.553 23 19 L 23 17 C 23 16.447 22.553 16 22 16 z M 27 16 C 26.447 16 26 16.447 26 17 L 26 19 C 26 19.553 26.447 20 27 20 C 27.553 20 28 19.553 28 19 L 28 17 C 28 16.447 27.553 16 27 16 z M 32 16 C 31.447 16 31 16.447 31 17 L 31 19 C 31 19.553 31.447 20 32 20 C 32.553 20 33 19.553 33 19 L 33 17 C 33 16.447 32.553 16 32 16 z M 37 16 C 36.447 16 36 16.447 36 17 L 36 19 C 36 19.553 36.447 20 37 20 C 37.553 20 38 19.553 38 19 L 38 17 C 38 16.447 37.553 16 37 16 z M 42 16 C 41.447 16 41 16.447 41 17 L 41 19 C 41 19.553 41.447 20 42 20 C 42.553 20 43 19.553 43 19 L 43 17 C 43 16.447 42.553 16 42 16 z M 47 16 C 46.447 16 46 16.447 46 17 L 46 19 C 46 19.553 46.447 20 47 20 C 47.553 20 48 19.553 48 19 L 48 17 C 48 16.447 47.553 16 47 16 z M 24 24 C 22.897 24 22 24.897 22 26 L 22 28 L 20 28 C 18.897 28 18 28.897 18 30 L 18 34 C 18 35.103 18.897 36 20 36 L 22 36 L 22 38 C 22 39.103 22.897 40 24 40 L 28 40 C 29.103 40 30 39.103 30 38 L 30 36 L 32 36 C 33.103 36 34 35.103 34 34 L 34 30 C 34 28.897 33.103 28 32 28 L 30 28 L 30 26 C 30 24.897 29.103 24 28 24 L 24 24 z M 24 26 L 28 26 L 28 29 C 28 29.553 28.447 30 29 30 L 32 30 L 32 34 L 29 34 C 28.447 34 28 34.447 28 35 L 28 38 L 24 38 L 24 35 C 24 34.447 23.553 34 23 34 L 20 34 L 20 30 L 23 30 C 23.553 30 24 29.553 24 29 L 24 26 z M 37 26 C 36.447 26 36 26.447 36 27 C 36 27.553 36.447 28 37 28 L 45 28 C 45.553 28 46 27.553 46 27 C 46 26.447 45.553 26 45 26 L 37 26 z M 38 32 C 37.447 32 37 32.447 37 33 C 37 33.553 37.447 34 38 34 L 45 34 C 45.553 34 46 33.553 46 33 C 46 32.447 45.553 32 45 32 L 38 32 z M 34 38 C 33.447 38 33 38.447 33 39 C 33 39.553 33.447 40 34 40 L 45 40 C 45.553 40 46 39.553 46 39 C 46 38.447 45.553 38 45 38 L 34 38 z M 21 44 C 20.447 44 20 44.447 20 45 C 20 45.553 20.447 46 21 46 L 45 46 C 45.553 46 46 45.553 46 45 C 46 44.447 45.553 44 45 44 L 21 44 z"/></svg>