<svg fill="#000000" xmlns="http://www.w3.org/2000/svg"  viewBox="0 0 80 80" width="80px" height="80px"><path d="M 40 10 C 29.519531 10 21 18.519531 21 29 C 21 39.144531 28.988281 47.425781 39.003906 47.949219 C 39.003906 47.964844 39 47.984375 39 48 C 39 48.550781 39.449219 49 40 49 C 40.550781 49 41 48.550781 41 48 C 41 47.984375 41 47.964844 41 47.949219 C 51.015625 47.425781 59 39.144531 59 29 C 59 18.519531 50.480469 10 40 10 Z M 40 12 C 49.402344 12 57 19.597656 57 29 C 57 38.402344 49.402344 46 40 46 C 30.597656 46 23 38.402344 23 29 C 23 19.597656 30.597656 12 40 12 Z M 40 15 C 39.449219 15 39 15.449219 39 16 C 39 16.550781 39.449219 17 40 17 C 40.550781 17 41 16.550781 41 16 C 41 15.449219 40.550781 15 40 15 Z M 35.03125 15.988281 C 34.898438 15.988281 34.765625 16.015625 34.640625 16.066406 C 34.132813 16.277344 33.890625 16.863281 34.101563 17.375 C 34.3125 17.882813 34.898438 18.125 35.40625 17.914063 C 35.917969 17.703125 36.160156 17.117188 35.949219 16.609375 C 35.796875 16.238281 35.433594 15.992188 35.03125 15.988281 Z M 44.996094 15.988281 C 44.585938 15.980469 44.210938 16.226563 44.050781 16.605469 C 43.839844 17.117188 44.082031 17.699219 44.59375 17.910156 C 45.101563 18.125 45.6875 17.882813 45.898438 17.371094 C 46.109375 16.859375 45.867188 16.277344 45.359375 16.0625 C 45.242188 16.015625 45.121094 15.992188 44.996094 15.988281 Z M 30.824219 18.808594 C 30.550781 18.804688 30.292969 18.910156 30.101563 19.101563 C 29.710938 19.492188 29.710938 20.125 30.101563 20.515625 C 30.492188 20.90625 31.125 20.90625 31.515625 20.515625 C 31.90625 20.125 31.90625 19.492188 31.515625 19.101563 C 31.332031 18.917969 31.082031 18.8125 30.824219 18.808594 Z M 49.207031 18.808594 C 48.9375 18.804688 48.675781 18.910156 48.484375 19.101563 C 48.09375 19.492188 48.09375 20.125 48.484375 20.515625 C 48.875 20.90625 49.507813 20.90625 49.898438 20.515625 C 50.289063 20.125 50.289063 19.492188 49.898438 19.101563 C 49.714844 18.917969 49.46875 18.8125 49.207031 18.808594 Z M 52.015625 23.023438 C 51.882813 23.023438 51.75 23.046875 51.625 23.097656 C 51.117188 23.3125 50.875 23.894531 51.085938 24.40625 C 51.296875 24.917969 51.882813 25.160156 52.390625 24.949219 C 52.902344 24.734375 53.144531 24.152344 52.933594 23.640625 C 52.78125 23.269531 52.417969 23.027344 52.015625 23.023438 Z M 28.011719 23.027344 C 27.597656 23.015625 27.222656 23.261719 27.066406 23.640625 C 26.855469 24.152344 27.097656 24.738281 27.609375 24.949219 C 28.117188 25.160156 28.703125 24.917969 28.914063 24.40625 C 29.125 23.898438 28.882813 23.3125 28.375 23.101563 C 28.257813 23.054688 28.136719 23.027344 28.011719 23.027344 Z M 27 28 C 26.449219 28 26 28.449219 26 29 C 26 29.550781 26.449219 30 27 30 C 27.550781 30 28 29.550781 28 29 C 28 28.449219 27.550781 28 27 28 Z M 53 28 C 52.449219 28 52 28.449219 52 29 C 52 29.550781 52.449219 30 53 30 C 53.550781 30 54 29.550781 54 29 C 54 28.449219 53.550781 28 53 28 Z M 28 32.972656 C 27.863281 32.972656 27.730469 33 27.609375 33.050781 C 27.097656 33.261719 26.855469 33.847656 27.066406 34.359375 C 27.277344 34.867188 27.863281 35.109375 28.375 34.898438 C 28.882813 34.6875 29.125 34.101563 28.914063 33.59375 C 28.761719 33.222656 28.398438 32.976563 28 32.972656 Z M 52.03125 32.972656 C 51.621094 32.964844 51.246094 33.210938 51.089844 33.59375 C 50.875 34.101563 51.117188 34.6875 51.628906 34.898438 C 52.140625 35.109375 52.722656 34.867188 52.9375 34.359375 C 53.148438 33.847656 52.90625 33.261719 52.394531 33.050781 C 52.28125 33.003906 52.15625 32.976563 52.03125 32.972656 Z M 30.824219 37.191406 C 30.550781 37.1875 30.289063 37.292969 30.097656 37.484375 C 29.710938 37.875 29.710938 38.507813 30.097656 38.898438 C 30.488281 39.289063 31.125 39.289063 31.515625 38.898438 C 31.902344 38.507813 31.902344 37.875 31.515625 37.484375 C 31.328125 37.300781 31.082031 37.195313 30.824219 37.191406 Z M 49.203125 37.191406 C 48.933594 37.1875 48.675781 37.292969 48.484375 37.484375 C 48.09375 37.875 48.09375 38.507813 48.484375 38.898438 C 48.875 39.289063 49.507813 39.289063 49.898438 38.898438 C 50.289063 38.507813 50.289063 37.875 49.898438 37.484375 C 49.714844 37.300781 49.464844 37.195313 49.203125 37.191406 Z M 35.046875 40.011719 C 34.632813 40 34.257813 40.246094 34.101563 40.625 C 33.890625 41.136719 34.132813 41.722656 34.640625 41.933594 C 35.152344 42.144531 35.738281 41.902344 35.949219 41.390625 C 36.160156 40.882813 35.917969 40.296875 35.40625 40.085938 C 35.292969 40.039063 35.171875 40.011719 35.046875 40.011719 Z M 44.984375 40.011719 C 44.847656 40.007813 44.714844 40.035156 44.59375 40.085938 C 44.082031 40.296875 43.839844 40.882813 44.050781 41.390625 C 44.261719 41.902344 44.847656 42.144531 45.359375 41.933594 C 45.867188 41.722656 46.109375 41.136719 45.898438 40.625 C 45.746094 40.257813 45.382813 40.011719 44.984375 40.011719 Z M 40 41 C 39.449219 41 39 41.449219 39 42 C 39 42.550781 39.449219 43 40 43 C 40.550781 43 41 42.550781 41 42 C 41 41.449219 40.550781 41 40 41 Z M 40 51 C 39.449219 51 39 51.449219 39 52 C 39 52.550781 39.449219 53 40 53 C 40.550781 53 41 52.550781 41 52 C 41 51.449219 40.550781 51 40 51 Z M 40 55 C 39.449219 55 39 55.449219 39 56 L 39 60 L 32 60 L 32 62 L 39 62 L 39 70 L 41 70 L 41 62 L 48 62 L 48 60 L 41 60 L 41 56 C 41 55.449219 40.550781 55 40 55 Z"/></svg>