<svg fill="#000000" xmlns="http://www.w3.org/2000/svg"  viewBox="0 0 80 80" width="80px" height="80px"><path d="M 40 7 C 21.785156 7 7 21.785156 7 40 C 7 58.214844 21.785156 73 40 73 C 58.214844 73 73 58.214844 73 40 C 73 34.976563 71.871094 30.207031 69.859375 25.941406 C 69.96875 25.714844 70.089844 25.484375 70.191406 25.261719 C 71.25 22.949219 72 20.820313 72 19 C 72 12.382813 66.617188 7 60 7 C 57.238281 7 54.695313 7.949219 52.664063 9.523438 C 48.761719 7.902344 44.484375 7 40 7 Z M 40 9 C 40.859375 9 41.707031 9.039063 42.546875 9.109375 C 42.210938 9.277344 42 9.625 42 10 C 42 10.550781 42.449219 11 43 11 C 43.550781 11 44 10.550781 44 10 C 44 9.695313 43.859375 9.410156 43.625 9.21875 C 46.210938 9.523438 48.699219 10.136719 51.050781 11.035156 C 49.160156 13.15625 48 15.941406 48 19 C 48 20.820313 48.75 22.949219 49.808594 25.261719 C 50.867188 27.570313 52.257813 30.035156 53.644531 32.300781 C 56.421875 36.835938 59.195313 40.59375 59.195313 40.59375 L 60 41.6875 L 60.804688 40.59375 C 60.804688 40.59375 63.578125 36.835938 66.355469 32.300781 C 67.15625 30.992188 67.953125 29.613281 68.691406 28.238281 C 70.179688 31.867188 71 35.835938 71 40 C 71 55.90625 59.042969 68.992188 43.621094 70.78125 C 43.859375 70.59375 44 70.304688 44 70 C 44 69.449219 43.550781 69 43 69 C 42.449219 69 42 69.449219 42 70 C 42 70.375 42.210938 70.714844 42.542969 70.886719 C 41.703125 70.953125 40.855469 71 40 71 C 39.144531 71 38.296875 70.953125 37.457031 70.886719 C 37.789063 70.714844 38 70.375 38 70 C 38 69.449219 37.550781 69 37 69 C 36.449219 69 36 69.449219 36 70 C 36 70.304688 36.140625 70.59375 36.378906 70.78125 C 20.957031 68.992188 9 55.90625 9 40 C 9 24.09375 20.957031 11.007813 36.378906 9.21875 C 36.140625 9.40625 36 9.695313 36 10 C 36 10.550781 36.449219 11 37 11 C 37.550781 11 38 10.550781 38 10 C 38 9.625 37.789063 9.285156 37.457031 9.113281 C 38.296875 9.046875 39.144531 9 40 9 Z M 60 9 C 65.535156 9 70 13.464844 70 19 C 70 20.21875 69.375 22.230469 68.371094 24.425781 C 67.367188 26.625 66.007813 29.03125 64.644531 31.253906 C 62.324219 35.046875 60.636719 37.328125 60 38.203125 C 59.363281 37.328125 57.675781 35.046875 55.355469 31.253906 C 53.992188 29.03125 52.632813 26.625 51.628906 24.425781 C 50.625 22.230469 50 20.21875 50 19 C 50 13.464844 54.464844 9 60 9 Z M 40 11 C 39.449219 11 39 11.449219 39 12 C 39 12.550781 39.449219 13 40 13 C 40.550781 13 41 12.550781 41 12 C 41 11.449219 40.550781 11 40 11 Z M 33 12 C 32.449219 12 32 12.449219 32 13 C 32 13.550781 32.449219 14 33 14 C 33.550781 14 34 13.550781 34 13 C 34 12.449219 33.550781 12 33 12 Z M 47 12 C 46.449219 12 46 12.449219 46 13 C 46 13.550781 46.449219 14 47 14 C 47.550781 14 48 13.550781 48 13 C 48 12.449219 47.550781 12 47 12 Z M 30 15 C 29.449219 15 29 15.449219 29 16 C 29 16.550781 29.449219 17 30 17 C 30.550781 17 31 16.550781 31 16 C 31 15.449219 30.550781 15 30 15 Z M 40 15 C 39.449219 15 39 15.449219 39 16 C 39 16.550781 39.449219 17 40 17 C 40.550781 17 41 16.550781 41 16 C 41 15.449219 40.550781 15 40 15 Z M 60 15 C 57.800781 15 56 16.800781 56 19 C 56 21.199219 57.800781 23 60 23 C 62.199219 23 64 21.199219 64 19 C 64 16.800781 62.199219 15 60 15 Z M 60 17 C 61.117188 17 62 17.882813 62 19 C 62 20.117188 61.117188 21 60 21 C 58.882813 21 58 20.117188 58 19 C 58 17.882813 58.882813 17 60 17 Z M 20 19 C 19.449219 19 19 19.449219 19 20 C 19 20.550781 19.449219 21 20 21 C 20.550781 21 21 20.550781 21 20 C 21 19.449219 20.550781 19 20 19 Z M 24 19 C 23.449219 19 23 19.449219 23 20 C 23 20.550781 23.449219 21 24 21 C 24.550781 21 25 20.550781 25 20 C 25 19.449219 24.550781 19 24 19 Z M 28 19 C 27.449219 19 27 19.449219 27 20 C 27 20.550781 27.449219 21 28 21 C 28.550781 21 29 20.550781 29 20 C 29 19.449219 28.550781 19 28 19 Z M 32 19 C 31.449219 19 31 19.449219 31 20 C 31 20.550781 31.449219 21 32 21 C 32.550781 21 33 20.550781 33 20 C 33 19.449219 32.550781 19 32 19 Z M 36 19 C 35.449219 19 35 19.449219 35 20 C 35 20.550781 35.449219 21 36 21 C 36.550781 21 37 20.550781 37 20 C 37 19.449219 36.550781 19 36 19 Z M 40 19 C 39.476563 19 39.039063 19.40625 39 19.929688 C 39 19.953125 39 19.976563 39 20 C 39 20.523438 39.40625 20.960938 39.929688 21 C 39.953125 21 39.976563 21 40 21 C 40.550781 21 41 20.550781 41 20 C 41 19.449219 40.550781 19 40 19 Z M 44 19 C 43.449219 19 43 19.449219 43 20 C 43 20.550781 43.449219 21 44 21 C 44.550781 21 45 20.550781 45 20 C 45 19.449219 44.550781 19 44 19 Z M 26 23 C 25.449219 23 25 23.449219 25 24 C 25 24.550781 25.449219 25 26 25 C 26.550781 25 27 24.550781 27 24 C 27 23.449219 26.550781 23 26 23 Z M 40 23 C 39.449219 23 39 23.449219 39 24 C 39 24.550781 39.449219 25 40 25 C 40.550781 25 41 24.550781 41 24 C 41 23.449219 40.550781 23 40 23 Z M 25 27 C 24.449219 27 24 27.449219 24 28 C 24 28.550781 24.449219 29 25 29 C 25.550781 29 26 28.550781 26 28 C 26 27.449219 25.550781 27 25 27 Z M 40 27 C 39.449219 27 39 27.449219 39 28 C 39 28.550781 39.449219 29 40 29 C 40.550781 29 41 28.550781 41 28 C 41 27.449219 40.550781 27 40 27 Z M 24 31 C 23.449219 31 23 31.449219 23 32 C 23 32.550781 23.449219 33 24 33 C 24.550781 33 25 32.550781 25 32 C 25 31.449219 24.550781 31 24 31 Z M 40 31 C 39.449219 31 39 31.449219 39 32 C 39 32.550781 39.449219 33 40 33 C 40.550781 33 41 32.550781 41 32 C 41 31.449219 40.550781 31 40 31 Z M 23 35 C 22.449219 35 22 35.449219 22 36 C 22 36.550781 22.449219 37 23 37 C 23.550781 37 24 36.550781 24 36 C 24 35.449219 23.550781 35 23 35 Z M 40 35 C 39.449219 35 39 35.449219 39 36 C 39 36.550781 39.449219 37 40 37 C 40.550781 37 41 36.550781 41 36 C 41 35.449219 40.550781 35 40 35 Z M 12 39 C 11.449219 39 11 39.449219 11 40 C 11 40.550781 11.449219 41 12 41 C 12.550781 41 13 40.550781 13 40 C 13 39.449219 12.550781 39 12 39 Z M 16 39 C 15.449219 39 15 39.449219 15 40 C 15 40.550781 15.449219 41 16 41 C 16.550781 41 17 40.550781 17 40 C 17 39.449219 16.550781 39 16 39 Z M 20 39 C 19.449219 39 19 39.449219 19 40 C 19 40.550781 19.449219 41 20 41 C 20.550781 41 21 40.550781 21 40 C 21 39.449219 20.550781 39 20 39 Z M 24 39 C 23.449219 39 23 39.449219 23 40 C 23 40.550781 23.449219 41 24 41 C 24.550781 41 25 40.550781 25 40 C 25 39.449219 24.550781 39 24 39 Z M 28 39 C 27.449219 39 27 39.449219 27 40 C 27 40.550781 27.449219 41 28 41 C 28.550781 41 29 40.550781 29 40 C 29 39.449219 28.550781 39 28 39 Z M 32 39 C 31.449219 39 31 39.449219 31 40 C 31 40.550781 31.449219 41 32 41 C 32.550781 41 33 40.550781 33 40 C 33 39.449219 32.550781 39 32 39 Z M 36 39 C 35.449219 39 35 39.449219 35 40 C 35 40.550781 35.449219 41 36 41 C 36.550781 41 37 40.550781 37 40 C 37 39.449219 36.550781 39 36 39 Z M 40 39 C 39.449219 39 39 39.449219 39 40 C 39 40.550781 39.449219 41 40 41 C 40.550781 41 41 40.550781 41 40 C 41 39.449219 40.550781 39 40 39 Z M 44 39 C 43.449219 39 43 39.449219 43 40 C 43 40.550781 43.449219 41 44 41 C 44.550781 41 45 40.550781 45 40 C 45 39.449219 44.550781 39 44 39 Z M 48 39 C 47.449219 39 47 39.449219 47 40 C 47 40.550781 47.449219 41 48 41 C 48.550781 41 49 40.550781 49 40 C 49 39.449219 48.550781 39 48 39 Z M 52 39 C 51.449219 39 51 39.449219 51 40 C 51 40.550781 51.449219 41 52 41 C 52.550781 41 53 40.550781 53 40 C 53 39.449219 52.550781 39 52 39 Z M 56 39 C 55.449219 39 55 39.449219 55 40 C 55 40.550781 55.449219 41 56 41 C 56.550781 41 57 40.550781 57 40 C 57 39.449219 56.550781 39 56 39 Z M 64 39 C 63.449219 39 63 39.449219 63 40 C 63 40.550781 63.449219 41 64 41 C 64.550781 41 65 40.550781 65 40 C 65 39.449219 64.550781 39 64 39 Z M 68 39 C 67.449219 39 67 39.449219 67 40 C 67 40.550781 67.449219 41 68 41 C 68.550781 41 69 40.550781 69 40 C 69 39.449219 68.550781 39 68 39 Z M 23 43 C 22.449219 43 22 43.449219 22 44 C 22 44.550781 22.449219 45 23 45 C 23.550781 45 24 44.550781 24 44 C 24 43.449219 23.550781 43 23 43 Z M 40 43 C 39.449219 43 39 43.449219 39 44 C 39 44.550781 39.449219 45 40 45 C 40.550781 45 41 44.550781 41 44 C 41 43.449219 40.550781 43 40 43 Z M 57 43 C 56.449219 43 56 43.449219 56 44 C 56 44.550781 56.449219 45 57 45 C 57.550781 45 58 44.550781 58 44 C 58 43.449219 57.550781 43 57 43 Z M 24 47 C 23.449219 47 23 47.449219 23 48 C 23 48.550781 23.449219 49 24 49 C 24.550781 49 25 48.550781 25 48 C 25 47.449219 24.550781 47 24 47 Z M 40 47 C 39.449219 47 39 47.449219 39 48 C 39 48.550781 39.449219 49 40 49 C 40.550781 49 41 48.550781 41 48 C 41 47.449219 40.550781 47 40 47 Z M 56 47 C 55.449219 47 55 47.449219 55 48 C 55 48.550781 55.449219 49 56 49 C 56.550781 49 57 48.550781 57 48 C 57 47.449219 56.550781 47 56 47 Z M 25 51 C 24.449219 51 24 51.449219 24 52 C 24 52.550781 24.449219 53 25 53 C 25.550781 53 26 52.550781 26 52 C 26 51.449219 25.550781 51 25 51 Z M 40 51 C 39.449219 51 39 51.449219 39 52 C 39 52.550781 39.449219 53 40 53 C 40.550781 53 41 52.550781 41 52 C 41 51.449219 40.550781 51 40 51 Z M 55 51 C 54.449219 51 54 51.449219 54 52 C 54 52.550781 54.449219 53 55 53 C 55.550781 53 56 52.550781 56 52 C 56 51.449219 55.550781 51 55 51 Z M 26 55 C 25.449219 55 25 55.449219 25 56 C 25 56.550781 25.449219 57 26 57 C 26.550781 57 27 56.550781 27 56 C 27 55.449219 26.550781 55 26 55 Z M 40 55 C 39.449219 55 39 55.449219 39 56 C 39 56.550781 39.449219 57 40 57 C 40.550781 57 41 56.550781 41 56 C 41 55.449219 40.550781 55 40 55 Z M 54 55 C 53.449219 55 53 55.449219 53 56 C 53 56.550781 53.449219 57 54 57 C 54.550781 57 55 56.550781 55 56 C 55 55.449219 54.550781 55 54 55 Z M 20 59 C 19.449219 59 19 59.449219 19 60 C 19 60.550781 19.449219 61 20 61 C 20.550781 61 21 60.550781 21 60 C 21 59.449219 20.550781 59 20 59 Z M 24 59 C 23.449219 59 23 59.449219 23 60 C 23 60.550781 23.449219 61 24 61 C 24.550781 61 25 60.550781 25 60 C 25 59.449219 24.550781 59 24 59 Z M 28 59 C 27.449219 59 27 59.449219 27 60 C 27 60.550781 27.449219 61 28 61 C 28.550781 61 29 60.550781 29 60 C 29 59.449219 28.550781 59 28 59 Z M 32 59 C 31.449219 59 31 59.449219 31 60 C 31 60.550781 31.449219 61 32 61 C 32.550781 61 33 60.550781 33 60 C 33 59.449219 32.550781 59 32 59 Z M 36 59 C 35.449219 59 35 59.449219 35 60 C 35 60.550781 35.449219 61 36 61 C 36.550781 61 37 60.550781 37 60 C 37 59.449219 36.550781 59 36 59 Z M 40 59 C 39.476563 59 39.039063 59.40625 39 59.929688 C 39 59.953125 39 59.976563 39 60 C 39 60.523438 39.40625 60.960938 39.929688 61 C 39.953125 61 39.976563 61 40 61 C 40.550781 61 41 60.550781 41 60 C 41 59.449219 40.550781 59 40 59 Z M 44 59 C 43.449219 59 43 59.449219 43 60 C 43 60.550781 43.449219 61 44 61 C 44.550781 61 45 60.550781 45 60 C 45 59.449219 44.550781 59 44 59 Z M 48 59 C 47.449219 59 47 59.449219 47 60 C 47 60.550781 47.449219 61 48 61 C 48.550781 61 49 60.550781 49 60 C 49 59.449219 48.550781 59 48 59 Z M 52 59 C 51.449219 59 51 59.449219 51 60 C 51 60.550781 51.449219 61 52 61 C 52.550781 61 53 60.550781 53 60 C 53 59.449219 52.550781 59 52 59 Z M 56 59 C 55.449219 59 55 59.449219 55 60 C 55 60.550781 55.449219 61 56 61 C 56.550781 61 57 60.550781 57 60 C 57 59.449219 56.550781 59 56 59 Z M 60 59 C 59.449219 59 59 59.449219 59 60 C 59 60.550781 59.449219 61 60 61 C 60.550781 61 61 60.550781 61 60 C 61 59.449219 60.550781 59 60 59 Z M 30 63 C 29.449219 63 29 63.449219 29 64 C 29 64.550781 29.449219 65 30 65 C 30.550781 65 31 64.550781 31 64 C 31 63.449219 30.550781 63 30 63 Z M 40 63 C 39.449219 63 39 63.449219 39 64 C 39 64.550781 39.449219 65 40 65 C 40.550781 65 41 64.550781 41 64 C 41 63.449219 40.550781 63 40 63 Z M 50 63 C 49.449219 63 49 63.449219 49 64 C 49 64.550781 49.449219 65 50 65 C 50.550781 65 51 64.550781 51 64 C 51 63.449219 50.550781 63 50 63 Z M 33 66 C 32.449219 66 32 66.449219 32 67 C 32 67.550781 32.449219 68 33 68 C 33.550781 68 34 67.550781 34 67 C 34 66.449219 33.550781 66 33 66 Z M 47 66 C 46.449219 66 46 66.449219 46 67 C 46 67.550781 46.449219 68 47 68 C 47.550781 68 48 67.550781 48 67 C 48 66.449219 47.550781 66 47 66 Z M 40 67 C 39.449219 67 39 67.449219 39 68 C 39 68.550781 39.449219 69 40 69 C 40.550781 69 41 68.550781 41 68 C 41 67.449219 40.550781 67 40 67 Z"/></svg>