<svg fill="#000000" xmlns="http://www.w3.org/2000/svg"  viewBox="0 0 80 80" width="80px" height="80px"><path d="M 29.615234 16.001953 C 28.494629 16.027343 27.380731 16.304858 26.361328 16.820312 C 20.442447 19.811066 14.966872 23.312919 11.007812 28.986328 L 10.570312 29.611328 L 10.646484 29.703125 C 9.6610188 31.2485 9 33.031493 9 35 L 9 50 C 9 56.615466 14.384534 62 21 62 L 46 62 C 48.749516 62 51 59.749516 51 57 C 51 55.793102 50.549179 54.696543 49.830078 53.830078 C 52.217177 53.230701 54 51.066526 54 48.5 C 54 46.988184 53.382395 45.613834 52.386719 44.617188 C 54.481755 43.838926 56 41.857686 56 39.5 C 56 38.153637 55.455026 36.958611 54.644531 36 L 65.5 36 C 68.525577 36 71 33.525577 71 30.5 C 71 27.474423 68.525577 25 65.5 25 L 45.3125 25 C 42.413918 23.060693 39.594444 20.842473 36.597656 18.865234 C 35.721591 18.212845 34.337229 17.367318 32.90625 16.693359 L 32.90625 16.695312 C 31.863797 16.204264 30.73584 15.976564 29.615234 16.001953 z M 29.660156 18.001953 C 30.481551 17.983343 31.301134 18.148948 32.054688 18.503906 C 33.345709 19.111948 34.680409 19.933092 35.402344 20.470703 L 35.425781 20.486328 L 35.449219 20.503906 C 37.578177 21.90575 39.662032 23.473739 41.798828 25 L 31.568359 25 A 1.0001 1.0001 0 1 0 31.568359 27 L 65.5 27 C 67.444423 27 69 28.555577 69 30.5 C 69 32.444423 67.444423 34 65.5 34 L 50.5 34 L 49 34 A 1.0001 1.0001 0 0 0 48.800781 34.017578 A 1.0001 1.0001 0 0 0 48.152344 34.447266 A 1.0001 1.0001 0 0 0 48.101562 34.533203 A 1.0001 1.0001 0 0 0 48.025391 34.71875 A 1.0001 1.0001 0 0 0 47.992188 35.115234 A 1.0001 1.0001 0 0 0 48.009766 35.212891 A 1.0001 1.0001 0 0 0 48.035156 35.310547 A 1.0001 1.0001 0 0 0 48.169922 35.576172 A 1.0001 1.0001 0 0 0 48.300781 35.728516 A 1.0001 1.0001 0 0 0 48.376953 35.792969 A 1.0001 1.0001 0 0 0 48.636719 35.9375 A 1.0001 1.0001 0 0 0 48.732422 35.966797 A 1.0001 1.0001 0 0 0 48.929688 35.998047 A 1.0001 1.0001 0 0 0 49 36 L 50.5 36 C 52.444423 36 54 37.555577 54 39.5 C 54 41.444423 52.444423 43 50.5 43 L 48.5 43 L 47 43 A 1.0001 1.0001 0 1 0 47 45 L 48.5 45 C 50.444423 45 52 46.555577 52 48.5 C 52 50.444423 50.444423 52 48.5 52 L 46 52 A 1.0001 1.0001 0 1 0 46 54 C 47.668484 54 49 55.331516 49 57 C 49 58.668484 47.668484 60 46 60 L 21 60 C 15.465466 60 11 55.534534 11 50 L 11 35 C 11 33.181833 11.610146 31.520037 12.632812 30.175781 L 12.871094 29.861328 C 16.540014 24.750267 21.570485 21.48218 27.263672 18.605469 L 27.263672 18.603516 C 28.016269 18.22297 28.838762 18.020564 29.660156 18.001953 z M 41 34 C 40.448 34 40 34.448 40 35 C 40 35.552 40.448 36 41 36 C 41.552 36 42 35.552 42 35 C 42 34.448 41.552 34 41 34 z M 45 34 C 44.448 34 44 34.448 44 35 C 44 35.552 44.448 36 45 36 C 45.552 36 46 35.552 46 35 C 46 34.448 45.552 34 45 34 z M 67 38.484375 L 66.248047 39.339844 C 64.360791 41.490814 63.064945 43.75004 62.431641 45.861328 C 61.798336 47.972616 61.806053 49.998083 62.791016 51.539062 C 63.471076 52.603673 64.914574 54 67 54 C 69.085426 54 70.528924 52.603674 71.208984 51.539062 C 72.193893 49.998168 72.203497 47.972667 71.570312 45.861328 C 70.937129 43.749989 69.639765 41.490853 67.751953 39.339844 L 67 38.484375 z M 67 41.695312 C 68.25811 43.333213 69.21823 44.98149 69.654297 46.435547 C 70.182613 48.197208 70.067482 49.612833 69.525391 50.460938 L 69.523438 50.460938 C 69.149543 51.046326 68.102574 52 67 52 C 65.897426 52 64.850504 51.046326 64.476562 50.460938 L 64.474609 50.460938 C 63.932619 49.612917 63.817258 48.197259 64.345703 46.435547 C 64.781877 44.981447 65.742125 43.333253 67 41.695312 z M 43 43 C 42.448 43 42 43.448 42 44 C 42 44.552 42.448 45 43 45 C 43.552 45 44 44.552 44 44 C 44 43.448 43.552 43 43 43 z M 42 52 C 41.448 52 41 52.448 41 53 C 41 53.552 41.448 54 42 54 C 42.552 54 43 53.552 43 53 C 43 52.448 42.552 52 42 52 z"/></svg>