<svg fill="#000000" xmlns="http://www.w3.org/2000/svg"  viewBox="0 0 64 64" width="64px" height="64px"><path d="M 34 0 C 30.691406 0 28 2.691406 28 6 C 28 9.308594 30.691406 12 34 12 C 37.308594 12 40 9.308594 40 6 C 40 2.691406 37.308594 0 34 0 Z M 34 2 C 36.207031 2 38 3.792969 38 6 C 38 8.207031 36.207031 10 34 10 C 31.792969 10 30 8.207031 30 6 C 30 3.792969 31.792969 2 34 2 Z M 28.363281 12.375 C 27.6875 12.410156 27.007813 12.472656 26.328125 12.570313 L 19.890625 13.5 C 18.179688 13.75 16.691406 14.890625 16.011719 16.480469 L 13.410156 22.550781 C 12.78125 24.019531 13.328125 25.742188 14.699219 26.5625 C 15.4375 27 16.300781 27.128906 17.128906 26.921875 C 17.960938 26.710938 18.648438 26.199219 19.089844 25.460938 L 21.660156 21.179688 C 21.832031 20.898438 22.132813 20.71875 22.460938 20.699219 L 23.980469 20.609375 L 21.535156 30.179688 C 21.378906 30.074219 21.203125 30 21 30 C 20.449219 30 20 30.449219 20 31 L 20 33 C 20 33.078125 20.027344 33.148438 20.046875 33.222656 L 17.71875 37.589844 C 17.230469 38.5 16.320313 39.089844 15.289063 39.171875 L 7.789063 39.738281 C 6.640625 39.820313 5.640625 40.441406 5.03125 41.410156 C 4.417969 42.390625 4.308594 43.5625 4.742188 44.628906 C 5.320313 46.082031 6.75 46.972656 8.289063 46.878906 L 18.097656 46.238281 C 20.769531 46.070313 23.199219 44.730469 24.78125 42.578125 L 28.421875 37.621094 L 33.121094 43.230469 C 33.847656 44.109375 34.410156 45.109375 34.761719 46.199219 L 36.171875 50.480469 L 4.679688 53.628906 C 2.007813 53.890625 0 56.121094 0 58.800781 C 0 61.671875 2.328125 64 5.199219 64 L 57 64 C 59.761719 64 62 61.761719 62 59 L 62 34 C 63.101563 34 64 33.101563 64 32 L 64 24.410156 C 64 23.769531 63.679688 23.160156 63.160156 22.78125 C 62.628906 22.410156 61.949219 22.308594 61.328125 22.53125 L 46.328125 27.820313 C 45.539063 28.101563 45 28.859375 45 29.710938 L 45 32 C 45 33.101563 45.898438 34 47 34 L 55.1875 34 L 53.71875 48.71875 L 44.171875 49.679688 L 43.839844 47.652344 C 43.390625 44.878906 42.398438 42.28125 40.921875 39.910156 L 36.878906 33.453125 C 36.949219 33.316406 37 33.164063 37 33 L 37 31 C 37 30.53125 36.667969 30.152344 36.234375 30.046875 L 37.660156 23.46875 L 39.910156 25.289063 C 41.308594 26.4375 43.230469 26.730469 44.921875 26.0625 L 51.109375 23.578125 C 52.5 23.019531 53.269531 21.511719 52.910156 20.0625 L 52.820313 19.699219 C 52.421875 18.089844 50.78125 17.121094 49.179688 17.511719 L 44.21875 18.761719 C 43.878906 18.839844 43.519531 18.738281 43.269531 18.488281 L 42.121094 17.339844 C 40 15.21875 37.339844 13.710938 34.421875 12.980469 C 32.425781 12.484375 30.394531 12.28125 28.363281 12.375 Z M 28.453125 14.375 C 30.296875 14.289063 32.132813 14.46875 33.9375 14.921875 C 36.5 15.558594 38.839844 16.890625 40.699219 18.75 L 41.859375 19.910156 C 42.597656 20.648438 43.6875 20.949219 44.699219 20.699219 L 49.671875 19.460938 C 50.210938 19.320313 50.75 19.648438 50.878906 20.179688 L 50.96875 20.550781 C 51.089844 21.03125 50.828125 21.539063 50.371094 21.71875 L 44.171875 24.199219 C 43.171875 24.597656 42.011719 24.429688 41.171875 23.738281 L 37.660156 20.890625 C 37.390625 20.671875 37.027344 20.609375 36.699219 20.71875 C 36.371094 20.839844 36.128906 21.109375 36.050781 21.449219 L 33.8125 31.78125 C 33.75 32.039063 33.800781 32.308594 33.9375 32.53125 L 39.21875 40.96875 C 40.570313 43.109375 41.460938 45.46875 41.871094 47.96875 L 42.179688 49.878906 L 38.210938 50.269531 L 36.671875 45.578125 C 36.230469 44.25 35.550781 43.027344 34.652344 41.949219 L 29.128906 35.359375 C 28.941406 35.128906 28.660156 35 28.359375 35 L 28.328125 35 C 28.019531 35.011719 27.742188 35.160156 27.5625 35.410156 L 23.171875 41.402344 C 21.941406 43.070313 20.039063 44.109375 17.96875 44.238281 L 8.171875 44.878906 C 7.480469 44.929688 6.851563 44.53125 6.601563 43.890625 C 6.410156 43.421875 6.449219 42.902344 6.71875 42.46875 C 6.992188 42.039063 7.4375 41.769531 7.9375 41.730469 L 15.449219 41.160156 C 17.160156 41.03125 18.671875 40.050781 19.480469 38.53125 L 23.25 31.46875 C 23.28125 31.402344 23.308594 31.320313 23.328125 31.25 L 26.070313 20.488281 L 28.480469 20.347656 C 29.03125 20.320313 29.449219 19.839844 29.421875 19.289063 C 29.378906 18.738281 28.910156 18.308594 28.359375 18.347656 L 22.339844 18.699219 C 21.351563 18.757813 20.460938 19.300781 19.949219 20.160156 L 17.378906 24.429688 C 17.210938 24.710938 16.949219 24.902344 16.640625 24.980469 C 16.332031 25.058594 16.011719 25.011719 15.730469 24.839844 C 15.21875 24.539063 15.011719 23.890625 15.238281 23.339844 L 17.847656 17.269531 C 18.257813 16.320313 19.148438 15.628906 20.171875 15.480469 L 26.609375 14.550781 C 27.222656 14.464844 27.839844 14.402344 28.453125 14.375 Z M 62 24.410156 L 62 32 L 47 32 L 47 29.710938 L 55.929688 26.550781 L 60.328125 25 Z M 6 30 C 5.449219 30 5 30.449219 5 31 L 5 33 C 5 33.550781 5.449219 34 6 34 C 6.550781 34 7 33.550781 7 33 L 7 31 C 7 30.449219 6.550781 30 6 30 Z M 11 30 C 10.449219 30 10 30.449219 10 31 L 10 33 C 10 33.550781 10.449219 34 11 34 C 11.550781 34 12 33.550781 12 33 L 12 31 C 12 30.449219 11.550781 30 11 30 Z M 16 30 C 15.449219 30 15 30.449219 15 31 L 15 33 C 15 33.550781 15.449219 34 16 34 C 16.550781 34 17 33.550781 17 33 L 17 31 C 17 30.449219 16.550781 30 16 30 Z M 26 30 C 25.449219 30 25 30.449219 25 31 L 25 33 C 25 33.550781 25.449219 34 26 34 C 26.550781 34 27 33.550781 27 33 L 27 31 C 27 30.449219 26.550781 30 26 30 Z M 31 30 C 30.449219 30 30 30.449219 30 31 L 30 33 C 30 33.550781 30.449219 34 31 34 C 31.550781 34 32 33.550781 32 33 L 32 31 C 32 30.449219 31.550781 30 31 30 Z M 41 30 C 40.449219 30 40 30.449219 40 31 L 40 33 C 40 33.550781 40.449219 34 41 34 C 41.550781 34 42 33.550781 42 33 L 42 31 C 42 30.449219 41.550781 30 41 30 Z M 57.199219 34 L 60 34 L 60 59 C 60 60.648438 58.648438 62 57 62 L 5.199219 62 C 3.4375 62 2 60.5625 2 58.800781 C 2 57.152344 3.242188 55.777344 4.882813 55.621094 L 36.8125 52.421875 L 38.847656 52.21875 L 42.5 51.847656 L 44.5 51.652344 L 53.519531 50.75 L 55.550781 50.550781 L 55.75 48.519531 Z M 5 58 C 4.449219 58 4 58.449219 4 59 C 4 59.550781 4.449219 60 5 60 L 49 60 C 49.550781 60 50 59.550781 50 59 C 50 58.449219 49.550781 58 49 58 Z M 53 58 C 52.449219 58 52 58.449219 52 59 C 52 59.550781 52.449219 60 53 60 L 57 60 C 57.550781 60 58 59.550781 58 59 C 58 58.449219 57.550781 58 57 58 Z"/></svg>