<svg fill="#000000" xmlns="http://www.w3.org/2000/svg"  viewBox="0 0 80 80" width="80px" height="80px"><path d="M 40 9 C 38.902344 9 37.902344 9.449219 37.175781 10.175781 L 37.171875 10.171875 L 18.34375 29 L 9 29 C 7.355469 29 6 30.355469 6 32 L 6 36 C 6 37.644531 7.355469 39 9 39 L 8.621094 39 L 13.683594 62.628906 C 13.976563 64.007813 15.207031 65 16.617188 65 L 55 65 L 55 72.65625 L 62.496094 67.402344 L 67.09375 76.527344 L 72.5625 73.703125 L 67.835938 64.957031 L 77.097656 62.917969 L 75.671875 61.613281 L 68.03125 54.632813 L 71.378906 39 L 71 39 C 72.644531 39 74 37.644531 74 36 L 74 32 C 74 30.355469 72.644531 29 71 29 L 61.65625 29 L 42.828125 10.171875 C 42.105469 9.449219 41.097656 9 40 9 Z M 40 11 C 40.558594 11 41.050781 11.222656 41.414063 11.585938 L 58.828125 29 L 53.171875 29 L 38.585938 14.414063 C 38.222656 14.050781 38 13.558594 38 13 C 38 12.464844 38.207031 11.984375 38.546875 11.625 L 38.585938 11.585938 L 38.582031 11.582031 C 38.941406 11.222656 39.441406 11 40 11 Z M 36.148438 14.019531 C 36.332031 14.714844 36.683594 15.339844 37.171875 15.828125 L 38.585938 17.242188 L 26.828125 29 L 21.171875 29 Z M 40 18.65625 L 50.34375 29 L 29.65625 29 Z M 9 31 L 71 31 C 71.566406 31 72 31.433594 72 32 L 72 36 C 72 36.566406 71.566406 37 71 37 L 69.761719 37 L 66.316406 53.070313 L 55 42.734375 L 55 63 L 16.617188 63 C 16.140625 63 15.738281 62.675781 15.640625 62.210938 L 15.640625 62.207031 L 10.238281 37 L 9 37 C 8.433594 37 8 36.566406 8 36 L 8 32 C 8 31.433594 8.433594 31 9 31 Z M 14 37 C 13.449219 37 13 37.449219 13 38 C 13 38.550781 13.449219 39 14 39 C 14.550781 39 15 38.550781 15 38 C 15 37.449219 14.550781 37 14 37 Z M 18 37 C 17.449219 37 17 37.449219 17 38 C 17 38.550781 17.449219 39 18 39 C 18.550781 39 19 38.550781 19 38 C 19 37.449219 18.550781 37 18 37 Z M 22 37 C 21.449219 37 21 37.449219 21 38 C 21 38.550781 21.449219 39 22 39 C 22.550781 39 23 38.550781 23 38 C 23 37.449219 22.550781 37 22 37 Z M 26 37 C 25.449219 37 25 37.449219 25 38 C 25 38.550781 25.449219 39 26 39 C 26.550781 39 27 38.550781 27 38 C 27 37.449219 26.550781 37 26 37 Z M 30 37 C 29.449219 37 29 37.449219 29 38 C 29 38.550781 29.449219 39 30 39 C 30.550781 39 31 38.550781 31 38 C 31 37.449219 30.550781 37 30 37 Z M 34 37 C 33.449219 37 33 37.449219 33 38 C 33 38.550781 33.449219 39 34 39 C 34.550781 39 35 38.550781 35 38 C 35 37.449219 34.550781 37 34 37 Z M 38 37 C 37.449219 37 37 37.449219 37 38 C 37 38.550781 37.449219 39 38 39 C 38.550781 39 39 38.550781 39 38 C 39 37.449219 38.550781 37 38 37 Z M 42 37 C 41.449219 37 41 37.449219 41 38 C 41 38.550781 41.449219 39 42 39 C 42.550781 39 43 38.550781 43 38 C 43 37.449219 42.550781 37 42 37 Z M 46 37 C 45.449219 37 45 37.449219 45 38 C 45 38.550781 45.449219 39 46 39 C 46.550781 39 47 38.550781 47 38 C 47 37.449219 46.550781 37 46 37 Z M 50 37 C 49.449219 37 49 37.449219 49 38 C 49 38.550781 49.449219 39 50 39 C 50.550781 39 51 38.550781 51 38 C 51 37.449219 50.550781 37 50 37 Z M 54 37 C 53.449219 37 53 37.449219 53 38 C 53 38.550781 53.449219 39 54 39 C 54.550781 39 55 38.550781 55 38 C 55 37.449219 54.550781 37 54 37 Z M 58 37 C 57.449219 37 57 37.449219 57 38 C 57 38.550781 57.449219 39 58 39 C 58.550781 39 59 38.550781 59 38 C 59 37.449219 58.550781 37 58 37 Z M 62 37 C 61.449219 37 61 37.449219 61 38 C 61 38.550781 61.449219 39 62 39 C 62.550781 39 63 38.550781 63 38 C 63 37.449219 62.550781 37 62 37 Z M 66 37 C 65.449219 37 65 37.449219 65 38 C 65 38.550781 65.449219 39 66 39 C 66.550781 39 67 38.550781 67 38 C 67 37.449219 66.550781 37 66 37 Z M 57 47.265625 L 72.902344 61.792969 L 64.816406 63.578125 L 69.832031 72.859375 L 67.972656 73.820313 L 63.238281 64.4375 L 57 68.8125 Z"/></svg>