<svg width="32" height="32" viewBox="0 0 32 32" fill="none" xmlns="http://www.w3.org/2000/svg">
<rect width="32" height="32" fill="#034C1F"/>
<path d="M6.03271 15.737C6.03271 10.4705 10.2512 6.40735 15.4748 6.40735C20.7564 6.40735 24.742 10.5514 24.742 15.54C24.742 17.6338 24.0795 19.5886 22.9356 21.1786L26.0983 24.7609H22.1199L20.8517 23.2652C19.3217 24.3743 17.4272 25.0303 15.3216 25.0303C10.1716 25.0315 6.03271 20.9539 6.03271 15.737ZM15.4748 22.15C16.8227 22.15 18.0245 21.7561 19.0007 21.0699L17.1219 18.8529H20.8746C21.3115 17.9552 21.5516 16.9198 21.5516 15.7817C21.5516 12.0387 18.9355 9.39157 15.4169 9.39157C11.8911 9.39157 9.28225 12.0472 9.28225 15.7019C9.28225 19.341 11.8609 22.15 15.4748 22.15Z" fill="white"/>
</svg>
