<svg xmlns="http://www.w3.org/2000/svg" viewBox="0 0 134.18 36"><defs><style>.cls-1{fill:#034c1f;}</style></defs><g id="Layer_2" data-name="Layer 2"><g id="Layer_1-2" data-name="Layer 1"><path class="cls-1" d="M0,18A17.93,17.93,0,0,1,18.17,0,17.58,17.58,0,0,1,36,17.61a18.58,18.58,0,0,1-3.47,10.87l6.08,6.9H31L28.52,32.5a18,18,0,0,1-10.65,3.4A17.77,17.77,0,0,1,0,18ZM18.17,30.34A11.68,11.68,0,0,0,25,28.26L21.34,24h7.22a13.36,13.36,0,0,0,1.3-5.93c0-7.21-5-12.31-11.8-12.31S6.26,10.86,6.26,17.91s5,12.43,11.91,12.43ZM40.49,8.88h5.75V24.7c0,3.77,1.79,6.11,5.21,6.11s5.72-2.34,5.72-6.11V8.88h5.75v26.5H57.17v-3.1a9.39,9.39,0,0,1-7.37,3.43c-5.29,0-8.79-3.78-9.26-9.17,0-.47,0-1,0-1.86Zm40.06-.56c8,0,13.27,6.71,12.49,15.61H73.1c.37,4,3.88,6.86,8.17,6.86a9.51,9.51,0,0,0,7.23-3.5l3.65,3.85a14.68,14.68,0,0,1-11,4.85c-8.24,0-13.87-5.85-13.87-13.75S73,8.32,80.55,8.32Zm6.66,11a6.66,6.66,0,0,0-6.78-5.85,7.17,7.17,0,0,0-7.14,5.85Zm12.21,8A10.06,10.06,0,0,0,106.71,31c2.4,0,4-1.21,4-2.95,0-1.41-1-2.49-3.14-3.05l-3.23-.86C99.54,22.82,97,20.24,97,16.58c0-4.52,3.81-8.23,9.36-8.23a12.78,12.78,0,0,1,9.41,4.19l-3.62,3.79a8.06,8.06,0,0,0-5.86-2.8c-2.31,0-3.81,1.16-3.81,2.68,0,1.3,1,2.31,3.66,3l2.9.72c4.72,1.16,7.12,4.21,7.12,7.92,0,4.92-4.26,8.18-9.69,8.18a15,15,0,0,1-10.72-4.85ZM120,3.28h5.59V8.89h4.27L134.18,14h-8.55V25.09c0,3.62,1.57,5.28,5,5.28h1.18v5.07h-2c-6.38,0-9.78-3.7-9.78-10.37Z"/></g></g></svg>