<svg width="135" height="35" viewBox="0 0 135 35" fill="none" xmlns="http://www.w3.org/2000/svg">
<path d="M0 17.4861C0 7.61515 7.92088 0 17.73 0C27.6485 0 35.132 7.76538 35.132 17.1167C35.132 21.0404 33.8872 24.7046 31.7393 27.6847L37.6768 34.3974H30.207L27.8267 31.5947C24.9539 33.6729 21.3966 34.9033 17.443 34.9033C7.77055 34.9038 0 27.2614 0 17.4861ZM17.73 29.5035C20.2612 29.5035 22.5184 28.7654 24.3514 27.4799L20.8221 23.3235H27.8677C28.6883 21.6419 29.1398 19.7003 29.1398 17.5674C29.1398 10.5538 24.2284 5.59101 17.6207 5.59101C10.9993 5.59101 6.10152 10.5674 6.10152 17.4166C6.10152 24.2397 10.9446 29.5035 17.73 29.5035ZM39.5099 8.6406H45.1188V24.0211C45.1188 27.6853 46.8698 29.9547 50.2079 29.9547C53.5459 29.9547 55.7895 27.6853 55.7895 24.0211V8.6406H61.3985V34.3979H55.7895V31.3899C54.0658 33.4681 51.5483 34.7257 48.5935 34.7257C43.4361 34.7257 40.0155 31.0479 39.5645 25.812C39.5235 25.347 39.5099 24.8548 39.5099 24.0075V8.6406ZM78.6086 8.09373C86.4475 8.09373 91.5502 14.6152 90.798 23.2688H71.3306C71.7002 27.1379 75.1202 29.9405 79.3061 29.9405C81.9466 29.9405 84.2585 28.8331 86.3655 26.5364L89.9222 30.2825C86.7481 33.5364 83.2461 34.9994 79.1689 34.9994C71.1245 34.9994 65.6385 29.3122 65.6385 21.6288C65.6396 13.8765 71.2349 8.09373 78.6086 8.09373ZM85.107 18.812C84.4641 15.257 81.8646 13.1248 78.4856 13.1248C74.9699 13.1248 72.2747 15.4352 71.5219 18.812H85.107ZM97.023 26.5364C99.048 28.7921 101.606 30.0913 104.137 30.0913C106.476 30.0913 108.009 28.9156 108.009 27.2204C108.009 25.8535 106.996 24.8007 104.944 24.2539L101.784 23.4202C97.1324 22.1899 94.6832 19.6741 94.6832 16.1197C94.6832 11.7312 98.4045 8.12218 103.822 8.12218C107.42 8.12218 110.676 9.6945 113.002 12.1961L109.473 15.8739C107.886 14.1787 105.874 13.1532 103.754 13.1532C101.497 13.1532 100.033 14.2879 100.033 15.7647C100.033 17.0223 101.018 18.0067 103.604 18.6492L106.436 19.3463C111.046 20.481 113.386 23.4481 113.386 27.0434C113.386 31.8286 109.227 35 103.933 35C100.088 35 96.4491 33.3184 93.4669 30.2831L97.023 26.5364ZM117.147 3.18559H122.592V8.6406H126.765L130.938 13.5624H122.592V24.3899C122.592 27.9175 124.125 29.5308 127.463 29.5308H128.612V34.4526H126.697C120.472 34.4526 117.148 30.8572 117.148 24.3768V3.18559H117.147Z" fill="#034C1F"/>
<path d="M132.596 8.07617C131.218 8.07617 130.193 6.99837 130.193 5.63433C130.193 4.2703 131.218 3.18567 132.596 3.18567C133.974 3.18567 135 4.26347 135 5.6275C135 6.99154 133.975 8.07617 132.596 8.07617ZM132.596 3.61133C131.418 3.61133 130.639 4.46947 130.639 5.63376C130.639 6.79806 131.418 7.64994 132.596 7.64994C133.775 7.64994 134.554 6.7918 134.554 5.6275C134.554 4.46321 133.775 3.61133 132.596 3.61133ZM133.136 6.86521L132.71 5.92683H132.21V6.86521H131.764V4.31696H132.703C133.189 4.31696 133.609 4.59637 133.609 5.11535C133.609 5.44768 133.462 5.714 133.149 5.85399L133.622 6.86521H133.136ZM132.703 4.72896H132.204V5.51426H132.703C132.97 5.51426 133.143 5.39476 133.143 5.11535C133.142 4.85586 132.943 4.72896 132.703 4.72896Z" fill="#034C1F"/>
</svg>
