<svg xmlns="http://www.w3.org/2000/svg" viewBox="0 0 890.71 122.9"><defs><style>.cls-1{fill:#fff;}.cls-2{isolation:isolate;}</style></defs><title>Asset 1</title><g id="Layer_2" data-name="Layer 2"><g id="Layer_1-2" data-name="Layer 1"><path class="cls-1" d="M222.7,81.93a36.75,36.75,0,0,0,7.18-21.86c0-20-15.17-36.52-36.93-36.52s-37.13,16.69-37.13,36.73S171,96.8,192.75,96.8a37.37,37.37,0,0,0,21.55-6.67l6.2,5.54h18.44Zm-9.51-8.3H195.34l9.76,8.3A22.49,22.49,0,0,1,193,85.37c-14.06,0-24.08-11.43-24.08-25.29S178.69,35,192.75,35s24.07,11.43,24.07,25.29a24.46,24.46,0,0,1-3.63,13.35Z"/><path class="cls-1" d="M431.4,52.69,420.89,42.17H414V27.5H401.72V80.82c0,11.74,6.37,15.69,15.38,15.69a21.44,21.44,0,0,0,11-2.74v-10a16.47,16.47,0,0,1-7.59,1.82c-4.15,0-6.58-1.92-6.58-6.68V52.69Z"/><path class="cls-1" d="M288.91,95.35H276.5v-8.5h-.22a17.7,17.7,0,0,1-16.23,10A19.45,19.45,0,0,1,251.28,95a17.32,17.32,0,0,1-6-4.8,19.47,19.47,0,0,1-3.43-6.84,29.12,29.12,0,0,1-1.09-7.95V42.37h13.07V71.73a38.09,38.09,0,0,0,.33,4.86,13.25,13.25,0,0,0,1.42,4.58,9.44,9.44,0,0,0,3,3.36,8.7,8.7,0,0,0,5.06,1.33A11.13,11.13,0,0,0,269,84.58a11.43,11.43,0,0,0,3.81-3.26A14.55,14.55,0,0,0,275,76.74a18.56,18.56,0,0,0,.76-5.24V42.37h13.07Z"/><path class="cls-1" d="M333.78,88.61h-.33a14.66,14.66,0,0,1-6.32,5.8,21.2,21.2,0,0,1-9.91,2.26,28,28,0,0,1-6.59-.83,19.43,19.43,0,0,1-6.32-2.76A15.91,15.91,0,0,1,299.53,88a14.76,14.76,0,0,1-1.91-7.78q0-6,3.32-9.49a21.46,21.46,0,0,1,8.55-5.41,47.67,47.67,0,0,1,11.6-2.48q6.37-.6,12.47-.61V60.91q0-5-3.54-7.34a14.81,14.81,0,0,0-8.44-2.37,18.72,18.72,0,0,0-7.95,1.8,21.38,21.38,0,0,0-6.32,4.3l-6.75-8.06a29.41,29.41,0,0,1,10.29-6.29,34.66,34.66,0,0,1,11.82-2.1,28.69,28.69,0,0,1,11.49,2,18.05,18.05,0,0,1,10.78,12.36,31.45,31.45,0,0,1,1,8V95.35h-12.2Zm-.22-17.44h-2.94q-3.16,0-6.65.28a28.67,28.67,0,0,0-6.43,1.21,13.7,13.7,0,0,0-4.9,2.65,5.9,5.9,0,0,0-2,4.69,5.69,5.69,0,0,0,.82,3.15,6.28,6.28,0,0,0,2.12,2,9.39,9.39,0,0,0,2.94,1.1,16.48,16.48,0,0,0,3.27.33q6.75,0,10.24-3.64T333.56,73Z"/><path class="cls-1" d="M358,42.37h12.53V51.2h.22a19.27,19.27,0,0,1,6.1-7.51A15.08,15.08,0,0,1,386,40.82q.76,0,1.63.06a6,6,0,0,1,1.52.28V53.29a18.18,18.18,0,0,0-2.23-.44,15.51,15.51,0,0,0-1.8-.11,13.7,13.7,0,0,0-7.19,1.66,13.12,13.12,0,0,0-4.25,4,14.31,14.31,0,0,0-2.07,4.75A18.64,18.64,0,0,0,371,67V95.35H358Z"/><path class="cls-1" d="M441.36,83.65,469.57,53h-26.9V42.37h42.47v11.7L456.83,84.53h29.62V95.35H441.36Z"/><polygon class="cls-1" points="122.89 61.45 61.45 0 0 61.45 61.45 122.9 85.56 98.79 72.78 86 60.89 97.89 23.88 60.88 60.88 23.88 97.89 60.89 86 72.78 98.78 85.56 122.89 61.45"/><g class="cls-2"><g class="cls-2"><path class="cls-1" d="M561.11,56.61a14.91,14.91,0,0,0-1.52-6.23,13,13,0,0,0-3.7-4.43,16.11,16.11,0,0,0-5.56-2.68,26.34,26.34,0,0,0-7-.89,25.37,25.37,0,0,0-5,.54,15.94,15.94,0,0,0-5,1.91,11.3,11.3,0,0,0-3.77,3.66A10.36,10.36,0,0,0,528,54.2a8.62,8.62,0,0,0,1.63,5.45A11.89,11.89,0,0,0,534,63,28.12,28.12,0,0,0,540,65.09q3.42.78,6.92,1.48t7,1.67A24,24,0,0,1,560,70.88a13.11,13.11,0,0,1,4.32,4.36A12.75,12.75,0,0,1,565.94,82a13.44,13.44,0,0,1-1.87,7.31,15.77,15.77,0,0,1-4.71,4.82,19.55,19.55,0,0,1-6.3,2.68,29,29,0,0,1-6.65.82,38.44,38.44,0,0,1-9.18-1.05,20.56,20.56,0,0,1-7.47-3.42,16.52,16.52,0,0,1-5-6.11,19.88,19.88,0,0,1-1.75-9.1h3.42a15.54,15.54,0,0,0,1.32,7.74A14,14,0,0,0,532,90.84a17.9,17.9,0,0,0,6.5,2.92,33.56,33.56,0,0,0,7.86.9,24.91,24.91,0,0,0,5.33-.62,16.41,16.41,0,0,0,5.21-2.1,12.88,12.88,0,0,0,4-3.89A10.78,10.78,0,0,0,562.51,82a9.39,9.39,0,0,0-1.63-5.72,12,12,0,0,0-4.32-3.58,27.85,27.85,0,0,0-6.07-2.18q-3.39-.82-7-1.52t-6.92-1.63a23.77,23.77,0,0,1-6.07-2.53,13,13,0,0,1-4.28-4.12,11.77,11.77,0,0,1-1.63-6.5,13.18,13.18,0,0,1,1.67-6.81,13.69,13.69,0,0,1,4.36-4.59,19.36,19.36,0,0,1,6-2.57,27.85,27.85,0,0,1,6.61-.82,32.5,32.5,0,0,1,8.13,1,19.4,19.4,0,0,1,6.61,3,15.18,15.18,0,0,1,4.55,5.33,18.86,18.86,0,0,1,1.95,7.86Z"/></g><g class="cls-2"><path class="cls-1" d="M587.72,58.86H579V86.8a10.78,10.78,0,0,0,.54,3.81,4.35,4.35,0,0,0,1.67,2.14,5.93,5.93,0,0,0,2.72.89,27.79,27.79,0,0,0,3.7.08v2.57a27.68,27.68,0,0,1-4.4,0,8.81,8.81,0,0,1-3.77-1.17,6.83,6.83,0,0,1-2.61-2.92,11,11,0,0,1-.82-5.37V58.86h-7.39V56.3h7.39V43.85h3V56.3h8.71Z"/><path class="cls-1" d="M588.34,56.3h3.5l14.86,36.49L620.4,56.3h3.35l-17.12,44.27q-1.25,3-2.29,5.1a8.74,8.74,0,0,1-2.37,3.15,7.28,7.28,0,0,1-3.7,1.52,46.8,46.8,0,0,1-5.64.27V108a19.19,19.19,0,0,0,5-.51,7.72,7.72,0,0,0,3.35-2.06,10,10,0,0,0,1.79-3.15q.93-2.3,2.33-6.26Z"/><path class="cls-1" d="M631.37,40.73V96.29h-3V40.73Z"/><path class="cls-1" d="M641.88,76.68v.47a23.62,23.62,0,0,0,.94,6.69,17.06,17.06,0,0,0,2.77,5.6,13.15,13.15,0,0,0,4.6,3.81,14.08,14.08,0,0,0,6.44,1.4q6,0,9.52-3.15A16.5,16.5,0,0,0,671,82.75h3q-1.32,7-5.72,10.74t-11.63,3.73a17.65,17.65,0,0,1-7.74-1.59,15.74,15.74,0,0,1-5.52-4.36A18.48,18.48,0,0,1,640,84.74a29.15,29.15,0,0,1-1.09-8.13A28.47,28.47,0,0,1,640,68.55a20.2,20.2,0,0,1,3.38-6.77,16.78,16.78,0,0,1,5.64-4.67,17.14,17.14,0,0,1,8-1.75,16.92,16.92,0,0,1,7.43,1.56,15.58,15.58,0,0,1,5.41,4.24,18.84,18.84,0,0,1,3.31,6.22A24.86,24.86,0,0,1,674.32,75c0,.26,0,.56,0,.9s0,.61,0,.82Zm29.41-2.57a23.91,23.91,0,0,0-1.09-6.19,15.33,15.33,0,0,0-2.77-5.14A13.77,13.77,0,0,0,663,59.25a13,13,0,0,0-6-1.32,14,14,0,0,0-6.32,1.36,14.27,14.27,0,0,0-4.6,3.58A15.94,15.94,0,0,0,643.2,68,24.22,24.22,0,0,0,642,74.11Z"/><path class="cls-1" d="M701.32,68.82a35.81,35.81,0,0,1,1.75-11.24,28.51,28.51,0,0,1,5.1-9.38,24.4,24.4,0,0,1,8.21-6.42,25.15,25.15,0,0,1,11.17-2.37,26.68,26.68,0,0,1,8.17,1.25,21.76,21.76,0,0,1,12.14,9.49,21.11,21.11,0,0,1,2.8,7.78h-3.27a21.33,21.33,0,0,0-7-11.44,19.54,19.54,0,0,0-12.76-4.12,21.49,21.49,0,0,0-9.88,2.18,21.24,21.24,0,0,0-7.16,5.83,25.81,25.81,0,0,0-4.36,8.44,35,35,0,0,0,0,20A24,24,0,0,0,710.47,87a20.42,20.42,0,0,0,7.12,5.56,22.88,22.88,0,0,0,10,2.06A23.32,23.32,0,0,0,736.57,93a19,19,0,0,0,6.73-4.59,19.29,19.29,0,0,0,4.16-7.12,25.36,25.36,0,0,0,1.17-9.3H728.17v-3h23.42V96.29h-3V84.46h-.16a17,17,0,0,1-3,5.49,18.72,18.72,0,0,1-4.79,4.12,24.2,24.2,0,0,1-6.15,2.61,28.06,28.06,0,0,1-18.21-1.32,24,24,0,0,1-8.21-6.15A26.36,26.36,0,0,1,703,80.07,36,36,0,0,1,701.32,68.82Z"/><path class="cls-1" d="M792.13,96.29h-3V87.73H789a12.81,12.81,0,0,1-2.22,4,14.74,14.74,0,0,1-7.51,4.86,17.23,17.23,0,0,1-4.59.62,18.18,18.18,0,0,1-6-.86,11.65,11.65,0,0,1-4-2.26A10.88,10.88,0,0,1,762.29,91,14.57,14.57,0,0,1,761,87.42a20.81,20.81,0,0,1-.47-3.46q-.08-1.67-.08-2.92V56.3h3V81.58a37,37,0,0,0,.23,3.77A11.31,11.31,0,0,0,765,89.64a10,10,0,0,0,3.38,3.54,11.6,11.6,0,0,0,6.38,1.48,14.16,14.16,0,0,0,6-1.25,13,13,0,0,0,4.55-3.46,15.26,15.26,0,0,0,2.84-5.29,22.23,22.23,0,0,0,1-6.73V56.3h3Z"/><path class="cls-1" d="M801.54,48.75v-8h3v8Zm0,47.54v-40h3v40Z"/><path class="cls-1" d="M844.8,87.73h-.16a18.17,18.17,0,0,1-6.22,7.12,18.6,18.6,0,0,1-16.88.66,15.35,15.35,0,0,1-5.37-4.59,19.86,19.86,0,0,1-3.11-6.65,31.71,31.71,0,0,1,.08-16.18,18.85,18.85,0,0,1,3.31-6.65A15.84,15.84,0,0,1,822,57a17.71,17.71,0,0,1,7.86-1.63,17.35,17.35,0,0,1,4.75.66,16.61,16.61,0,0,1,4.32,1.91,13.7,13.7,0,0,1,5.72,7.31h.16V40.73h3V96.29h-3Zm-14.86,6.93a13.18,13.18,0,0,0,6.57-1.56A14,14,0,0,0,841.11,89a18.24,18.24,0,0,0,2.72-5.87,25.68,25.68,0,0,0,.89-6.73,26,26,0,0,0-.89-6.81,19.25,19.25,0,0,0-2.68-5.91,13.26,13.26,0,0,0-4.63-4.16,13.64,13.64,0,0,0-6.65-1.56,14,14,0,0,0-6.77,1.52,13.5,13.5,0,0,0-4.63,4.08,17.07,17.07,0,0,0-2.65,5.91,29.14,29.14,0,0,0-.82,6.93,25.94,25.94,0,0,0,.89,6.81,18.2,18.2,0,0,0,2.72,5.88,13.49,13.49,0,0,0,4.63,4.08A13.86,13.86,0,0,0,829.94,94.66Z"/><path class="cls-1" d="M858.27,76.68v.47a23.62,23.62,0,0,0,.94,6.69,17.06,17.06,0,0,0,2.77,5.6,13.15,13.15,0,0,0,4.6,3.81,14.08,14.08,0,0,0,6.44,1.4q6,0,9.52-3.15a16.49,16.49,0,0,0,4.84-8.75h3q-1.32,7-5.72,10.74T873,97.22a17.65,17.65,0,0,1-7.74-1.59,15.74,15.74,0,0,1-5.52-4.36,18.48,18.48,0,0,1-3.31-6.54,29.15,29.15,0,0,1-1.09-8.13,28.47,28.47,0,0,1,1.13-8.05,20.2,20.2,0,0,1,3.38-6.77,16.78,16.78,0,0,1,5.64-4.67,17.15,17.15,0,0,1,8-1.75,16.93,16.93,0,0,1,7.43,1.56,15.58,15.58,0,0,1,5.41,4.24,18.86,18.86,0,0,1,3.31,6.22A24.89,24.89,0,0,1,890.71,75c0,.26,0,.56,0,.9s0,.61,0,.82Zm29.41-2.57a24,24,0,0,0-1.09-6.19,15.32,15.32,0,0,0-2.77-5.14,13.77,13.77,0,0,0-4.45-3.54,13,13,0,0,0-6-1.32,14,14,0,0,0-6.32,1.36,14.27,14.27,0,0,0-4.6,3.58A15.94,15.94,0,0,0,859.59,68a24.22,24.22,0,0,0-1.25,6.07Z"/></g></g></g></g></svg>