<?xml version="1.0" encoding="UTF-8"?>
<svg width="264px" height="52px" viewBox="0 0 264 52" version="1.1" xmlns="http://www.w3.org/2000/svg" xmlns:xlink="http://www.w3.org/1999/xlink">
    <!-- Generator: Sketch 43.2 (39069) - http://www.bohemiancoding.com/sketch -->
    <title>quest-logo-quanum</title>
    <desc>Created with Sketch.</desc>
    <defs></defs>
    <g stroke="none" stroke-width="1" fill="none" fill-rule="evenodd">
        <g transform="translate(-28.000000, -6.000000)" fill-rule="nonzero" fill="#000000">
            <g transform="translate(28.000000, 6.000000)">
                <g>
                    <path d="M98.9,31.4 C98.9,33.7 97.5,35.099 95.6,35.099 C93.6,35.099 92.4,33.799 92.4,31.499 L92.4,23.099 L89,23.099 L89,32.499 C89,35.899 90.9,38.199 94.3,38.199 C96.6,38.199 98,36.999 98.9,35.598 L98.9,37.9 L102.3,37.9 L102.3,23.2 L98.9,23.2 L98.9,31.4 L98.9,31.4 Z M142.9,26 L140,23.1 L138.1,23.1 L138.1,19.1 L134.7,19.1 L134.7,33.8 C134.7,37 136.5,38.1 138.9,38.1 C140.2,38.1 141.1,37.8 141.9,37.3 L141.9,34.5 C141.2,34.8 140.6,35 139.8,35 C138.7,35 138,34.5 138,33.2 L138,26 L142.9,26 L142.9,26 Z M86,28 C86,22.5 81.8,17.9 75.8,17.9 C69.8,17.9 65.5,22.5 65.5,28 C65.5,33.5 69.7,38.1 75.7,38.1 C78,38.1 80,37.401 81.7,36.3 L83.4,37.8 L88.5,37.8 L84,34 C85.3,32.3 86,30.2 86,28 L86,28 L86,28 Z M81.4,31.7 L76.5,31.7 L79.2,34 C78.3,34.6 77.1,34.9 75.8,34.9 C71.9,34.9 69.2,31.7 69.2,27.9 C69.2,24.1 71.9,21 75.8,21 C79.7,21 82.4,24.2 82.4,28 C82.4,29.4 82.1,30.7 81.4,31.7 L81.4,31.7 L81.4,31.7 Z M127.7,29.1 C126,28.5 124.4,28.1 124.4,27 L124.4,27 C124.4,26.1 125.2,25.5 126.5,25.5 C127.5,25.5 128.8,25.9 130,26.5 L132,24.5 C130.4,23.5 128.4,22.8 126.6,22.8 C123.7,22.8 121.3,24.5 121.3,27.3 L121.3,27.4 C121.3,30.2 123.7,31.099 125.9,31.7 C127.6,32.2 129.2,32.599 129.2,33.8 L129.2,33.9 C129.2,34.9 128.4,35.5 126.9,35.5 C125.5,35.5 124,35 122.5,34 L120.5,36 L120.5,36 C122.3,37.5 124.7,38.2 126.8,38.2 C129.9,38.2 132.3,36.7 132.3,33.599 L132.3,33.499 C132.3,30.7 129.9,29.8 127.7,29.1 L127.7,29.1 L127.7,29.1 Z M112,22.8 C107.8,22.8 104.8,26.3 104.8,30.5 C104.8,35.1 108.1,38.2 112.4,38.2 C115,38.2 116.9,37.2 118.3,35.599 L116.4,33.7 L116.4,33.7 C115.2,34.8 114.1,35.5 112.4,35.5 C110.2,35.5 108.5,34.2 108.2,31.8 L119,31.8 C119,31.5 119.1,31.2 119.1,30.901 C119,26.4 116.7,22.8 112,22.8 L112,22.8 L112,22.8 Z M108.1,29.2 C108.5,27 109.9,25.5 111.9,25.5 C114.1,25.5 115.3,27.1 115.6,29.2 L108.1,29.2 L108.1,29.2 Z M39.2,12.4 C42.1,15.3 42,19.4 41.7,21.6 C41.2,25 39.7,28.6 37.3,31.7 L26.4,31.7 L31.9,37.099 C28.1,39.999 23.7,41.599 19.7,41.599 C17.6,41.599 14.7,41.099 12.5,38.999 C9.6,36.099 9.7,31.999 10,29.699 C10.6,25.199 13.1,20.399 16.9,16.599 C21.3,12.199 27,9.599 32.1,9.599 C32.9,9.7 36.6,9.7 39.2,12.4 L39.2,12.4 L39.2,12.4 Z M42.9,37.2 L46.7,41 C49.9,36.7 51.7,31.4 51.7,25.7 C51.7,21.7 50.8,18 49.2,14.6 C49.2,14.6 49.2,14.5 49.1,14.5 C49,14.5 49,14.5 49,14.6 L49,14.6 C50.7,21.7 48.5,30.2 42.9,37.2 L42.9,37.2 L42.9,37.2 Z M2.4,36.4 C2.4,36.5 2.5,36.5 2.5,36.5 L2.6,36.4 C0.8,28.5 3.9,18.8 11.4,11.3 C17.5,5.2 25.1,2 32,2 C33.6,2 35.1,2.2 36.5,2.5 C36.6,2.5 36.6,2.5 36.6,2.4 C36.6,2.3 36.6,2.3 36.5,2.3 C33.2,0.8 29.6,0 25.8,0 C11.5,0 0,11.5 0,25.8 C0.1,29.6 0.9,33.2 2.4,36.4 L2.4,36.4 L2.4,36.4 Z M25.9,51.5 C31.6,51.5 36.9,49.6 41.2,46.5 L37.4,42.7 C31.9,47.099 25.5,49.4 19.7,49.4 C18,49.4 16.4,49.2 14.9,48.799 L14.9,48.799 C14.8,48.799 14.8,48.799 14.8,48.9 C14.8,48.9 14.8,49 14.9,49 C18.1,50.6 21.9,51.5 25.9,51.5 L25.9,51.5 L25.9,51.5 Z"></path>
                </g>
                <g transform="translate(148.000000, 17.000000)">
                    <g transform="translate(22.000000, 5.000000)">
                        <path d="M12.129,15.615 L12.129,12.884 C11.153,14.61 9.513,15.962 6.839,15.962 C3.131,15.962 0.974,13.431 0.974,9.922 L0.974,0.951 L2.383,0.951 L2.383,9.663 C2.383,12.683 4.078,14.666 7.041,14.666 C9.915,14.666 12.129,12.481 12.129,9.433 L12.129,0.952 L13.538,0.952 L13.538,15.616 L12.129,15.616 L12.129,15.615 Z"></path>
                        <path d="M27.514,15.615 L27.514,13.172 C26.508,14.58 24.697,15.962 21.908,15.962 C19.175,15.962 16.244,14.408 16.244,11.36 L16.244,11.302 C16.244,8.254 18.86,6.529 22.655,6.529 C24.697,6.529 26.106,6.788 27.514,7.161 L27.514,6.529 C27.514,3.568 25.701,2.044 22.685,2.044 C21.149,2.044 19.848,2.406 18.655,2.947 L17.565,1.986 C19.174,1.238 20.757,0.72 22.771,0.72 C26.536,0.72 28.893,2.675 28.893,6.47 L28.893,15.615 L27.514,15.615 L27.514,15.615 Z M27.543,8.456 C26.307,8.139 24.667,7.796 22.567,7.796 C19.463,7.796 17.737,9.176 17.737,11.217 L17.737,11.274 C17.737,13.403 19.751,14.638 21.993,14.638 C24.985,14.638 27.543,12.797 27.543,10.125 L27.543,8.456 Z"></path>
                        <path d="M43.674,15.615 L43.674,6.903 C43.674,3.884 41.979,1.9 39.017,1.9 C36.141,1.9 33.929,4.086 33.929,7.133 L33.929,15.614 L32.518,15.614 L32.518,0.951 L33.929,0.951 L33.929,3.683 C34.907,1.957 36.543,0.606 39.218,0.606 C42.927,0.606 45.083,3.136 45.083,6.644 L45.083,15.615 L43.674,15.615 Z"></path>
                        <path d="M59.577,15.615 L59.577,12.884 C58.598,14.61 56.96,15.962 54.286,15.962 C50.577,15.962 48.42,13.431 48.42,9.922 L48.42,0.951 L49.828,0.951 L49.828,9.663 C49.828,12.683 51.526,14.666 54.488,14.666 C57.363,14.666 59.577,12.481 59.577,9.433 L59.577,0.952 L60.985,0.952 L60.985,15.616 L59.577,15.616 L59.577,15.615 Z"></path>
                        <path d="M85.657,15.615 L85.657,6.903 C85.657,3.74 84.016,1.9 81.313,1.9 C78.842,1.9 76.686,3.797 76.686,7.075 L76.686,15.615 L75.277,15.615 L75.277,6.817 C75.277,3.768 73.609,1.9 70.992,1.9 C68.377,1.9 66.305,4.2 66.305,7.161 L66.305,15.615 L64.896,15.615 L64.896,0.951 L66.305,0.951 L66.305,3.568 C67.254,2.044 68.577,0.606 71.194,0.606 C73.753,0.606 75.335,2.072 76.139,3.768 C77.087,2.129 78.67,0.606 81.43,0.606 C84.909,0.606 87.065,3.05 87.065,6.73 L87.065,15.615 L85.657,15.615 Z"></path>
                    </g>
                    <path d="M11.534,14.379 L18.84,20.633 L20.633,20.633 L17.334,17.811 L17.369,17.773 C19.025,15.921 19.95,13.451 19.95,10.842 C19.979,10.814 19.979,10.814 19.95,10.785 C19.95,5.426 16.052,0.682 10.101,0.682 C4.152,0.682 0.195,5.481 0.195,10.841 L0.195,10.897 C0.195,16.256 4.095,21 10.046,21 C11.242,21 12.347,20.796 13.365,20.447 L12.166,19.421 C11.513,19.587 10.825,19.682 10.102,19.682 C5.248,19.682 1.71,15.697 1.71,10.842 L1.71,10.785 C1.71,5.931 5.191,2.002 10.046,2.002 C14.901,2.002 18.437,5.986 18.437,10.842 L18.437,10.898 C18.437,13.172 17.651,15.276 16.303,16.847 L16.265,16.892 L16.309,16.932 L13.327,14.379 L11.534,14.379 Z"></path>
                </g>
                <polygon points="263.15 18.05 262.15 20.45 261.15 18.05 260.25 18.05 260.25 21.65 260.85 21.65 260.85 19.25 261.75 21.55 261.75 21.55 262.25 21.55 263.15 19.15 263.15 21.55 263.85 21.55 263.85 17.95 263.15 17.95"></polygon>
                <polygon points="257.15 18.55 258.15 18.55 258.15 21.55 258.85 21.55 258.85 18.55 259.85 18.55 259.85 17.95 257.05 17.95 257.05 18.55"></polygon>
            </g>
        </g>
    </g>
</svg>