<?xml version="1.0" encoding="utf-8"?>
<!-- Generator: Adobe Illustrator 16.0.0, SVG Export Plug-In . SVG Version: 6.00 Build 0)  -->
<!DOCTYPE svg PUBLIC "-//W3C//DTD SVG 1.1//EN" "http://www.w3.org/Graphics/SVG/1.1/DTD/svg11.dtd">
<svg version="1.1" xmlns="http://www.w3.org/2000/svg" xmlns:xlink="http://www.w3.org/1999/xlink" x="0px" y="0px" width="300px"
	 height="52px" viewBox="0 0 300 52" enable-background="new 0 0 300 52" xml:space="preserve">
<g id="Layer_2" display="none">
	<rect x="-27.5" y="-5.5" display="inline" fill="#B83525" width="342.334" height="79"/>
</g>
<g id="Layer_1">
	<title>Fill-1</title>
	<desc>Created with Sketch.</desc>
	<g id="Page-1">
		<path id="Fill-1" fill="#FFFFFF" d="M98.9,31.4c0,2.3-1.4,3.699-3.3,3.699c-2,0-3.2-1.3-3.2-3.6v-8.4H89v9.4
			c0,3.4,1.9,5.7,5.3,5.7c2.3,0,3.7-1.2,4.6-2.601V37.9h3.4V23.2h-3.4V31.4L98.9,31.4z M142.9,26l-2.9-2.9h-1.9v-4h-3.4v14.7
			c0,3.2,1.8,4.3,4.2,4.3c1.3,0,2.2-0.3,3-0.8v-2.8c-0.7,0.3-1.3,0.5-2.1,0.5c-1.1,0-1.8-0.5-1.8-1.8V26H142.9L142.9,26z M86,28
			c0-5.5-4.2-10.1-10.2-10.1S65.5,22.5,65.5,28s4.2,10.1,10.2,10.1c2.3,0,4.3-0.699,6-1.8l1.7,1.5h5.1L84,34
			C85.3,32.3,86,30.2,86,28L86,28L86,28z M81.4,31.7h-4.9l2.7,2.3c-0.9,0.6-2.1,0.9-3.4,0.9c-3.9,0-6.6-3.2-6.6-7
			c0-3.8,2.7-6.9,6.6-6.9c3.9,0,6.6,3.2,6.6,7C82.4,29.4,82.1,30.7,81.4,31.7L81.4,31.7L81.4,31.7z M127.7,29.1
			c-1.7-0.6-3.3-1-3.3-2.1l0,0c0-0.9,0.8-1.5,2.1-1.5c1,0,2.3,0.4,3.5,1l2-2c-1.6-1-3.6-1.7-5.4-1.7c-2.9,0-5.3,1.7-5.3,4.5V27.4
			c0,2.8,2.4,3.699,4.6,4.3c1.7,0.5,3.3,0.899,3.3,2.1V33.9c0,1-0.8,1.6-2.3,1.6c-1.4,0-2.9-0.5-4.4-1.5l-2,2l0,0
			c1.8,1.5,4.2,2.2,6.3,2.2c3.1,0,5.5-1.5,5.5-4.601v-0.1C132.3,30.7,129.9,29.8,127.7,29.1L127.7,29.1L127.7,29.1z M112,22.8
			c-4.2,0-7.2,3.5-7.2,7.7c0,4.6,3.3,7.7,7.6,7.7c2.6,0,4.5-1,5.9-2.601l-1.9-1.899l0,0c-1.2,1.1-2.3,1.8-4,1.8
			c-2.2,0-3.9-1.3-4.2-3.7H119c0-0.3,0.1-0.6,0.1-0.899C119,26.4,116.7,22.8,112,22.8L112,22.8L112,22.8z M108.1,29.2
			c0.4-2.2,1.8-3.7,3.8-3.7c2.2,0,3.4,1.6,3.7,3.7H108.1L108.1,29.2z M39.2,12.4c2.9,2.9,2.8,7,2.5,9.2c-0.5,3.4-2,7-4.4,10.1H26.4
			l5.5,5.399c-3.8,2.9-8.2,4.5-12.2,4.5c-2.1,0-5-0.5-7.2-2.6c-2.9-2.9-2.8-7-2.5-9.3c0.6-4.5,3.1-9.3,6.9-13.1
			c4.4-4.4,10.1-7,15.2-7C32.9,9.7,36.6,9.7,39.2,12.4L39.2,12.4L39.2,12.4z M42.9,37.2l3.8,3.8c3.2-4.3,5-9.6,5-15.3
			c0-4-0.9-7.7-2.5-11.1c0,0,0-0.1-0.1-0.1s-0.1,0-0.1,0.1l0,0C50.7,21.7,48.5,30.2,42.9,37.2L42.9,37.2L42.9,37.2z M2.4,36.4
			c0,0.1,0.1,0.1,0.1,0.1l0.1-0.1C0.8,28.5,3.9,18.8,11.4,11.3C17.5,5.2,25.1,2,32,2c1.6,0,3.1,0.2,4.5,0.5c0.1,0,0.1,0,0.1-0.1
			s0-0.1-0.1-0.1C33.2,0.8,29.6,0,25.8,0C11.5,0,0,11.5,0,25.8C0.1,29.6,0.9,33.2,2.4,36.4L2.4,36.4L2.4,36.4z M25.9,51.5
			c5.7,0,11-1.9,15.3-5l-3.8-3.8c-5.5,4.399-11.9,6.7-17.7,6.7c-1.7,0-3.3-0.2-4.8-0.601l0,0c-0.1,0-0.1,0-0.1,0.101
			c0,0,0,0.1,0.1,0.1C18.1,50.6,21.9,51.5,25.9,51.5L25.9,51.5L25.9,51.5z"/>
	</g>
	<g>
		<g>
			<g>
				<g>
					<path fill="#FFFFFF" d="M182.129,37.615v-2.731c-0.976,1.726-2.616,3.078-5.29,3.078c-3.708,0-5.865-2.531-5.865-6.04v-8.971
						h1.409v8.712c0,3.02,1.695,5.003,4.658,5.003c2.874,0,5.088-2.185,5.088-5.233v-8.481h1.409v14.664H182.129z"/>
					<path fill="#FFFFFF" d="M197.514,37.615v-2.443c-1.006,1.408-2.817,2.79-5.606,2.79c-2.733,0-5.664-1.554-5.664-4.602v-0.058
						c0-3.048,2.616-4.773,6.411-4.773c2.042,0,3.451,0.259,4.859,0.632v-0.632c0-2.961-1.813-4.485-4.829-4.485
						c-1.536,0-2.837,0.362-4.03,0.903l-1.09-0.961c1.609-0.748,3.192-1.266,5.206-1.266c3.765,0,6.122,1.955,6.122,5.75v9.145
						H197.514z M197.543,30.456c-1.236-0.317-2.876-0.66-4.976-0.66c-3.104,0-4.83,1.38-4.83,3.421v0.057
						c0,2.129,2.014,3.364,4.256,3.364c2.992,0,5.55-1.841,5.55-4.513V30.456z"/>
					<path fill="#FFFFFF" d="M213.674,37.615v-8.712c0-3.019-1.695-5.003-4.657-5.003c-2.876,0-5.088,2.186-5.088,5.233v8.481
						h-1.411V22.951h1.411v2.732c0.978-1.726,2.614-3.077,5.289-3.077c3.709,0,5.865,2.53,5.865,6.038v8.971H213.674z"/>
					<path fill="#FFFFFF" d="M229.577,37.615v-2.731c-0.979,1.726-2.617,3.078-5.291,3.078c-3.709,0-5.866-2.531-5.866-6.04v-8.971
						h1.408v8.712c0,3.02,1.698,5.003,4.66,5.003c2.875,0,5.089-2.185,5.089-5.233v-8.481h1.408v14.664H229.577z"/>
					<path fill="#FFFFFF" d="M255.657,37.615v-8.712c0-3.163-1.641-5.003-4.344-5.003c-2.471,0-4.627,1.897-4.627,5.175v8.54h-1.409
						v-8.798c0-3.049-1.668-4.917-4.285-4.917c-2.615,0-4.687,2.3-4.687,5.261v8.454h-1.409V22.951h1.409v2.617
						c0.949-1.524,2.272-2.962,4.889-2.962c2.559,0,4.141,1.466,4.945,3.162c0.948-1.639,2.531-3.162,5.291-3.162
						c3.479,0,5.635,2.444,5.635,6.124v8.885H255.657z"/>
				</g>
				<path fill="#FFFFFF" d="M159.534,31.379l7.306,6.254h1.793l-3.299-2.822l0.035-0.038c1.656-1.852,2.581-4.322,2.581-6.931
					c0.029-0.028,0.029-0.028,0-0.057c0-5.359-3.898-10.103-9.849-10.103c-5.949,0-9.906,4.799-9.906,10.159v0.056
					c0,5.359,3.9,10.103,9.851,10.103c1.196,0,2.301-0.204,3.319-0.553l-1.199-1.026c-0.653,0.166-1.341,0.261-2.064,0.261
					c-4.854,0-8.392-3.985-8.392-8.84v-0.057c0-4.854,3.481-8.783,8.336-8.783s8.391,3.984,8.391,8.84v0.056
					c0,2.274-0.786,4.378-2.134,5.949l-0.038,0.045l0.044,0.04l-2.982-2.553H159.534z"/>
			</g>
		</g>
	</g>
	<polygon fill="#FFFFFF" points="263.15,18.05 262.15,20.45 261.15,18.05 260.25,18.05 260.25,21.65 260.85,21.65 260.85,19.25 
		261.75,21.55 261.75,21.55 262.25,21.55 263.15,19.15 263.15,21.55 263.85,21.55 263.85,17.95 263.15,17.95 	"/>
	<polygon fill="#FFFFFF" points="257.15,18.55 258.15,18.55 258.15,21.55 258.85,21.55 258.85,18.55 259.85,18.55 259.85,17.95 
		257.05,17.95 257.05,18.55 	"/>
</g>
</svg>
