<?xml version="1.0" encoding="UTF-8" standalone="no"?>
<svg width="300px" height="52px" viewBox="0 0 300 52" version="1.1" xmlns="http://www.w3.org/2000/svg" xmlns:xlink="http://www.w3.org/1999/xlink">
    <!-- Generator: Sketch 3.6.1 (26313) - http://www.bohemiancoding.com/sketch -->
    <title>Fill-1</title>
    <desc>Created with Sketch.</desc>
    <defs></defs>
    <g id="Page-1" stroke="none" stroke-width="1" fill="none" fill-rule="evenodd">
        <path d="M98.9,31.4 C98.9,33.7 97.5,35.1 95.6,35.1 C93.6,35.1 92.4,33.8 92.4,31.5 L92.4,23.1 L89,23.1 L89,32.5 C89,35.9 90.9,38.2 94.3,38.2 C96.6,38.2 98,37 98.9,35.6 L98.9,37.9 L102.3,37.9 L102.3,23.2 L98.9,23.2 L98.9,31.4 L98.9,31.4 Z M142.9,26 L140,23.1 L138.1,23.1 L138.1,19.1 L134.7,19.1 L134.7,33.8 C134.7,37 136.5,38.1 138.9,38.1 C140.2,38.1 141.1,37.8 141.9,37.3 L141.9,34.5 C141.2,34.8 140.6,35 139.8,35 C138.7,35 138,34.5 138,33.2 L138,26 L142.9,26 L142.9,26 Z M86,28 C86,22.5 81.8,17.9 75.8,17.9 C69.8,17.9 65.5,22.5 65.5,28 C65.5,33.5 69.7,38.1 75.7,38.1 C78,38.1 80,37.4 81.7,36.3 L83.4,37.8 L88.5,37.8 L84,34 C85.3,32.3 86,30.2 86,28 L86,28 L86,28 Z M81.4,31.7 L76.5,31.7 L79.2,34 C78.3,34.6 77.1,34.9 75.8,34.9 C71.9,34.9 69.2,31.7 69.2,27.9 C69.2,24.1 71.9,21 75.8,21 C79.7,21 82.4,24.2 82.4,28 C82.4,29.4 82.1,30.7 81.4,31.7 L81.4,31.7 L81.4,31.7 Z M127.7,29.1 C126,28.5 124.4,28.1 124.4,27 L124.4,27 C124.4,26.1 125.2,25.5 126.5,25.5 C127.5,25.5 128.8,25.9 130,26.5 L132,24.5 C130.4,23.5 128.4,22.8 126.6,22.8 C123.7,22.8 121.3,24.5 121.3,27.3 L121.3,27.4 C121.3,30.2 123.7,31.1 125.9,31.7 C127.6,32.2 129.2,32.6 129.2,33.8 L129.2,33.9 C129.2,34.9 128.4,35.5 126.9,35.5 C125.5,35.5 124,35 122.5,34 L120.5,36 L120.5,36 C122.3,37.5 124.7,38.2 126.8,38.2 C129.9,38.2 132.3,36.7 132.3,33.6 L132.3,33.5 C132.3,30.7 129.9,29.8 127.7,29.1 L127.7,29.1 L127.7,29.1 Z M112,22.8 C107.8,22.8 104.8,26.3 104.8,30.5 C104.8,35.1 108.1,38.2 112.4,38.2 C115,38.2 116.9,37.2 118.3,35.6 L116.4,33.7 L116.4,33.7 C115.2,34.8 114.1,35.5 112.4,35.5 C110.2,35.5 108.5,34.2 108.2,31.8 L119,31.8 C119,31.5 119.1,31.2 119.1,30.9 C119,26.4 116.7,22.8 112,22.8 L112,22.8 L112,22.8 Z M108.1,29.2 C108.5,27 109.9,25.5 111.9,25.5 C114.1,25.5 115.3,27.1 115.6,29.2 L108.1,29.2 L108.1,29.2 Z M154.7,19 L148.5,19 L148.5,37.7 L154.7,37.7 C160.6,37.7 164.7,33.6 164.7,28.4 L164.7,28.3 C164.6,23.1 160.5,19 154.7,19 L154.7,19 L154.7,19 Z M163.2,28.4 C163.2,32.9 159.9,36.4 154.7,36.4 L149.9,36.4 L149.9,20.3 L154.7,20.3 C159.9,20.3 163.2,24 163.2,28.4 L163.2,28.4 L163.2,28.4 Z M180,23.9 C178.1,23.9 176.7,24.4 175.2,25.1 L175.7,26.2 C177,25.6 178.3,25.1 180,25.1 C182.8,25.1 184.5,26.5 184.5,29.3 L184.5,29.9 C183.2,29.6 181.9,29.3 180,29.3 C176.5,29.3 174,30.9 174,33.7 L174,33.8 C174,36.6 176.7,38.1 179.3,38.1 C181.9,38.1 183.6,36.8 184.5,35.5 L184.5,37.8 L185.8,37.8 L185.8,29.3 C185.7,25.7 183.5,23.9 180,23.9 L180,23.9 L180,23.9 Z M184.5,32.6 C184.5,35.1 182.1,36.8 179.3,36.8 C177.2,36.8 175.3,35.7 175.3,33.7 L175.3,33.6 C175.3,31.7 176.9,30.4 179.8,30.4 C181.8,30.4 183.3,30.7 184.4,31 L184.4,32.6 L184.5,32.6 Z M214.2,23.8 C211.7,23.8 210.2,25.1 209.3,26.7 L209.3,24.2 L208,24.2 L208,37.8 L209.3,37.8 L209.3,29.9 C209.3,27.1 211.4,25 214,25 C216.8,25 218.3,26.8 218.3,29.6 L218.3,37.7 L219.6,37.7 L219.6,29.4 C219.6,26.1 217.6,23.8 214.2,23.8 L214.2,23.8 L214.2,23.8 Z M229.7,23.8 C225.6,23.8 222.7,27.1 222.7,30.9 L222.7,31 C222.7,34.8 225.6,38.1 229.7,38.1 C233.8,38.1 236.7,34.8 236.7,31 L236.7,30.9 C236.7,27 233.8,23.8 229.7,23.8 L229.7,23.8 L229.7,23.8 Z M235.3,31 C235.3,34.2 233,36.8 229.7,36.8 C226.5,36.8 224.1,34.2 224.1,30.9 L224.1,30.8 C224.1,27.6 226.4,24.9 229.7,24.9 C232.8,25 235.3,27.6 235.3,31 L235.3,31 L235.3,31 Z M258.7,25.3 L257.5,24.1 L253.9,24.1 L253.9,19.7 L252.6,19.7 L252.6,34.2 C252.6,36.8 254.3,37.9 256.4,37.9 C257.3,37.9 257.9,37.7 258.6,37.4 L258.6,36.2 C257.8,36.6 257.3,36.7 256.6,36.7 C255,36.7 253.9,36 253.9,34.1 L253.9,25.3 L258.7,25.3 L258.7,25.3 Z M201.9,26.8 C200.8,25.2 198.9,23.8 196.2,23.8 C192.9,23.8 189.6,26.3 189.6,30.3 L189.6,30.4 C189.6,34.3 192.9,36.8 196.2,36.8 C198.9,36.8 200.7,35.3 201.9,33.6 L201.9,35.6 C201.9,39.1 199.7,40.9 196.5,40.9 C194.6,40.9 192.8,40.3 191.2,39.1 L190.3,40 C192.2,41.4 194.3,42.1 196.6,42.1 C200.5,42.1 203.3,39.8 203.3,35.7 L203.3,24.2 L202,24.2 L202,26.8 L201.9,26.8 Z M202,30.3 C202,33.4 199.2,35.5 196.4,35.5 C193.6,35.5 191.1,33.4 191.1,30.3 L191.1,30.2 C191.1,27 193.5,25 196.4,25 C199.1,25 202,27.1 202,30.3 L202,30.3 L202,30.3 Z M288.4,30.1 C286.4,29.5 284.6,29 284.6,27.5 L284.6,27.4 C284.6,26 285.8,25 287.7,25 C289.1,25 290.4,25.5 291.6,26.2 L292.5,25.3 C291.1,24.4 289.3,23.8 287.7,23.8 C285.1,23.8 283.2,25.4 283.2,27.6 L283.2,27.7 C283.2,30.1 285.7,30.8 287.9,31.4 C289.8,31.9 291.5,32.5 291.5,34.1 L291.5,34.2 C291.5,35.8 290.1,36.8 288.2,36.8 C286.5,36.8 284.9,36.2 283.5,35.1 L282.6,36 C284,37.2 286.2,38 288.2,38 C290.8,38 292.9,36.5 292.9,34 L292.9,34 C292.9,31.6 290.6,30.8 288.4,30.1 L288.4,30.1 L288.4,30.1 Z M244.6,30.1 C242.6,29.5 240.8,29 240.8,27.5 L240.8,27.4 C240.8,26 242,25 243.9,25 C245.3,25 246.6,25.5 247.8,26.2 L248.7,25.3 C247.3,24.4 245.5,23.8 243.9,23.8 C241.2,23.8 239.4,25.4 239.4,27.6 L239.4,27.7 C239.4,30.1 241.9,30.8 244.1,31.4 C246,31.9 247.7,32.5 247.7,34.1 L247.7,34.2 C247.7,35.8 246.3,36.8 244.4,36.8 C242.7,36.8 241.1,36.2 239.7,35.1 L238.8,36 C240.2,37.2 242.4,38 244.4,38 C247,38 249.1,36.5 249.1,34 L249.1,34 C249.1,31.6 246.8,30.8 244.6,30.1 L244.6,30.1 L244.6,30.1 Z M274.7,36.8 C271.6,36.8 269.1,34.2 269.1,30.9 L269.1,30.8 C269.1,27.5 271.5,24.9 274.6,24.9 C276.6,24.9 278,25.9 279.1,27.1 L280,26.2 C278.7,24.9 277.1,23.7 274.5,23.7 C270.6,23.7 267.5,27 267.5,30.8 L267.5,30.9 C267.5,34.7 270.5,38 274.5,38 C277,38 278.6,36.9 280,35.4 L279.1,34.5 C278.2,35.8 276.7,36.8 274.7,36.8 L274.7,36.8 L274.7,36.8 Z M168.8,37.7 L170.1,37.7 L170.1,24.1 L168.8,24.1 L168.8,37.7 L168.8,37.7 Z M168.7,20.7 L170.3,20.7 L170.3,19 L168.7,19 L168.7,20.7 L168.7,20.7 Z M262.5,20.7 L264.1,20.7 L264.1,19 L262.5,19 L262.5,20.7 L262.5,20.7 Z M262.7,37.7 L264,37.7 L264,24.1 L262.7,24.1 L262.7,37.7 L262.7,37.7 Z M298.9,19.8 L297.9,22.2 L296.9,19.8 L296,19.8 L296,23.4 L296.6,23.4 L296.6,21 L297.5,23.3 L297.5,23.3 L298,23.3 L298.9,20.9 L298.9,23.3 L299.6,23.3 L299.6,19.7 L298.9,19.7 L298.9,19.8 Z M292.9,20.3 L293.9,20.3 L293.9,23.3 L294.6,23.3 L294.6,20.3 L295.6,20.3 L295.6,19.7 L292.8,19.7 L292.8,20.3 L292.9,20.3 Z M39.2,12.4 C42.1,15.3 42,19.4 41.7,21.6 C41.2,25 39.7,28.6 37.3,31.7 L26.4,31.7 L31.9,37.1 C28.1,40 23.7,41.6 19.7,41.6 C17.6,41.6 14.7,41.1 12.5,39 C9.6,36.1 9.7,32 10,29.7 C10.6,25.2 13.1,20.4 16.9,16.6 C21.3,12.2 27,9.6 32.1,9.6 C32.9,9.7 36.6,9.7 39.2,12.4 L39.2,12.4 L39.2,12.4 Z M42.9,37.2 L46.7,41 C49.9,36.7 51.7,31.4 51.7,25.7 C51.7,21.7 50.8,18 49.2,14.6 C49.2,14.6 49.2,14.5 49.1,14.5 C49,14.5 49,14.5 49,14.6 L49,14.6 C50.7,21.7 48.5,30.2 42.9,37.2 L42.9,37.2 L42.9,37.2 Z M2.4,36.4 C2.4,36.5 2.5,36.5 2.5,36.5 L2.6,36.4 C0.8,28.5 3.9,18.8 11.4,11.3 C17.5,5.2 25.1,2 32,2 C33.6,2 35.1,2.2 36.5,2.5 C36.6,2.5 36.6,2.5 36.6,2.4 C36.6,2.3 36.6,2.3 36.5,2.3 C33.2,0.8 29.6,0 25.8,0 C11.5,0 0,11.5 0,25.8 C0.1,29.6 0.9,33.2 2.4,36.4 L2.4,36.4 L2.4,36.4 Z M25.9,51.5 C31.6,51.5 36.9,49.6 41.2,46.5 L37.4,42.7 C31.9,47.1 25.5,49.4 19.7,49.4 C18,49.4 16.4,49.2 14.9,48.8 L14.9,48.8 C14.8,48.8 14.8,48.8 14.8,48.9 C14.8,48.9 14.8,49 14.9,49 C18.1,50.6 21.9,51.5 25.9,51.5 L25.9,51.5 L25.9,51.5 Z" id="Fill-1" fill="#FFFFFF"></path>
    </g>
</svg>