<svg width="48" height="48" viewBox="0 0 48 48" fill="none" xmlns="http://www.w3.org/2000/svg">
<path d="M6.75 2.25C5.5095 2.25 4.5 3.2595 4.5 4.5V15.1377C3.62787 15.4475 3 16.2715 3 17.25C3 21.9206 5.38606 26.043 9.00146 28.4678C9.00141 28.4787 9 28.4891 9 28.5C9 31.7329 11.0488 34.4803 13.916 35.5342C15.4243 41.8991 21.2048 46.5 27.75 46.5C35.6077 46.5 42 40.1077 42 32.25V13.8091C44.1961 12.9169 45.75 10.7625 45.75 8.25C45.75 4.94175 43.0583 2.25 39.75 2.25C36.4417 2.25 33.75 4.94175 33.75 8.25C33.75 10.7625 35.3039 12.9169 37.5 13.8091V32.25C37.5 37.626 33.126 42 27.75 42C23.682 42 20.0491 39.4435 18.6328 35.688C21.7355 34.7689 24 31.9009 24 28.5C24 28.4891 23.9986 28.4787 23.9985 28.4678C27.6139 26.043 30 21.9206 30 17.25C30 16.2715 29.3721 15.4475 28.5 15.1377V4.5C28.5 3.2595 27.4905 2.25 26.25 2.25H24C22.7595 2.25 21.75 3.2595 21.75 4.5C21.75 5.7405 22.7595 6.75 24 6.75H26.25C26.5143 6.75 26.7642 6.69642 27 6.6123V15.1377C26.1279 15.4475 25.5 16.2715 25.5 17.25C25.5 22.2127 21.4627 26.25 16.5 26.25C11.5372 26.25 7.5 22.2127 7.5 17.25C7.5 16.2715 6.87213 15.4475 6 15.1377V6.6123C6.23579 6.69642 6.48571 6.75 6.75 6.75H9C10.2405 6.75 11.25 5.7405 11.25 4.5C11.25 3.2595 10.2405 2.25 9 2.25H6.75ZM6.75 3.75H9C9.414 3.75 9.75 4.08675 9.75 4.5C9.75 4.91325 9.414 5.25 9 5.25H6.75C6.336 5.25 6 4.91325 6 4.5C6 4.08675 6.336 3.75 6.75 3.75ZM24 3.75H26.25C26.664 3.75 27 4.08675 27 4.5C27 4.91325 26.664 5.25 26.25 5.25H24C23.586 5.25 23.25 4.91325 23.25 4.5C23.25 4.08675 23.586 3.75 24 3.75ZM39.75 3.75C42.2318 3.75 44.25 5.76825 44.25 8.25C44.25 10.7318 42.2318 12.75 39.75 12.75C37.2682 12.75 35.25 10.7318 35.25 8.25C35.25 5.76825 37.2682 3.75 39.75 3.75ZM39.75 5.25C38.0955 5.25 36.75 6.5955 36.75 8.25C36.75 9.9045 38.0955 11.25 39.75 11.25C41.4045 11.25 42.75 9.9045 42.75 8.25C42.75 6.5955 41.4045 5.25 39.75 5.25ZM39.75 6.75C40.5773 6.75 41.25 7.42275 41.25 8.25C41.25 9.07725 40.5773 9.75 39.75 9.75C38.9227 9.75 38.25 9.07725 38.25 8.25C38.25 7.42275 38.9227 6.75 39.75 6.75ZM39 14.25H40.5V32.25C40.5 39.2805 34.7805 45 27.75 45C22.173 45 17.2104 41.2667 15.5859 35.9912C15.7929 35.9964 15.9905 35.99 16.188 35.9839C16.2922 35.9882 16.3948 36 16.5 36C16.7154 36 16.9279 35.9856 17.1387 35.9678C18.7035 40.438 22.9665 43.5 27.75 43.5C33.9533 43.5 39 38.4533 39 32.25V14.25ZM5.25 16.5C5.66325 16.5 6 16.8368 6 17.25C6 23.04 10.71 27.75 16.5 27.75C22.29 27.75 27 23.04 27 17.25C27 16.8368 27.3368 16.5 27.75 16.5C28.1632 16.5 28.5 16.8368 28.5 17.25C28.5 21.1907 26.5821 24.6835 23.6396 26.8726C23.4386 27.022 23.2362 27.1691 23.0259 27.3062C22.9786 27.3369 22.9286 27.3639 22.8809 27.394C22.4489 27.6671 21.9982 27.912 21.5317 28.1294C21.4539 28.1656 21.379 28.2062 21.3003 28.2407C21.1201 28.3201 20.9342 28.3884 20.7495 28.459C20.591 28.5193 20.4321 28.5796 20.2705 28.6333C20.1076 28.6877 19.9414 28.7367 19.7754 28.7842C19.5765 28.8408 19.3763 28.893 19.1733 28.9395C19.0252 28.9735 18.8768 29.0062 18.7266 29.0347C18.492 29.0789 18.2538 29.1142 18.0146 29.1445C17.8863 29.1609 17.759 29.1806 17.6294 29.1929C17.257 29.2278 16.8814 29.25 16.5 29.25C16.1186 29.25 15.743 29.2278 15.3706 29.1929C15.241 29.1806 15.1137 29.1609 14.9854 29.1445C14.7462 29.1142 14.508 29.0789 14.2734 29.0347C14.1232 29.0062 13.9748 28.9735 13.8267 28.9395C13.6237 28.893 13.4235 28.8408 13.2246 28.7842C13.0586 28.7367 12.8924 28.6877 12.7295 28.6333C12.5679 28.5796 12.409 28.5193 12.2505 28.459C12.0658 28.3884 11.8799 28.3201 11.6997 28.2407C11.621 28.2062 11.5461 28.1656 11.4683 28.1294C11.0018 27.912 10.5511 27.6671 10.1191 27.394C10.0714 27.3639 10.0214 27.3369 9.97412 27.3062C9.76383 27.1691 9.56139 27.022 9.36035 26.8726C6.41789 24.6835 4.5 21.1907 4.5 17.25C4.5 16.8368 4.83675 16.5 5.25 16.5ZM10.563 29.3687C10.743 29.4577 10.9261 29.54 11.1094 29.6206C11.1902 29.656 11.2709 29.6908 11.3525 29.7246C11.685 29.8631 12.0227 29.9859 12.3647 30.0967C12.4308 30.118 12.496 30.1408 12.5625 30.1611C12.9349 30.2753 13.3129 30.3715 13.6948 30.4526C13.7557 30.4656 13.8167 30.4772 13.8779 30.4893C14.2743 30.5676 14.6744 30.63 15.0791 30.6724C15.1214 30.6768 15.1641 30.68 15.2065 30.6841C15.6341 30.7248 16.0651 30.75 16.5 30.75C16.9349 30.75 17.3659 30.7248 17.7935 30.6841C17.8359 30.68 17.8786 30.6768 17.9209 30.6724C18.3256 30.63 18.7257 30.5676 19.1221 30.4893C19.1833 30.4772 19.2443 30.4656 19.3052 30.4526C19.6871 30.3715 20.0651 30.2753 20.4375 30.1611C20.504 30.1408 20.5692 30.118 20.6353 30.0967C20.9773 29.9859 21.315 29.8631 21.6475 29.7246C21.7291 29.6908 21.8098 29.656 21.8906 29.6206C22.0739 29.54 22.257 29.4577 22.437 29.3687C22.0148 32.2667 19.5135 34.5 16.5 34.5C13.4865 34.5 10.9852 32.2667 10.563 29.3687ZM33.2593 33.8877C32.9666 33.8848 32.6878 34.0533 32.5635 34.3374C32.3985 34.7169 32.5722 35.1582 32.9517 35.3247L34.3257 35.9253C34.4232 35.968 34.5262 35.9868 34.626 35.9868C34.9155 35.9868 35.1915 35.8199 35.3145 35.5371C35.4795 35.1576 35.3058 34.7163 34.9263 34.5498L33.5508 33.9492C33.4553 33.908 33.3568 33.8887 33.2593 33.8877ZM23.1768 35.2837C22.9859 35.2638 22.7872 35.3165 22.626 35.4478L21.4629 36.3955C21.1419 36.6565 21.0927 37.1299 21.3545 37.4517C21.503 37.6332 21.7178 37.7271 21.936 37.7271C22.1025 37.7271 22.2711 37.6711 22.4106 37.5586L23.5737 36.6108C23.8947 36.3498 23.9424 35.8779 23.6807 35.5562C23.5502 35.3964 23.3676 35.3036 23.1768 35.2837ZM31.4692 36.2798C31.2791 36.2541 31.0794 36.301 30.9141 36.4263C30.5848 36.6768 30.52 37.148 30.7705 37.478L31.6787 38.6719C31.8257 38.8661 32.0499 38.9678 32.2764 38.9678C32.4346 38.9678 32.5933 38.9182 32.729 38.814C33.0583 38.5635 33.1216 38.0937 32.8711 37.7637L31.9644 36.5698C31.8395 36.4048 31.6594 36.3055 31.4692 36.2798ZM25.5366 37.0737C25.2445 37.0801 24.9708 37.2572 24.8555 37.5469L24.3018 38.9414C24.1495 39.3269 24.3381 39.7625 24.7236 39.9155C24.8144 39.9515 24.9068 39.9668 24.999 39.9668C25.2968 39.9668 25.58 39.7884 25.6978 39.4937L26.2515 38.1006C26.4037 37.7151 26.2151 37.2795 25.8296 37.1265C25.7334 37.0884 25.634 37.0716 25.5366 37.0737ZM28.4634 37.4443C28.0539 37.5006 27.7677 37.8793 27.8232 38.2896L28.0254 39.7749C28.0771 40.1507 28.3991 40.4224 28.7681 40.4224C28.8018 40.4224 28.8361 40.4218 28.8706 40.4165C29.2801 40.3603 29.5677 39.9815 29.5122 39.5713L29.3086 38.0845C29.2516 37.675 28.8721 37.3903 28.4634 37.4443Z" fill="white"/>
</svg>
