<?xml version="1.0" encoding="UTF-8"?>
<svg width="23px" height="25px" viewBox="0 0 23 25" version="1.1" xmlns="http://www.w3.org/2000/svg" xmlns:xlink="http://www.w3.org/1999/xlink">
    <!-- Generator: Sketch 51.3 (57544) - http://www.bohemiancoding.com/sketch -->
    <title>labcoat-favicon-32x32</title>
    <desc>Created with Sketch.</desc>
    <defs>
        <rect id="path-1" x="0" y="0" width="26" height="26"></rect>
        <polygon id="path-3" points="22.9793849 0.00871911421 2.45826906e-05 0.00871911421 2.45826906e-05 33.331828 22.9793849 33.331828"></polygon>
        <polygon id="path-5" points="11.9948945 17.1861985 11.9948945 0.0220330522 0.00873912594 0.0220330522 0.00873912594 17.1861985"></polygon>
    </defs>
    <g id="Page-1" stroke="none" stroke-width="1" fill="none" fill-rule="evenodd">
        <g id="labcoat-favicon-32x32" transform="translate(-1.000000, -1.000000)">
            <g id="quartz-favicon-32x32">
                <mask id="mask-2" fill="white">
                    <use xlink:href="#path-1"></use>
                </mask>
                <g id="Mask"></g>
                <g id="Q-Dog" mask="url(#mask-2)">
                    <g transform="translate(1.000000, 1.000000)" id="Group-9">
                        <g>
                            <g id="Page-1" transform="translate(0.000000, 0.002303)">
                                <g id="Group-3" transform="translate(0.000000, 0.000421)">
                                    <mask id="mask-4" fill="white">
                                        <use xlink:href="#path-3"></use>
                                    </mask>
                                    <g id="Clip-2"></g>
                                    <path d="M22.0942937,19.1126079 L22.0942937,19.1126079 C20.5131395,15.5817468 21.2447246,14.5006389 21.5064883,11.4774944 L21.48619,11.4678115 C21.827244,9.20539977 21.3944247,6.81584837 20.0853948,4.72057048 C17.1599,0.038506361 10.9754684,-1.39602437 6.27239098,1.51639928 C2.76839424,3.68619278 1.07665649,7.65678018 1.65071823,11.4768629 L1.64944959,11.4774944 C1.91121328,14.5006389 2.53115767,15.4314526 0.950003461,18.9623137 L0.951060665,18.9637871 C-0.495617207,22.2906776 -0.335767972,26.2446358 1.73339158,29.55616 C2.73498659,31.159298 4.07171526,32.4271159 5.59514614,33.331828 C5.53150246,32.5626753 5.49661473,31.7716311 5.49661473,30.9620632 C5.49661473,23.6858455 8.17979833,17.7873246 11.4896924,17.7873246 C14.7995865,17.7873246 17.4827701,23.6858455 17.4827701,30.9620632 C17.4827701,31.7705786 17.4478824,32.5607809 17.3844502,33.3290915 C17.4423849,33.2945702 17.5011655,33.2627853 17.5584659,33.2272114 C22.4127235,30.221117 24.2317486,24.1990349 22.0942937,19.1126079" id="Fill-1" fill="#22672A" mask="url(#mask-4)"></path>
                                </g>
                                <g id="Group-6" transform="translate(5.487918, 17.765649)">
                                    <mask id="mask-6" fill="white">
                                        <use xlink:href="#path-5"></use>
                                    </mask>
                                    <g id="Clip-5"></g>
                                    <path d="M6.00181682,0.0220330522 C2.69192273,0.0220330522 0.00873912594,5.92055396 0.00873912594,13.1969822 C0.00873912594,14.0063396 0.043626856,14.7975943 0.107270533,15.5667469 C3.62754821,17.6573939 8.15153532,17.7946373 11.8965746,15.5638 C11.9600068,14.7954893 11.9948945,14.0052871 11.9948945,13.1969822 C11.9948945,5.92055396 9.31171092,0.0220330522 6.00181682,0.0220330522" id="Fill-4" fill="#D8D8D8" mask="url(#mask-6)"></path>
                                </g>
                                <polygon id="Fill-7" fill="#333333" points="9.61886433 11.2280776 9.49284562 11.4255229 9.61886433 11.6257047 12.8202893 11.0102141 13.3839904 9.80070371 14.1119811 8.71643845 14.0557378 8.57603757 11.8024134 9.07596574"></polygon>
                                <polygon id="Fill-9" fill="#E65100" points="9.36798984 11.4790731 12.0093082 10.3453412 14.0558436 8.57612177 14.9834343 9.04700148 14.2163271 11.3550909 11.5513274 13.6471826 9.82893076 12.9535981 9.37644747 12.2294916"></polygon>
                                <path d="M13.0694934,6.18033968 C15.540179,10.1342979 12.8140729,11.5875628 12.8140729,11.5875628 C12.8140729,11.5875628 10.2996191,13.3795158 7.82914493,9.42555761 C7.28553066,8.55557735 6.13634998,8.28887883 5.2624652,8.83006423 C4.38858042,9.37124963 4.12068494,10.5152958 4.66429921,11.385276 C7.45003159,15.8437933 11.3967853,16.5986322 14.676232,14.5677661 C17.9556786,12.5369 19.0200715,8.67892805 16.2343391,4.22062126 C15.6907249,3.3504305 14.5415442,3.08394247 13.6676594,3.62512787 C12.7937746,4.16631327 12.5260906,5.31035942 13.0694934,6.18033968 Z" id="Fill-11" fill="#D8D8D8"></path>
                                <path d="M7.58556514,10.5781078 C7.86022672,11.0178341 7.72490462,11.5960668 7.28320481,11.8697117 C6.84150501,12.1431461 6.26067716,12.0084286 5.98601558,11.5687023 C5.71114255,11.128976 5.84646466,10.5507433 6.28816446,10.2770984 C6.73007571,10.003664 7.31090356,10.1383815 7.58556514,10.5781078" id="Fill-13" fill="#333333"></path>
                                <path d="M6.85216162,10.769133 C6.9811405,10.9754191 6.91749682,11.2465381 6.71028485,11.3749407 C6.50328432,11.5031328 6.23073714,11.439984 6.1019697,11.2336978 C5.97299082,11.0274117 6.03642306,10.7562927 6.24363503,10.6278901 C6.45084701,10.499698 6.72318274,10.5628468 6.85216162,10.769133" id="Fill-15" fill="#FFFFFF"></path>
                                <path d="M15.6709763,5.57112195 C15.9456379,6.01084824 15.8103158,6.58908095 15.368616,6.86272585 C14.9269162,7.13616024 14.3460883,7.00144276 14.0714267,6.56171646 C13.7965537,6.12199017 13.9318758,5.54375746 14.3735756,5.27011257 C14.8154869,4.99667817 15.3963147,5.13139566 15.6709763,5.57112195" id="Fill-17" fill="#333333"></path>
                                <path d="M14.9375728,5.76214714 C15.0665517,5.96843329 15.002908,6.23955223 14.795696,6.36795483 C14.5886955,6.49614694 14.3161483,6.43299812 14.1873809,6.22671197 C14.058402,6.02042582 14.1218342,5.74930688 14.3290462,5.62090427 C14.5362582,5.49271217 14.8085939,5.55586099 14.9375728,5.76214714" id="Fill-19" fill="#FFFFFF"></path>
                                <path d="M9.1233317,32.7129695 C9.51238275,32.849792 9.7557511,33.2091088 9.7661117,33.5964215 C10.018572,33.3015165 10.4346875,33.1741664 10.8237385,33.3109889 C11.1096065,33.411606 11.3140697,33.6336793 11.4087952,33.8972204 C11.7602098,32.3862796 11.1463972,30.9504859 10.4372248,30.7785106 C9.84878505,30.6357943 8.65647044,31.4998807 8.20229563,32.8672632 C8.45433305,32.6693968 8.79834721,32.5986702 9.1233317,32.7129695" id="Fill-21" fill="#333333"></path>
                                <path d="M14.3938528,32.7129695 C14.0048017,32.849792 13.7614334,33.2091088 13.7510728,33.5964215 C13.4986125,33.3015165 13.082497,33.1741664 12.693446,33.3109889 C12.407578,33.411606 12.2031148,33.6336793 12.1083893,33.8972204 C11.7569747,32.3862796 12.3707873,30.9504859 13.0799597,30.7785106 C13.6683995,30.6357943 14.8607141,31.4998807 15.3148889,32.8672632 C15.0628515,32.6693968 14.7188373,32.5986702 14.3938528,32.7129695" id="Fill-23" fill="#333333"></path>
                                <path d="M20.1663132,25.0309575 C19.7884685,25.0309575 19.4237331,25.2361912 19.2387224,25.5936135 L17.9886845,28.0090559 C17.7250178,28.5186669 17.9263095,29.1444717 18.4379962,29.4069603 L18.4388419,29.4073813 C18.5917136,29.4856859 18.7547345,29.5227332 18.9154295,29.5227332 C19.2932742,29.5227332 19.6580095,29.3174995 19.8430202,28.9600772 L21.0930582,26.5446348 C21.3567248,26.0352343 21.1554332,25.4094294 20.6437465,25.1469408 L20.6429007,25.1463094 C20.490029,25.0680048 20.3270082,25.0309575 20.1663132,25.0309575 M20.1663132,25.2414536 L20.1663132,25.2414536 C20.299098,25.2414536 20.4268082,25.2723965 20.5469066,25.3340719 C20.7441809,25.43511 20.890075,25.6068748 20.957736,25.8173708 C21.0253971,26.0276564 21.0067903,26.2518347 20.9050873,26.4482276 L19.6550494,28.86367 C19.5119039,29.1404723 19.2283618,29.3122371 18.9154295,29.3122371 C18.7826447,29.3122371 18.6549344,29.2812942 18.5348361,29.2198293 C18.1276011,29.0108067 17.9669061,28.5110891 18.1766554,28.1054631 L19.4266933,25.6900207 C19.5700502,25.4134289 19.8533808,25.2414536 20.1663132,25.2414536" id="Fill-25" fill="#FFFFFF"></path>
                                <polygon id="Fill-27" fill="#FFFFFF" points="19.5733486 28.019686 18.316756 27.375147 18.9641877 26.1243794 20.2207803 26.7687078"></polygon>
                                <polygon id="Fill-29" fill="#E68200" points="11.7585817 9.94413573 9.51054322 11.3908752 10.416567 7.79644432"></polygon>
                                <polygon id="Fill-31" fill="#E65100" points="11.7585817 9.94413573 14.0558858 8.57612177 10.416567 7.79644432"></polygon>
                            </g>
                        </g>
                    </g>
                </g>
            </g>
        </g>
    </g>
</svg>