<?xml version="1.0" encoding="UTF-8"?>
<svg width="15px" height="16px" viewBox="0 0 15 16" version="1.1" xmlns="http://www.w3.org/2000/svg" xmlns:xlink="http://www.w3.org/1999/xlink">
    <!-- Generator: Sketch 51.3 (57544) - http://www.bohemiancoding.com/sketch -->
    <title>labcoat-favicon-32x32</title>
    <desc>Created with Sketch.</desc>
    <defs>
        <rect id="path-1" x="0" y="0" width="16" height="16"></rect>
        <polygon id="path-3" points="14.1411599 0.00536560874 1.51278096e-05 0.00536560874 1.51278096e-05 20.5118941 14.1411599 20.5118941"></polygon>
        <polygon id="path-5" points="7.38147355 10.5761221 7.38147355 0.0135588014 0.00537792366 0.0135588014 0.00537792366 10.5761221"></polygon>
    </defs>
    <g id="Page-1" stroke="none" stroke-width="1" fill="none" fill-rule="evenodd">
        <g id="labcoat-favicon-32x32">
            <g id="quartz-favicon-32x32">
                <mask id="mask-2" fill="white">
                    <use xlink:href="#path-1"></use>
                </mask>
                <g id="Mask"></g>
                <g id="Q-Dog" mask="url(#mask-2)">
                    <g transform="translate(0.615385, 0.615385)" id="Group-9">
                        <g>
                            <g id="Page-1" transform="translate(0.000000, 0.001417)">
                                <g id="Group-3" transform="translate(0.000000, 0.000259)">
                                    <mask id="mask-4" fill="white">
                                        <use xlink:href="#path-3"></use>
                                    </mask>
                                    <g id="Clip-2"></g>
                                    <path d="M13.5964884,11.7616048 L13.5964884,11.7616048 C12.6234705,9.58876724 13.0736767,8.92347012 13.234762,7.06307346 L13.2222708,7.0571148 C13.4321502,5.6648614 13.1657998,4.19436823 12.3602429,2.90496645 C10.5599385,0.0236962221 6.75413442,-0.859091917 3.85993291,0.933168786 C1.70362722,2.26842633 0.662557842,4.71186472 1.0158266,7.06268485 L1.0150459,7.06307346 C1.17613125,8.92347012 1.55763549,9.49627851 0.584617515,11.6691161 L0.585268102,11.6700229 C-0.304995205,13.71734 -0.206626444,16.1505451 1.06670251,18.1884061 C1.68306867,19.1749526 2.50567093,19.9551482 3.44316685,20.5118941 C3.40400151,20.0385694 3.38253214,19.551773 3.38253214,19.0535774 C3.38253214,14.5759049 5.03372205,10.9460459 7.07057996,10.9460459 C9.10743786,10.9460459 10.7586278,14.5759049 10.7586278,19.0535774 C10.7586278,19.5511253 10.7371584,20.0374036 10.6981232,20.5102102 C10.7337753,20.4889663 10.769948,20.4694063 10.8052098,20.4475147 C13.7924453,18.5976105 14.9118453,14.8917138 13.5964884,11.7616048" id="Fill-1" fill="#22672A" mask="url(#mask-4)"></path>
                                </g>
                                <g id="Group-6" transform="translate(3.377180, 10.932707)">
                                    <mask id="mask-6" fill="white">
                                        <use xlink:href="#path-5"></use>
                                    </mask>
                                    <g id="Clip-5"></g>
                                    <path d="M3.69342574,0.0135588014 C1.65656783,0.0135588014 0.00537792366,3.64341782 0.00537792366,8.12121979 C0.00537792366,8.61928588 0.026847296,9.10621187 0.0660126358,9.57953657 C2.23233736,10.8660886 5.01632943,10.9505461 7.32096896,9.57772307 C7.36000418,9.10491651 7.38147355,8.6186382 7.38147355,8.12121979 C7.38147355,3.64341782 5.73028364,0.0135588014 3.69342574,0.0135588014" id="Fill-4" fill="#D8D8D8" mask="url(#mask-6)"></path>
                                </g>
                                <polygon id="Fill-7" fill="#333333" points="5.91930113 6.9095862 5.84175115 7.03109101 5.91930113 7.15427978 7.8894088 6.77551639 8.23630181 6.03120228 8.68429605 5.36396212 8.64968482 5.27756158 7.2630236 5.58520969"></polygon>
                                <polygon id="Fill-9" fill="#E65100" points="5.76491682 7.06404498 7.39034349 6.36636384 8.64974988 5.2776134 9.22057495 5.56738553 8.74850899 6.98774825 7.10850918 8.39826623 6.04857277 7.97144496 5.77012152 7.52584097"></polygon>
                                <path d="M8.04276518,3.80328596 C9.56318709,6.23649101 7.88558335,7.13080785 7.88558335,7.13080785 C7.88558335,7.13080785 6.33822714,8.2335482 4.81793534,5.80034315 C4.48340348,5.26497068 3.77621537,5.10084851 3.23844012,5.43388568 C2.70066488,5.76692285 2.53580612,6.47095125 2.87033798,7.00632372 C4.58463483,9.75002666 7.01340637,10.2145429 9.03152737,8.96477916 C11.0496484,7.71501541 11.7046594,5.3408788 9.99036255,2.59730539 C9.65583069,2.06180338 8.94864258,1.89781075 8.41086733,2.23084792 C7.87309208,2.56388509 7.70836344,3.26791349 8.04276518,3.80328596 Z" id="Fill-11" fill="#D8D8D8"></path>
                                <path d="M4.66804009,6.5096048 C4.8370626,6.7802056 4.75378746,7.13604111 4.48197219,7.30443797 C4.21015693,7.47270529 3.85272441,7.38980222 3.68370189,7.11920142 C3.51454926,6.84860063 3.5978244,6.49276512 3.86963967,6.32436826 C4.14158505,6.15610094 4.49901757,6.23900401 4.66804009,6.5096048" id="Fill-13" fill="#333333"></path>
                                <path d="M4.21671484,6.62715876 C4.29608646,6.75410408 4.25692112,6.92094651 4.12940606,6.9999635 C4.00202112,7.07885095 3.83429978,7.03999013 3.75505828,6.91304481 C3.67568666,6.78609949 3.71472188,6.61925706 3.84223694,6.54024008 C3.969752,6.46135263 4.13734322,6.50021344 4.21671484,6.62715876" id="Fill-15" fill="#FFFFFF"></path>
                                <path d="M9.64367772,3.42838274 C9.81270024,3.69898354 9.7294251,4.05481905 9.45760983,4.2232159 C9.18579456,4.39148323 8.82836204,4.30858016 8.65933953,4.03797936 C8.4901869,3.76737857 8.57346204,3.41154305 8.84527731,3.2431462 C9.11722269,3.07487888 9.47465521,3.15778194 9.64367772,3.42838274" id="Fill-17" fill="#333333"></path>
                                <path d="M9.19235248,3.5459367 C9.2717241,3.67288202 9.23255876,3.83972445 9.1050437,3.91874143 C8.97765876,3.99762888 8.80993742,3.95876807 8.73069592,3.83182275 C8.6513243,3.70487743 8.69035952,3.538035 8.81787458,3.45901801 C8.94538964,3.38013056 9.11298086,3.41899138 9.19235248,3.5459367" id="Fill-19" fill="#FFFFFF"></path>
                                <path d="M5.61435797,20.1310582 C5.853774,20.2152566 6.00353914,20.4363746 6.00991489,20.674721 C6.16527508,20.493241 6.42134614,20.4148716 6.66076217,20.4990701 C6.8366809,20.5609883 6.96250444,20.6976488 7.02079703,20.859828 C7.23705217,19.9300182 6.85932133,19.0464529 6.42290754,18.9406219 C6.0607908,18.8527965 5.32705873,19.384542 5.04756654,20.2260081 C5.20266649,20.1042442 5.41436751,20.0607201 5.61435797,20.1310582" id="Fill-21" fill="#333333"></path>
                                <path d="M8.85775557,20.1310582 C8.61833954,20.2152566 8.4685744,20.4363746 8.46219865,20.674721 C8.30683846,20.493241 8.0507674,20.4148716 7.81135137,20.4990701 C7.63543264,20.5609883 7.5096091,20.6976488 7.4513165,20.859828 C7.23506137,19.9300182 7.61279221,19.0464529 8.04920599,18.9406219 C8.41132274,18.8527965 9.1450548,19.384542 9.424547,20.2260081 C9.26944705,20.1042442 9.05774602,20.0607201 8.85775557,20.1310582" id="Fill-23" fill="#333333"></path>
                                <path d="M12.4100389,15.4036662 C12.1775191,15.4036662 11.9530665,15.5299638 11.8392138,15.749916 L11.0699597,17.2363421 C10.9077033,17.5499489 11.0315751,17.9350595 11.3464592,18.096591 L11.3469797,18.09685 C11.4410545,18.1450375 11.5413751,18.1678358 11.6402643,18.1678358 C11.8727841,18.1678358 12.0972366,18.0415382 12.2110894,17.821586 L12.9803435,16.3351599 C13.1425999,16.0216826 13.0187281,15.636572 12.703844,15.4750405 L12.7033235,15.4746519 C12.6092486,15.4264645 12.5089281,15.4036662 12.4100389,15.4036662 M12.4100389,15.5332022 L12.4100389,15.5332022 C12.4917526,15.5332022 12.5703435,15.552244 12.6442502,15.5901981 C12.7656498,15.6523754 12.8554308,15.7580768 12.8970683,15.8876128 C12.9387059,16.0170193 12.9272556,16.1549752 12.8646691,16.2758323 L12.095415,17.7622584 C12.0073255,17.9325983 11.8328381,18.0382998 11.6402643,18.0382998 C11.5585506,18.0382998 11.4799596,18.019258 11.406053,17.9814334 C11.1554468,17.8528041 11.0565576,17.5452856 11.1856341,17.2956696 L11.9548882,15.8092435 C12.0431078,15.6390332 12.2174651,15.5332022 12.4100389,15.5332022" id="Fill-25" fill="#FFFFFF"></path>
                                <polygon id="Fill-27" fill="#FFFFFF" points="12.0451376 17.2428837 11.2718499 16.8462443 11.6702694 16.0765411 12.4435571 16.473051"></polygon>
                                <polygon id="Fill-29" fill="#E68200" points="7.23605026 6.11946814 5.85264198 7.00976937 6.41019507 4.79781189"></polygon>
                                <polygon id="Fill-31" fill="#E65100" points="7.23605026 6.11946814 8.6497759 5.2776134 6.41019507 4.79781189"></polygon>
                            </g>
                        </g>
                    </g>
                </g>
            </g>
        </g>
    </g>
</svg>