<svg xmlns="http://www.w3.org/2000/svg" width="100" height="100" viewBox="0 0 100 100">
  <defs>
    <style>
      .cls-1 {
        fill: #fff;
        fill-rule: evenodd;
      }
    </style>
  </defs>
  <path id="Shape_2_copy" data-name="Shape 2 copy" class="cls-1" d="M86.826,31.077h-1.8c-2.978,4.027-10.18,1.2-10.18,1.2-4.491,2.819-8.982,0-8.982,0-3.485,3.445-8.982.6-8.982,0.6C55.579,34.3,53,34.59,51.957,34.647l-0.125,15.6L52.1,50.2c14.72-3.63,20.359-5.379,20.359-5.379,2.774-1.631-1.2-2.988-1.2-2.988H56.886c-3.308-2.6,0-4.781,0-4.781H73.054c6.55,1.091,7.784,5.379,7.784,5.379C83.1,49.256,59.88,53.787,59.88,53.787c-0.776.1-1.518,0.2-2.233,0.318a15.254,15.254,0,0,1,3.43,2.67s8.853,9.608-7.186,17.331l-0.224.13c0.517,0.3.822,0.468,0.822,0.468,10.491,6.538,7.784,12.55,7.784,12.55-1.507,6.16-7.784,8.965-7.784,8.965-1.843,1.363-1.8,0-1.8,0,6.821-7.927,4.192-11.953,4.192-11.953-0.457-1.511-2.767-3.552-5.284-5.41L51.5,92.036a3.275,3.275,0,0,1-4.192,0L47.2,78.422c-2.739,1.968-5.386,4.214-5.879,5.844,0,0-2.63,4.026,4.192,11.953,0,0,.047,1.363-1.8,0,0,0-6.277-2.8-7.785-8.965,0,0-2.707-6.012,7.785-12.55,0,0,.309-0.171.823-0.468l-0.224-.13c-16.039-7.724-7.186-17.331-7.186-17.331a15.221,15.221,0,0,1,3.417-2.669c-0.713-.113-1.446-0.221-2.22-0.319,0,0-23.221-4.531-20.958-11.355,0,0,1.235-4.288,7.784-5.379H41.317s3.308,2.179,0,4.781H26.946s-3.971,1.357-1.2,2.988c0,0,5.64,1.749,20.359,5.379,0,0,.325.047,0.863,0.147l-0.126-15.7C45.8,34.59,43.223,34.3,41.916,32.87c0,0-5.5,2.847-8.982-.6,0,0-4.491,2.819-8.982,0,0,0-7.2,2.832-10.18-1.2h-1.8C3.628,31.566,2.994,26.3,2.994,26.3S7.36,26.97,13.773,24.5A82.451,82.451,0,0,0,29.341,13.148s4.217-7.628,8.982-.6c0,0,1.322,5.675,8.393,5.95l0-.508a6.893,6.893,0,1,1,5.379-.011l0,0.519c7.071-.275,8.393-5.95,8.393-5.95,4.765-7.031,8.982.6,8.982,0.6A82.451,82.451,0,0,0,85.03,24.5C91.442,26.97,95.808,26.3,95.808,26.3S95.175,31.566,86.826,31.077Zm-39.7,38.988-0.1-13.05c-5.5,2.456-6.306,5.139-6.306,5.139C39.7,64.127,43.339,67.369,47.129,70.065Zm4.547-.434c3.561-2.6,6.771-5.608,5.808-7.476,0,0-.751-2.485-5.709-4.861Z"/>
</svg>
