<?xml version="1.0" encoding="UTF-8"?>
<svg width="17px" height="20px" viewBox="0 0 17 20" version="1.1" xmlns="http://www.w3.org/2000/svg" xmlns:xlink="http://www.w3.org/1999/xlink">
    <!-- Generator: Sketch 51.3 (57544) - http://www.bohemiancoding.com/sketch -->
    <title>alertcancel</title>
    <desc>Created with Sketch.</desc>
    <defs></defs>
    <g stroke="none" stroke-width="1" fill="none" fill-rule="evenodd">
        <g fill="#000000" fill-rule="nonzero">
            <path d="M16,16.69 L3.84,4.14 L1.27,1.49 L0,2.76 L2.8,5.56 L2.8,5.57 C2.28,6.56 2,7.73 2,8.99 L2,13.99 L0,15.99 L0,16.99 L13.73,16.99 L15.73,18.99 L17,17.72 L16,16.69 Z M8,20 C9.11,20 10,19.11 10,18 L6,18 C6,19.11 6.89,20 8,20 Z M14,12.68 L14,9 C14,5.92 12.36,3.36 9.5,2.68 L9.5,2 C9.5,1.17 8.83,0.5 8,0.5 C7.17,0.5 6.5,1.17 6.5,2 L6.5,2.68 C6.35,2.71 6.21,2.76 6.08,2.8 C5.98,2.83 5.88,2.87 5.78,2.91 L5.77,2.91 C5.76,2.91 5.76,2.91 5.75,2.92 C5.52,3.01 5.29,3.12 5.07,3.23 C5.07,3.23 5.06,3.23 5.06,3.24 L14,12.68 Z"></path>
        </g>
    </g>
</svg>