<?xml version="1.0" encoding="utf-8"?>
<!-- Generator: Adobe Illustrator 19.0.0, SVG Export Plug-In . SVG Version: 6.00 Build 0)  -->
<!DOCTYPE svg PUBLIC "-//W3C//DTD SVG 1.1//EN" "http://www.w3.org/Graphics/SVG/1.1/DTD/svg11.dtd">
<svg version="1.1" id="Layer_1" xmlns="http://www.w3.org/2000/svg" xmlns:xlink="http://www.w3.org/1999/xlink" x="0px" y="0px"
	 width="24px" height="24px" viewBox="0 0 24 24" style="enable-background:new 0 0 24 24;" xml:space="preserve">
<path d="M12,2C6.5,2,2,6.5,2,12s4.5,10,10,10s10-4.5,10-10S17.5,2,12,2z M13.1,16.6V18h-2v-1.5c-1.3-0.3-2.4-1.1-2.5-2.5h1.5
	c0.1,0.8,0.6,1.4,2,1.4c1.5,0,1.8-0.7,1.8-1.2c0-0.6-0.3-1.2-2-1.6c-1.9-0.4-3.1-1.2-3.1-2.7c0-1.3,1.1-2.1,2.3-2.4V6h2v1.5
	c1.4,0.3,2.1,1.4,2.1,2.5h-1.5c-0.1-0.9-0.5-1.4-1.7-1.4c-1.1,0-1.8,0.5-1.8,1.2c0,0.6,0.5,1,2,1.4s3.1,1.1,3.1,2.9
	C15.4,15.6,14.3,16.3,13.1,16.6z"/>
</svg>
