<?xml version="1.0" encoding="utf-8"?>
<svg xmlns="http://www.w3.org/2000/svg" viewBox="0 0 80 80" fill="#7c9196"><path d="M 31 8 C 22.837732 8 16.226562 16.367188 16.226562 16.367188 L 15.476562 17.283203 L 16.503906 17.869141 C 16.503906 17.869141 16.759735 17.984229 17.15625 18.605469 C 17.552765 19.226708 18 20.300663 18 22.126953 C 18 24.423768 18.40355 26.109398 18.625 26.873047 C 18.242008 27.312976 18 27.878145 18 28.5 C 18 29.077938 18.158713 29.536765 18.287109 29.992188 C 18.351309 30.219898 18.414208 30.430856 18.455078 30.587891 C 18.495948 30.744926 18.5 30.901527 18.5 30.75 C 18.5 31.981063 19.518937 33 20.75 33 L 21.09375 33 C 21.254202 36.238482 22.800092 39.097633 25.158203 41 L 25 41 L 25 44.289062 C 23.669771 44.691361 20.937429 45.576278 18.140625 46.871094 C 16.203145 47.768075 14.247689 48.85023 12.716797 50.142578 C 11.185905 51.434926 10 53.004616 10 54.882812 L 10 60 L 39 60 L 39 58 L 12 58 L 12 54.882812 C 12 53.87901 12.703705 52.770824 14.007812 51.669922 C 15.311922 50.56902 17.137949 49.540518 18.980469 48.6875 C 21.336229 47.59687 23.597467 46.82837 25 46.386719 L 25 47.265625 L 25.130859 47.496094 C 25.130859 47.496094 27.247364 51 32 51 C 36.752636 51 38.869141 47.496094 38.869141 47.496094 L 39 47.265625 L 39 46.388672 C 40.176838 46.759351 41.972131 47.369836 43.902344 48.195312 L 40.185547 50.673828 C 39.446237 51.167233 39 52.00089 39 52.890625 L 39 53.890625 L 39.292969 53.890625 C 39.620461 54.626451 40.262254 55.171249 41 55.402344 L 41 71 L 69 71 L 69 55.402344 C 69.737746 55.171249 70.379539 54.626451 70.707031 53.890625 L 71 53.890625 L 71 52.890625 C 71 52.001292 70.554591 51.167786 69.814453 50.673828 L 55 40.798828 L 45.867188 46.886719 C 43.078837 45.595948 40.334747 44.693 39 44.289062 L 39 41 L 38.841797 41 C 41.199913 39.097492 42.7458 36.237964 42.90625 33 L 43.25 33 C 44.481063 33 45.5 31.981063 45.5 30.75 C 45.5 30.901527 45.504102 30.7449 45.544922 30.587891 C 45.585792 30.430856 45.648692 30.219898 45.712891 29.992188 C 45.841289 29.536765 46 29.077938 46 28.5 C 46 27.920992 45.790155 27.39113 45.453125 26.964844 C 45.532895 26.331826 46 22.56752 46 19.833984 C 46 16.861497 45.182978 14.603119 43.708984 13.117188 C 42.337786 11.734882 40.450312 11.153284 38.435547 11.070312 C 38.223595 10.769305 37.990785 10.331219 37.035156 9.6757812 C 35.787697 8.8201852 33.816404 8 31 8 z M 31 10 C 33.435596 10 34.964756 10.679815 35.904297 11.324219 C 36.843838 11.968623 37.136719 12.503906 37.136719 12.503906 L 37.425781 13 L 38 13 C 39.81275 13 41.265009 13.491073 42.291016 14.525391 C 43.317022 15.559708 44 17.219471 44 19.833984 C 44 21.950523 43.699266 24.688215 43.546875 26.003906 C 43.530927 26.003598 43.516014 26 43.5 26 C 43.089224 26 43.078581 26.07645 43 26.136719 L 43 23.833984 C 43 20.938566 41.786509 19.079735 40.548828 18.070312 C 39.311147 17.060892 38.013672 16.820312 38.013672 16.820312 L 37.509766 16.728516 L 37.140625 17.082031 C 37.140625 17.082031 36.646116 17.574346 35.398438 18.144531 C 34.150756 18.714717 32.21694 19.304687 29.5 19.304688 C 27.957767 19.304688 25.959333 19.841944 24.212891 21.0625 C 22.660778 22.147243 21.390153 23.894277 21.113281 26.167969 C 20.995976 26.101316 21.003899 26 20.5 26 C 20.485971 26 20.472963 26.00367 20.458984 26.003906 C 20.269839 25.294042 20 24.000121 20 22.126953 C 20 19.966243 19.447235 18.476761 18.84375 17.53125 C 18.640016 17.212049 18.59044 17.267145 18.388672 17.058594 C 19.259767 16.076423 24.776493 10 31 10 z M 37.902344 18.914062 C 38.091744 18.959112 38.568686 19.036759 39.285156 19.621094 C 40.130975 20.310922 41 21.466402 41 23.833984 L 41 29.675781 L 42.541016 28.6875 C 42.84955 28.489471 43.178671 28.283145 43.431641 28.136719 C 43.488471 28.103829 43.517531 28.090123 43.564453 28.064453 C 43.795797 28.110292 44 28.250051 44 28.5 C 44 28.52606 43.90871 29.017891 43.787109 29.449219 C 43.726309 29.664882 43.664208 29.880801 43.611328 30.083984 C 43.558448 30.287168 43.5 30.423973 43.5 30.75 C 43.5 30.898937 43.398937 31 43.25 31 L 41 31 L 41 32.474609 C 41 36.911669 37.799474 40.572793 33.587891 41.324219 L 33.304688 41.375 L 33.091797 41.570312 C 32.794402 41.840961 32.42198 42 32 42 C 31.57802 42 31.205598 41.840961 30.908203 41.570312 L 30.695312 41.375 L 30.412109 41.324219 C 26.200681 40.573721 23 36.912767 23 32.474609 L 23 31 L 20.75 31 C 20.601063 31 20.5 30.898937 20.5 30.75 C 20.5 30.423973 20.44155 30.287168 20.388672 30.083984 C 20.335792 29.880801 20.273692 29.664882 20.212891 29.449219 C 20.091287 29.017891 20 28.526062 20 28.5 C 20 28.250051 20.204203 28.110288 20.435547 28.064453 C 20.482447 28.090113 20.511567 28.103819 20.568359 28.136719 C 20.821191 28.283179 21.150794 28.489203 21.458984 28.6875 L 23 29.677734 L 23 27.015625 C 23 24.993828 23.997114 23.653819 25.357422 22.703125 C 26.71773 21.752431 28.469233 21.304688 29.5 21.304688 C 32.50806 21.304688 34.740945 20.642705 36.228516 19.962891 C 37.312938 19.467313 37.589839 19.168746 37.902344 18.914062 z M 27.5 29 A 1.5 1.5 0 0 0 26 30.5 A 1.5 1.5 0 0 0 27.5 32 A 1.5 1.5 0 0 0 29 30.5 A 1.5 1.5 0 0 0 27.5 29 z M 36.5 29 A 1.5 1.5 0 0 0 35 30.5 A 1.5 1.5 0 0 0 36.5 32 A 1.5 1.5 0 0 0 38 30.5 A 1.5 1.5 0 0 0 36.5 29 z M 27 42.199219 C 27.870387 42.648598 28.805762 42.991666 29.796875 43.195312 C 30.406644 43.672278 31.157868 44 32 44 C 32.842132 44 33.593356 43.672278 34.203125 43.195312 C 35.194209 42.991467 36.129622 42.648706 37 42.199219 L 37 46.648438 C 36.853207 46.904739 35.598461 49 32 49 C 28.401539 49 27.146793 46.904739 27 46.648438 L 27 42.199219 z M 55 43.201172 L 68.703125 52.337891 C 68.888987 52.461932 69 52.667958 69 52.890625 C 69 53.476711 68.454877 53.768599 67.966797 53.443359 L 55 44.798828 L 42.033203 53.443359 C 41.545123 53.768599 41 53.476711 41 52.890625 C 41 52.66636 41.110184 52.462485 41.296875 52.337891 L 55 43.201172 z M 55 47.201172 L 66.857422 55.107422 L 66.859375 55.107422 C 66.904831 55.137712 66.953787 55.150886 67 55.177734 L 67 65 A 1 1 0 0 0 66 66 A 1 1 0 0 0 67 67 L 67 69 L 60 69 L 60 57 L 50 57 L 50 58 L 50 69 L 43 69 L 43 67 A 1 1 0 0 0 44 66 A 1 1 0 0 0 43 65 L 43 55.177734 C 43.046213 55.150886 43.095169 55.137712 43.140625 55.107422 L 43.142578 55.107422 L 55 47.201172 z M 16 54 A 1 1 0 0 0 15 55 A 1 1 0 0 0 16 56 A 1 1 0 0 0 17 55 A 1 1 0 0 0 16 54 z M 20 54 A 1 1 0 0 0 19 55 A 1 1 0 0 0 20 56 A 1 1 0 0 0 21 55 A 1 1 0 0 0 20 54 z M 24 54 A 1 1 0 0 0 23 55 A 1 1 0 0 0 24 56 A 1 1 0 0 0 25 55 A 1 1 0 0 0 24 54 z M 28 54 A 1 1 0 0 0 27 55 A 1 1 0 0 0 28 56 A 1 1 0 0 0 29 55 A 1 1 0 0 0 28 54 z M 32 54 A 1 1 0 0 0 31 55 A 1 1 0 0 0 32 56 A 1 1 0 0 0 33 55 A 1 1 0 0 0 32 54 z M 36 54 A 1 1 0 0 0 35 55 A 1 1 0 0 0 36 56 A 1 1 0 0 0 37 55 A 1 1 0 0 0 36 54 z M 52 59 L 58 59 L 58 69 L 52 69 L 52 59 z M 47 65 A 1 1 0 0 0 46 66 A 1 1 0 0 0 47 67 A 1 1 0 0 0 48 66 A 1 1 0 0 0 47 65 z M 63 65 A 1 1 0 0 0 62 66 A 1 1 0 0 0 63 67 A 1 1 0 0 0 64 66 A 1 1 0 0 0 63 65 z" fill="#7c9196"/></svg>
