<?xml version="1.0" encoding="utf-8"?>
<!-- Generator: Adobe Illustrator 19.0.0, SVG Export Plug-In . SVG Version: 6.00 Build 0)  -->
<!DOCTYPE svg PUBLIC "-//W3C//DTD SVG 1.1//EN" "http://www.w3.org/Graphics/SVG/1.1/DTD/svg11.dtd">
<svg version="1.1" id="Layer_1" xmlns="http://www.w3.org/2000/svg" xmlns:xlink="http://www.w3.org/1999/xlink" x="0px" y="0px"
	 width="24px" height="24px" viewBox="0 0 24 24" style="enable-background:new 0 0 24 24;" xml:space="preserve">
<path d="M18,18c1.1,0,2,0.9,2,2s-0.9,2-2,2c-1.1,0-2-0.9-2-2C16,18.9,16.9,18,18,18 M2,2h3.3l0.9,2H21c0.6,0,1,0.4,1,1
	c0,0.2,0,0.3-0.1,0.5L18.3,12c-0.3,0.6-1,1-1.8,1H9.1l-0.9,1.6l0,0.1c0,0.1,0.1,0.2,0.2,0.2H20v2H8c-1.1,0-2-0.9-2-2
	c0-0.4,0.1-0.7,0.2-1l1.4-2.4L4,4H2V2 M8,18c1.1,0,2,0.9,2,2s-0.9,2-2,2c-1.1,0-2-0.9-2-2C6,18.9,6.9,18,8,18 M17,11l2.8-5H7.1
	l2.4,5H17z"/>
</svg>
