<?xml version="1.0" encoding="utf-8"?>
<!-- Generator: Adobe Illustrator 16.0.0, SVG Export Plug-In . SVG Version: 6.00 Build 0)  -->
<!DOCTYPE svg PUBLIC "-//W3C//DTD SVG 1.1//EN" "http://www.w3.org/Graphics/SVG/1.1/DTD/svg11.dtd">
<svg version="1.1" id="Layer_1" xmlns="http://www.w3.org/2000/svg" xmlns:xlink="http://www.w3.org/1999/xlink" x="0px" y="0px"
	 width="20px" height="20px" viewBox="0 0 20 20" enable-background="new 0 0 20 20" xml:space="preserve">
<path id="Shape" d="M6,16c-1.1,0-1.99,0.9-1.99,2S4.9,20,6,20s2-0.9,2-2S7.1,16,6,16z M0,0v2h2l3.6,7.59l-1.35,2.45
	C4.09,12.32,4,12.65,4,13c0,1.1,0.9,2,2,2h12v-2H6.42c-0.14,0-0.25-0.109-0.25-0.25l0.03-0.12L7.1,11h7.45
	c0.75,0,1.41-0.41,1.75-1.03l3.58-6.49C19.96,3.34,20,3.17,20,3c0-0.55-0.45-1-1-1H4.21L3.27,0H0z M16,16c-1.1,0-1.99,0.9-1.99,2
	S14.9,20,16,20s2-0.9,2-2S17.1,16,16,16z"/>
</svg>
