<?xml version="1.0" encoding="utf-8"?>
<svg xmlns="http://www.w3.org/2000/svg" viewBox="0 0 80 80" fill="#7c9196"><path d="M 17 9 C 15.35503 9 14 10.35503 14 12 L 14 21 L 13 21 C 10.802666 21 9 22.802666 9 25 L 9 26 L 9.203125 26 C 9.6594792 27.706363 11.156406 29 13 29 L 14 29 L 14 32 L 13 32 C 10.802666 32 9 33.802666 9 36 L 9 37 L 9.203125 37 C 9.6594792 38.706363 11.156406 40 13 40 L 14 40 L 14 43 L 13 43 C 10.802666 43 9 44.802666 9 47 L 9 48 L 9.203125 48 C 9.6594792 49.706363 11.156406 51 13 51 L 14 51 L 14 54 L 13 54 C 10.802666 54 9 55.802666 9 58 L 9 59 L 9.203125 59 C 9.6594792 60.706363 11.156406 62 13 62 L 14 62 L 14 68 C 14 69.64497 15.35503 71 17 71 L 63 71 L 65 71 C 66.64497 71 68 69.64497 68 68 L 68 66 L 69 66 C 70.64497 66 72 64.64497 72 63 L 72 57 C 72 56.231416 71.695875 55.533353 71.212891 55 C 71.695875 54.466647 72 53.768584 72 53 L 72 47 C 72 46.231416 71.695875 45.533353 71.212891 45 C 71.695875 44.466647 72 43.768584 72 43 L 72 37 C 72 36.231416 71.695875 35.533353 71.212891 35 C 71.695875 34.466647 72 33.768584 72 33 L 72 27 C 72 26.231416 71.695875 25.533353 71.212891 25 C 71.695875 24.466647 72 23.768584 72 23 L 72 17 C 72 15.35503 70.64497 14 69 14 L 68 14 L 68 12 C 68 10.35503 66.64497 9 65 9 L 63 9 L 17 9 z M 17 11 L 63 11 L 65 11 C 65.56503 11 66 11.43497 66 12 L 66 14 L 66 24 L 66 68 C 66 68.56503 65.56503 69 65 69 L 63 69 L 17 69 C 16.43497 69 16 68.56503 16 68 L 16 61.167969 A 1.0001 1.0001 0 0 0 16 60.841797 L 16 59 A 1.0001 1.0001 0 1 0 14 59 L 14 60 L 13 60 C 11.883334 60 11 59.116666 11 58 C 11 56.883334 11.883334 56 13 56 L 17 56 A 2 2 0 0 0 19 58 A 2 2 0 0 0 21 56 A 2 2 0 0 0 19.070312 54.001953 A 1.0001 1.0001 0 0 0 19 54 L 16 54 L 16 50.167969 A 1.0001 1.0001 0 0 0 16 49.841797 L 16 48 A 1.0001 1.0001 0 0 0 14.984375 46.986328 A 1.0001 1.0001 0 0 0 14 48 L 14 49 L 13 49 C 11.883334 49 11 48.116666 11 47 C 11 45.883334 11.883334 45 13 45 L 17 45 A 2 2 0 0 0 19 47 A 2 2 0 0 0 21 45 A 2 2 0 0 0 19.070312 43.001953 A 1.0001 1.0001 0 0 0 19 43 L 16 43 L 16 39.167969 A 1.0001 1.0001 0 0 0 16 38.841797 L 16 37 A 1.0001 1.0001 0 0 0 14.984375 35.986328 A 1.0001 1.0001 0 0 0 14 37 L 14 38 L 13 38 C 11.883334 38 11 37.116666 11 36 C 11 34.883334 11.883334 34 13 34 L 14.832031 34 A 1.0001 1.0001 0 0 0 15.158203 34 L 17 34 A 2 2 0 0 0 19 36 A 2 2 0 0 0 21 34 A 2 2 0 0 0 19.070312 32.001953 A 1.0001 1.0001 0 0 0 19 32 L 16 32 L 16 28.167969 A 1.0001 1.0001 0 0 0 16 27.841797 L 16 26 A 1.0001 1.0001 0 0 0 14.984375 24.986328 A 1.0001 1.0001 0 0 0 14 26 L 14 27 L 13 27 C 11.883334 27 11 26.116666 11 25 C 11 23.883334 11.883334 23 13 23 L 14.832031 23 A 1.0001 1.0001 0 0 0 15.158203 23 L 17 23 A 2 2 0 0 0 19 25 A 2 2 0 0 0 21 23 A 2 2 0 0 0 19.070312 21.001953 A 1.0001 1.0001 0 0 0 19 21 L 16 21 L 16 12 C 16 11.43497 16.43497 11 17 11 z M 23 13 A 1 1 0 0 0 22 14 A 1 1 0 0 0 23 15 A 1 1 0 0 0 24 14 A 1 1 0 0 0 23 13 z M 27 13 A 1 1 0 0 0 26 14 A 1 1 0 0 0 27 15 A 1 1 0 0 0 28 14 A 1 1 0 0 0 27 13 z M 31 13 A 1 1 0 0 0 30 14 A 1 1 0 0 0 31 15 A 1 1 0 0 0 32 14 A 1 1 0 0 0 31 13 z M 35 13 A 1 1 0 0 0 34 14 A 1 1 0 0 0 35 15 A 1 1 0 0 0 36 14 A 1 1 0 0 0 35 13 z M 39 13 A 1 1 0 0 0 38 14 A 1 1 0 0 0 39 15 A 1 1 0 0 0 40 14 A 1 1 0 0 0 39 13 z M 43 13 A 1 1 0 0 0 42 14 A 1 1 0 0 0 43 15 A 1 1 0 0 0 44 14 A 1 1 0 0 0 43 13 z M 47 13 A 1 1 0 0 0 46 14 A 1 1 0 0 0 47 15 A 1 1 0 0 0 48 14 A 1 1 0 0 0 47 13 z M 51 13 A 1 1 0 0 0 50 14 A 1 1 0 0 0 51 15 A 1 1 0 0 0 52 14 A 1 1 0 0 0 51 13 z M 55 13 A 1 1 0 0 0 54 14 A 1 1 0 0 0 55 15 A 1 1 0 0 0 56 14 A 1 1 0 0 0 55 13 z M 59 13 A 1 1 0 0 0 58 14 A 1 1 0 0 0 59 15 A 1 1 0 0 0 60 14 A 1 1 0 0 0 59 13 z M 63 13 A 1 1 0 0 0 62 14 A 1 1 0 0 0 63 15 A 1 1 0 0 0 64 14 A 1 1 0 0 0 63 13 z M 68 16 L 69 16 C 69.56503 16 70 16.43497 70 17 L 70 23 C 70 23.56503 69.56503 24 69 24 L 68 24 L 68 16 z M 63 17 A 1 1 0 0 0 62 18 A 1 1 0 0 0 63 19 A 1 1 0 0 0 64 18 A 1 1 0 0 0 63 17 z M 28 21 L 28 22 L 28 38 L 54 38 L 54 21 L 28 21 z M 63 21 A 1 1 0 0 0 62 22 A 1 1 0 0 0 63 23 A 1 1 0 0 0 64 22 A 1 1 0 0 0 63 21 z M 30 23 L 52 23 L 52 36 L 30 36 L 30 23 z M 63 25 A 1 1 0 0 0 62 26 A 1 1 0 0 0 63 27 A 1 1 0 0 0 64 26 A 1 1 0 0 0 63 25 z M 33 26 L 33 28 L 49 28 L 49 26 L 33 26 z M 68 26 L 69 26 C 69.56503 26 70 26.43497 70 27 L 70 33 C 70 33.56503 69.56503 34 69 34 L 68 34 L 68 26 z M 63 29 A 1 1 0 0 0 62 30 A 1 1 0 0 0 63 31 A 1 1 0 0 0 64 30 A 1 1 0 0 0 63 29 z M 33 31 L 33 33 L 49 33 L 49 31 L 33 31 z M 63 33 A 1 1 0 0 0 62 34 A 1 1 0 0 0 63 35 A 1 1 0 0 0 64 34 A 1 1 0 0 0 63 33 z M 68 36 L 69 36 C 69.56503 36 70 36.43497 70 37 L 70 43 C 70 43.56503 69.56503 44 69 44 L 68 44 L 68 36 z M 63 37 A 1 1 0 0 0 62 38 A 1 1 0 0 0 63 39 A 1 1 0 0 0 64 38 A 1 1 0 0 0 63 37 z M 63 41 A 1 1 0 0 0 62 42 A 1 1 0 0 0 63 43 A 1 1 0 0 0 64 42 A 1 1 0 0 0 63 41 z M 63 45 A 1 1 0 0 0 62 46 A 1 1 0 0 0 63 47 A 1 1 0 0 0 64 46 A 1 1 0 0 0 63 45 z M 68 46 L 69 46 C 69.56503 46 70 46.43497 70 47 L 70 53 C 70 53.56503 69.56503 54 69 54 L 68 54 L 68 46 z M 63 49 A 1 1 0 0 0 62 50 A 1 1 0 0 0 63 51 A 1 1 0 0 0 64 50 A 1 1 0 0 0 63 49 z M 63 53 A 1 1 0 0 0 62 54 A 1 1 0 0 0 63 55 A 1 1 0 0 0 64 54 A 1 1 0 0 0 63 53 z M 68 56 L 69 56 C 69.56503 56 70 56.43497 70 57 L 70 63 C 70 63.56503 69.56503 64 69 64 L 68 64 L 68 56 z M 63 57 A 1 1 0 0 0 62 58 A 1 1 0 0 0 63 59 A 1 1 0 0 0 64 58 A 1 1 0 0 0 63 57 z M 63 61 A 1 1 0 0 0 62 62 A 1 1 0 0 0 63 63 A 1 1 0 0 0 64 62 A 1 1 0 0 0 63 61 z M 23 65 A 1 1 0 0 0 22 66 A 1 1 0 0 0 23 67 A 1 1 0 0 0 24 66 A 1 1 0 0 0 23 65 z M 27 65 A 1 1 0 0 0 26 66 A 1 1 0 0 0 27 67 A 1 1 0 0 0 28 66 A 1 1 0 0 0 27 65 z M 31 65 A 1 1 0 0 0 30 66 A 1 1 0 0 0 31 67 A 1 1 0 0 0 32 66 A 1 1 0 0 0 31 65 z M 35 65 A 1 1 0 0 0 34 66 A 1 1 0 0 0 35 67 A 1 1 0 0 0 36 66 A 1 1 0 0 0 35 65 z M 39 65 A 1 1 0 0 0 38 66 A 1 1 0 0 0 39 67 A 1 1 0 0 0 40 66 A 1 1 0 0 0 39 65 z M 43 65 A 1 1 0 0 0 42 66 A 1 1 0 0 0 43 67 A 1 1 0 0 0 44 66 A 1 1 0 0 0 43 65 z M 47 65 A 1 1 0 0 0 46 66 A 1 1 0 0 0 47 67 A 1 1 0 0 0 48 66 A 1 1 0 0 0 47 65 z M 51 65 A 1 1 0 0 0 50 66 A 1 1 0 0 0 51 67 A 1 1 0 0 0 52 66 A 1 1 0 0 0 51 65 z M 55 65 A 1 1 0 0 0 54 66 A 1 1 0 0 0 55 67 A 1 1 0 0 0 56 66 A 1 1 0 0 0 55 65 z M 59 65 A 1 1 0 0 0 58 66 A 1 1 0 0 0 59 67 A 1 1 0 0 0 60 66 A 1 1 0 0 0 59 65 z M 63 65 A 1 1 0 0 0 62 66 A 1 1 0 0 0 63 67 A 1 1 0 0 0 64 66 A 1 1 0 0 0 63 65 z" fill="#7c9196"/></svg>
