<?xml version="1.0" encoding="utf-8"?>
<!-- Generator: Adobe Illustrator 16.0.0, SVG Export Plug-In . SVG Version: 6.00 Build 0)  -->
<!DOCTYPE svg PUBLIC "-//W3C//DTD SVG 1.1//EN" "http://www.w3.org/Graphics/SVG/1.1/DTD/svg11.dtd">
<svg version="1.1" id="Layer_1" xmlns="http://www.w3.org/2000/svg" xmlns:xlink="http://www.w3.org/1999/xlink" x="0px" y="0px"
	 width="24px" height="24px" viewBox="0 0 24 24" enable-background="new 0 0 24 24" xml:space="preserve">
<path display="none" fill="none" d="M0,0h24v24H0V0z"/>
<path fill="none" stroke="#000000" stroke-miterlimit="10" d="M14.918,1H6.917c-1.1,0-1.99,0.9-1.99,2l-0.01,16c0,1.1,0.89,2,1.99,2
	h12.01c1.101,0,2-0.9,2-2V7L14.918,1z"/>
<g>
	<path d="M9.512,17.77l0.542-2.678H8.345v-0.807h1.896l0.396-1.981H8.845v-0.806h1.979l0.541-2.609h1.209l-0.521,2.609h2.167
		l0.541-2.609h1.229l-0.521,2.609h1.709v0.806h-1.896l-0.375,1.981h1.792v0.807h-1.98l-0.541,2.678h-1.25l0.542-2.678h-2.167
		l-0.542,2.678H9.512z M13.657,14.287l0.396-1.982h-2.166l-0.396,1.982H13.657z"/>
</g>
<path fill="none" stroke="#000000" stroke-miterlimit="10" d="M2.01,5L2,21c0,1.1,0.89,2,1.99,2H16"/>
<polygon points="19.562,7 14.663,7.002 14.655,2.156 "/>
</svg>
