<?xml version="1.0" encoding="utf-8"?>
<!-- Generator: Adobe Illustrator 19.0.0, SVG Export Plug-In . SVG Version: 6.00 Build 0)  -->
<!DOCTYPE svg PUBLIC "-//W3C//DTD SVG 1.1//EN" "http://www.w3.org/Graphics/SVG/1.1/DTD/svg11.dtd">
<svg version="1.1" id="Layer_1" xmlns="http://www.w3.org/2000/svg" xmlns:xlink="http://www.w3.org/1999/xlink" x="0px" y="0px"
	 width="24px" height="24px" viewBox="0 0 24 24" style="enable-background:new 0 0 24 24;" xml:space="preserve">
<g id="XMLID_94_">
	<path id="XMLID_169_" d="M12,2C6.5,2,2,6.5,2,12s4.5,10,10,10s10-4.5,10-10S17.5,2,12,2z M12,20c-4.4,0-8-3.6-8-8s3.6-8,8-8
		s8,3.6,8,8S16.4,20,12,20z"/>
	<path id="XMLID_226_" d="M12,6c-3.3,0-6,2.7-6,6s2.7,6,6,6s6-2.7,6-6S15.3,6,12,6z M10.8,15l-3-3l0.8-0.8l2.2,2.1l4.6-4.6l0.8,0.9
		L10.8,15z"/>
</g>
</svg>
