<?xml version="1.0" encoding="utf-8"?>
<!-- Generator: Adobe Illustrator 19.0.0, SVG Export Plug-In . SVG Version: 6.00 Build 0)  -->
<!DOCTYPE svg PUBLIC "-//W3C//DTD SVG 1.1//EN" "http://www.w3.org/Graphics/SVG/1.1/DTD/svg11.dtd">
<svg version="1.1" id="Layer_1" xmlns="http://www.w3.org/2000/svg" xmlns:xlink="http://www.w3.org/1999/xlink" x="0px" y="0px"
	 width="24px" height="24px" viewBox="0 0 24 24" style="enable-background:new 0 0 24 24;" xml:space="preserve">
<g id="Quest-Patient-Cards">
	<g id="_x31_280_x5F_Ordering_x5F_Test_x26_Diagnosis-13" transform="translate(-160.000000, -2049.000000)">
		<g id="Group-8" transform="translate(160.000000, 2049.000000)">
			<polygon id="Page-1" points="6.3,7 6.3,9.1 4.7,7.5 3.9,8.2 6.3,10.5 6.3,11.5 5.3,11.5 2.9,9.2 2.2,9.9 3.9,11.5 1.8,11.5 
				1.8,12.5 3.9,12.5 2.2,14.1 2.9,14.8 5.3,12.5 6.3,12.5 6.3,13.5 3.9,15.8 4.7,16.5 6.3,14.9 6.3,17 7.3,17 7.3,14.9 8.9,16.5 
				9.6,15.8 7.3,13.5 7.3,12.5 8.3,12.5 10.6,14.8 11.3,14.1 9.7,12.5 11.8,12.5 11.8,11.5 9.7,11.5 11.3,9.9 10.6,9.2 8.3,11.5 
				7.3,11.5 7.3,10.5 9.6,8.2 8.9,7.5 7.3,9.1 7.3,7 			"/>
			<path id="Fill-1" d="M20.3,19h-4.5c-0.2-0.4-0.3-0.8-0.3-1.3c0-1.1,0.7-2,1.6-2.4V4.8c0-0.5,0.4-0.9,0.9-0.9
				c0.5,0,0.9,0.4,0.9,0.9v10.5c1,0.4,1.7,1.3,1.7,2.4C20.7,18.2,20.5,18.6,20.3,19 M20.7,14.5c0.1-0.2,0.1-0.5,0.1-0.7v-9
				C20.8,3.3,19.6,2,18,2c-1.5,0-2.8,1.3-2.8,2.8v9c0,0.2,0,0.5,0.1,0.7c-1,0.8-1.6,2-1.6,3.3c0,2.3,1.9,4.2,4.2,4.2
				c2.3,0,4.2-1.9,4.2-4.2C22.2,16.5,21.7,15.3,20.7,14.5"/>
		</g>
	</g>
</g>
</svg>
