<svg width="69" height="93" viewBox="0 0 69 93" fill="none" xmlns="http://www.w3.org/2000/svg">
<path fill-rule="evenodd" clip-rule="evenodd" d="M0 34.2635C0 15.3544 15.4604 0 34.5 0C53.5396 0 69 15.3544 69 34.2635C69 44.7414 60.5089 59.0626 52.1471 71.0581C43.7852 83.0535 35.4289 92.5803 35.4289 92.5803C35.1949 92.847 34.8562 93 34.5 93C34.1438 93 33.8051 92.847 33.5711 92.5803C33.5711 92.5803 25.2148 83.0535 16.8529 71.0581C8.49107 59.0626 0 44.7414 0 34.2635ZM66.5357 34.2635C66.5357 16.677 52.2078 2.44739 34.5 2.44739C16.7922 2.44739 2.46429 16.677 2.46429 34.2635C2.46429 43.3648 10.6071 57.8004 18.8792 69.6671C26.4087 80.4684 33.2079 88.369 34.5 89.8605C35.7921 88.369 42.5913 80.4684 50.1208 69.6671C58.3929 57.8004 66.5357 43.3648 66.5357 34.2635ZM34.5 8.56588C20.2167 8.56588 8.625 20.0782 8.625 34.2635C8.625 48.4489 20.2167 59.9611 34.5 59.9611C48.5702 59.9611 60.0056 48.7841 60.3437 34.8897C60.3489 34.6711 60.2363 34.4663 60.0482 34.3525C59.8602 34.2387 59.6253 34.2333 59.4321 34.3382C59.2388 34.4431 59.1167 34.6424 59.1116 34.861C58.7893 48.1058 47.9139 58.7374 34.5 58.7374C20.8826 58.7374 9.85714 47.7876 9.85714 34.2635C9.85714 20.7395 20.8826 9.78957 34.5 9.78957C38.629 9.78957 42.507 10.808 45.919 12.5931C46.1146 12.7043 46.3558 12.7006 46.5479 12.5833C46.7399 12.466 46.8521 12.2539 46.8404 12.0303C46.8287 11.8067 46.695 11.6073 46.4917 11.5104C42.9101 9.63659 38.8333 8.56588 34.5 8.56588ZM48.8559 13.8939C48.9302 13.6438 49.1559 13.468 49.4181 13.4559C49.5634 13.4486 49.7066 13.4926 49.8224 13.5802C51.7633 15.0065 53.4948 16.6957 54.9675 18.5945C55.1168 18.7661 55.1583 19.0057 55.0753 19.217C54.9923 19.4283 54.7984 19.5766 54.5715 19.6025C54.3446 19.6283 54.1219 19.5273 53.9929 19.3401C52.5898 17.5311 50.9375 15.9237 49.0884 14.5649C48.8749 14.4132 48.7815 14.1439 48.8559 13.8939ZM34.5072 18.3555C34.2545 18.3542 34.0075 18.4301 33.7997 18.5729L21.6323 26.9381C21.5231 26.9916 21.4226 27.0608 21.3339 27.1436L17.7818 29.5862C17.4038 29.8282 17.1885 30.2555 17.2201 30.701C17.2518 31.1466 17.5253 31.5397 17.9339 31.7265C18.3424 31.9134 18.8209 31.8644 19.1824 31.5986L20.9464 30.3869V47.7242C20.9465 48.4 21.4981 48.9478 22.1786 48.9479H46.8214C47.5019 48.9478 48.0535 48.4 48.0536 47.7242V30.3869L49.8176 31.5986C50.1791 31.8644 50.6576 31.9134 51.0661 31.7265C51.4747 31.5397 51.7482 31.1466 51.7799 30.701C51.8115 30.2555 51.5962 29.8282 51.2182 29.5862L47.6589 27.1388C47.5719 27.0592 47.4739 26.9923 47.3677 26.9404L44.3571 24.8683V20.8028C44.3617 20.4721 44.2312 20.1536 43.9955 19.9199C43.7597 19.6862 43.4388 19.5573 43.1057 19.5624C42.4262 19.573 41.8835 20.1279 41.8929 20.8028V23.1738L35.2003 18.5729C34.9965 18.4329 34.755 18.3571 34.5072 18.3555ZM42.2899 26.4218L34.5 21.0681L23.4107 28.6923V46.5005H29.5714V37.3228C29.5715 36.9849 29.8473 36.7109 30.1875 36.7109H38.8125C39.1527 36.7109 39.4285 36.9849 39.4286 37.3228V46.5005H45.5893V28.6923L42.5763 26.6202C42.4719 26.5679 42.3754 26.5011 42.2899 26.4218ZM56.8615 22.0194C56.6439 22.0186 56.4421 22.1318 56.3305 22.3173C56.2188 22.5027 56.214 22.7329 56.3176 22.9228C56.9214 24.0673 57.4398 25.2624 57.8578 26.5031C57.9185 26.7212 58.0955 26.8882 58.3179 26.9374C58.5403 26.9865 58.7719 26.9097 58.92 26.7376C59.068 26.5656 59.1084 26.3265 59.0249 26.1159C58.5854 24.8112 58.0434 23.5541 57.4102 22.354C57.3052 22.1489 57.0932 22.0196 56.8615 22.0194ZM38.1964 46.5005V37.9346H30.8036V46.5005H38.1964Z" fill="black"/>
</svg>
