<?xml version="1.0" encoding="utf-8"?>
<!-- Generator: Adobe Illustrator 16.0.0, SVG Export Plug-In . SVG Version: 6.00 Build 0)  -->
<!DOCTYPE svg PUBLIC "-//W3C//DTD SVG 1.1//EN" "http://www.w3.org/Graphics/SVG/1.1/DTD/svg11.dtd">
<svg version="1.1" id="Layer_1" xmlns="http://www.w3.org/2000/svg" xmlns:xlink="http://www.w3.org/1999/xlink" x="0px" y="0px"
	 width="24px" height="24px" viewBox="0 0 24 24" enable-background="new 0 0 24 24" xml:space="preserve">
<path d="M14,2H6C4.9,2,4,2.9,4,4v16c0,1.1,0.9,2,2,2h12c1.1,0,2-0.9,2-2V8L14,2z M13,9V3.5L18.5,9H13z"/>
<g>
	<path fill="#FFFFFF" d="M7.814,15.074c0-0.396-0.274-0.632-0.758-0.632c-0.197,0-0.33,0.021-0.401,0.038v1.268
		c0.083,0.019,0.185,0.025,0.325,0.025C7.496,15.773,7.814,15.513,7.814,15.074z"/>
	<path fill="#FFFFFF" d="M10.805,14.456c-0.216,0-0.356,0.019-0.438,0.038v2.805c0.083,0.021,0.217,0.021,0.337,0.021
		c0.878,0.006,1.451-0.478,1.451-1.502C12.161,14.928,11.639,14.456,10.805,14.456z"/>
	<path fill="#FFFFFF" d="M5.695,13.801c0.299-0.051,0.719-0.088,1.311-0.088c0.598,0,1.024,0.113,1.311,0.343
		c0.273,0.216,0.458,0.572,0.458,0.991c0,0.421-0.141,0.776-0.395,1.019c-0.33,0.312-0.82,0.452-1.392,0.452
		c-0.128,0-0.243-0.007-0.332-0.02v1.533h-0.96V13.801z M5.837,19.887H17.98c0.563,0,1.02-0.456,1.02-1.02v-6.182
		c0-0.564-0.457-1.02-1.02-1.02H5.837h-1.55H4.041c-0.563,0-1.02,0.456-1.02,1.02v6.182c0,0.563,0.457,1.02,1.02,1.02h0.247H5.837z
		 M9.394,18.012v-4.211c0.355-0.057,0.82-0.088,1.31-0.088c0.815,0,1.342,0.145,1.756,0.457c0.446,0.331,0.725,0.858,0.725,1.615
		c0,0.821-0.299,1.388-0.712,1.737c-0.452,0.375-1.139,0.554-1.979,0.554C9.991,18.075,9.635,18.044,9.394,18.012z M16.335,15.519
		v0.788h-1.539v1.725h-0.973v-4.287h2.621v0.794h-1.648v0.98H16.335z"/>
</g>
</svg>
