<?xml version="1.0" encoding="utf-8"?>
<!-- Generator: Adobe Illustrator 16.0.0, SVG Export Plug-In . SVG Version: 6.00 Build 0)  -->
<!DOCTYPE svg PUBLIC "-//W3C//DTD SVG 1.1//EN" "http://www.w3.org/Graphics/SVG/1.1/DTD/svg11.dtd">
<svg version="1.1" id="Layer_1" xmlns="http://www.w3.org/2000/svg" xmlns:xlink="http://www.w3.org/1999/xlink" x="0px" y="0px"
	 width="24px" height="24px" viewBox="0 0 24 24" enable-background="new 0 0 24 24" xml:space="preserve">
<path display="none" fill="none" d="M0,0h24v24H0V0z"/>
<path d="M6.05,8.88L1.5,13.43h3.07c0.49,3.939,3.85,7,7.93,7s7.439-3.05,7.93-7h-2.02c-0.48,2.84-2.94,5-5.91,5s-5.43-2.16-5.91-5
	h3.91L6.05,8.88z M11.5,4.5c-1.39,0.17-2.73,0.72-3.89,1.619l1.42,1.42C9.78,7,10.63,6.66,11.5,6.52V4.5z M18.4,11.43h2.02
	c-0.17-1.391-0.71-2.74-1.609-3.9l-1.44,1.44C17.91,9.72,18.26,10.56,18.4,11.43z M15.98,7.539l1.41-1.42
	C16.23,5.22,14.891,4.67,13.5,4.5v2.02C14.37,6.66,15.22,7,15.98,7.539z"/>
</svg>
