<?xml version="1.0" encoding="utf-8"?>
<!-- Generator: Adobe Illustrator 19.0.0, SVG Export Plug-In . SVG Version: 6.00 Build 0)  -->
<!DOCTYPE svg PUBLIC "-//W3C//DTD SVG 1.1//EN" "http://www.w3.org/Graphics/SVG/1.1/DTD/svg11.dtd">
<svg version="1.1" id="Layer_1" xmlns="http://www.w3.org/2000/svg" xmlns:xlink="http://www.w3.org/1999/xlink" x="0px" y="0px"
	 width="24px" height="24px" viewBox="0 0 24 24" style="enable-background:new 0 0 24 24;" xml:space="preserve">
<g id="XMLID_183_">
	<path id="XMLID_186_" d="M9.2,11.9c0.2-0.2,0-0.6-0.3-0.6H7.6c0-0.3,0.1-0.5,0.2-0.8c0,0,0,0,0,0C8,9.7,8.5,9.1,9.1,8.6l0,0
		c0.2-0.2,0.4-0.3,0.6-0.4c0,0,0.1,0,0.1,0C10,8,10.2,7.9,10.4,7.8c0,0,0.1,0,0.1,0c0.2-0.1,0.4-0.1,0.7-0.2c0,0,0.1,0,0.1,0
		c0.2,0,0.5-0.1,0.8-0.1c1.5,0,2.8,0.8,3.7,1.9l0,0l0.7-0.9l0.2-0.3l0,0C15.6,6.9,13.9,6,12,6c-3.3,0-6,2.7-6,6c0,0.2,0,0.4,0,0.6
		c0,0.1,0,0.2,0,0.3c0,0,0,0.1,0,0.1c0,0,0,0.1,0,0.1c0,0.2,0.1,0.4,0.2,0.6c0,0,0,0.1,0,0.1c0,0.1,0.1,0.1,0.1,0.2
		c0,0.1,0,0.1,0.1,0.2c0.1,0.2,0.2,0.4,0.3,0.6l1.1-1.3L9.2,11.9z"/>
	<path id="XMLID_187_" d="M18,11.4c0-0.1,0-0.2,0-0.3c0,0,0-0.1,0-0.1c0,0,0-0.1,0-0.1c0-0.2-0.1-0.4-0.2-0.6c0,0,0-0.1,0-0.1
		c0-0.1-0.1-0.1-0.1-0.2c0-0.1,0-0.1-0.1-0.2c-0.1-0.2-0.2-0.4-0.3-0.6l-1.1,1.3l-1.4,1.7c-0.2,0.2,0,0.6,0.3,0.6h1.4
		c0,0.3-0.1,0.5-0.2,0.8c0,0,0,0,0,0c-0.3,0.7-0.7,1.4-1.3,1.9l0,0c-0.2,0.2-0.4,0.3-0.6,0.4c0,0-0.1,0-0.1,0
		c-0.2,0.1-0.4,0.2-0.6,0.3c0,0-0.1,0-0.1,0c-0.2,0.1-0.4,0.1-0.7,0.2c0,0-0.1,0-0.1,0c-0.2,0-0.5,0.1-0.8,0.1
		c-1.5,0-2.8-0.8-3.7-1.9l0,0l-0.7,0.9l-0.2,0.3l0,0C8.4,17.1,10.1,18,12,18c3.3,0,6-2.7,6-6C18,11.8,18,11.6,18,11.4z"/>
	<path id="XMLID_218_" d="M12,2C6.5,2,2,6.5,2,12s4.5,10,10,10c5.5,0,10-4.5,10-10S17.5,2,12,2z M12,20c-4.4,0-8-3.6-8-8s3.6-8,8-8
		c4.4,0,8,3.6,8,8S16.4,20,12,20z"/>
</g>
</svg>
