<?xml version="1.0" encoding="utf-8"?>
<svg xmlns="http://www.w3.org/2000/svg" viewBox="0 0 80 80" fill="#7c9196"><path d="M 6 14 L 6 66 L 74 66 L 74 14 Z M 8 16 L 72 16 L 72 64 L 8 64 Z M 13 19 C 12.449219 19 12 19.449219 12 20 C 12 20.550781 12.449219 21 13 21 C 13.550781 21 14 20.550781 14 20 C 14 19.449219 13.550781 19 13 19 Z M 13 23 C 12.449219 23 12 23.449219 12 24 C 12 24.550781 12.449219 25 13 25 C 13.550781 25 14 24.550781 14 24 C 14 23.449219 13.550781 23 13 23 Z M 65.308594 25.015625 L 59.523438 30.589844 L 56.71875 27.710938 L 55.28125 29.109375 L 59.480469 33.410156 L 66.691406 26.453125 Z M 13 27 C 12.449219 27 12 27.449219 12 28 C 12 28.550781 12.449219 29 13 29 C 13.550781 29 14 28.550781 14 28 C 14 27.449219 13.550781 27 13 27 Z M 20 29 L 20 31 L 49 31 L 49 29 Z M 13 31 C 12.449219 31 12 31.449219 12 32 C 12 32.550781 12.449219 33 13 33 C 13.550781 33 14 32.550781 14 32 C 14 31.449219 13.550781 31 13 31 Z M 13 35 C 12.449219 35 12 35.449219 12 36 C 12 36.550781 12.449219 37 13 37 C 13.550781 37 14 36.550781 14 36 C 14 35.449219 13.550781 35 13 35 Z M 65.308594 35.015625 L 59.523438 40.589844 L 56.71875 37.710938 L 55.28125 39.109375 L 59.480469 43.410156 L 66.691406 36.453125 Z M 13 39 C 12.449219 39 12 39.449219 12 40 C 12 40.550781 12.449219 41 13 41 C 13.550781 41 14 40.550781 14 40 C 14 39.449219 13.550781 39 13 39 Z M 20 39 L 20 41 L 49 41 L 49 39 Z M 13 43 C 12.449219 43 12 43.449219 12 44 C 12 44.550781 12.449219 45 13 45 C 13.550781 45 14 44.550781 14 44 C 14 43.449219 13.550781 43 13 43 Z M 65.308594 45.015625 L 59.523438 50.589844 L 56.71875 47.710938 L 55.28125 49.109375 L 59.480469 53.410156 L 66.691406 46.453125 Z M 13 47 C 12.449219 47 12 47.449219 12 48 C 12 48.550781 12.449219 49 13 49 C 13.550781 49 14 48.550781 14 48 C 14 47.449219 13.550781 47 13 47 Z M 20 49 L 20 51 L 49 51 L 49 49 Z M 13 51 C 12.449219 51 12 51.449219 12 52 C 12 52.550781 12.449219 53 13 53 C 13.550781 53 14 52.550781 14 52 C 14 51.449219 13.550781 51 13 51 Z M 13 55 C 12.449219 55 12 55.449219 12 56 C 12 56.550781 12.449219 57 13 57 C 13.550781 57 14 56.550781 14 56 C 14 55.449219 13.550781 55 13 55 Z M 13 59 C 12.449219 59 12 59.449219 12 60 C 12 60.550781 12.449219 61 13 61 C 13.550781 61 14 60.550781 14 60 C 14 59.449219 13.550781 59 13 59 Z" fill="#7c9196"/></svg>
