<?xml version="1.0" encoding="UTF-8"?>
<svg width="18px" height="20px" viewBox="0 0 18 20" version="1.1" xmlns="http://www.w3.org/2000/svg" xmlns:xlink="http://www.w3.org/1999/xlink">
    <!-- Generator: Sketch 51.1 (57501) - http://www.bohemiancoding.com/sketch -->
    <title>Shape@1x</title>
    <desc>Created with Sketch.</desc>
    <defs></defs>
    <g id="Icons---Left-Nav" stroke="none" stroke-width="1" fill="none" fill-rule="evenodd">
        <g id="ic-resource-center-black" transform="translate(-15.000000, -14.000000)" fill="#222222" fill-rule="nonzero">
            <path d="M17,14 L17,17 L15,17 L15,19 L19,19 L19,20 L17,20 L17,22 L15,22 L15,24 L19,24 L19,25 L17,25 L17,27 L15,27 L15,29 L19,29 L19,30 L17,30 L17,34 L31,34 C32.101563,34 33,33.101563 33,32 L33,16 C33,14.898438 32.101563,14 31,14 L17,14 Z M25,18 L27,18 L27,20 L25,20 L25,18 Z M27,28 L28,28 L28,29 L24,29 L24,28 L25,28 L25,23 L24,23 L24,22 L25,22 L27,22 L27,28 Z" id="Shape"></path>
        </g>
    </g>
</svg>