<?xml version="1.0" encoding="utf-8"?>
<!-- Generator: Adobe Illustrator 19.0.0, SVG Export Plug-In . SVG Version: 6.00 Build 0)  -->
<!DOCTYPE svg PUBLIC "-//W3C//DTD SVG 1.1//EN" "http://www.w3.org/Graphics/SVG/1.1/DTD/svg11.dtd">
<svg version="1.1" id="Layer_1" xmlns="http://www.w3.org/2000/svg" xmlns:xlink="http://www.w3.org/1999/xlink" x="0px" y="0px"
	 width="24px" height="24px" viewBox="0 0 24 24" style="enable-background:new 0 0 24 24;" xml:space="preserve">
<g>
	<path d="M14.8,14.6c0.1-0.3,0.1-0.5,0.1-0.7v-9C14.8,3.2,13.6,2,12,2S9.2,3.2,9.2,4.8v9c0,0.2,0,0.5,0.1,0.7c-1,0.8-1.5,2-1.5,3.3
		c0,2.3,1.9,4.2,4.2,4.2s4.2-1.9,4.2-4.2C16.3,16.5,15.7,15.4,14.8,14.6z M12,3.9c0.5,0,0.9,0.4,0.9,0.9v4.5c-0.6-0.1-1.3-0.1-1.8,0
		V4.8C11.1,4.3,11.6,3.9,12,3.9z"/>
</g>
</svg>
