<?xml version="1.0" encoding="UTF-8" standalone="no"?>
<svg width="25px" height="16px" viewBox="0 0 25 16" version="1.1" xmlns="http://www.w3.org/2000/svg" xmlns:xlink="http://www.w3.org/1999/xlink">
    <!-- Generator: Sketch 42 (36781) - http://www.bohemiancoding.com/sketch -->
    <title>schedule</title>
    <desc>Created with Sketch.</desc>
    <defs></defs>
    <g stroke="none" stroke-width="1" fill="none" fill-rule="evenodd">
        <g fill-rule="nonzero" fill="#000000">
            <polygon points="8 7 5 7 5 4 3 4 3 7 0 7 0 9 3 9 3 12 5 12 5 9 8 9"></polygon>
            <path d="M21.8888889,8.8 L18,8.8 L18,12.8 L21.8888889,12.8 L21.8888889,8.8 Z M21.1111111,0 L21.1111111,1.6 L14.8888889,1.6 L14.8888889,0 L13.3333333,0 L13.3333333,1.6 L12.5555556,1.6 C11.6922222,1.6 11.0077778,2.32 11.0077778,3.2 L11,14.4 C11,15.28 11.6922222,16 12.5555556,16 L23.4444444,16 C24.3,16 25,15.28 25,14.4 L25,3.2 C25,2.32 24.3,1.6 23.4444444,1.6 L22.6666667,1.6 L22.6666667,0 L21.1111111,0 Z M23.4444444,14.4 L12.5555556,14.4 L12.5555556,5.6 L23.4444444,5.6 L23.4444444,14.4 Z"></path>
        </g>
    </g>
</svg>