<?xml version="1.0" encoding="utf-8"?>
<!-- Generator: Adobe Illustrator 16.0.0, SVG Export Plug-In . SVG Version: 6.00 Build 0)  -->
<!DOCTYPE svg PUBLIC "-//W3C//DTD SVG 1.1//EN" "http://www.w3.org/Graphics/SVG/1.1/DTD/svg11.dtd">
<svg version="1.1" id="Layer_1" xmlns="http://www.w3.org/2000/svg" xmlns:xlink="http://www.w3.org/1999/xlink" x="0px" y="0px"
	 width="24px" height="24px" viewBox="0 0 24 24" enable-background="new 0 0 24 24" xml:space="preserve">
<path d="M9.31,17l2.44-2.439L14.189,17l1.061-1.061L12.811,13.5l2.439-2.44L14.189,10l-2.439,2.44L9.31,10l-1.06,1.06l2.44,2.44
	l-2.44,2.439L9.31,17z M19,3h-1V1h-2v2H8V1H6v2H5C3.89,3,3.01,3.9,3.01,5L3,19c0,1.1,0.89,2,2,2h14c1.1,0,2-0.9,2-2V5
	C21,3.9,20.1,3,19,3z M19,19H5V8h14V19z"/>
</svg>
