<?xml version="1.0" encoding="utf-8"?>
<!-- Generator: Adobe Illustrator 16.0.0, SVG Export Plug-In . SVG Version: 6.00 Build 0)  -->
<!DOCTYPE svg PUBLIC "-//W3C//DTD SVG 1.1//EN" "http://www.w3.org/Graphics/SVG/1.1/DTD/svg11.dtd">
<svg version="1.1" id="Layer_1" xmlns="http://www.w3.org/2000/svg" xmlns:xlink="http://www.w3.org/1999/xlink" x="0px" y="0px"
	 width="24px" height="24px" viewBox="0 0 24 24" enable-background="new 0 0 24 24" xml:space="preserve">
<path display="none" fill="none" d="M0,0h24v24H0V0z"/>
<g id="Layer_2">
	<circle fill="#020400" cx="7.5" cy="10.491" r="0.5"/>
	<circle fill="#020400" cx="10.5" cy="10.491" r="0.5"/>
	<circle fill="#020400" cx="13.501" cy="10.491" r="0.5"/>
	<circle fill="#020400" cx="4.5" cy="13.492" r="0.5"/>
	<circle fill="#020400" cx="7.5" cy="13.492" r="0.5"/>
	<circle fill="#020400" cx="10.5" cy="13.492" r="0.5"/>
	<circle fill="#020400" cx="13.501" cy="13.492" r="0.5"/>
	<circle fill="#020400" cx="19.501" cy="13.492" r="0.5"/>
	<circle fill="#020400" cx="16.5" cy="10.491" r="0.5"/>
	<circle fill="#020400" cx="19.501" cy="10.491" r="0.5"/>
	<circle fill="#020400" cx="4.5" cy="16.494" r="0.5"/>
	<circle fill="#020400" cx="7.5" cy="16.494" r="0.5"/>
	<circle fill="#020400" cx="10.5" cy="16.494" r="0.5"/>
	<circle fill="#020400" cx="13.501" cy="16.494" r="0.5"/>
	<circle fill="#020400" cx="16.5" cy="16.494" r="0.5"/>
	<circle fill="#020400" cx="19.501" cy="16.494" r="0.5"/>
	<circle fill="#020400" cx="4.5" cy="19.496" r="0.5"/>
	<circle fill="#020400" cx="7.5" cy="19.496" r="0.5"/>
	<circle fill="#020400" cx="10.5" cy="19.496" r="0.5"/>
	<circle fill="#020400" cx="13.501" cy="19.496" r="0.5"/>
	<path fill="#020400" d="M16.5,14.993c0.829,0,1.501-0.672,1.501-1.501c0-0.828-0.672-1.5-1.501-1.5c-0.828,0-1.5,0.672-1.5,1.5
		C15,14.321,15.672,14.993,16.5,14.993z M16.5,12.992c0.276,0,0.501,0.225,0.501,0.5c0,0.276-0.225,0.5-0.501,0.5
		c-0.275,0-0.499-0.224-0.499-0.5C16.001,13.217,16.225,12.992,16.5,12.992z"/>
	<path fill="#020400" d="M22.001,1.998h-1v-0.5c0-0.829-0.672-1.501-1.5-1.501c-0.829,0-1.5,0.672-1.5,1.501v0.5H6v-0.5
		c0-0.829-0.672-1.501-1.5-1.501C3.672-0.003,3,0.669,3,1.498v0.5H2c-1.104,0-2,0.896-2,2.001v1.99v1v15.006
		c0,1.105,0.896,2.001,2,2.001h20c1.104,0,1.999-0.896,1.999-2.001V6.99v-1v-1.99C24.001,2.894,23.105,1.998,22.001,1.998z
		 M19.001,2.999v-1v-0.5c0-0.276,0.224-0.5,0.5-0.5c0.275,0,0.5,0.224,0.5,0.5v0.5v1v0.5c0,0.276-0.225,0.5-0.5,0.5
		c-0.276,0-0.5-0.224-0.5-0.5V2.999z M4,2.999v-1v-0.5c0-0.276,0.224-0.5,0.5-0.5c0.276,0,0.5,0.224,0.5,0.5v0.5v1v0.5
		c0,0.276-0.224,0.5-0.5,0.5c-0.276,0-0.5-0.224-0.5-0.5V2.999z M23.001,21.996c0,0.553-0.447,1-1,1H2c-0.553,0-1-0.447-1-1V6.99
		h22.001V21.996z M23.001,5.989H1v-1.99c0-0.553,0.447-1,1-1h1v0.5c0,0.829,0.671,1.5,1.5,1.5c0.828,0,1.5-0.672,1.5-1.5v-0.5h12
		v0.5c0,0.829,0.671,1.5,1.5,1.5c0.828,0,1.5-0.672,1.5-1.5v-0.5h1c0.553,0,1,0.448,1,1V5.989L23.001,5.989z"/>
</g>
</svg>
