<?xml version="1.0" encoding="UTF-8"?>
<svg width="13px" height="17px" viewBox="0 0 13 17" version="1.1" xmlns="http://www.w3.org/2000/svg" xmlns:xlink="http://www.w3.org/1999/xlink">
    <!-- Generator: Sketch 50.2 (55047) - http://www.bohemiancoding.com/sketch -->
    <title>sort</title>
    <desc>Created with Sketch.</desc>
    <defs></defs>
    <g stroke="none" stroke-width="1" fill="none" fill-rule="evenodd">
        <g fill-rule="nonzero">
            <path d="M12.4694872,12.0196973 L10.9704745,12.0196973 L10.9704745,2.55667383 C10.9704745,2.28138672 10.7546148,2.05862695 10.4796582,2.05862695 L8.48982908,2.05862695 C8.21487245,2.05862695 7.9923801,2.28138672 7.9923801,2.55667383 L7.9923801,12.0196641 L6.5,12.0196641 C6.09033418,12.0196641 5.85676531,12.4894883 6.10214031,12.8163398 L9.08690051,16.8007812 C9.28551531,17.0666055 9.68430357,17.066207 9.8826199,16.8007812 L12.8673469,12.816373 C13.1124566,12.4898535 12.8794515,12.0196973 12.4694872,12.0196973 Z" fill="#000000"></path>
            <path d="M6.46283364,10.4610703 L4.46845126,10.4610703 L4.46845126,0.5 L2.49035686,0.5 L2.49035686,10.4610371 L0.502607421,10.4610371 L3.48273672,14.4392973 L6.46283364,10.4610703 Z" stroke="#000000" transform="translate(3.482688, 7.470687) scale(1, -1) translate(-3.482688, -7.470687) "></path>
        </g>
    </g>
</svg>