<?xml version="1.0" encoding="utf-8"?>
<!-- Generator: Adobe Illustrator 23.0.1, SVG Export Plug-In . SVG Version: 6.00 Build 0)  -->
<svg version="1.1" id="Layer_1" xmlns="http://www.w3.org/2000/svg" xmlns:xlink="http://www.w3.org/1999/xlink" x="0px" y="0px"
	 width="24px" height="24px" viewBox="0 0 24 24" style="enable-background:new 0 0 24 24;" xml:space="preserve">
<g>
	<path d="M16.6,15.8c0.4-0.6,0.6-1.3,0.6-2.1c0-2.2-1.8-4-4-4s-4,1.8-4,4s1.8,4,4,4c0.8,0,1.5-0.2,2.1-0.6l2.7,2.7l1.3-1.3
		L16.6,15.8z M13.3,15.9c-1.2,0-2.2-1-2.2-2.2c0-1.2,1-2.2,2.2-2.2s2.2,1,2.2,2.2C15.5,14.9,14.5,15.9,13.3,15.9z"/>
	<path d="M8.8,14.2H6V4.9h4.1v5.7c0.2-0.2,0.5-0.4,0.8-0.6V4.9h0.5V3.5H4.6v1.4h0.5v12.7c0,1.6,1.3,2.9,2.9,2.9
		c1.6,0,2.9-1.3,2.9-2.9v-0.1C9.7,16.8,8.9,15.6,8.8,14.2z"/>
</g>
</svg>
