<?xml version="1.0" encoding="utf-8"?>
<!-- Generator: Adobe Illustrator 16.0.0, SVG Export Plug-In . SVG Version: 6.00 Build 0)  -->
<!DOCTYPE svg PUBLIC "-//W3C//DTD SVG 1.1//EN" "http://www.w3.org/Graphics/SVG/1.1/DTD/svg11.dtd">
<svg version="1.1" id="Layer_1" xmlns="http://www.w3.org/2000/svg" xmlns:xlink="http://www.w3.org/1999/xlink" x="0px" y="0px"
	 width="24px" height="24px" viewBox="0 0 24 24" enable-background="new 0 0 24 24" xml:space="preserve">
<path display="none" fill="none" d="M0.574,1.5h25.428v25.428H0.574V1.5z"/>
<rect x="1.5" y="4.5" width="12" height="9"/>
<circle cx="7.141" cy="18.874" r="1.937"/>
<path d="M22.941,14.473v-3.726l-3.436-4.791h-4.725v8.516H0.5v2.838h3.955c0.175-1.216,1.31-2.158,2.698-2.158
	c1.389,0,2.524,0.942,2.699,2.158h4.759h0.974c0.223-1.124,1.338-1.981,2.687-1.981s2.463,0.857,2.687,1.981h2.227h0.777v-2.838
	H22.941z M16.006,10.211l-0.03-3.309h2.839l2.21,3.341L16.006,10.211z"/>
<circle cx="18.362" cy="18.874" r="1.937"/>
</svg>
