<?xml version="1.0" encoding="utf-8"?>
<!-- Generator: Adobe Illustrator 19.0.0, SVG Export Plug-In . SVG Version: 6.00 Build 0)  -->
<!DOCTYPE svg PUBLIC "-//W3C//DTD SVG 1.1//EN" "http://www.w3.org/Graphics/SVG/1.1/DTD/svg11.dtd">
<svg version="1.1" id="Layer_1" xmlns="http://www.w3.org/2000/svg" xmlns:xlink="http://www.w3.org/1999/xlink" x="0px" y="0px"
	 width="24px" height="24px" viewBox="0 0 24 24" style="enable-background:new 0 0 24 24;" xml:space="preserve">
<path d="M7,7V5H5v17h14V5h-2v2H7 M9,3c0-1.7,1.3-3,3-3s3,1.3,3,3h4c1.1,0,2,0.9,2,2v17c0,1.1-0.9,2-2,2H5c-1.1,0-2-0.9-2-2V5
	c0-1.1,0.9-2,2-2H9 M12,2c-0.6,0-1,0.4-1,1s0.4,1,1,1s1-0.4,1-1S12.6,2,12,2z"/>
<g>
	<rect x="7.1" y="9" width="9.8" height="2"/>
	<rect x="7.1" y="13" width="9.8" height="2"/>
</g>
</svg>
