<?xml version="1.0" encoding="utf-8"?>
<!-- Generator: Adobe Illustrator 16.0.0, SVG Export Plug-In . SVG Version: 6.00 Build 0)  -->
<!DOCTYPE svg PUBLIC "-//W3C//DTD SVG 1.1//EN" "http://www.w3.org/Graphics/SVG/1.1/DTD/svg11.dtd">
<svg version="1.1" id="Layer_1" xmlns="http://www.w3.org/2000/svg" xmlns:xlink="http://www.w3.org/1999/xlink" x="0px" y="0px"
	 width="24px" height="24px" viewBox="0 0 24 24" enable-background="new 0 0 24 24" xml:space="preserve">
<path display="none" fill="none" d="M0,0h24v24H0V0z"/>
<polygon points="23.894,12.083 19.957,8.146 19.957,11.164 18.988,11.161 18.988,11.151 16.846,11.153 16.178,11.151 16.178,11.154 
	13.01,11.156 13.002,4.209 16.021,4.209 12.083,0.272 8.146,4.209 11.164,4.209 11.157,11.158 4.209,11.164 4.209,8.146 
	0.272,12.083 4.209,16.02 4.209,13.002 11.155,13.008 11.152,16.178 11.151,16.178 11.152,16.362 11.151,16.988 11.154,16.988 
	11.164,19.957 8.146,19.957 12.083,23.894 16.021,19.956 13.002,19.957 13.013,16.988 13.016,16.988 13.015,16.362 13.016,16.178 
	13.015,16.178 13.012,13.01 16.178,13.012 16.178,13.015 16.75,13.013 18.988,13.015 18.988,13.005 19.957,13.002 19.957,16.02 "/>
</svg>
