<?xml version="1.0" encoding="utf-8"?>
<!-- Generator: Adobe Illustrator 16.0.0, SVG Export Plug-In . SVG Version: 6.00 Build 0)  -->
<!DOCTYPE svg PUBLIC "-//W3C//DTD SVG 1.1//EN" "http://www.w3.org/Graphics/SVG/1.1/DTD/svg11.dtd">
<svg version="1.1" id="Layer_1" xmlns="http://www.w3.org/2000/svg" xmlns:xlink="http://www.w3.org/1999/xlink" x="0px" y="0px"
	 width="24px" height="24px" viewBox="0 0 24 24" enable-background="new 0 0 24 24" xml:space="preserve">
<path d="M12,7c2.76,0,5,2.24,5,5c0,0.65-0.13,1.26-0.359,1.83l2.92,2.92c1.51-1.26,2.699-2.891,3.43-4.75c-1.73-4.39-6-7.5-11-7.5
	c-1.4,0-2.74,0.25-3.98,0.7l2.16,2.16C10.74,7.13,11.35,7,12,7z M2,4.27l2.28,2.28l0.46,0.46C3.08,8.3,1.78,10.02,1,12
	c1.73,4.391,6,7.5,11,7.5c1.55,0,3.029-0.3,4.38-0.84l0.42,0.42L19.73,22L21,20.73L3.27,3L2,4.27z M7.53,9.8l1.55,1.55
	C9.03,11.56,9,11.78,9,12c0,1.66,1.34,3,3,3c0.22,0,0.44-0.03,0.65-0.08l1.55,1.55C13.529,16.8,12.79,17,12,17c-2.76,0-5-2.24-5-5
	C7,11.21,7.2,10.47,7.53,9.8z M11.84,9.02l3.15,3.15l0.02-0.16c0-1.66-1.34-3-3-3L11.84,9.02z"/>
</svg>
