<?xml version="1.0" encoding="UTF-8"?>
<svg width="19px" height="17px" viewBox="0 0 19 17" version="1.1" xmlns="http://www.w3.org/2000/svg" xmlns:xlink="http://www.w3.org/1999/xlink">
    <!-- Generator: Sketch 51.3 (57544) - http://www.bohemiancoding.com/sketch -->
    <title>baseline-unsubscribe-24px</title>
    <desc>Created with Sketch.</desc>
    <defs></defs>
    <g stroke="none" stroke-width="1" fill="none" fill-rule="evenodd">
        <g fill="#000000" fill-rule="nonzero">
            <path d="M15.5,10 C13.57,10 12,11.57 12,13.5 C12,15.43 13.57,17 15.5,17 C17.43,17 19,15.43 19,13.5 C19,11.57 17.43,10 15.5,10 Z M17.5,14 L13.5,14 L13.5,13 L17.5,13 L17.5,14 Z M10.55,14 C10.53,13.83 10.5,13.67 10.5,13.5 C10.5,10.74 12.74,8.5 15.5,8.5 C16.42,8.5 17.26,8.76 18,9.19 L18,2 C18,0.9 17.1,0 16,0 L2,0 C0.9,0 0,0.9 0,2 L0,12 C0,13.1 0.9,14 2,14 L10.55,14 Z M9,7.5 L2,4 L2,2 L9,5.5 L16,2 L16,4 L9,7.5 Z"></path>
        </g>
    </g>
</svg>