<svg xmlns="http://www.w3.org/2000/svg" width="20" height="23" viewBox="0 0 20 23"><path d="M2,7H0V21a2,2,0,0,0,2,2H16V21H2Z"/><path d="M13.91,0H6.19A1.92,1.92,0,0,0,4.26,1.93V17.35a1.92,1.92,0,0,0,1.93,1.93H17.76a1.92,1.92,0,0,0,1.93-1.91V5.78ZM18,15.66a1.74,1.74,0,0,1-1.74,1.74H7.7A1.74,1.74,0,0,1,6,15.67H6v-12A1.74,1.74,0,0,1,7.75,2h6V5.78h3.92L18,6.2Z"/><path d="M8.43,16.45l.51-2.6H7.36V12.51H9.25l.31-1.63H7.9V9.53H9.83L10.32,7h1.74l-.49,2.53h1.77L13.85,7h1.74l-.51,2.53h1.56v1.35H14.81l-.32,1.63h1.62v1.34H14.2l-.48,2.6H12l.49-2.6H10.67l-.48,2.6Zm4.33-3.94.31-1.63H11.3L11,12.51Z"/></svg>