<?xml version="1.0" encoding="utf-8"?>
<!-- Generator: Adobe Illustrator 19.0.0, SVG Export Plug-In . SVG Version: 6.00 Build 0)  -->
<!DOCTYPE svg PUBLIC "-//W3C//DTD SVG 1.1//EN" "http://www.w3.org/Graphics/SVG/1.1/DTD/svg11.dtd">
<svg version="1.1" id="Layer_1" xmlns="http://www.w3.org/2000/svg" xmlns:xlink="http://www.w3.org/1999/xlink" x="0px" y="0px"
	 width="24px" height="24px" viewBox="0 0 24 24" style="enable-background:new 0 0 24 24;" xml:space="preserve">
<polygon points="9,11 6,11 6,8 4,8 4,11 1,11 1,13 4,13 4,16 6,16 6,13 9,13 "/>
<path d="M19.5,4.5h-6C12.7,4.5,12,5.2,12,6v12c0,0.8,0.7,1.5,1.5,1.5h9c0.8,0,1.5-0.7,1.5-1.5V9L19.5,4.5z M21,16.5h-6V15h6V16.5z
	 M21,13.5h-6V12h6V13.5z M18.8,9.7V5.6l4.1,4.1H18.8z"/>
</svg>
