<svg xmlns="http://www.w3.org/2000/svg" width="13" height="17" viewBox="0 0 13 17"><path d="M3.69,1.59a.25.25,0,0,0-.41,0L1.72,3.66a.26.26,0,0,0,.21.42h1v9.39a.26.26,0,0,0,.26.26h.7a.26.26,0,0,0,.26-.26V4.08H5a.26.26,0,0,0,.2-.42Z" fill="none"/><path d="M12.47,12H11V2.56a.49.49,0,0,0-.49-.5h-2a.5.5,0,0,0-.5.5V12H6.5a.5.5,0,0,0-.4.8l3,4a.49.49,0,0,0,.79,0l3-4A.5.5,0,0,0,12.47,12Z"/><path d="M6.87,4.18l-3-4a.5.5,0,0,0-.8,0l-3,4A.5.5,0,0,0,.5,5H2v9.46a.49.49,0,0,0,.49.5h2a.49.49,0,0,0,.49-.5V5h1.5A.5.5,0,0,0,6.87,4.18ZM5,4.08H4.1v9.39a.26.26,0,0,1-.26.26h-.7a.26.26,0,0,1-.26-.26V4.08H1.93a.26.26,0,0,1-.21-.42L3.28,1.59a.25.25,0,0,1,.41,0L5.24,3.66A.26.26,0,0,1,5,4.08Z"/></svg>