<?xml version="1.0" encoding="utf-8"?>
<!-- Generator: Adobe Illustrator 16.0.0, SVG Export Plug-In . SVG Version: 6.00 Build 0)  -->
<!DOCTYPE svg PUBLIC "-//W3C//DTD SVG 1.1//EN" "http://www.w3.org/Graphics/SVG/1.1/DTD/svg11.dtd">
<svg version="1.1" id="Layer_1" xmlns="http://www.w3.org/2000/svg" xmlns:xlink="http://www.w3.org/1999/xlink" x="0px" y="0px"
	 width="24px" height="24px" viewBox="0 0 24 24" enable-background="new 0 0 24 24" xml:space="preserve">
<path display="none" fill="none" d="M0,0h24v24H0V0z"/>
<path d="M20,2H8C6.9,2,6,2.9,6,4v12c0,1.1,0.9,2,2,2h12c1.1,0,2-0.9,2-2V4C22,2.9,21.1,2,20,2z M11.5,9.5c0,0.8-0.7,1.5-1.5,1.5H9v2
	H7.5V7H10c0.8,0,1.5,0.7,1.5,1.5V9.5z M16.5,11.5c0,0.8-0.7,1.5-1.5,1.5h-2.5V7H15c0.8,0,1.5,0.7,1.5,1.5V11.5z M20.5,8.5H19v1h1.5
	V11H19v2h-1.5V7h3V8.5z M9,9.5h1v-1H9V9.5z M4,6H2v14c0,1.1,0.9,2,2,2h14v-2H4V6z M14,11.5h1v-3h-1V11.5z"/>
</svg>
