<svg xmlns="http://www.w3.org/2000/svg" width="13" height="17" viewBox="0 0 13 17"><path d="M.53,5H2v9.46a.49.49,0,0,0,.49.5h2a.5.5,0,0,0,.5-.5V5H6.5a.5.5,0,0,0,.4-.8l-3-4a.49.49,0,0,0-.79,0l-3,4A.5.5,0,0,0,.53,5Z"/><path d="M9.31,15.41a.25.25,0,0,0,.41,0l1.56-2.07a.26.26,0,0,0-.21-.42h-1V3.53a.26.26,0,0,0-.26-.26h-.7a.26.26,0,0,0-.26.26v9.39H8a.26.26,0,0,0-.2.42Z" fill="none"/><path d="M6.13,12.82l3,4a.5.5,0,0,0,.8,0l3-4a.5.5,0,0,0-.4-.8H11V2.56a.49.49,0,0,0-.49-.5h-2a.49.49,0,0,0-.49.5V12H6.53A.5.5,0,0,0,6.13,12.82Zm1.83.1H8.9V3.53a.26.26,0,0,1,.26-.26h.7a.26.26,0,0,1,.26.26v9.39h1a.26.26,0,0,1,.21.42L9.72,15.41a.25.25,0,0,1-.41,0L7.76,13.34A.26.26,0,0,1,8,12.92Z"/></svg>