<svg xmlns="http://www.w3.org/2000/svg" width="24" height="24" viewBox="0 0 24 24"><path d="M14,2H6A2,2,0,0,0,4,4v7.67H18a1,1,0,0,1,1,1v6.19a1,1,0,0,1-1,1H4V20a2,2,0,0,0,2,2H18a2,2,0,0,0,2-2V8ZM13,9V3.5L18.5,9Z"/><path d="M6.66,18V16.5l.33,0a2,2,0,0,0,1.39-.45,1.41,1.41,0,0,0,.4-1,1.25,1.25,0,0,0-.46-1A2.07,2.07,0,0,0,7,13.71a7.85,7.85,0,0,0-1.31.09h0V18Zm0-3.55a1.55,1.55,0,0,1,.4,0c.48,0,.75.24.75.63s-.31.7-.83.7a1.42,1.42,0,0,1-.32,0Z"/><path d="M13.18,15.78a1.88,1.88,0,0,0-.72-1.61,2.76,2.76,0,0,0-1.76-.46,8.33,8.33,0,0,0-1.31.09V18a8.6,8.6,0,0,0,1.1.07,3.05,3.05,0,0,0,2-.56A2.15,2.15,0,0,0,13.18,15.78ZM10.7,17.32a1.62,1.62,0,0,1-.33,0V14.49a2,2,0,0,1,.43,0,1.24,1.24,0,0,1,1.36,1.36A1.33,1.33,0,0,1,10.7,17.32Z"/><polygon points="16.44 14.54 16.44 13.74 13.82 13.74 13.82 18.03 14.8 18.03 14.8 16.31 16.34 16.31 16.34 15.52 14.8 15.52 14.8 14.54 16.44 14.54"/></svg>