<?xml version="1.0" encoding="utf-8"?>
<!-- Generator: Adobe Illustrator 19.0.0, SVG Export Plug-In . SVG Version: 6.00 Build 0)  -->
<!DOCTYPE svg PUBLIC "-//W3C//DTD SVG 1.1//EN" "http://www.w3.org/Graphics/SVG/1.1/DTD/svg11.dtd">
<svg version="1.1" id="Layer_1" xmlns="http://www.w3.org/2000/svg" xmlns:xlink="http://www.w3.org/1999/xlink" x="0px" y="0px"
	 width="24px" height="24px" viewBox="0 0 24 24" style="enable-background:new 0 0 24 24;" xml:space="preserve">
<path d="M14.8,14.6c0.1-0.3,0.1-0.5,0.1-0.7v-9C14.8,3.2,13.6,2,12,2S9.2,3.2,9.2,4.8v9c0,0.2,0,0.5,0.1,0.7c-1,0.8-1.5,2-1.5,3.3
	c0,2.3,1.9,4.2,4.2,4.2s4.2-1.9,4.2-4.2C16.2,16.5,15.7,15.4,14.8,14.6z M11.1,15.3V4.8c0-0.5,0.4-0.9,0.9-0.9S13,4.3,13,4.8v10.5
	c1,0.3,1.7,1.3,1.7,2.4H9.5C9.5,16.6,10.2,15.7,11.1,15.3z"/>
</svg>
