<svg xmlns="http://www.w3.org/2000/svg" width="20" height="23" viewBox="0 0 20 23"><path d="M2,7H0V21a2,2,0,0,0,2,2H16V21H2Z"/><path d="M13.85,0H6.13A1.92,1.92,0,0,0,4.2,1.93V17.35a1.92,1.92,0,0,0,1.93,1.93H17.7a1.92,1.92,0,0,0,1.93-1.91V5.78Zm2.71,10.88H14.72l-.31,1.63H16v1.34H14.12l-.49,2.6H11.88l.48-2.6H10.59l-.49,2.6H8.35l.5-2.6H7.27V12.51h1.9l.31-1.63H7.82V9.53H9.75L10.24,7H12l-.49,2.53h1.78L13.77,7H15.5L15,9.53h1.57Zm-3-5.1V1.12l4.72,4.66Z" fill-rule="evenodd"/><polygon points="10.9 12.51 12.68 12.51 12.99 10.88 11.21 10.88 10.9 12.51" fill-rule="evenodd"/></svg>