<?xml version="1.0" encoding="utf-8"?>
<!-- Generator: Adobe Illustrator 19.0.0, SVG Export Plug-In . SVG Version: 6.00 Build 0)  -->
<!DOCTYPE svg PUBLIC "-//W3C//DTD SVG 1.1//EN" "http://www.w3.org/Graphics/SVG/1.1/DTD/svg11.dtd">
<svg version="1.1" id="Layer_1" xmlns="http://www.w3.org/2000/svg" xmlns:xlink="http://www.w3.org/1999/xlink" x="0px" y="0px"
	 width="24px" height="24px" viewBox="0 0 24 24" style="enable-background:new 0 0 24 24;" xml:space="preserve">
<g>
	<path d="M19.6,2.9c-0.2-0.2-0.5-0.4-0.9-0.4h-2c-0.2,0-0.4,0.2-0.4,0.4v0.8c0,0.2,0.2,0.4,0.4,0.4h1.6v2v1.1c0,1-0.6,1.8-1.1,2.6
		c-0.8,1.2-2.6,1.2-3.4,0c-0.5-0.8-1.1-1.6-1.1-2.6V6.1v-2h1.6c0.2,0,0.4-0.2,0.4-0.4V2.9c0-0.2-0.2-0.4-0.4-0.4h-2
		c-0.3,0-0.6,0.1-0.9,0.4C11.2,3.1,11,3.4,11,3.8v2.4v0.3c0,1.4,0.4,2.7,1.1,3.9c1.3,2.2,2.5,2.9,2.5,4c0,0.7,0,1.5,0,2.3
		c0,1.8-1.5,3.2-3.2,3.2h-0.8c-1.8,0-3.2-1.5-3.2-3.2v-2.9c1.2-0.3,2-1.4,2-2.7c0-1.6-1.3-2.8-2.8-2.8C5,8.2,3.8,9.5,3.8,11
		c0,1.3,0.9,2.4,2,2.7v2.9c0,2.7,2.2,4.9,4.9,4.9h0.8c2.7,0,4.9-2.2,4.9-4.9v-1.3c0-0.6,0-1.8,0.3-2.3c0.9-0.7,1.9-1.5,2.5-2.6
		c0.8-1.2,1-2.6,1-4V6.2V3.8C20,3.4,19.9,3.1,19.6,2.9 M5.1,11c0-0.8,0.7-1.5,1.5-1.5s1.5,0.7,1.5,1.5s-0.7,1.5-1.5,1.5
		S5.1,11.8,5.1,11"/>
</g>
</svg>
