<?xml version="1.0" encoding="utf-8"?>
<!-- Generator: Adobe Illustrator 16.0.0, SVG Export Plug-In . SVG Version: 6.00 Build 0)  -->
<!DOCTYPE svg PUBLIC "-//W3C//DTD SVG 1.1//EN" "http://www.w3.org/Graphics/SVG/1.1/DTD/svg11.dtd">
<svg version="1.1" id="Layer_1" xmlns="http://www.w3.org/2000/svg" xmlns:xlink="http://www.w3.org/1999/xlink" x="0px" y="0px"
	 width="24px" height="24px" viewBox="0 0 24 24" enable-background="new 0 0 24 24" xml:space="preserve">
<path display="none" fill="none" d="M0,0h24v24H0V0z"/>
<g>
	<path d="M10.108,14.508l0.507-2.603H9.037v-1.338h1.892l0.312-1.628H9.582V7.587h1.931L12,5.058h1.735l-0.487,2.529h1.775
		l0.507-2.529h1.736l-0.508,2.529h1.561v1.353h-1.834l-0.313,1.628h1.62v1.338H15.88l-0.486,2.603h-1.755l0.487-2.603h-1.775
		l-0.487,2.603H10.108z M14.438,10.567l0.311-1.628h-1.772l-0.313,1.628H14.438z"/>
</g>
<path d="M16.492,21.895H3.355V6.568H1.166v15.326c0,1.203,0.985,2.189,2.189,2.189h13.137V21.895z M21.966,17.516V2.189
	C21.966,0.986,20.979,0,19.776,0H7.734C6.53,0,5.545,0.986,5.545,2.189v15.326c0,1.203,0.985,2.189,2.189,2.189h12.042
	C20.979,19.705,21.966,18.719,21.966,17.516z M19.776,17.516H7.734V2.189h12.042V17.516z"/>
</svg>
