<?xml version="1.0" encoding="UTF-8"?>
<svg width="23px" height="23px" viewBox="0 0 23 23" version="1.1" xmlns="http://www.w3.org/2000/svg" xmlns:xlink="http://www.w3.org/1999/xlink">
    <!-- Generator: Sketch 51.3 (57544) - http://www.bohemiancoding.com/sketch -->
    <title>path-1</title>
    <desc>Created with Sketch.</desc>
    <defs></defs>
    <g id="Page-1" stroke="none" stroke-width="1" fill="none" fill-rule="evenodd">
        <path d="M11.5,0 C5.16234666,0 0,5.16234666 0,11.5 C0,17.8376534 5.16234666,23 11.5,23 C17.8376534,23 23,17.8376534 23,11.5 C23,5.16234666 17.8376534,0 11.5,0 Z M11.5,2.3 C16.5946414,2.3 20.7,6.40535901 20.7,11.5 C20.7,16.5946414 16.5946414,20.7 11.5,20.7 C6.40535901,20.7 2.3,16.5946414 2.3,11.5 C2.3,6.40535901 6.40535901,2.3 11.5,2.3 Z M10.35,6.93909866 L10.35,16.1 C10.35,16.7351275 10.8648725,17.25 11.5,17.25 C12.1351275,17.25 12.65,16.7351275 12.65,16.1 L12.65,6.93909866 C12.65,6.3039712 12.1351275,5.78909866 11.5,5.78909866 C10.8648725,5.78909866 10.35,6.3039712 10.35,6.93909866 Z M16.0804507,10.3695493 L6.91954934,10.3695493 C6.28442188,10.3695493 5.76954934,10.8844218 5.76954934,11.5195493 C5.76954934,12.1546767 6.28442188,12.6695493 6.91954934,12.6695493 L16.0804507,12.6695493 C16.7155782,12.6695493 17.2304507,12.1546767 17.2304507,11.5195493 C17.2304507,10.8844218 16.7155782,10.3695493 16.0804507,10.3695493 Z" id="path-1" fill="#232325" fill-rule="nonzero"></path>
    </g>
</svg>