<?xml version="1.0" encoding="UTF-8"?>
<svg width="23px" height="23px" viewBox="0 0 23 23" version="1.1" xmlns="http://www.w3.org/2000/svg" xmlns:xlink="http://www.w3.org/1999/xlink">
    <!-- Generator: Sketch 51.3 (57544) - http://www.bohemiancoding.com/sketch -->
    <title>path-1</title>
    <desc>Created with Sketch.</desc>
    <defs></defs>
    <g id="Page-1" stroke="none" stroke-width="1" fill="none" fill-rule="evenodd">
        <path d="M11.9063662,0.11945496 L12.0070083,0.197466372 L22.78433,10.9935728 C22.9221152,11.1259649 23,11.3088507 23,11.5 C23,11.6529193 22.9501538,11.8005502 22.8596692,11.9212706 L22.78433,12.0064272 L12.0070083,22.8025336 C11.7527024,23.0365678 11.3768055,23.0625716 11.0954793,22.880545 L10.9948372,22.8025336 L0.206013606,12.0064272 C-0.0381506626,11.756052 -0.0652800315,11.3730639 0.124625512,11.0932193 L0.206013606,10.9935728 L10.9948372,0.197466372 C11.2491432,-0.0365678403 11.62504,-0.0625716531 11.9063662,0.11945496 Z M11.5,15.3333333 C10.9354423,15.3333333 10.4777778,15.7909978 10.4777778,16.3555556 C10.4777778,16.9201133 10.9354423,17.3777778 11.5,17.3777778 C12.0645577,17.3777778 12.5222222,16.9201133 12.5222222,16.3555556 C12.5222222,15.7909978 12.0645577,15.3333333 11.5,15.3333333 Z M11.5,5.36666667 C10.9354423,5.36666667 10.4777778,5.82433115 10.4777778,6.38888889 L10.4777778,11.7555556 C10.4777778,12.3201133 10.9354423,12.7777778 11.5,12.7777778 C12.0645577,12.7777778 12.5222222,12.3201133 12.5222222,11.7555556 L12.5222222,6.38888889 C12.5222222,5.82433115 12.0645577,5.36666667 11.5,5.36666667 Z" id="path-1" fill="#232325" fill-rule="nonzero"></path>
    </g>
</svg>