<?xml version="1.0" encoding="UTF-8"?>
<svg width="16px" height="16px" viewBox="0 0 16 16" version="1.1" xmlns="http://www.w3.org/2000/svg" xmlns:xlink="http://www.w3.org/1999/xlink">
    <!-- Generator: Sketch 51.3 (57544) - http://www.bohemiancoding.com/sketch -->
    <title>ds-icon--calendar-cancel</title>
    <desc>Created with Sketch.</desc>
    <defs>
        <path d="M15.2,2.32354511 L12.8,2.32354511 L12.8,0.80298986 C12.8,0.3595108 12.4418278,0 12,0 C11.5581722,0 11.2,0.3595108 11.2,0.80298986 L11.2,2.32354511 L4.8,2.32354511 L4.8,0.80298986 C4.79999999,0.35951081 4.44182779,0 4,0 C3.55817221,0 3.20000001,0.35951081 3.2,0.80298986 L3.2,2.32354511 L0.8,2.32354511 C0.3581722,2.32354511 0,2.68305592 0,3.12653497 L0,15.1970101 C0,15.6404892 0.3581722,16 0.8,16 L15.2,16 C15.4121732,16 15.6156563,15.9153995 15.7656854,15.7648097 C15.9157145,15.6142199 16,15.4099763 16,15.1970101 L16,3.12653497 C16,2.91356882 15.9157145,2.70932521 15.7656854,2.5587354 C15.6156563,2.40814559 15.4121732,2.32354511 15.2,2.32354511 Z M14.4,14.3940203 L1.63404255,14.3940203 L1.63404255,5.39402029 L14.4,5.39402029 L14.4,14.3940203 Z M9.0244,9.96383 L10.7084,8.27983 C11.0014,7.98683 11.0014,7.51283 10.7084,7.21983 C10.4154,6.92683 9.9404,6.92683 9.6474,7.21983 L7.9634,8.90283 L6.2804,7.21983 C5.9874,6.92683 5.5124,6.92683 5.2194,7.21983 C4.9264,7.51283 4.9264,7.98683 5.2194,8.27983 L6.9034,9.96383 L5.2194,11.64783 C4.9264,11.94083 4.9264,12.41483 5.2194,12.70783 C5.3664,12.85483 5.5574,12.92783 5.7504,12.92783 C5.9424,12.92783 6.1334,12.85483 6.2804,12.70783 L7.9634,11.02483 L9.6474,12.70783 C9.7944,12.85483 9.9854,12.92783 10.1774,12.92783 C10.3704,12.92783 10.5614,12.85483 10.7084,12.70783 C11.0014,12.41483 11.0014,11.94083 10.7084,11.64783 L9.0244,9.96383 Z" id="path-1"></path>
    </defs>
    <g id="Page-1" stroke="none" stroke-width="1" fill="none" fill-rule="evenodd">
        <mask id="mask-2" fill="white">
            <use xlink:href="#path-1"></use>
        </mask>
        <use id="ds-icon--calendar-cancel" fill="#232325" xlink:href="#path-1"></use>
    </g>
</svg>