<?xml version="1.0" encoding="UTF-8"?>
<svg width="25px" height="25px" viewBox="0 0 25 25" version="1.1" xmlns="http://www.w3.org/2000/svg" xmlns:xlink="http://www.w3.org/1999/xlink">
    <!-- Generator: Sketch 51.3 (57544) - http://www.bohemiancoding.com/sketch -->
    <title>ds-icon--close</title>
    <desc>Created with Sketch.</desc>
    <defs></defs>
    <g id="Page-1" stroke="none" stroke-width="1" fill="none" fill-rule="evenodd">
        <g id="ds-icon--close" fill="#232325" fill-rule="nonzero">
            <path d="M0.804317061,0.804317061 C0.239278054,1.36935607 0.239278054,2.2854653 0.804317061,2.85050431 C0.804317061,2.85050432 0.804317077,2.85050434 0.804317093,2.85050434 L10.3343511,12.3805377 L0.80431692,21.9105718 C0.239278054,22.4756105 0.239278054,23.3917196 0.804316904,23.9567585 C0.804316951,23.9567585 0.804317014,23.9567585 0.804317061,23.9567587 C1.3693561,24.5217975 2.28546525,24.5217975 2.85050421,23.9567585 L12.3805377,14.4267246 L21.9105719,23.9567587 C22.4756107,24.5217975 23.3917198,24.5217975 23.9567587,23.9567587 C24.5217975,23.3917198 24.5217975,22.4756107 23.9567587,21.9105719 L14.4267246,12.3805377 L23.9567585,2.85050421 C24.5217975,2.28546525 24.5217975,1.3693561 23.9567587,0.804317061 C23.3917198,0.239278117 22.4756109,0.239277991 21.9105719,0.804316762 C21.9105718,0.804316825 21.9105718,0.804316872 21.9105718,0.80431692 L12.3805377,10.3343511 L2.85050434,0.804317093 C2.28546536,0.23927807 1.36935612,0.239278039 0.804317093,0.80431703 C0.804317077,0.80431703 0.804317061,0.804317046 0.804317061,0.804317061 Z" id="path-1"></path>
        </g>
    </g>
</svg>