<?xml version="1.0" encoding="UTF-8"?>
<svg width="23px" height="23px" viewBox="0 0 23 23" version="1.1" xmlns="http://www.w3.org/2000/svg" xmlns:xlink="http://www.w3.org/1999/xlink">
    <!-- Generator: Sketch 51.3 (57544) - http://www.bohemiancoding.com/sketch -->
    <title>path-1</title>
    <desc>Created with Sketch.</desc>
    <defs></defs>
    <g id="Page-1" stroke="none" stroke-width="1" fill="none" fill-rule="evenodd">
        <path d="M22.5262661,20.6209066 L16.6104321,14.7204385 C18.6891068,11.9247194 19.0143685,8.19605624 17.4511634,5.08264578 C15.8879584,1.96923539 12.7032905,0.00286460942 9.21948129,0 C4.1277024,0 0,4.1277024 0,9.21948129 C0,14.3112603 4.1277024,18.4389627 9.21948129,18.4389627 C11.2031144,18.4434092 13.1342009,17.8015116 14.7204385,16.6104321 L20.7131014,22.5262661 C21.0534611,22.8638809 21.5480818,22.9942702 22.0106446,22.8683175 C22.4732075,22.7423647 22.8334382,22.3792053 22.9556414,21.9156377 C23.0778446,21.4520701 22.9434548,20.9585214 22.603095,20.6209066 L22.5262661,20.6209066 Z M2.27413872,9.21948129 C2.27413872,5.40465589 5.36373007,2.31057264 9.1785513,2.30493846 C12.9933727,2.29931965 16.0920397,5.38427589 16.1033614,9.19908462 C16.1146211,13.0138933 13.0342691,16.1171376 9.21948129,16.1341094 C7.38153584,16.1381721 5.61724761,15.4119615 4.31474222,14.1152194 C3.01223684,12.8184773 2.27820948,11.0574269 2.27413872,9.21948129 Z" id="path-1" fill="#9A9A9D" fill-rule="nonzero"></path>
    </g>
</svg>