<?xml version="1.0" encoding="UTF-8"?>
<svg width="24px" height="15px" viewBox="0 0 24 15" version="1.1" xmlns="http://www.w3.org/2000/svg" xmlns:xlink="http://www.w3.org/1999/xlink">
    <!-- Generator: Sketch 51.3 (57544) - http://www.bohemiancoding.com/sketch -->
    <title>ds-icon--eye</title>
    <desc>Created with Sketch.</desc>
    <defs></defs>
    <g id="Page-1" stroke="none" stroke-width="1" fill="none" fill-rule="evenodd">
        <g id="ds-icon--eye" fill="#232325" fill-rule="nonzero">
            <path d="M22.932,7.728 C19.092,12.696 15.324,14.232 12,14.316 C8.676,14.4 4.908,12.732 1.068,7.752 C0.815789004,7.42721352 0.815789004,6.97278648 1.068,6.648 C2.496,4.8 6.444,0.168 12,0.084 C17.556,-1.52655666e-16 21.504,4.8 22.932,6.612 C23.1820183,6.94199112 23.1820183,7.39800888 22.932,7.728 Z M12,10.152 C13.6568543,10.152 15,8.8142268 15,7.164 C15,5.5137732 13.6568543,4.176 12,4.176 C10.3431457,4.176 9,5.5137732 9,7.164 C9,8.8142268 10.3431457,10.152 12,10.152 Z" id="path-1"></path>
        </g>
    </g>
</svg>