<?xml version="1.0" encoding="UTF-8"?>
<svg width="16px" height="20px" viewBox="0 0 16 20" version="1.1" xmlns="http://www.w3.org/2000/svg" xmlns:xlink="http://www.w3.org/1999/xlink">
    <!-- Generator: Sketch 61.2 (89653) - https://sketch.com -->
    <title>Slice 1</title>
    <desc>Created with Sketch.</desc>
    <g id="Page-1" stroke="none" stroke-width="1" fill="none" fill-rule="evenodd">
        <path d="M10,0 L2,0 C0.9,0 0.01,0.9 0.01,2 L0,18 C0,19.1 0.89,20 1.99,20 L14,20 C15.1,20 16,19.1 16,18 L16,6 L10,0 Z M12,16 L4,16 L4,14 L12,14 L12,16 Z M12,12 L4,12 L4,10 L12,10 L12,12 Z M9,7 L9,1.5 L14.5,7 L9,7 Z" id="Shape" fill="#232325" fill-rule="nonzero"></path>
    </g>
</svg>