<?xml version="1.0" encoding="UTF-8"?>
<svg width="22px" height="13px" viewBox="0 0 22 13" version="1.1" xmlns="http://www.w3.org/2000/svg" xmlns:xlink="http://www.w3.org/1999/xlink">
    <!-- Generator: Sketch 51.3 (57544) - http://www.bohemiancoding.com/sketch -->
    <title>ds-icon--keyboard</title>
    <desc>Created with Sketch.</desc>
    <defs></defs>
    <g id="Page-1" stroke="none" stroke-width="1" fill="none" fill-rule="evenodd">
        <path d="M20,0 L2,0 C0.895,0 0,0.895 0,2 L0,11 C0,12.105 0.895,13 2,13 L20,13 C21.105,13 22,12.105 22,11 L22,2 C22,0.895 21.105,0 20,0 Z M10,4 L12,4 L12,6 L10,6 L10,4 Z M6,4 L8,4 L8,6 L6,6 L6,4 Z M4,10 L2,10 L2,8 L4,8 L4,10 Z M4,6 L2,6 L2,4 L4,4 L4,6 Z M16,10 L6,10 L6,8 L16,8 L16,10 Z M16,6 L14,6 L14,4 L16,4 L16,6 Z M20,10 L18,10 L18,8 L20,8 L20,10 Z M20,6 L18,6 L18,4 L20,4 L20,6 Z" id="ds-icon--keyboard" fill="#232325" fill-rule="nonzero"></path>
    </g>
</svg>