<?xml version="1.0" encoding="UTF-8"?>
<svg width="14px" height="10px" viewBox="0 0 14 10" version="1.1" xmlns="http://www.w3.org/2000/svg" xmlns:xlink="http://www.w3.org/1999/xlink">
    <!-- Generator: Sketch 51.3 (57544) - http://www.bohemiancoding.com/sketch -->
    <title>ds-icon--delete</title>
    <desc>Created with Sketch.</desc>
    <defs></defs>
    <g id="Page-1" stroke="none" stroke-width="1" fill="none" fill-rule="evenodd">
        <path d="M5.990234,1.990234 C5.58331093,1.99034103 5.2170251,2.23698972 5.06390324,2.61400442 C4.91078137,2.99101913 5.0013576,3.42321912 5.292969,3.707031 L6.585938,5 L5.292969,6.292969 C5.03172821,6.54378557 4.92649336,6.91623599 5.01785019,7.26667805 C5.10920701,7.61712011 5.38287989,7.89079299 5.73332195,7.98214981 C6.08376401,8.07350664 6.45621443,7.96827179 6.707031,7.707031 L8,6.414062 L9.292969,7.707031 C9.54378557,7.96827179 9.91623599,8.07350664 10.2666781,7.98214981 C10.6171201,7.89079299 10.890793,7.61712011 10.9821498,7.26667805 C11.0735066,6.91623599 10.9682718,6.54378557 10.707031,6.292969 L9.414062,5 L10.707031,3.707031 C11.0027915,3.41953967 11.09172,2.97996502 10.9309658,2.60011815 C10.7702116,2.22027127 10.3927526,1.9780755 9.980469,1.990234 C9.72067029,1.99797529 9.47409051,2.10655468 9.292969,2.292969 L8,3.585938 L6.707031,2.292969 C6.51875998,2.09943599 6.26023586,1.99024984 5.990234,1.990234 Z M4,0.001953 L13,0.001953 C13.552,0.001953 14,0.448953 14,1.001953 L14,9 C14,9.553 13.552,10 13,10 L4,10 C3.685,10 3.388219,9.851609 3.199219,9.599609 L0.1992188,5.599609 C-0.0677812,5.244609 -0.0677812,4.755391 0.1992188,4.400391 L3.199219,0.400391 C3.387219,0.148391 3.685,0.001953 4,0.001953 Z" id="ds-icon--delete" fill="#000000" fill-rule="nonzero"></path>
    </g>
</svg>