<?xml version="1.0" encoding="UTF-8"?>
<svg width="42px" height="31px" viewBox="0 0 42 31" version="1.1" xmlns="http://www.w3.org/2000/svg" xmlns:xlink="http://www.w3.org/1999/xlink">
    <!-- Generator: Sketch 51.3 (57544) - http://www.bohemiancoding.com/sketch -->
    <title>icons8-diners_club</title>
    <desc>Created with Sketch.</desc>
    <defs></defs>
    <g id="Page-1" stroke="none" stroke-width="1" fill="none" fill-rule="evenodd">
        <g id="icons8-diners_club" transform="translate(0.000000, 0.035156)" fill-rule="nonzero">
            <path d="M42,26 C42,28.2 40.2,30 38,30 L4,30 C1.8,30 0,28.2 0,26 L0,4 C0,1.8 1.8,0 4,0 L38,0 C40.2,0 42,1.8 42,4 L42,26 Z" id="Shape" fill="#CFD8DC"></path>
            <path d="M26,7 L16,7 C11.6,7 8,10.6 8,15 C8,19.4 11.6,23 16,23 L26,23 C30.4,23 34,19.4 34,15 C34,10.6 30.4,7 26,7 Z" id="Shape" fill="#1565C0"></path>
            <path d="M16,9 C12.7,9 10,11.7 10,15 C10,18.3 12.7,21 16,21 C19.3,21 22,18.3 22,15 C22,11.7 19.3,9 16,9 Z M12,15 C12,13.1 13.3,11.6 15,11.1 L15,18.8 C13.3,18.4 12,16.9 12,15 Z M17,18.9 L17,11.2 C18.7,11.6 20,13.2 20,15.1 C20,16.9 18.7,18.4 17,18.9 Z" id="Shape" fill="#FFFFFF"></path>
        </g>
    </g>
</svg>