<?xml version="1.0" encoding="UTF-8"?>
<svg width="15px" height="15px" viewBox="0 0 15 15" version="1.1" xmlns="http://www.w3.org/2000/svg" xmlns:xlink="http://www.w3.org/1999/xlink">
    <!-- Generator: Sketch 51.3 (57544) - http://www.bohemiancoding.com/sketch -->
    <title>path-1</title>
    <desc>Created with Sketch.</desc>
    <defs></defs>
    <g id="Page-1" stroke="none" stroke-width="1" fill="none" fill-rule="evenodd">
        <path d="M13.5220172,10.2206267 L11.4177706,9.9784713 C10.9084093,9.92002 10.4073982,10.0953739 10.0483402,10.4544318 L8.5035559,11.9992161 C7.3186647,11.3980028 6.2439958,10.6139204 5.3154552,9.6845448 C4.38607962,8.7560042 3.60199723,7.6813353 3.0007839,6.4964441 L4.54556816,4.95165981 C4.90462612,4.59260185 5.07998,4.09159074 5.0215287,3.58222944 L4.77937334,1.47798278 C4.67917112,0.63461407 3.96940538,0 3.11768649,0 L1.67310446,0 C0.72953353,0 -0.05538387,0.78491741 0.00306742,1.72848833 C0.22434733,5.2931824 1.75994638,8.4988185 4.13056396,10.869436 C6.5011815,13.2400536 9.7068176,14.7756527 13.2715117,14.9969326 C14.2150826,15.0553839 15,14.2704665 15,13.3268955 L15,11.8823135 C15,11.0305946 14.3653859,10.3208289 13.5220172,10.2206267 Z" id="path-1" fill="#232325" fill-rule="nonzero"></path>
    </g>
</svg>