<?xml version="1.0" encoding="UTF-8"?>
<svg width="10px" height="12px" viewBox="0 0 10 12" version="1.1" xmlns="http://www.w3.org/2000/svg" xmlns:xlink="http://www.w3.org/1999/xlink">
    <!-- Generator: Sketch 63.1 (92452) - https://sketch.com -->
    <title>ic-sort</title>
    <desc>Created with Sketch.</desc>
    <g id="Page-1" stroke="none" stroke-width="1" fill="none" fill-rule="evenodd">
        <g id="build-roboto" transform="translate(-5795.000000, -2927.000000)" fill="#232325" fill-rule="nonzero">
            <path d="M5795.9776,2934.63795 L5799.81425,2938.89694 C5799.90667,2938.99952 5800.06474,2939.00777 5800.16733,2938.91536 C5800.17378,2938.90954 5800.17993,2938.90339 5800.18575,2938.89694 L5804.0224,2934.63795 C5804.11481,2934.53537 5804.10656,2934.37729 5804.00398,2934.28488 C5803.95806,2934.24352 5803.89845,2934.22063 5803.83665,2934.22063 L5796.16335,2934.22063 C5796.02528,2934.22063 5795.91335,2934.33255 5795.91335,2934.47063 C5795.91335,2934.53243 5795.93624,2934.59204 5795.9776,2934.63795 Z M5799.81425,2927.10306 L5795.9776,2931.36205 C5795.88519,2931.46463 5795.89344,2931.62271 5795.99602,2931.71512 C5796.04194,2931.75648 5796.10155,2931.77937 5796.16335,2931.77937 L5803.83665,2931.77937 C5803.97472,2931.77937 5804.08665,2931.66745 5804.08665,2931.52937 C5804.08665,2931.46757 5804.06376,2931.40796 5804.0224,2931.36205 L5800.18575,2927.10306 C5800.09333,2927.00048 5799.93526,2926.99223 5799.83267,2927.08464 C5799.82622,2927.09046 5799.82007,2927.09661 5799.81425,2927.10306 Z" id="ic-sort"></path>
        </g>
    </g>
</svg>