<?xml version="1.0" encoding="UTF-8"?>
<svg width="23px" height="21px" viewBox="0 0 23 21" version="1.1" xmlns="http://www.w3.org/2000/svg" xmlns:xlink="http://www.w3.org/1999/xlink">
    <!-- Generator: Sketch 51.3 (57544) - http://www.bohemiancoding.com/sketch -->
    <title>path-1</title>
    <desc>Created with Sketch.</desc>
    <defs></defs>
    <g id="Page-1" stroke="none" stroke-width="1" fill="none" fill-rule="evenodd">
        <path d="M11.5526936,0 C12.0246658,0 12.4953894,0.210975882 12.8083726,0.631797911 L12.9180417,0.799440515 L22.7820498,18.0252119 C23.3700454,19.0514555 22.7016086,20.3278882 21.5747158,20.4369423 L21.4182819,20.4444444 L1.58122756,20.4444444 C0.412794083,20.4444444 -0.332009153,19.2067443 0.147560141,18.1601732 L0.220620229,18.0187778 L10.1920862,0.79300638 C10.4970772,0.263799279 11.0248854,0 11.5526936,0 Z M11.5,15.3333333 C10.9354422,15.3333333 10.4777778,15.7909978 10.4777778,16.3555555 C10.4777778,16.9201133 10.9354422,17.3777777 11.5,17.3777777 C12.0645577,17.3777777 12.5222222,16.9201133 12.5222222,16.3555555 C12.5222222,15.7909978 12.0645577,15.3333333 11.5,15.3333333 Z M11.5,5.36666666 C10.9354422,5.36666666 10.4777778,5.82433113 10.4777778,6.38888888 L10.4777778,11.7555555 C10.4777778,12.3201133 10.9354422,12.7777778 11.5,12.7777778 C12.0645577,12.7777778 12.5222222,12.3201133 12.5222222,11.7555555 L12.5222222,6.38888888 C12.5222222,5.82433113 12.0645577,5.36666666 11.5,5.36666666 Z" id="path-1" fill="#232325" fill-rule="nonzero"></path>
    </g>
</svg>