<?xml version="1.0" encoding="UTF-8"?>
<svg width="24px" height="24px" viewBox="0 0 24 24" version="1.1" xmlns="http://www.w3.org/2000/svg" xmlns:xlink="http://www.w3.org/1999/xlink">
    <!-- Generator: Sketch 51.3 (57544) - http://www.bohemiancoding.com/sketch -->
    <title>ds-icon__product</title>
    <desc>Created with Sketch.</desc>
    <defs></defs>
    <g id="ds-icon__product" stroke="none" stroke-width="1" fill="none" fill-rule="evenodd">
        <path d="M9.71428569,0 C8.136,0 6.85714285,1.27885715 6.85714285,2.85714285 L6.85714285,4.57142857 L2.28571428,4.57142857 C1.02285715,4.57142857 0,5.59428572 0,6.85714285 L0,11.4285715 L1.71428572,11.4285715 C3.29257143,11.4285715 4.57142857,12.7074285 4.57142857,14.2857143 C4.57142857,15.864 3.29257143,17.1428572 1.71428572,17.1428572 L0,17.1428572 L0,21.7142857 C0,22.9771428 1.02285715,24 2.28571428,24 L6.85714285,24 L6.85714285,22.2857143 C6.85714285,20.7074285 8.136,19.4285715 9.71428569,19.4285715 C11.2925715,19.4285715 12.5714285,20.7074285 12.5714285,22.2857143 L12.5714285,24 L17.1428572,24 C18.4057143,24 19.4285715,22.9771428 19.4285715,21.7142857 L19.4285715,17.1428572 L21.1428572,17.1428572 C22.7211428,17.1428572 24,15.864 24,14.2857143 C24,12.7074285 22.7211428,11.4285715 21.1428572,11.4285715 L19.4285715,11.4285715 L19.4285715,6.85714285 C19.4285715,5.59428572 18.4057143,4.57142857 17.1428572,4.57142857 L12.5714285,4.57142857 L12.5714285,2.85714285 C12.5714285,1.27885715 11.2925715,0 9.71428569,0 Z" id="Path" fill="#232325" fill-rule="nonzero"></path>
    </g>
</svg>