<?xml version="1.0" encoding="UTF-8"?>
<svg width="6px" height="23px" viewBox="0 0 6 23" version="1.1" xmlns="http://www.w3.org/2000/svg" xmlns:xlink="http://www.w3.org/1999/xlink">
    <!-- Generator: Sketch 51.3 (57544) - http://www.bohemiancoding.com/sketch -->
    <title>path-1</title>
    <desc>Created with Sketch.</desc>
    <defs></defs>
    <g id="Page-1" stroke="none" stroke-width="1" fill="none" fill-rule="evenodd">
        <path d="M2.875,17.25 C4.46281866,17.25 5.75,18.5371813 5.75,20.125 C5.75,21.7128187 4.46281866,23 2.875,23 C1.28718134,23 0,21.7128187 0,20.125 C0,18.5371813 1.28718134,17.25 2.875,17.25 Z M2.875,8.625 C4.46281866,8.625 5.75,9.91218134 5.75,11.5 C5.75,13.0878187 4.46281866,14.375 2.875,14.375 C1.28718134,14.375 0,13.0878187 0,11.5 C0,9.91218134 1.28718134,8.625 2.875,8.625 Z M2.875,0 C4.46281866,0 5.75,1.28718134 5.75,2.875 C5.75,4.46281866 4.46281866,5.75 2.875,5.75 C1.28718134,5.75 0,4.46281866 0,2.875 C0,1.28718134 1.28718134,0 2.875,0 Z" id="path-1" fill="#232325" fill-rule="nonzero"></path>
    </g>
</svg>