<?xml version="1.0" encoding="UTF-8"?>
<svg width="16px" height="16px" viewBox="0 0 16 16" version="1.1" xmlns="http://www.w3.org/2000/svg" xmlns:xlink="http://www.w3.org/1999/xlink">
    <!-- Generator: Sketch 51.3 (57544) - http://www.bohemiancoding.com/sketch -->
    <title>ds-icon--calendar-add</title>
    <desc>Created with Sketch.</desc>
    <defs>
        <path d="M15.2,2.32354511 L12.8,2.32354511 L12.8,0.80298986 C12.8,0.3595108 12.4418278,0 12,0 C11.5581722,0 11.2,0.3595108 11.2,0.80298986 L11.2,2.32354511 L4.8,2.32354511 L4.8,0.80298986 C4.79999999,0.35951081 4.44182779,0 4,0 C3.55817221,0 3.20000001,0.35951081 3.2,0.80298986 L3.2,2.32354511 L0.8,2.32354511 C0.3581722,2.32354511 0,2.68305592 0,3.12653497 L0,15.1970101 C0,15.6404892 0.3581722,16 0.8,16 L15.2,16 C15.4121732,16 15.6156563,15.9153995 15.7656854,15.7648097 C15.9157145,15.6142199 16,15.4099763 16,15.1970101 L16,3.12653497 C16,2.91356882 15.9157145,2.70932521 15.7656854,2.5587354 C15.6156563,2.40814559 15.4121732,2.32354511 15.2,2.32354511 Z M14.4,14.3940203 L1.63404255,14.3940203 L1.63404255,5.39402029 L14.4,5.39402029 L14.4,14.3940203 Z M10.3076923,9.3076923 L8.6923077,9.3076923 L8.6923077,7.6923077 C8.6923077,7.3101538 8.3821538,7 8,7 C7.6178462,7 7.3076923,7.3101538 7.3076923,7.6923077 L7.3076923,9.3076923 L5.69230769,9.3076923 C5.31015385,9.3076923 5,9.6178462 5,10 C5,10.3821538 5.31015385,10.6923077 5.69230769,10.6923077 L7.3076923,10.6923077 L7.3076923,12.3076923 C7.3076923,12.6898462 7.6178462,13 8,13 C8.3821538,13 8.6923077,12.6898462 8.6923077,12.3076923 L8.6923077,10.6923077 L10.3076923,10.6923077 C10.6898462,10.6923077 11,10.3821538 11,10 C11,9.6178462 10.6898462,9.3076923 10.3076923,9.3076923 Z" id="path-1"></path>
    </defs>
    <g id="Page-1" stroke="none" stroke-width="1" fill="none" fill-rule="evenodd">
        <mask id="mask-2" fill="white">
            <use xlink:href="#path-1"></use>
        </mask>
        <use id="ds-icon--calendar-add" fill="#232325" xlink:href="#path-1"></use>
    </g>
</svg>