<?xml version="1.0" encoding="UTF-8"?>
<svg width="137px" height="15px" viewBox="0 0 137 15" version="1.1" xmlns="http://www.w3.org/2000/svg" xmlns:xlink="http://www.w3.org/1999/xlink">
    <!-- Generator: Sketch 51.3 (57544) - http://www.bohemiancoding.com/sketch -->
    <title>ds-icon__quest-logo--text</title>
    <desc>Created with Sketch.</desc>
    <defs></defs>
    <g id="Page-1" stroke="none" stroke-width="1" fill="none" fill-rule="evenodd">
        <g id="ds-icon__quest-logo--text" fill="#222222" fill-rule="nonzero">
            <path d="M19.4157143,8.2742857 C19.4157143,9.6054286 18.6202857,10.4008571 17.4837143,10.4008571 C16.3154286,10.4008571 15.6502857,9.638 15.6502857,8.3068571 L15.6502857,3.4365714 L13.6857143,3.4365714 L13.6857143,8.8914286 C13.6857143,10.8877143 14.806,12.1871429 16.7371429,12.1871429 C18.0691429,12.1871429 18.8645714,11.4885714 19.4157143,10.6768571 L19.4157143,12.008 L21.3802857,12.008 L21.3802857,3.4365714 L19.4157143,3.4365714 L19.4157143,8.2742857 Z M44.9645714,5.1242857 L43.2777143,3.4365714 L42.1642857,3.4365714 L42.1642857,1.0828571 L40.2005714,1.0828571 L40.2005714,9.638 C40.2005714,11.5211429 41.2231429,12.1545714 42.6691429,12.1545714 C43.3985714,12.1545714 43.9497143,11.9917143 44.4382857,11.7157143 L44.4382857,10.1085714 C44.0482857,10.3031429 43.6591429,10.4008571 43.2194286,10.4008571 C42.5534286,10.4008571 42.1642857,10.0922857 42.1642857,9.3285714 L42.1642857,5.1242857 L44.9645714,5.1242857 Z M11.9174286,6.3097143 C11.9174286,3.0954286 9.4831429,0.4494286 5.9928571,0.4494286 C2.5025714,0.4494286 0.0348571,3.128 0.0348571,6.3422857 C0.0348571,9.5565714 2.47,12.2025714 5.9602857,12.2025714 C7.2905714,12.2025714 8.4605714,11.7971429 9.418,11.132 L10.414,12.02 L13.372,12.02 L10.7645714,9.8162857 C11.4957143,8.8262857 11.9174286,7.6082857 11.9174286,6.3097143 Z M9.2388571,8.4851429 L6.3751429,8.4851429 L7.9411429,9.8162857 C7.4054286,10.1574286 6.7394286,10.3682857 5.9928571,10.3682857 C3.736,10.3682857 2.1288571,8.534 2.1288571,6.3097143 C2.1288571,4.0862857 3.7034286,2.2845714 5.9602857,2.2845714 C8.2171429,2.2845714 9.8234286,4.1188571 9.8234286,6.3422857 C9.8234286,7.1385714 9.6288571,7.8842857 9.2388571,8.4851429 Z M36.16,6.9422857 C35.1537143,6.6191429 34.228,6.3585714 34.228,5.7422857 L34.228,5.7097143 C34.228,5.2057143 34.6668571,4.8482857 35.4305714,4.8482857 C36.0314286,4.8482857 36.7471429,5.0694286 37.4525714,5.4388571 L38.6268571,4.2645714 C37.7182857,3.6637143 36.55,3.29 35.4794286,3.29 C33.7737143,3.29 32.4262857,4.2808571 32.4262857,5.9042857 L32.4262857,5.936 C32.4262857,7.5757143 33.8397143,8.0951429 35.1057143,8.4534286 C36.1111429,8.762 37.0205714,8.9874286 37.0205714,9.6534286 L37.0205714,9.686 C37.0205714,10.2542857 36.5337143,10.6117143 35.6894286,10.6117143 C34.8965714,10.6117143 33.9974286,10.3168571 33.148,9.7434286 L32.0054286,10.886 L32.0045714,10.8877143 C33.076,11.732 34.4234286,12.1708571 35.6405714,12.1708571 C37.4268571,12.1708571 38.8222857,11.2777143 38.8222857,9.476 L38.8222857,9.4434286 C38.8222857,7.9014286 37.4105714,7.3322857 36.16,6.9422857 Z M27.0091429,3.2574286 C24.5577143,3.2574286 22.8202857,5.2708571 22.8202857,7.7385714 C22.8202857,10.4008571 24.7368571,12.2025714 27.2208571,12.2025714 C28.7568571,12.2025714 29.86,11.5991429 30.6674286,10.6648571 L29.5762857,9.5745714 L29.5737143,9.5728571 C28.8922857,10.2388571 28.2108571,10.5954286 27.2534286,10.5954286 C25.9874286,10.5954286 25.0128571,9.8162857 24.7857143,8.4208571 L31.0848571,8.4208571 C31.1002857,8.2254286 31.1165714,8.0634286 31.1165714,7.8842857 C31.1165714,5.4002857 29.7365714,3.2574286 27.0091429,3.2574286 Z M24.7874286,7.0151429 C24.9957143,5.7422857 25.8254286,4.8654286 26.9928571,4.8654286 C28.2545714,4.8654286 28.9934286,5.8005714 29.1537143,7.0151429 L24.7874286,7.0151429 Z M51.8105714,1.0845714 L48.1857143,1.0845714 L48.1857143,11.9702857 L51.8105714,11.9702857 C55.2322857,11.9702857 57.5954286,9.5917143 57.5954286,6.5282857 L57.5954286,6.4965714 C57.5954286,3.4322857 55.2322857,1.0845714 51.8105714,1.0845714 Z M56.7554286,6.5582857 C56.7554286,9.1554286 54.844,11.2245714 51.8105714,11.2245714 L48.9957143,11.2245714 L48.9957143,1.8302857 L51.8105714,1.8302857 C54.844,1.8302857 56.7554286,3.9465714 56.7554286,6.5282857 L56.7554286,6.5582857 Z M66.544857,3.914 C65.455429,3.914 64.600857,4.1942857 63.729143,4.5988571 L64.010286,5.2682857 C64.740571,4.8937143 65.533429,4.6297143 66.498571,4.6297143 C68.130571,4.6297143 69.111143,5.4542857 69.111143,7.0562857 L69.111143,7.3982857 C68.348286,7.196 67.586286,7.0562857 66.483143,7.0562857 C64.430286,7.0562857 63.015143,7.9888571 63.015143,9.638 L63.015143,9.6688571 C63.015143,11.3188571 64.600857,12.1571429 66.077714,12.1571429 C67.586286,12.1571429 68.566857,11.4105714 69.111143,10.6485714 L69.111143,11.9702857 L69.857714,11.9702857 L69.857714,7.0262857 C69.857714,4.9725714 68.581429,3.914 66.544857,3.914 Z M69.126571,9.0002857 C69.126571,10.4462857 67.741429,11.4405714 66.124857,11.4405714 C64.911143,11.4405714 63.822571,10.7737143 63.822571,9.6225714 L63.822571,9.5917143 C63.822571,8.4868571 64.754286,7.7402857 66.436,7.7402857 C67.571714,7.7402857 68.457143,7.9262857 69.126571,8.0985714 L69.126571,9.0002857 Z M86.400571,3.8522857 C84.953714,3.8522857 84.067429,4.5834286 83.538571,5.516 L83.538571,4.0391429 L82.776571,4.0391429 L82.776571,11.9702857 L83.538571,11.9702857 L83.538571,7.382 C83.538571,5.7337143 84.736857,4.5517143 86.291714,4.5517143 C87.893714,4.5517143 88.811714,5.6265714 88.811714,7.2577143 L88.811714,11.9702857 L89.572857,11.9702857 L89.572857,7.118 C89.572857,5.2211429 88.408,3.8522857 86.400571,3.8522857 Z M95.436571,3.8522857 C93.073429,3.8522857 91.346286,5.7808571 91.346286,8.0042857 L91.346286,8.036 C91.346286,10.2594286 93.058,12.1571429 95.407429,12.1571429 C97.769714,12.1571429 99.496,10.2277143 99.496,8.0042857 L99.496,7.9734286 C99.496,5.75 97.784286,3.8522857 95.436571,3.8522857 Z M98.671429,8.036 C98.671429,9.9028571 97.318857,11.4405714 95.436571,11.4405714 C93.600571,11.4405714 92.171714,9.9174286 92.171714,8.0042857 L92.171714,7.9734286 C92.171714,6.1074286 93.523429,4.5671429 95.407429,4.5671429 C97.24,4.5671429 98.671429,6.092 98.671429,8.0042857 L98.671429,8.036 Z M112.274286,4.7377143 L111.574857,4.0391429 L109.504,4.0391429 L109.504,1.5045714 L108.741143,1.5045714 L108.741143,9.9337143 C108.741143,11.4405714 109.738,12.1108571 110.966286,12.1108571 C111.463429,12.1108571 111.853429,12.0174286 112.256286,11.8305714 L112.256286,11.1148571 C111.806286,11.3188571 111.479714,11.3942857 111.089714,11.3942857 C110.172571,11.3942857 109.504,10.9897143 109.504,9.8557143 L109.504,4.7377143 L112.274286,4.7377143 Z M79.252,5.6265714 C78.598857,4.6914286 77.525714,3.8522857 75.938286,3.8522857 C74.026857,3.8522857 72.128286,5.3291429 72.128286,7.616 L72.128286,7.6468571 C72.128286,9.9174286 74.026857,11.3788571 75.938286,11.3788571 C77.510286,11.3788571 78.567143,10.5251429 79.252,9.5445714 L79.252,10.6948571 C79.252,12.7331429 77.961143,13.7745714 76.141429,13.7745714 C75.015143,13.7745714 73.962571,13.4094286 73.038571,12.7262857 L72.489143,13.2774286 C73.576,14.0857143 74.804286,14.4885714 76.126,14.4885714 C78.380286,14.4885714 80.013143,13.1522857 80.013143,10.742 L80.013143,4.0391429 L79.252,4.0391429 L79.252,5.6265714 Z M79.298286,7.6314286 C79.298286,9.4357143 77.665429,10.6485714 76.016286,10.6485714 C74.383429,10.6485714 72.952857,9.404 72.952857,7.616 L72.952857,7.5851429 C72.952857,5.7337143 74.353429,4.5834286 76.016286,4.5834286 C77.665429,4.5834286 79.298286,5.7654286 79.298286,7.5997143 L79.298286,7.6314286 Z M129.558571,7.5534286 C128.424571,7.226 127.351429,6.9002857 127.351429,6.014 L127.351429,5.9822857 C127.351429,5.1894286 128.065429,4.5988571 129.154857,4.5988571 C129.940857,4.5988571 130.750857,4.8731429 131.448571,5.3017143 L131.998857,4.7531429 C131.205143,4.2251429 130.132857,3.8831429 129.185714,3.8831429 C127.646286,3.8831429 126.573143,4.8002857 126.573143,6.0757143 L126.573143,6.1074286 C126.573143,7.5225714 128.004571,7.9117143 129.296286,8.2845714 C130.397714,8.5965714 131.394571,8.9377143 131.394571,9.8711429 L131.394571,9.9028571 C131.394571,10.8191429 130.554571,11.4105714 129.481429,11.4105714 C128.506,11.4105714 127.575143,11.0591429 126.727429,10.4342857 L126.185714,10.976 C127.025714,11.66 128.284857,12.1262857 129.435143,12.1262857 C130.959143,12.1262857 132.171143,11.2245714 132.171143,9.8094286 L132.171143,9.7777143 C132.171143,8.378 130.834,7.9117143 129.558571,7.5534286 Z M104.098857,7.5534286 C102.962286,7.226 101.889143,6.9002857 101.889143,6.014 L101.889143,5.9822857 C101.889143,5.1894286 102.605714,4.5988571 103.693429,4.5988571 C104.478571,4.5988571 105.287714,4.8731429 105.988,5.3017143 L106.536571,4.7531429 C105.744571,4.2251429 104.672286,3.8831429 103.726,3.8831429 C102.184857,3.8831429 101.114286,4.8002857 101.114286,6.0757143 L101.114286,6.1074286 C101.114286,7.5225714 102.542286,7.9117143 103.833143,8.2845714 C104.938,8.5965714 105.933143,8.9377143 105.933143,9.8711429 L105.933143,9.9028571 C105.933143,10.8191429 105.094,11.4105714 104.021714,11.4105714 C103.044571,11.4105714 102.112857,11.0591429 101.265143,10.4342857 L100.723429,10.976 C101.563429,11.66 102.824286,12.1262857 103.973714,12.1262857 C105.497714,12.1262857 106.710571,11.2245714 106.710571,9.8094286 L106.710571,9.7777143 C106.710571,8.378 105.372571,7.9117143 104.098857,7.5534286 Z M121.586286,11.4405714 C119.764857,11.4405714 118.318857,9.9174286 118.318857,8.0042857 L118.318857,7.9734286 C118.318857,6.0757143 119.717714,4.5671429 121.523714,4.5671429 C122.699714,4.5671429 123.476286,5.1688571 124.159429,5.8657143 L124.710571,5.3145714 C123.964,4.5362857 123.030571,3.8522857 121.54,3.8522857 C119.266857,3.8522857 117.494286,5.7808571 117.494286,8.0042857 L117.494286,8.036 C117.494286,10.2594286 119.252286,12.1571429 121.54,12.1571429 C122.982571,12.1571429 123.938286,11.5185714 124.740571,10.6177143 L124.243429,10.1214286 C123.576571,10.8654286 122.704,11.4405714 121.586286,11.4405714 Z M60.0537143,11.9702857 L60.8165714,11.9702857 L60.8165714,4.0382857 L60.0537143,4.0382857 L60.0537143,11.9702857 Z M59.9611429,2.0325714 L60.9108571,2.0325714 L60.9108571,1.0845714 L59.9611429,1.0845714 L59.9611429,2.0325714 Z M114.492571,2.0325714 L115.441429,2.0325714 L115.441429,1.0845714 L114.492571,1.0845714 L114.492571,2.0325714 Z M114.586,11.9702857 L115.348,11.9702857 L115.348,4.0382857 L114.586,4.0382857 L114.586,11.9702857 Z M135.657143,1.5045714 L135.095714,2.9248571 L134.518857,1.5045714 L134.008857,1.5045714 L134.008857,3.572 L134.376571,3.572 L134.376571,2.1902857 L134.923429,3.5437143 L134.934571,3.572 L135.219143,3.572 L135.768571,2.1928571 L135.768571,3.572 L136.164571,3.572 L136.164571,1.5045714 L135.657143,1.5045714 Z M132.151429,1.8457143 L132.747143,1.8457143 L132.747143,3.572 L133.156857,3.572 L133.156857,1.8457143 L133.752571,1.8457143 L133.752571,1.5045714 L132.151429,1.5045714 L132.151429,1.8457143 Z" id="Logotype"></path>
        </g>
    </g>
</svg>