<?xml version="1.0" encoding="UTF-8"?>
<svg width="24px" height="24px" viewBox="0 0 24 24" version="1.1" xmlns="http://www.w3.org/2000/svg" xmlns:xlink="http://www.w3.org/1999/xlink">
    <!-- Generator: Sketch 51.3 (57544) - http://www.bohemiancoding.com/sketch -->
    <title>ds-icon__finder</title>
    <desc>Created with Sketch.</desc>
    <defs></defs>
    <g id="ds-icon__finder" stroke="none" stroke-width="1" fill="none" fill-rule="evenodd">
        <path d="M12,9.84 C10.8070649,9.84 9.84,10.8070649 9.84,12 C9.84,13.1929351 10.8070649,14.16 12,14.16 C13.1929351,14.16 14.16,13.1929351 14.16,12 C14.16,10.8070649 13.1929351,9.84 12,9.84 Z" id="Shape" fill="#232325" fill-rule="nonzero"></path>
        <path d="M22.44,10.92 L21,10.92 C20.5054678,6.75481671 17.2405374,3.46020511 13.08,2.928 L13.08,1.488 C13.08,0.891532474 12.5964675,0.408 12,0.408 C11.4035325,0.408 10.92,0.891532474 10.92,1.488 L10.92,2.928 C6.73702158,3.43570318 3.44255867,6.73611277 2.9424,10.92 L1.5024,10.92 C0.905932474,10.92 0.4224,11.4035325 0.4224,12 C0.4224,12.5964675 0.905932474,13.08 1.5024,13.08 L2.9424,13.08 C3.44255867,17.2638873 6.73702158,20.5642968 10.92,21.072 L10.92,22.44 C10.92,23.0364675 11.4035325,23.52 12,23.52 C12.5964675,23.52 13.08,23.0364675 13.08,22.44 L13.08,21.072 C17.2629784,20.5642968 20.5574413,17.2638873 21.0576,13.08 L22.4976,13.08 C23.0940675,13.08 23.5776,12.5964675 23.5776,12 C23.5776,11.4035325 23.0940675,10.92 22.4976,10.92 L22.44,10.92 Z M13.08,18.8688 L13.08,17.4288 C13.08,16.8323325 12.5964675,16.3488 12,16.3488 C11.4035325,16.3488 10.92,16.8323325 10.92,17.4288 L10.92,18.8688 C7.96102667,18.38741 5.64139,16.0677733 5.16,13.1088 L6.6,13.1088 C7.19646753,13.1088 7.68,12.6252675 7.68,12.0288 C7.68,11.4323325 7.19646753,10.9488 6.6,10.9488 L5.16,10.9488 C5.64139,7.98982667 7.96102667,5.67019 10.92,5.1888 L10.92,6.6288 C10.92,7.22526753 11.4035325,7.7088 12,7.7088 C12.5964675,7.7088 13.08,7.22526753 13.08,6.6288 L13.08,5.1888 C16.0389733,5.67019 18.35861,7.98982667 18.84,10.9488 L17.4,10.9488 C16.8035325,10.9488 16.32,11.4323325 16.32,12.0288 C16.32,12.6252675 16.8035325,13.1088 17.4,13.1088 L18.84,13.1088 C18.35861,16.0677733 16.0389733,18.38741 13.08,18.8688 Z" id="Shape" fill="#232325" fill-rule="nonzero"></path>
    </g>
</svg>