<?xml version="1.0" encoding="UTF-8"?>
<svg width="15px" height="16px" viewBox="0 0 15 16" version="1.1" xmlns="http://www.w3.org/2000/svg" xmlns:xlink="http://www.w3.org/1999/xlink">
    <!-- Generator: Sketch 63.1 (92452) - https://sketch.com -->
    <title>Shape</title>
    <desc>Created with Sketch.</desc>
    <g id="Page-2" stroke="none" stroke-width="1" fill="none" fill-rule="evenodd">
        <g id="d-schedule-2a.2-copy" transform="translate(-754.000000, -267.000000)" fill="#232325" fill-rule="nonzero">
            <path d="M757.2,267 C756.7584,267 756.4,267.3584 756.4,267.8 L756.4,268.6 L755.6,268.6 C754.716,268.6 754,269.316 754,270.2 L754,281.4 C754,282.284 754.716,283 755.6,283 L766.8,283 C767.684,283 768.4,282.284 768.4,281.4 L768.4,270.2 C768.4,269.316 767.684,268.6 766.8,268.6 L766,268.6 L766,267.8 C766,267.3584 765.6416,267 765.2,267 C764.7584,267 764.4,267.3584 764.4,267.8 L764.4,268.6 L758,268.6 L758,267.8 C758,267.3584 757.6416,267 757.2,267 Z M755.6,272.6 L766.8,272.6 L766.801562,281.4 L755.6,281.4 L755.6,272.6 Z M761.2,275 C760.7584,275 760.4,275.3584 760.4,275.8 L760.4,276.6 L759.6,276.6 C759.1584,276.6 758.8,276.9584 758.8,277.4 C758.8,277.8416 759.1584,278.2 759.6,278.2 L760.4,278.2 L760.4,279 C760.4,279.4416 760.7584,279.8 761.2,279.8 C761.6416,279.8 762,279.4416 762,279 L762,278.2 L762.8,278.2 C763.2416,278.2 763.6,277.8416 763.6,277.4 C763.6,276.9584 763.2416,276.6 762.8,276.6 L762,276.6 L762,275.8 C762,275.3584 761.6416,275 761.2,275 Z" id="Shape"></path>
        </g>
    </g>
</svg>