<?xml version="1.0" encoding="UTF-8"?>
<svg width="23px" height="23px" viewBox="0 0 23 23" version="1.1" xmlns="http://www.w3.org/2000/svg" xmlns:xlink="http://www.w3.org/1999/xlink">
    <!-- Generator: Sketch 51.3 (57544) - http://www.bohemiancoding.com/sketch -->
    <title>path-1</title>
    <desc>Created with Sketch.</desc>
    <defs></defs>
    <g id="Page-1" stroke="none" stroke-width="1" fill="none" fill-rule="evenodd">
        <path d="M11.5,7.31818182 C9.18954548,7.31818182 7.31818182,9.18954548 7.31818182,11.5 C7.31818182,13.8104545 9.18954548,15.6818182 11.5,15.6818182 C13.8104545,15.6818182 15.6818182,13.8104545 15.6818182,11.5 C15.6818182,9.18954548 13.8104545,7.31818182 11.5,7.31818182 Z M20.8463637,10.4545455 C20.3654545,6.095 16.905,2.63454545 12.5454545,2.15363637 L12.5454545,1.04545455 C12.5454545,0.468065947 12.0773886,0 11.5,0 C10.9226114,0 10.4545455,0.468065947 10.4545455,1.04545455 L10.4545455,2.15363637 C6.095,2.63454545 2.63454545,6.095 2.15363637,10.4545455 L1.04545455,10.4545455 C0.468065947,10.4545455 0,10.9226114 0,11.5 C0,12.0773886 0.468065947,12.5454545 1.04545455,12.5454545 L2.15363637,12.5454545 C2.63454545,16.905 6.095,20.3654545 10.4545455,20.8463637 L10.4545455,21.9545455 C10.4545455,22.531934 10.9226114,23 11.5,23 C12.0773886,23 12.5454545,22.531934 12.5454545,21.9545455 L12.5454545,20.8463637 C16.905,20.3654545 20.3654545,16.905 20.8463637,12.5454545 L21.9545455,12.5454545 C22.531934,12.5454545 23,12.0773886 23,11.5 C23,10.9226114 22.531934,10.4545455 21.9545455,10.4545455 L20.8463637,10.4545455 Z M11.5,18.8181818 C7.4540909,18.8181818 4.18181818,15.545909 4.18181818,11.5 C4.18181818,7.4540909 7.4540909,4.18181818 11.5,4.18181818 C15.545909,4.18181818 18.8181818,7.4540909 18.8181818,11.5 C18.8181818,15.545909 15.545909,18.8181818 11.5,18.8181818 Z" id="path-1" fill="#232325" fill-rule="nonzero"></path>
    </g>
</svg>