<?xml version="1.0" encoding="UTF-8"?>
<svg width="24px" height="24px" viewBox="0 0 24 24" version="1.1" xmlns="http://www.w3.org/2000/svg" xmlns:xlink="http://www.w3.org/1999/xlink">
    <!-- Generator: Sketch 51.3 (57544) - http://www.bohemiancoding.com/sketch -->
    <title>ds-icon__brand</title>
    <desc>Created with Sketch.</desc>
    <defs></defs>
    <g id="ds-icon__brand" stroke="none" stroke-width="1" fill="none" fill-rule="evenodd">
        <path d="M15.9600395,0 C15.6477167,0 15.325929,0.141732889 15.0893197,0.377952756 L9.60000001,5.85826774 L11.303582,7.55905512 L14.2186001,4.6488189 C15.7281633,5.24881921 14.0719024,6.84566898 14.4457444,7.37007876 C14.767532,7.82362205 15.628788,7.76692916 16.7929018,7.21889761 C17.3418337,6.95905485 17.7298725,6.91653547 17.9286231,6.99212596 C19.3624716,7.54015752 15.5199477,9.75118108 16.7929018,10.6204725 C16.9963854,10.75748 17.7440681,10.7622053 18.5721985,10.5826772 L16.4521854,12.6992126 L18.1557674,14.4 L23.6450871,8.91968508 C24.1183043,8.4472441 24.1183043,7.69133859 23.6450871,7.21889761 L16.7929018,0.377952756 C16.5562938,0.141732889 16.2723634,0 15.9600395,0 Z M8.03190001,7.20000001 L5.74288276,9.48901725 C4.77296024,10.4589397 4.77296024,12.0108158 5.74288276,12.9807384 L6.67400845,13.9506609 C7.14442063,14.4210731 7.16381903,15.1679141 6.71280534,15.6577246 C6.37333307,16.0311445 5.99991201,16.4045656 5.74288276,16.5112565 C4.77296024,16.9186239 2.92040877,17.5878711 1.78559875,18.7226798 C0.0882348803,20.4200449 -0.503418498,22.5635732 0.466504063,23.5334957 C1.43642662,24.5034182 3.57995611,23.9117662 5.27731997,22.214401 C6.41212996,21.0795923 7.08137592,19.2318889 7.48874339,18.2571171 C7.59543547,18.0000878 7.97370472,17.6315174 8.3422753,17.2871945 C8.83208588,16.8361808 9.57892685,16.8555793 10.0493389,17.3259914 L11.0192615,18.2571171 C11.9891841,19.2270396 13.5410602,19.2270396 14.5109828,18.2571171 L16.8,15.9680998 L8.03190001,7.20000001 Z M2.8,20 C3.1057921,20 3.42085002,20.1025249 3.65250966,20.335534 C4.11583012,20.8015534 4.11583012,21.5844661 3.65250966,22.0504854 C3.18918919,22.5165049 2.41081081,22.5165049 1.94749035,22.0504854 C1.48416989,21.5844661 1.48416989,20.8015534 1.94749035,20.335534 C2.17915118,20.1025249 2.49420909,20 2.8,20 Z" id="path-1" fill="#232325" fill-rule="nonzero"></path>
    </g>
</svg>