<?xml version="1.0" encoding="UTF-8"?>
<svg width="24px" height="24px" viewBox="0 0 24 24" version="1.1" xmlns="http://www.w3.org/2000/svg" xmlns:xlink="http://www.w3.org/1999/xlink">
    <!-- Generator: Sketch 51.3 (57544) - http://www.bohemiancoding.com/sketch -->
    <title>ds-icon--route</title>
    <desc>Created with Sketch.</desc>
    <defs></defs>
    <g id="Page-1" stroke="none" stroke-width="1" fill="none" fill-rule="evenodd">
        <g id="ds-icon--route" fill="#232325" fill-rule="nonzero">
            <path d="M23.7749531,11.4715543 L12.5290521,0.206051867 C12.2305191,-0.0686839592 11.7714067,-0.0686839592 11.4728736,0.206051867 L0.21497072,11.4715543 C-0.0716569067,11.7654729 -0.0716569067,12.2345271 0.21497072,12.5284457 L11.4728736,23.7939481 C11.7714067,24.068684 12.2305191,24.068684 12.5290521,23.7939481 L23.7749531,12.5284457 C23.9187289,12.3902975 24,12.1994601 24,12 C24,11.8005399 23.9187289,11.6097025 23.7749531,11.4715543 Z M14.1733301,14.7983604 L14.1733301,12 L9.97262,12 L9.97262,15.1586643 C9.97262,15.7357364 9.50512627,16.2035457 8.92844357,16.2035457 C8.35176081,16.2035457 7.88426707,15.7357364 7.88426707,15.1586643 L7.88426707,12 C7.88426707,10.8438971 8.81731584,9.90483347 9.97262,9.8982272 L14.1733301,9.8982272 L14.1733301,6.96775533 L17.8459509,10.895068 L14.1733301,14.7983604 Z" id="path-1"></path>
        </g>
    </g>
</svg>