<?xml version="1.0" encoding="UTF-8"?>
<svg width="16px" height="16px" viewBox="0 0 16 16" version="1.1" xmlns="http://www.w3.org/2000/svg" xmlns:xlink="http://www.w3.org/1999/xlink">
    <!-- Generator: Sketch 51.3 (57544) - http://www.bohemiancoding.com/sketch -->
    <title>path-1</title>
    <desc>Created with Sketch.</desc>
    <defs></defs>
    <g id="Page-1" stroke="none" stroke-width="1" fill="none" fill-rule="evenodd">
        <path d="M15,0 C15.5522847,0 16,0.44771525 16,1 L16,15 C16,15.5522847 15.5522847,16 15,16 L1,16 C0.44771525,16 0,15.5522847 0,15 L0,1 C0,0.44771525 0.44771525,0 1,0 L15,0 Z M8.5645756,4 L5.80073801,4 C5.34870849,4 5,4.34468085 5,4.79148936 L5,12.2212766 C5,12.6553191 5.34870849,13 5.80073801,13 C6.2398524,13 6.5885609,12.6553191 6.5885609,12.2212766 L6.5885609,10.0638298 L8.3837638,10.0638298 C10.3085347,10.0638298 11.8946362,9.083468 11.9949624,7.2037342 L12,6.987234 C12,5.18723404 10.6826568,4 8.5645756,4 Z M8.4354244,5.42978723 C9.5670357,5.42978723 10.3120717,5.92768852 10.3804615,6.8793802 L10.3856089,7.0510638 C10.3856089,7.9829787 9.6365314,8.6468085 8.4354244,8.6468085 L6.5885609,8.6468085 L6.5885609,5.42978723 L8.4354244,5.42978723 Z" id="path-1" fill="#232325" fill-rule="nonzero"></path>
    </g>
</svg>