<?xml version="1.0" encoding="UTF-8"?>
<svg width="24px" height="24px" viewBox="0 0 24 24" version="1.1" xmlns="http://www.w3.org/2000/svg" xmlns:xlink="http://www.w3.org/1999/xlink">
    <!-- Generator: Sketch 51.3 (57544) - http://www.bohemiancoding.com/sketch -->
    <title>ds-icon__search</title>
    <desc>Created with Sketch.</desc>
    <defs></defs>
    <g id="ds-icon__search" stroke="none" stroke-width="1" fill="none" fill-rule="evenodd">
        <path d="M9.64511751,0 C4.3182662,0 0,4.3182662 0,9.64511751 C0,14.9719688 4.3182662,19.290235 9.64511751,19.290235 C14.9719688,19.290235 19.290235,14.9719688 19.290235,9.64511751 C19.290235,4.3182662 14.9719688,0 9.64511751,0 Z M9.64511751,16.8789556 C6.71641254,16.8919722 4.06884145,15.1377809 2.93904373,12.4357374 C1.809246,9.73369389 2.42018147,6.61703257 4.48649165,4.54149781 C6.55280181,2.46596305 9.66671086,1.84115102 12.3737601,2.95890177 C15.0808093,4.07665252 16.8467763,6.71638361 16.8468053,9.64511751 C16.8380706,13.6241056 13.6240272,16.8524974 9.64511751,16.8789556 Z M23.5662371,23.5662371 C23.3061276,23.8323417 22.9497263,23.982352 22.5776126,23.982352 C22.2054989,23.982352 21.8490976,23.8323417 21.588988,23.5662371 L18.0363697,20.0939948 C17.6688105,19.7321786 17.5221983,19.2017561 17.6517607,18.7025322 C17.781323,18.2033085 18.1673763,17.8111273 18.664498,17.6737197 C19.1616196,17.5363122 19.6942851,17.6745535 20.0618444,18.0363697 L23.5983875,21.5729128 C23.8612409,21.8400775 24.0058622,22.2015659 23.9998179,22.5763089 C23.9937737,22.951052 23.8375698,23.3076883 23.5662371,23.5662371 Z" id="Shape" fill="#232325" fill-rule="nonzero"></path>
    </g>
</svg>