<?xml version="1.0" encoding="UTF-8"?>
<svg width="13px" height="20px" viewBox="0 0 13 20" version="1.1" xmlns="http://www.w3.org/2000/svg" xmlns:xlink="http://www.w3.org/1999/xlink">
    <!-- Generator: Sketch 51.3 (57544) - http://www.bohemiancoding.com/sketch -->
    <title>Shape</title>
    <desc>Created with Sketch.</desc>
    <defs></defs>
    <g id="Page-1" stroke="none" stroke-width="1" fill="none" fill-rule="evenodd">
        <path d="M8,0 C6.8954305,0 6,0.8954305 6,2 C6,3.1045695 6.8954305,4 8,4 C9.1045695,4 10,3.1045695 10,2 C10,0.8954305 9.1045695,0 8,0 Z M5.763672,5 L1.1835938,7.2910156 L0.0527344,10.683594 L1.9472656,11.316406 L2.8164062,8.710938 L4.5917969,7.8222656 L2.015625,20 L4.0605469,20 L5.441406,13.472656 C5.920406,14.041656 6.652,14.961984 7,15.333984 L7,20 L9,20 L9,14.697266 L7.826172,12.9375 L8.658203,9.441406 C8.942203,9.945406 9.283641,10.380328 9.681641,10.736328 C10.605641,11.563328 11.753,12 13,12 L13,10 C12.231,10 11.582625,9.753094 11.015625,9.246094 C10.508625,8.793094 10.133344,8.091109 9.902344,7.1621094 C9.474344,5.4511094 7.817,5 7,5 L5.763672,5 Z" id="Shape" fill="#232325" fill-rule="nonzero"></path>
    </g>
</svg>