<?xml version="1.0" encoding="UTF-8"?>
<svg width="18px" height="20px" viewBox="0 0 18 20" version="1.1" xmlns="http://www.w3.org/2000/svg" xmlns:xlink="http://www.w3.org/1999/xlink">
    <!-- Generator: Sketch 61.2 (89653) - https://sketch.com -->
    <title>ds-icon--youtube</title>
    <desc>Created with Sketch.</desc>
    <g id="Page-1" stroke="none" stroke-width="1" fill="none" fill-rule="evenodd">
        <g id="ds-icon--youtube" fill="#000000" fill-rule="nonzero">
            <path d="M2.6796875,0 L4.1582031,5.34375 L4.1582031,7.90625 L5.4394531,7.90625 L5.4394531,5.34375 L6.9375,0 L5.6464844,0 L5.109375,2.4316406 C4.958375,3.1416406 4.8623594,3.6462656 4.8183594,3.9472656 L4.7792969,3.9472656 C4.7162969,3.5262656 4.6202813,3.017875 4.4882812,2.421875 L3.9707031,0 L2.6796875,0 Z M8.431641,2.0175781 C7.997641,2.0175781 7.647859,2.1023906 7.380859,2.2753906 C7.113859,2.4473906 6.9170156,2.7226094 6.7910156,3.0996094 C6.6660156,3.4766094 6.6035156,3.9756563 6.6035156,4.5976562 L6.6035156,5.4375 C6.6035156,6.0525 6.6575781,6.5450156 6.7675781,6.9160156 C6.8775781,7.2870156 7.063219,7.5603281 7.324219,7.7363281 C7.585219,7.9123281 7.944344,8 8.402344,8 C8.848344,8 9.202891,7.9132344 9.462891,7.7402344 C9.722891,7.5672344 9.911344,7.295875 10.027344,6.921875 C10.143344,6.547875 10.201172,6.0535 10.201172,5.4375 L10.201172,4.5976562 C10.201172,3.9766562 10.142437,3.4794687 10.023438,3.1054688 C9.904438,2.7324687 9.715031,2.45725 9.457031,2.28125 C9.199031,2.10525 8.858641,2.0175781 8.431641,2.0175781 Z M10.878906,2.1308594 L10.878906,6.4453125 C10.878906,6.9793125 10.968391,7.3720469 11.150391,7.6230469 C11.332391,7.8740469 11.615047,8 11.998047,8 C12.550047,8 12.966187,7.7332188 13.242188,7.1992188 L13.269531,7.1992188 L13.382812,7.90625 L14.400391,7.90625 L14.400391,2.1308594 L13.101562,2.1308594 L13.101562,6.71875 C13.051563,6.82575 12.975094,6.9134219 12.871094,6.9824219 C12.767094,7.0524219 12.659875,7.0859375 12.546875,7.0859375 C12.414875,7.0859375 12.320672,7.031875 12.263672,6.921875 C12.206672,6.811875 12.177734,6.6271406 12.177734,6.3691406 L12.177734,2.1308594 L10.878906,2.1308594 Z M8.402344,2.9121094 C8.584344,2.9121094 8.713156,3.0072187 8.785156,3.1992188 C8.857156,3.3902187 8.892578,3.694375 8.892578,4.109375 L8.892578,5.9082031 C8.892578,6.3352031 8.857156,6.6440312 8.785156,6.8320312 C8.713156,7.0200312 8.585297,7.1142344 8.404297,7.1152344 C8.222297,7.1152344 8.096344,7.0200313 8.027344,6.8320312 C7.957344,6.6440313 7.923828,6.3352031 7.923828,5.9082031 L7.923828,4.109375 C7.923828,3.695375 7.95925,3.3912188 8.03125,3.1992188 C8.10325,3.0082187 8.226344,2.9121094 8.402344,2.9121094 Z M2,9 C0.9,9 0,9.9 0,11 L0,18 C0,19.1 0.9,20 2,20 L16,20 C17.1,20 18,19.1 18,18 L18,11 C18,9.9 17.1,9 16,9 L2,9 Z M9.048828,11 L10.105469,11 L10.105469,13.568359 L10.113281,13.568359 C10.208281,13.382359 10.344531,13.233141 10.519531,13.119141 C10.694531,13.005141 10.883938,12.949219 11.085938,12.949219 C11.345937,12.949219 11.549266,13.01825 11.697266,13.15625 C11.845266,13.29425 11.953531,13.517219 12.019531,13.824219 C12.085531,14.132219 12.117187,14.559469 12.117188,15.105469 L12.117188,15.876953 L12.119141,15.876953 C12.119141,16.603953 12.030469,17.136516 11.855469,17.478516 C11.680469,17.820516 11.408109,17.992188 11.037109,17.992188 C10.830109,17.992188 10.642656,17.944609 10.472656,17.849609 C10.302656,17.754609 10.174844,17.623984 10.089844,17.458984 L10.066406,17.458984 L9.955078,17.919922 L9.048828,17.919922 L9.048828,11 Z M2.4863281,11.246094 L5.7382812,11.246094 L5.7382812,12.130859 L4.6484375,12.130859 L4.6484375,17.919922 L3.5761719,17.919922 L3.5761719,12.130859 L2.4863281,12.130859 L2.4863281,11.246094 Z M14.097656,12.951172 C14.473656,12.951172 14.762844,13.020203 14.964844,13.158203 C15.165844,13.296203 15.307625,13.511734 15.390625,13.802734 C15.472625,14.094734 15.513672,14.497719 15.513672,15.011719 L15.513672,15.847656 L13.677734,15.847656 L13.677734,16.095703 C13.677734,16.408703 13.686078,16.642828 13.705078,16.798828 C13.724078,16.954828 13.762312,17.069625 13.820312,17.140625 C13.878312,17.212625 13.967844,17.248047 14.089844,17.248047 C14.253844,17.248047 14.366734,17.183641 14.427734,17.056641 C14.488734,16.929641 14.522344,16.718875 14.527344,16.421875 L15.474609,16.476562 C15.479609,16.518563 15.482422,16.578344 15.482422,16.652344 C15.482422,17.103344 15.358328,17.440109 15.111328,17.662109 C14.864328,17.885109 14.517406,17.996094 14.066406,17.996094 C13.525406,17.996094 13.145734,17.825328 12.927734,17.486328 C12.709734,17.147328 12.601562,16.623109 12.601562,15.912109 L12.601562,15.060547 C12.601562,14.328547 12.714453,13.794031 12.939453,13.457031 C13.164453,13.120031 13.551656,12.951172 14.097656,12.951172 Z M5.4101562,13.044922 L6.5097656,13.044922 L6.5097656,16.625 C6.5097656,16.842 6.5340312,16.997844 6.5820312,17.089844 C6.6300313,17.182844 6.7083125,17.228516 6.8203125,17.228516 C6.9153125,17.228516 7.008703,17.199625 7.095703,17.140625 C7.183703,17.082625 7.246062,17.007969 7.289062,16.917969 L7.289062,13.044922 L8.388672,13.044922 L8.388672,17.919922 L8.386719,17.919922 L7.527344,17.919922 L7.433594,17.322266 L7.408203,17.322266 C7.174203,17.774266 6.8244219,18 6.3574219,18 C6.0334219,18 5.7965781,17.893641 5.6425781,17.681641 C5.4885781,17.469641 5.4101562,17.1375 5.4101562,16.6875 L5.4101562,13.044922 Z M14.074219,13.693359 C13.957219,13.693359 13.870453,13.728875 13.814453,13.796875 C13.758453,13.865875 13.721125,13.978766 13.703125,14.134766 C13.684125,14.290766 13.675781,14.527703 13.675781,14.845703 L13.675781,15.195312 L14.478516,15.195312 L14.478516,14.845703 C14.478516,14.532703 14.468266,14.296766 14.447266,14.134766 C14.427266,13.972766 14.388031,13.858969 14.332031,13.792969 C14.276031,13.726969 14.191219,13.693359 14.074219,13.693359 Z M10.591797,13.728516 C10.485797,13.728516 10.388828,13.770469 10.298828,13.855469 C10.208828,13.940469 10.144422,14.049641 10.107422,14.181641 L10.107422,16.949219 C10.155422,17.034219 10.217922,17.097625 10.294922,17.140625 C10.371922,17.182625 10.453922,17.205078 10.544922,17.205078 C10.661922,17.205078 10.753266,17.163125 10.822266,17.078125 C10.891266,16.993125 10.941703,16.850437 10.970703,16.648438 C10.999703,16.447437 11.013672,16.1675 11.013672,15.8125 L11.013672,15.185547 C11.013672,14.803547 11.002516,14.509734 10.978516,14.302734 C10.954516,14.095734 10.911562,13.946375 10.851562,13.859375 C10.790563,13.772375 10.703797,13.728516 10.591797,13.728516 Z" id="Shape"></path>
        </g>
    </g>
</svg>