<?xml version="1.0" encoding="UTF-8"?>
<svg width="22px" height="16px" viewBox="0 0 22 16" version="1.1" xmlns="http://www.w3.org/2000/svg" xmlns:xlink="http://www.w3.org/1999/xlink">
    <!-- Generator: Sketch 61.2 (89653) - https://sketch.com -->
    <title>Shape</title>
    <desc>Created with Sketch.</desc>
    <g id="Page-1" stroke="none" stroke-width="1" fill="none" fill-rule="evenodd">
        <path d="M19,4 L16,4 L16,0 L2,0 C0.9,0 0,0.9 0,2 L0,13 L2,13 C2,14.66 3.34,16 5,16 C6.66,16 8,14.66 8,13 L14,13 C14,14.66 15.34,16 17,16 C18.66,16 20,14.66 20,13 L22,13 L22,8 L19,4 Z M5,14.5 C4.17,14.5 3.5,13.83 3.5,13 C3.5,12.17 4.17,11.5 5,11.5 C5.83,11.5 6.5,12.17 6.5,13 C6.5,13.83 5.83,14.5 5,14.5 Z M18.5,5.5 L20.46,8 L16,8 L16,5.5 L18.5,5.5 Z M17,14.5 C16.17,14.5 15.5,13.83 15.5,13 C15.5,12.17 16.17,11.5 17,11.5 C17.83,11.5 18.5,12.17 18.5,13 C18.5,13.83 17.83,14.5 17,14.5 Z" id="Shape" fill="#232325" fill-rule="nonzero"></path>
    </g>
</svg>