<?xml version="1.0" encoding="UTF-8"?>
<svg width="18px" height="22px" viewBox="0 0 18 22" version="1.1" xmlns="http://www.w3.org/2000/svg" xmlns:xlink="http://www.w3.org/1999/xlink">
    <!-- Generator: Sketch 51.3 (57544) - http://www.bohemiancoding.com/sketch -->
    <title>ds-icon--security</title>
    <desc>Created with Sketch.</desc>
    <defs></defs>
    <g id="Page-1" stroke="none" stroke-width="1" fill="none" fill-rule="evenodd">
        <g id="ds-icon--security" fill-rule="nonzero">
            <g id="icons8-shield" fill="#424245">
                <path d="M9,0 L0,4 C0,4 0,8 0,10 C0,17.83 6.439,21.486 9,22 C11.561,21.486 18,17.83 18,10 C18,8 18,4 18,4 L9,0 Z" id="Shape"></path>
            </g>
            <g id="icons8-lock2" transform="translate(5.000000, 4.000000)" fill="#FFFFFF">
                <path d="M4,0 C2.33809525,0 1,1.40181407 1,3.14285714 L1,3.66666667 C0.45,3.66666667 0,4.13809524 0,4.71428571 L0,9.95238095 C0,10.5285714 0.45,11 1,11 L7,11 C7.55,11 8,10.5285714 8,9.95238095 L8,4.71428571 C8,4.13809524 7.55,3.66666667 7,3.66666667 L7,3.14285714 C7,1.40181407 5.661905,0 4,0 Z M4,1.04761905 C5.138095,1.04761905 6,1.95056688 6,3.14285714 L6,3.66666667 L2,3.66666667 L2,3.14285714 C2,1.95056688 2.86190475,1.04761905 4,1.04761905 Z M4,6.28571429 C4.55,6.28571429 5,6.75714286 5,7.33333333 C5,7.90952381 4.55,8.38095238 4,8.38095238 C3.45,8.38095238 3,7.90952381 3,7.33333333 C3,6.75714286 3.45,6.28571429 4,6.28571429 Z" id="Shape"></path>
            </g>
        </g>
    </g>
</svg>