<?xml version="1.0" encoding="UTF-8"?>
<svg width="15px" height="16px" viewBox="0 0 15 16" version="1.1" xmlns="http://www.w3.org/2000/svg" xmlns:xlink="http://www.w3.org/1999/xlink">
    <!-- Generator: Sketch 63.1 (92452) - https://sketch.com -->
    <title>Shape</title>
    <desc>Created with Sketch.</desc>
    <g id="Page-2" stroke="none" stroke-width="1" fill="none" fill-rule="evenodd">
        <g id="d-schedule-2a.2-copy-2" transform="translate(-752.000000, -269.000000)" fill="#232325" fill-rule="nonzero">
            <g id="icons8-calendar_minus" transform="translate(752.000000, 269.000000)">
                <path d="M3.2,0 C2.7584,0 2.4,0.3584 2.4,0.8 L2.4,1.6 L1.6,1.6 C0.716,1.6 0,2.316 0,3.2 L0,14.4 C0,15.284 0.716,16 1.6,16 L12.8,16 C13.684,16 14.4,15.284 14.4,14.4 L14.4,3.2 C14.4,2.316 13.684,1.6 12.8,1.6 L12,1.6 L12,0.8 C12,0.3584 11.6416,0 11.2,0 C10.7584,0 10.4,0.3584 10.4,0.8 L10.4,1.6 L4,1.6 L4,0.8 C4,0.3584 3.6416,0 3.2,0 Z M1.6,5.6 L12.8,5.6 L12.8015624,14.4 L1.6,14.4 L1.6,5.6 Z M5.6,9.6 C5.1584,9.6 4.8,9.9584 4.8,10.4 C4.8,10.8416 5.1584,11.2 5.6,11.2 L8.8,11.2 C9.2416,11.2 9.6,10.8416 9.6,10.4 C9.6,9.9584 9.2416,9.6 8.8,9.6 L5.6,9.6 Z" id="Shape"></path>
            </g>
        </g>
    </g>
</svg>