<?xml version="1.0" encoding="UTF-8"?>
<svg width="208px" height="208px" viewBox="0 0 208 208" version="1.1" xmlns="http://www.w3.org/2000/svg" xmlns:xlink="http://www.w3.org/1999/xlink">
    <!-- Generator: Sketch 61.2 (89653) - https://sketch.com -->
    <title>ds-icon--compare</title>
    <desc>Created with Sketch.</desc>
    <g id="Page-1" stroke="none" stroke-width="1" fill="none" fill-rule="evenodd">
        <g id="ds-icon--compare" transform="translate(0.000000, -1.000000)" fill="#424245" fill-rule="nonzero">
            <g id="Group" transform="translate(104.500000, 104.500000) scale(-1, 1) rotate(-180.000000) translate(-104.500000, -104.500000) translate(0.500000, 0.500000)">
                <path d="M23.9,206.6 C19.2,205.4 10.6,200.4 7.9,197.2 C6.5,195.5 4.2,191.9 2.7,189.1 L0,184 L0,123.5 L0,63 L3.4,56.7 C7.2,49.7 10.3,46.7 17.9,42.7 L23,40 L55.1,39.7 L87.2,39.4 L87.7,31.1 C88.6,17.9 93.8,9.3 104.7,3.4 L111,0 L147.5,0 L184,0 L190.3,3.4 C197.3,7.2 200.3,10.3 204.3,17.9 L207,23 L207.3,68 C207.5,100.3 207.3,114.1 206.5,117 C205.5,120.2 201.1,125.2 183.6,142.7 C169.1,157.3 160.7,164.9 158.1,166 C154.9,167.4 150.6,167.6 132.8,167.4 L111.4,167.2 L92.7,185.8 C81,197.4 72.6,205 70.3,206 C67.3,207.2 62.6,207.5 46.8,207.4 C35.9,207.3 25.6,207 23.9,206.6 Z M68.6,188.6 C71.4,185.7 71.5,185.4 71.5,175 C71.5,165.1 71.7,164.3 74,162 C76.3,159.6 77.1,159.5 87.5,159.5 C97.9,159.5 98.7,159.4 101,157 L103.5,154.6 L103.5,109.7 C103.5,65.1 103.5,64.7 101.3,62 C100.1,60.5 97.3,58.4 95.1,57.4 C91.4,55.7 88,55.5 59.7,55.5 C35.5,55.5 27.7,55.8 25.2,56.9 C21.1,58.6 16.9,63.5 16,67.7 C15.6,69.4 15.6,95.8 16,126.2 C16.7,180.4 16.8,181.6 18.9,184.7 C23.1,190.8 25.8,191.5 46.8,191.5 L65.7,191.5 L68.6,188.6 Z M156.6,148.6 C159.4,145.7 159.5,145.4 159.5,135 C159.5,125.1 159.7,124.3 162,122 C164.3,119.6 165.1,119.5 175.5,119.5 C185.9,119.5 186.7,119.4 189,117 L191.5,114.6 L191.5,69.6 L191.5,24.7 L189,21.6 C184,15.7 181.5,15.4 145.8,15.7 C115.1,16 113.5,16.1 110.9,18.1 C105.2,22.3 104,25 103.7,34.4 L103.3,43.2 L108.9,48.6 C112.7,52.3 115.3,55.8 116.8,59.6 L119.1,65.2 L134.5,53.4 C143,46.9 150.3,41.6 150.8,41.6 C151.2,41.5 151.5,46.5 151.5,52.5 L151.5,63.5 L163.5,63.5 L175.5,63.5 L175.5,71.5 L175.5,79.5 L163.5,79.5 L151.5,79.5 L151.5,90.5 C151.5,96.6 151.2,101.5 150.9,101.5 C150.6,101.5 144,96.6 136.2,90.7 C128.4,84.7 121.4,79.5 120.8,79.1 C119.8,78.5 119.5,86 119.5,114.9 L119.5,151.5 L136.6,151.5 L153.7,151.5 L156.6,148.6 Z" id="Shape"></path>
                <path d="M54.5,130.5 L54.5,119.5 L42.5,119.5 L30.5,119.5 L30.5,111.5 L30.5,103.5 L42.5,103.5 L54.5,103.5 L54.5,92.5 C54.5,86.5 54.8,81.5 55.3,81.5 C56.4,81.6 94,110.6 94,111.5 C94,112.3 56.4,141.4 55.3,141.5 C54.8,141.5 54.5,136.6 54.5,130.5 Z" id="Path"></path>
            </g>
        </g>
    </g>
</svg>