<?xml version="1.0" encoding="UTF-8"?>
<svg width="16px" height="16px" viewBox="0 0 16 16" version="1.1" xmlns="http://www.w3.org/2000/svg" xmlns:xlink="http://www.w3.org/1999/xlink">
    <!-- Generator: Sketch 51.3 (57544) - http://www.bohemiancoding.com/sketch -->
    <title>path-1</title>
    <desc>Created with Sketch.</desc>
    <defs></defs>
    <g id="Page-1" stroke="none" stroke-width="1" fill="none" fill-rule="evenodd">
        <path d="M13,0 C13.5522847,0 14,0.44771525 14,1 L14,2 L15.5,2 C15.7761424,2 16,2.22385763 16,2.5 L16,15.5 C16,15.7761424 15.7761424,16 15.5,16 L4.5,16 C4.22385763,16 4,15.7761424 4,15.5 L4,2.5 C4,2.22385763 4.22385763,2 4.5,2 L6,2 L6,1 C6,0.44771525 6.4477153,0 7,0 L13,0 Z M2.5,0 C2.74545989,0 2.94960837,0.17687516 2.99194433,0.41012437 L3,0.5 L3,15.5 C3,15.7454599 2.82312484,15.9496084 2.58987563,15.9919443 L2.5,16 L0.5,16 C0.25454011,16 0.05039163,15.8231248 0.00805567,15.5898756 L0,15.5 L0,2.5 C0,2.25454011 0.17687516,2.05039163 0.41012437,2.00805567 L0.5,2 L2,2 L2,0.5 C2,0.22385763 2.22385763,0 2.5,0 Z M7,12 C6.4477153,12 6,12.4477153 6,13 C6,13.5522847 6.4477153,14 7,14 C7.5522847,14 8,13.5522847 8,13 C8,12.4477153 7.5522847,12 7,12 Z M10,12 C9.4477153,12 9,12.4477153 9,13 C9,13.5522847 9.4477153,14 10,14 C10.5522847,14 11,13.5522847 11,13 C11,12.4477153 10.5522847,12 10,12 Z M13,12 C12.4477153,12 12,12.4477153 12,13 C12,13.5522847 12.4477153,14 13,14 C13.5522847,14 14,13.5522847 14,13 C14,12.4477153 13.5522847,12 13,12 Z M7,8 C6.4477153,8 6,8.4477153 6,9 C6,9.5522847 6.4477153,10 7,10 C7.5522847,10 8,9.5522847 8,9 C8,8.4477153 7.5522847,8 7,8 Z M10,8 C9.4477153,8 9,8.4477153 9,9 C9,9.5522847 9.4477153,10 10,10 C10.5522847,10 11,9.5522847 11,9 C11,8.4477153 10.5522847,8 10,8 Z M13,8 C12.4477153,8 12,8.4477153 12,9 C12,9.5522847 12.4477153,10 13,10 C13.5522847,10 14,9.5522847 14,9 C14,8.4477153 13.5522847,8 13,8 Z M7,4 C6.4477153,4 6,4.44771525 6,5 C6,5.55228475 6.4477153,6 7,6 C7.5522847,6 8,5.55228475 8,5 C8,4.44771525 7.5522847,4 7,4 Z M10,4 C9.4477153,4 9,4.44771525 9,5 C9,5.55228475 9.4477153,6 10,6 C10.5522847,6 11,5.55228475 11,5 C11,4.44771525 10.5522847,4 10,4 Z M13,4 C12.4477153,4 12,4.44771525 12,5 C12,5.55228475 12.4477153,6 13,6 C13.5522847,6 14,5.55228475 14,5 C14,4.44771525 13.5522847,4 13,4 Z M13,1 L7,1 L7,2 L13,2 L13,1 Z" id="path-1" fill="#232325" fill-rule="nonzero"></path>
    </g>
</svg>