<?xml version="1.0" encoding="UTF-8"?>
<svg width="42px" height="30px" viewBox="0 0 42 30" version="1.1" xmlns="http://www.w3.org/2000/svg" xmlns:xlink="http://www.w3.org/1999/xlink">
    <!-- Generator: Sketch 51.3 (57544) - http://www.bohemiancoding.com/sketch -->
    <title>icons8-visa</title>
    <desc>Created with Sketch.</desc>
    <defs></defs>
    <g id="Page-1" stroke="none" stroke-width="1" fill="none" fill-rule="evenodd">
        <g id="icons8-visa" fill-rule="nonzero">
            <path d="M42,26 C42,28.209 40.209,30 38,30 L4,30 C1.791,30 0,28.209 0,26 L0,4 C0,1.791 1.791,0 4,0 L38,0 C40.209,0 42,1.791 42,4 L42,26 Z" id="Shape" fill="#1565C0"></path>
            <g id="Group" transform="translate(5.000000, 9.000000)" fill="#FFFFFF">
                <path d="M7.186,1 L4.56,8.832 C4.56,8.832 3.893,5.519 3.827,5.103 C2.332,1.692 0.126,1.882 0.126,1.882 L2.726,12 L2.726,11.998 L5.887,11.998 L10.258,1 L7.186,1 Z" id="Shape"></path>
                <polygon id="Shape" points="9.689 12 12.56 12 14.296 1 11.389 1"></polygon>
                <path d="M30.008,1 L26.987,1 L22.277,12 L25.129,12 L25.717,10.429 L29.313,10.429 L29.619,12 L32.232,12 L30.008,1 Z M26.513,8.328 L28.076,4.171 L28.894,8.328 L26.513,8.328 Z" id="Shape"></path>
                <path d="M18.369,4.206 C18.369,3.6 18.867,3.149 20.295,3.149 C21.223,3.149 22.286,3.823 22.286,3.823 L22.752,1.514 C22.752,1.514 21.394,0.999 20.061,0.999 C17.042,0.999 15.485,2.443 15.485,4.271 C15.485,7.577 19.464,7.124 19.464,8.822 C19.464,9.113 19.233,9.786 17.576,9.786 C15.914,9.786 14.817,9.177 14.817,9.177 L14.322,11.393 C14.322,11.393 15.385,11.999 17.439,11.999 C19.498,11.999 22.354,10.459 22.354,8.247 C22.354,5.586 18.369,5.394 18.369,4.206 Z" id="Shape"></path>
            </g>
            <path d="M9.212,15.945 L8.246,11.197 C8.246,11.197 7.809,10.168 6.673,10.168 C5.537,10.168 2.233,10.168 2.233,10.168 C2.233,10.168 7.894,11.84 9.212,15.945 Z" id="Shape" fill="#FFC107"></path>
        </g>
    </g>
</svg>