<?xml version="1.0" encoding="UTF-8"?>
<svg width="22px" height="13px" viewBox="0 0 22 13" version="1.1" xmlns="http://www.w3.org/2000/svg" xmlns:xlink="http://www.w3.org/1999/xlink">
    <!-- Generator: Sketch 51.3 (57544) - http://www.bohemiancoding.com/sketch -->
    <title>Group</title>
    <desc>Created with Sketch.</desc>
    <defs></defs>
    <g id="Page-1" stroke="none" stroke-width="1" fill="none" fill-rule="evenodd">
        <g id="Group" fill="#232325" fill-rule="nonzero">
            <path d="M20,0 L2,0 C0.895,0 0,0.895 0,2 L0,11 C0,12.105 0.895,13 2,13 L20,13 C21.105,13 22,12.105 22,11 L22,2 C22,0.895 21.105,0 20,0 Z M4.2578125,8.46484375 L4.2578125,4.91015625 C3.59635086,5.41797129 3.15104281,5.671875 2.921875,5.671875 C2.81249945,5.671875 2.71549521,5.62825564 2.63085938,5.54101562 C2.54622354,5.45377561 2.50390625,5.35286516 2.50390625,5.23828125 C2.50390625,5.10546809 2.5455725,5.00781281 2.62890625,4.9453125 C2.71224,4.88281219 2.85937395,4.80208383 3.0703125,4.703125 C3.38541824,4.55468676 3.63736885,4.39843832 3.82617188,4.234375 C4.0149749,4.07031168 4.18229094,3.88671977 4.328125,3.68359375 C4.47395906,3.48046773 4.5690102,3.35546898 4.61328125,3.30859375 C4.6575523,3.26171852 4.7408848,3.23828125 4.86328125,3.23828125 C5.00130277,3.23828125 5.11197875,3.29166613 5.1953125,3.3984375 C5.27864625,3.50520887 5.3203125,3.65234281 5.3203125,3.83984375 L5.3203125,8.3125 C5.3203125,8.83594012 5.14192887,9.09765625 4.78515625,9.09765625 C4.62630129,9.09765625 4.4986984,9.04427137 4.40234375,8.9375 C4.3059891,8.83072863 4.2578125,8.67317812 4.2578125,8.46484375 Z M9.88906252,8.078125 L11.928125,8.078125 C12.131251,8.078125 12.2861974,8.11979125 12.3929688,8.203125 C12.4997401,8.28645875 12.553125,8.39973887 12.553125,8.54296875 C12.553125,8.67057355 12.5108077,8.77864539 12.4261719,8.8671875 C12.3415361,8.95572961 12.2132821,9 12.0414063,9 L9.16640627,9 C8.9710928,9 8.81875057,8.94596408 8.70937502,8.83789062 C8.59999948,8.72981717 8.54531252,8.60286531 8.54531252,8.45703125 C8.54531252,8.36328078 8.58046842,8.23893307 8.65078127,8.08398438 C8.72109413,7.92903568 8.79791627,7.80729211 8.88125002,7.71875 C9.22760592,7.3593732 9.5401028,7.05143357 9.81875002,6.79492188 C10.0973973,6.53841018 10.296614,6.36979207 10.4164063,6.2890625 C10.629949,6.13802008 10.8076816,5.98632889 10.9496094,5.83398438 C11.0915372,5.68163986 11.199609,5.52539143 11.2738281,5.36523438 C11.3480473,5.20507732 11.3851563,5.04817785 11.3851563,4.89453125 C11.3851563,4.72786375 11.3454431,4.5787767 11.2660156,4.44726562 C11.1865882,4.31575455 11.0785163,4.21354203 10.9417969,4.140625 C10.8050775,4.06770797 10.6559904,4.03125 10.4945313,4.03125 C10.1533837,4.03125 9.88515725,4.18098809 9.68984377,4.48046875 C9.66380198,4.51953145 9.62018262,4.62630121 9.5589844,4.80078125 C9.49778618,4.97526129 9.42877645,5.10937453 9.35195315,5.203125 C9.27512985,5.29687547 9.16250077,5.34375 9.01406252,5.34375 C8.88385354,5.34375 8.7757817,5.30078168 8.68984377,5.21484375 C8.60390584,5.12890582 8.56093752,5.01171949 8.56093752,4.86328125 C8.56093752,4.68359285 8.6013017,4.49609473 8.68203127,4.30078125 C8.76276084,4.10546777 8.88320235,3.92838621 9.0433594,3.76953125 C9.20351645,3.61067629 9.40663942,3.48242236 9.6527344,3.38476562 C9.89882938,3.28710889 10.187238,3.23828125 10.5179688,3.23828125 C10.9164083,3.23828125 11.2562486,3.30078062 11.5375,3.42578125 C11.7197926,3.509115 11.8799473,3.62369719 12.0179688,3.76953125 C12.1559903,3.91536531 12.2634111,4.08398342 12.3402344,4.27539062 C12.4170577,4.46679783 12.4554688,4.66536355 12.4554688,4.87109375 C12.4554688,5.19401203 12.3753914,5.48762889 12.2152344,5.75195312 C12.0550773,6.01627736 11.8916675,6.22330654 11.725,6.37304688 C11.5583325,6.52278721 11.2790384,6.7578109 10.8871094,7.078125 C10.4951804,7.3984391 10.2263028,7.64713453 10.0804688,7.82421875 C10.0179685,7.8945316 9.95416702,7.97916617 9.88906252,8.078125 Z M16.3992188,5.54296875 C16.6388033,5.54296875 16.8451815,5.47265695 17.0183594,5.33203125 C17.1915374,5.19140555 17.278125,4.98958465 17.278125,4.7265625 C17.278125,4.52604066 17.2091153,4.35351635 17.0710938,4.20898438 C16.9330723,4.0644524 16.7468762,3.9921875 16.5125,3.9921875 C16.3536451,3.9921875 16.222787,4.0143227 16.1199219,4.05859375 C16.0170568,4.1028648 15.9356774,4.16145797 15.8757813,4.234375 C15.8158852,4.30729203 15.7592451,4.40104109 15.7058594,4.515625 C15.6524737,4.63020891 15.6036461,4.73828074 15.559375,4.83984375 C15.5333333,4.89453152 15.4864587,4.93749984 15.41875,4.96875 C15.3510414,5.00000016 15.2729172,5.015625 15.184375,5.015625 C15.0802079,5.015625 14.9845057,4.97330771 14.8972657,4.88867188 C14.8100257,4.80403604 14.7664063,4.69140695 14.7664063,4.55078125 C14.7664063,4.41536391 14.8074215,4.27278721 14.8894532,4.12304688 C14.9714848,3.97330654 15.0912753,3.83072984 15.2488282,3.6953125 C15.406381,3.55989516 15.6023426,3.45117229 15.8367188,3.36914062 C16.071095,3.28710896 16.3328111,3.24609375 16.621875,3.24609375 C16.8744805,3.24609375 17.1049469,3.28059861 17.3132813,3.34960938 C17.5216157,3.41862014 17.7026034,3.51822852 17.85625,3.6484375 C18.0098966,3.77864648 18.1257809,3.92968664 18.2039063,4.1015625 C18.2820317,4.27343836 18.3210938,4.45833234 18.3210938,4.65625 C18.3210938,4.91666797 18.2644537,5.13997303 18.1511719,5.32617188 C18.0378901,5.51237072 17.8757824,5.69400953 17.6648438,5.87109375 C17.8679698,5.9804693 18.0391921,6.10546805 18.1785157,6.24609375 C18.3178393,6.38671945 18.4226559,6.54231686 18.4929688,6.71289062 C18.5632816,6.88346439 18.5984375,7.06770734 18.5984375,7.265625 C18.5984375,7.50260535 18.550912,7.73176973 18.4558594,7.953125 C18.3608069,8.17448027 18.2208343,8.37174393 18.0359375,8.54492188 C17.8510408,8.71809982 17.6316419,8.85351514 17.3777344,8.95117188 C17.1238269,9.04882861 16.8432308,9.09765625 16.5359375,9.09765625 C16.223436,9.09765625 15.9434909,9.04166723 15.6960938,8.9296875 C15.4486967,8.81770777 15.2449227,8.67773521 15.0847657,8.50976562 C14.9246086,8.34179604 14.8035161,8.16796965 14.7214844,7.98828125 C14.6394528,7.80859285 14.5984375,7.66015684 14.5984375,7.54296875 C14.5984375,7.39192633 14.6472652,7.27018275 14.7449219,7.17773438 C14.8425787,7.085286 14.9643222,7.0390625 15.1101563,7.0390625 C15.1830733,7.0390625 15.2533851,7.06054666 15.3210938,7.10351562 C15.3888025,7.14648459 15.4330729,7.19791637 15.4539063,7.2578125 C15.5893236,7.61979348 15.7345045,7.888671 15.8894532,8.06445312 C16.0444019,8.24023525 16.2624986,8.328125 16.54375,8.328125 C16.7052092,8.328125 16.8608066,8.28841186 17.0105469,8.20898438 C17.1602873,8.12955689 17.2839839,8.01171953 17.3816407,7.85546875 C17.4792974,7.69921797 17.528125,7.5182302 17.528125,7.3125 C17.528125,7.00781098 17.4447925,6.76888107 17.278125,6.59570312 C17.1114575,6.42252518 16.879689,6.3359375 16.5828125,6.3359375 C16.530729,6.3359375 16.4500006,6.34114578 16.340625,6.3515625 C16.2312495,6.36197922 16.1609377,6.3671875 16.1296875,6.3671875 C15.9864577,6.3671875 15.8757817,6.33138057 15.7976563,6.25976562 C15.7195309,6.18815068 15.6804688,6.0885423 15.6804688,5.9609375 C15.6804688,5.83593687 15.7273433,5.73502643 15.8210938,5.65820312 C15.9148443,5.58137982 16.0541658,5.54296875 16.2390625,5.54296875 L16.3992188,5.54296875 Z" id="ds-icon--keyboard"></path>
        </g>
    </g>
</svg>