<?xml version="1.0" encoding="UTF-8"?>
<svg width="24px" height="24px" viewBox="0 0 24 24" version="1.1" xmlns="http://www.w3.org/2000/svg" xmlns:xlink="http://www.w3.org/1999/xlink">
    <!-- Generator: Sketch 51.3 (57544) - http://www.bohemiancoding.com/sketch -->
    <title>ds-icon__resources</title>
    <desc>Created with Sketch.</desc>
    <defs></defs>
    <g id="ds-icon__resources" stroke="none" stroke-width="1" fill="none" fill-rule="evenodd">
        <path d="M3.66666667,0 C3.19269775,0.000253404598 2.75448442,0.252077396 2.51562507,0.6614584 L0.182291733,4.6614584 C0.0631072853,4.86532442 0.000199468684,5.09718455 0,5.33333333 L0,21.3333333 C0,22.7907507 1.2092496,24 2.66666667,24 L21.3333333,24 C22.7907507,24 24,22.7907507 24,21.3333333 L24,5.33333333 C23.9998004,5.09718452 23.9368925,4.86532439 23.817708,4.6614584 L21.4843747,0.6614584 C21.2455154,0.252077479 20.8073021,0.000253499362 20.3333333,0 L3.66666667,0 Z M4.43229173,2.66666667 L19.567708,2.66666667 L21.122396,5.33333333 L2.87760413,5.33333333 L4.43229173,2.66666667 Z M10.6666667,9.33333333 L13.3333333,9.33333333 L13.3333333,14.6666667 L17.3333333,14.6666667 L12,20 L6.66666667,14.6666667 L10.6666667,14.6666667 L10.6666667,9.33333333 Z" id="Shape" fill="#232325" fill-rule="nonzero"></path>
    </g>
</svg>