<?xml version="1.0" encoding="UTF-8"?>
<svg width="24px" height="24px" viewBox="0 0 24 24" version="1.1" xmlns="http://www.w3.org/2000/svg" xmlns:xlink="http://www.w3.org/1999/xlink">
    <!-- Generator: Sketch 51.3 (57544) - http://www.bohemiancoding.com/sketch -->
    <title>ds-icon--calendar</title>
    <desc>Created with Sketch.</desc>
    <defs></defs>
    <g id="Page-1" stroke="none" stroke-width="1" fill="none" fill-rule="evenodd">
        <g id="ds-icon--calendar" fill="#232325" fill-rule="nonzero">
            <path d="M22.8,3.48531767 L19.2,3.48531767 L19.2,1.20448479 C19.2,0.5392662 18.6627417,0 18,0 C17.3372583,0 16.8,0.5392662 16.8,1.20448479 L16.8,3.48531767 L7.2,3.48531767 L7.2,1.20448479 C7.19999998,0.539266215 6.66274168,0 6,0 C5.33725831,0 4.80000002,0.539266215 4.8,1.20448479 L4.8,3.48531767 L1.2,3.48531767 C0.5372583,3.48531767 0,4.02458388 0,4.68980245 L0,22.7955151 C0,23.4607338 0.5372583,24 1.2,24 L22.8,24 C23.1182598,24 23.4234845,23.8730992 23.6485281,23.6472146 C23.8735717,23.4213298 24,23.1149645 24,22.7955151 L24,4.68980245 C24,4.37035323 23.8735717,4.06398781 23.6485281,3.8381031 C23.4234845,3.61221839 23.1182598,3.48531767 22.8,3.48531767 Z M21.6,21.5910304 L2.45106383,21.5910304 L2.45106383,8.98238121 L21.6,8.98238121 L21.6,21.5910304 Z" id="path-1"></path>
        </g>
    </g>
</svg>