<?xml version="1.0" encoding="UTF-8"?>
<svg width="18px" height="17px" viewBox="0 0 18 17" version="1.1" xmlns="http://www.w3.org/2000/svg" xmlns:xlink="http://www.w3.org/1999/xlink">
    <!-- Generator: Sketch 51.3 (57544) - http://www.bohemiancoding.com/sketch -->
    <title>ds-icon-print</title>
    <desc>Created with Sketch.</desc>
    <defs>
        <path d="M17,4.0001 C17.552,4.0001 18,4.4471 18,5.0001 L18,11.0001 C18,11.5521 17.552,12.0001 17,12.0001 L15.75,12.0001 L15.75,15.0021 C15.75,15.9671 14.965,16.7521 14,16.7521 L4,16.7521 C3.035,16.7521 2.25,15.9671 2.25,15.0021 L2.25,12.0001 L1,12.0001 C0.448,12.0001 0,11.5521 0,11.0001 L0,5.0001 C0,4.4471 0.448,4.0001 1,4.0001 L17,4.0001 Z M14,7.7521 L4,7.7521 C3.864,7.7521 3.75,7.8661 3.75,8.0021 L3.75,15.0021 C3.75,15.1381 3.864,15.2521 4,15.2521 L14,15.2521 C14.136,15.2521 14.25,15.1381 14.25,15.0021 L14.25,8.0021 C14.25,7.8661 14.136,7.7521 14,7.7521 Z M9.8076,12.4992 C10.0836,12.4992 10.3076,12.7242 10.3076,12.9992 C10.3076,13.2762 10.0836,13.4992 9.8076,13.4992 L5.9996,13.4992 C5.7236,13.4992 5.4996,13.2762 5.4996,12.9992 C5.4996,12.7242 5.7236,12.4992 5.9996,12.4992 L9.8076,12.4992 Z M7.808,10.4992 C8.084,10.4992 8.308,10.7242 8.308,10.9992 C8.308,11.2762 8.084,11.4992 7.808,11.4992 L6,11.4992 C5.724,11.4992 5.5,11.2762 5.5,10.9992 C5.5,10.7242 5.724,10.4992 6,10.4992 L7.808,10.4992 Z M16,5.0001 C15.448,5.0001 15,5.4471 15,6.0001 C15,6.5521 15.448,7.0001 16,7.0001 C16.552,7.0001 17,6.5521 17,6.0001 C17,5.4471 16.552,5.0001 16,5.0001 Z M14,0.0001 C14.552,0.0001 15,0.4471 15,1.0001 L15,2.0001 C15,2.5521 14.552,3.0001 14,3.0001 L4,3.0001 C3.448,3.0001 3,2.5521 3,2.0001 L3,1.0001 C3,0.4471 3.448,0.0001 4,0.0001 L14,0.0001 Z" id="path-1"></path>
    </defs>
    <g id="Page-1" stroke="none" stroke-width="1" fill="none" fill-rule="evenodd">
        <mask id="mask-2" fill="white">
            <use xlink:href="#path-1"></use>
        </mask>
        <use id="ds-icon-print" fill="#232325" xlink:href="#path-1"></use>
    </g>
</svg>