<?xml version="1.0" encoding="UTF-8"?>
<svg width="24px" height="25px" viewBox="0 0 24 25" version="1.1" xmlns="http://www.w3.org/2000/svg" xmlns:xlink="http://www.w3.org/1999/xlink">
    <!-- Generator: Sketch 51.3 (57544) - http://www.bohemiancoding.com/sketch -->
    <title>ds-icon--address</title>
    <desc>Created with Sketch.</desc>
    <defs></defs>
    <g id="Page-1" stroke="none" stroke-width="1" fill="none" fill-rule="evenodd">
        <g id="ds-icon--address" fill="#232325" fill-rule="nonzero">
            <path d="M11.8631855,0 C15.7216754,0.0206828636 18.8347629,3.16176579 18.8209024,7.02028617 C18.8336971,7.25787774 18.8336971,7.4959857 18.8209024,7.73357729 C18.3704027,14.0030307 11.8631855,18.7082493 11.8631855,18.7082493 C11.8631855,18.7082493 5.38099622,13.965489 4.89295492,7.69603564 C4.88016026,7.45844407 4.88016026,7.22033612 4.89295492,6.98274454 C4.89294874,3.13116291 8.01161013,0.00690246874 11.8631855,0 Z M11.8631855,9.31035307 C12.6353332,9.31365425 13.3769975,9.00925017 13.9241664,8.46442963 C14.4713353,7.91960913 14.7789464,7.17926098 14.7789464,6.40710609 C14.7839856,5.22667628 14.0768111,4.15965934 12.9876869,3.7044136 C11.8985626,3.24916787 10.6424065,3.49552736 9.80591592,4.328428 C8.96942516,5.16132864 8.71766515,6.41641349 9.16822234,7.50748565 C9.61877942,8.59855781 10.682745,9.31035307 11.8631855,9.31035307 Z M22.1495942,24.9652392 L1.57677696,24.9652392 C1.0612724,24.9693192 0.576832534,24.7191888 0.281704378,24.2965053 C-0.0134237906,23.8738218 -0.0813407462,23.3328648 0.100139235,22.8503432 L2.34012358,16.2054735 C2.42450177,15.8487213 2.73709601,15.5924965 3.10347022,15.5797772 L4.83038552,15.5797772 C5.3635897,16.3933965 5.94441198,17.1747905 6.56981472,17.9198749 L4.21720545,17.9198749 L2.80313712,22.1245383 C2.7658012,22.2256381 2.78095122,22.3386659 2.84359336,22.426365 C2.90623551,22.5140638 3.00824014,22.5650526 3.11598409,22.562524 L20.622901,22.562524 C20.730645,22.5650526 20.8326496,22.5140638 20.8952917,22.426365 C20.9579338,22.3386659 20.9730838,22.2256381 20.9357479,22.1245383 L19.5592213,17.9198749 L17.1940981,17.9198749 C17.8192996,17.1776645 18.3961281,16.39602 18.9210134,15.5797772 L20.622901,15.5797772 C20.976413,15.5789454 21.2899892,15.8065411 21.3987615,16.1429041 L23.6012042,22.8503432 C23.7875219,23.3287412 23.7251549,23.8683272 23.4346183,24.2916088 C23.1440818,24.7148904 22.6629901,24.9670677 22.1495942,24.9652392 Z" id="path-1"></path>
        </g>
    </g>
</svg>