<?xml version="1.0" encoding="UTF-8"?>
<svg width="24px" height="24px" viewBox="0 0 24 24" version="1.1" xmlns="http://www.w3.org/2000/svg" xmlns:xlink="http://www.w3.org/1999/xlink">
    <!-- Generator: Sketch 51.3 (57544) - http://www.bohemiancoding.com/sketch -->
    <title>ds-icon--clock</title>
    <desc>Created with Sketch.</desc>
    <defs></defs>
    <g id="Page-1" stroke="none" stroke-width="1" fill="none" fill-rule="evenodd">
        <g id="ds-icon--clock" fill="#232325" fill-rule="nonzero">
            <path d="M11.9999932,2.55319496 C6.79056961,2.5672595 2.57296731,6.79056897 2.56595599,12.0000068 C2.56595599,15.822043 4.8689829,19.267495 8.40057882,20.7289296 C11.9321748,22.190364 15.9964129,21.3797931 18.6971727,18.6753787 C21.3979325,15.9709644 22.2030068,11.9056338 20.736798,8.37601734 C19.2705891,4.84640088 15.822026,2.54803874 11.9999932,2.55319496 Z M12,6.78e-06 C15.183628,-0.00337866 18.2378446,1.25981334 20.4890157,3.51098438 C22.7401866,5.76215541 24.0033786,8.816372 24,12.0000068 C24,18.62742 18.6274065,24.0000068 12,24.0000068 C5.37257995,24.0000068 0,18.62742 0,12.0000068 C0,5.37259356 5.37257995,6.78e-06 12,6.78e-06 Z M13.2765882,6.63830771 L13.2765882,11.4712239 L15.8899146,14.0845502 C16.388456,14.5830915 16.388456,15.3913868 15.8899146,15.8899281 C15.3913732,16.3884695 14.5830778,16.3884695 14.0845365,15.8899281 L10.7233981,12.5287898 L10.7233981,6.63830771 C10.7233981,5.93326376 11.2949493,5.3617127 11.9999932,5.3617127 C12.7050372,5.3617127 13.2765882,5.93326376 13.2765882,6.63830771 Z" id="path-1"></path>
        </g>
    </g>
</svg>