<?xml version="1.0" encoding="UTF-8"?>
<svg width="175px" height="30px" viewBox="0 0 175 30" version="1.1" xmlns="http://www.w3.org/2000/svg" xmlns:xlink="http://www.w3.org/1999/xlink">
    <!-- Generator: Sketch 55.1 (78136) - https://sketchapp.com -->
    <title>quest-logo</title>
    <desc>Created with Sketch.</desc>
    <g id="Desktop" stroke="none" stroke-width="1" fill="none" fill-rule="evenodd">
        <g id="1a.1" transform="translate(-160.000000, -17.000000)">
            <g id="navbar">
                <g id="quest-logo" transform="translate(160.000000, 17.000000)">
                    <path d="M57.4157143,18.2742857 C57.4157143,19.6054286 56.6202857,20.4008571 55.4837143,20.4008571 C54.3154286,20.4008571 53.6502857,19.638 53.6502857,18.3068571 L53.6502857,13.4365714 L51.6857143,13.4365714 L51.6857143,18.8914286 C51.6857143,20.8877143 52.806,22.1871429 54.7371429,22.1871429 C56.0691429,22.1871429 56.8645714,21.4885714 57.4157143,20.6768571 L57.4157143,22.008 L59.3802857,22.008 L59.3802857,13.4365714 L57.4157143,13.4365714 L57.4157143,18.2742857 Z M82.9645714,15.1242857 L81.2777143,13.4365714 L80.1642857,13.4365714 L80.1642857,11.0828571 L78.2005714,11.0828571 L78.2005714,19.638 C78.2005714,21.5211429 79.2231429,22.1545714 80.6691429,22.1545714 C81.3985714,22.1545714 81.9497143,21.9917143 82.4382857,21.7157143 L82.4382857,20.1085714 C82.0482857,20.3031429 81.6591429,20.4008571 81.2194286,20.4008571 C80.5534286,20.4008571 80.1642857,20.0922857 80.1642857,19.3285714 L80.1642857,15.1242857 L82.9645714,15.1242857 Z M49.9174286,16.3097143 C49.9174286,13.0954286 47.4831429,10.4494286 43.9928571,10.4494286 C40.5025714,10.4494286 38.0348571,13.128 38.0348571,16.3422857 C38.0348571,19.5565714 40.47,22.2025714 43.9602857,22.2025714 C45.2905714,22.2025714 46.4605714,21.7971429 47.418,21.132 L48.414,22.02 L51.372,22.02 L48.7645714,19.8162857 C49.4957143,18.8262857 49.9174286,17.6082857 49.9174286,16.3097143 L49.9174286,16.3097143 Z M47.2388571,18.4851429 L44.3751429,18.4851429 L45.9411429,19.8162857 C45.4054286,20.1574286 44.7394286,20.3682857 43.9928571,20.3682857 C41.736,20.3682857 40.1288571,18.534 40.1288571,16.3097143 C40.1288571,14.0862857 41.7034286,12.2845714 43.9602857,12.2845714 C46.2171429,12.2845714 47.8234286,14.1188571 47.8234286,16.3422857 C47.8234286,17.1385714 47.6288571,17.8842857 47.2388571,18.4851429 L47.2388571,18.4851429 Z M74.16,16.9422857 C73.1537143,16.6191429 72.228,16.3585714 72.228,15.7422857 L72.228,15.7097143 C72.228,15.2057143 72.6668571,14.8482857 73.4305714,14.8482857 C74.0314286,14.8482857 74.7471429,15.0694286 75.4525714,15.4388571 L76.6268571,14.2645714 C75.7182857,13.6637143 74.55,13.29 73.4794286,13.29 C71.7737143,13.29 70.4262857,14.2808571 70.4262857,15.9042857 L70.4262857,15.936 C70.4262857,17.5757143 71.8397143,18.0951429 73.1057143,18.4534286 C74.1111429,18.762 75.0205714,18.9874286 75.0205714,19.6534286 L75.0205714,19.686 C75.0205714,20.2542857 74.5337143,20.6117143 73.6894286,20.6117143 C72.8965714,20.6117143 71.9974286,20.3168571 71.148,19.7434286 L70.0054286,20.886 L70.0045714,20.8877143 C71.076,21.732 72.4234286,22.1708571 73.6405714,22.1708571 C75.4268571,22.1708571 76.8222857,21.2777143 76.8222857,19.476 L76.8222857,19.4434286 C76.8222857,17.9014286 75.4105714,17.3322857 74.16,16.9422857 L74.16,16.9422857 Z M65.0091429,13.2574286 C62.5577143,13.2574286 60.8202857,15.2708571 60.8202857,17.7385714 C60.8202857,20.4008571 62.7368571,22.2025714 65.2208571,22.2025714 C66.7568571,22.2025714 67.86,21.5991429 68.6674286,20.6648571 L67.5762857,19.5745714 L67.5737143,19.5728571 C66.8922857,20.2388571 66.2108571,20.5954286 65.2534286,20.5954286 C63.9874286,20.5954286 63.0128571,19.8162857 62.7857143,18.4208571 L69.0848571,18.4208571 C69.1002857,18.2254286 69.1165714,18.0634286 69.1165714,17.8842857 C69.1165714,15.4002857 67.7365714,13.2574286 65.0091429,13.2574286 L65.0091429,13.2574286 Z M62.7874286,17.0151429 C62.9957143,15.7422857 63.8254286,14.8654286 64.9928571,14.8654286 C66.2545714,14.8654286 66.9934286,15.8005714 67.1537143,17.0151429 L62.7874286,17.0151429 Z M89.8105714,11.0845714 L86.1857143,11.0845714 L86.1857143,21.9702857 L89.8105714,21.9702857 C93.2322857,21.9702857 95.5954286,19.5917143 95.5954286,16.5282857 L95.5954286,16.4965714 C95.5954286,13.4322857 93.2322857,11.0845714 89.8105714,11.0845714 L89.8105714,11.0845714 Z M94.7554286,16.5582857 C94.7554286,19.1554286 92.844,21.2245714 89.8105714,21.2245714 L86.9957143,21.2245714 L86.9957143,11.8302857 L89.8105714,11.8302857 C92.844,11.8302857 94.7554286,13.9465714 94.7554286,16.5282857 L94.7554286,16.5582857 Z M104.544857,13.914 C103.455429,13.914 102.600857,14.1942857 101.729143,14.5988571 L102.010286,15.2682857 C102.740571,14.8937143 103.533429,14.6297143 104.498571,14.6297143 C106.130571,14.6297143 107.111143,15.4542857 107.111143,17.0562857 L107.111143,17.3982857 C106.348286,17.196 105.586286,17.0562857 104.483143,17.0562857 C102.430286,17.0562857 101.015143,17.9888571 101.015143,19.638 L101.015143,19.6688571 C101.015143,21.3188571 102.600857,22.1571429 104.077714,22.1571429 C105.586286,22.1571429 106.566857,21.4105714 107.111143,20.6485714 L107.111143,21.9702857 L107.857714,21.9702857 L107.857714,17.0262857 C107.857714,14.9725714 106.581429,13.914 104.544857,13.914 L104.544857,13.914 Z M107.126571,19.0002857 C107.126571,20.4462857 105.741429,21.4405714 104.124857,21.4405714 C102.911143,21.4405714 101.822571,20.7737143 101.822571,19.6225714 L101.822571,19.5917143 C101.822571,18.4868571 102.754286,17.7402857 104.436,17.7402857 C105.571714,17.7402857 106.457143,17.9262857 107.126571,18.0985714 L107.126571,19.0002857 Z M124.400571,13.8522857 C122.953714,13.8522857 122.067429,14.5834286 121.538571,15.516 L121.538571,14.0391429 L120.776571,14.0391429 L120.776571,21.9702857 L121.538571,21.9702857 L121.538571,17.382 C121.538571,15.7337143 122.736857,14.5517143 124.291714,14.5517143 C125.893714,14.5517143 126.811714,15.6265714 126.811714,17.2577143 L126.811714,21.9702857 L127.572857,21.9702857 L127.572857,17.118 C127.572857,15.2211429 126.408,13.8522857 124.400571,13.8522857 L124.400571,13.8522857 Z M133.436571,13.8522857 C131.073429,13.8522857 129.346286,15.7808571 129.346286,18.0042857 L129.346286,18.036 C129.346286,20.2594286 131.058,22.1571429 133.407429,22.1571429 C135.769714,22.1571429 137.496,20.2277143 137.496,18.0042857 L137.496,17.9734286 C137.496,15.75 135.784286,13.8522857 133.436571,13.8522857 L133.436571,13.8522857 Z M136.671429,18.036 C136.671429,19.9028571 135.318857,21.4405714 133.436571,21.4405714 C131.600571,21.4405714 130.171714,19.9174286 130.171714,18.0042857 L130.171714,17.9734286 C130.171714,16.1074286 131.523429,14.5671429 133.407429,14.5671429 C135.24,14.5671429 136.671429,16.092 136.671429,18.0042857 L136.671429,18.036 Z M150.274286,14.7377143 L149.574857,14.0391429 L147.504,14.0391429 L147.504,11.5045714 L146.741143,11.5045714 L146.741143,19.9337143 C146.741143,21.4405714 147.738,22.1108571 148.966286,22.1108571 C149.463429,22.1108571 149.853429,22.0174286 150.256286,21.8305714 L150.256286,21.1148571 C149.806286,21.3188571 149.479714,21.3942857 149.089714,21.3942857 C148.172571,21.3942857 147.504,20.9897143 147.504,19.8557143 L147.504,14.7377143 L150.274286,14.7377143 Z M117.252,15.6265714 C116.598857,14.6914286 115.525714,13.8522857 113.938286,13.8522857 C112.026857,13.8522857 110.128286,15.3291429 110.128286,17.616 L110.128286,17.6468571 C110.128286,19.9174286 112.026857,21.3788571 113.938286,21.3788571 C115.510286,21.3788571 116.567143,20.5251429 117.252,19.5445714 L117.252,20.6948571 C117.252,22.7331429 115.961143,23.7745714 114.141429,23.7745714 C113.015143,23.7745714 111.962571,23.4094286 111.038571,22.7262857 L110.489143,23.2774286 C111.576,24.0857143 112.804286,24.4885714 114.126,24.4885714 C116.380286,24.4885714 118.013143,23.1522857 118.013143,20.742 L118.013143,14.0391429 L117.252,14.0391429 L117.252,15.6265714 Z M117.298286,17.6314286 C117.298286,19.4357143 115.665429,20.6485714 114.016286,20.6485714 C112.383429,20.6485714 110.952857,19.404 110.952857,17.616 L110.952857,17.5851429 C110.952857,15.7337143 112.353429,14.5834286 114.016286,14.5834286 C115.665429,14.5834286 117.298286,15.7654286 117.298286,17.5997143 L117.298286,17.6314286 Z M167.558571,17.5534286 C166.424571,17.226 165.351429,16.9002857 165.351429,16.014 L165.351429,15.9822857 C165.351429,15.1894286 166.065429,14.5988571 167.154857,14.5988571 C167.940857,14.5988571 168.750857,14.8731429 169.448571,15.3017143 L169.998857,14.7531429 C169.205143,14.2251429 168.132857,13.8831429 167.185714,13.8831429 C165.646286,13.8831429 164.573143,14.8002857 164.573143,16.0757143 L164.573143,16.1074286 C164.573143,17.5225714 166.004571,17.9117143 167.296286,18.2845714 C168.397714,18.5965714 169.394571,18.9377143 169.394571,19.8711429 L169.394571,19.9028571 C169.394571,20.8191429 168.554571,21.4105714 167.481429,21.4105714 C166.506,21.4105714 165.575143,21.0591429 164.727429,20.4342857 L164.185714,20.976 C165.025714,21.66 166.284857,22.1262857 167.435143,22.1262857 C168.959143,22.1262857 170.171143,21.2245714 170.171143,19.8094286 L170.171143,19.7777143 C170.171143,18.378 168.834,17.9117143 167.558571,17.5534286 L167.558571,17.5534286 Z M142.098857,17.5534286 C140.962286,17.226 139.889143,16.9002857 139.889143,16.014 L139.889143,15.9822857 C139.889143,15.1894286 140.605714,14.5988571 141.693429,14.5988571 C142.478571,14.5988571 143.287714,14.8731429 143.988,15.3017143 L144.536571,14.7531429 C143.744571,14.2251429 142.672286,13.8831429 141.726,13.8831429 C140.184857,13.8831429 139.114286,14.8002857 139.114286,16.0757143 L139.114286,16.1074286 C139.114286,17.5225714 140.542286,17.9117143 141.833143,18.2845714 C142.938,18.5965714 143.933143,18.9377143 143.933143,19.8711429 L143.933143,19.9028571 C143.933143,20.8191429 143.094,21.4105714 142.021714,21.4105714 C141.044571,21.4105714 140.112857,21.0591429 139.265143,20.4342857 L138.723429,20.976 C139.563429,21.66 140.824286,22.1262857 141.973714,22.1262857 C143.497714,22.1262857 144.710571,21.2245714 144.710571,19.8094286 L144.710571,19.7777143 C144.710571,18.378 143.372571,17.9117143 142.098857,17.5534286 L142.098857,17.5534286 Z M159.586286,21.4405714 C157.764857,21.4405714 156.318857,19.9174286 156.318857,18.0042857 L156.318857,17.9734286 C156.318857,16.0757143 157.717714,14.5671429 159.523714,14.5671429 C160.699714,14.5671429 161.476286,15.1688571 162.159429,15.8657143 L162.710571,15.3145714 C161.964,14.5362857 161.030571,13.8522857 159.54,13.8522857 C157.266857,13.8522857 155.494286,15.7808571 155.494286,18.0042857 L155.494286,18.036 C155.494286,20.2594286 157.252286,22.1571429 159.54,22.1571429 C160.982571,22.1571429 161.938286,21.5185714 162.740571,20.6177143 L162.243429,20.1214286 C161.576571,20.8654286 160.704,21.4405714 159.586286,21.4405714 L159.586286,21.4405714 Z M98.0537143,21.9702857 L98.8165714,21.9702857 L98.8165714,14.0382857 L98.0537143,14.0382857 L98.0537143,21.9702857 Z M97.9611429,12.0325714 L98.9108571,12.0325714 L98.9108571,11.0845714 L97.9611429,11.0845714 L97.9611429,12.0325714 Z M152.492571,12.0325714 L153.441429,12.0325714 L153.441429,11.0845714 L152.492571,11.0845714 L152.492571,12.0325714 Z M152.586,21.9702857 L153.348,21.9702857 L153.348,14.0382857 L152.586,14.0382857 L152.586,21.9702857 Z M173.657143,11.5045714 L173.095714,12.9248571 L172.518857,11.5045714 L172.008857,11.5045714 L172.008857,13.572 L172.376571,13.572 L172.376571,12.1902857 L172.923429,13.5437143 L172.934571,13.572 L173.219143,13.572 L173.768571,12.1928571 L173.768571,13.572 L174.164571,13.572 L174.164571,11.5045714 L173.657143,11.5045714 Z M170.151429,11.8457143 L170.747143,11.8457143 L170.747143,13.572 L171.156857,13.572 L171.156857,11.8457143 L171.752571,11.8457143 L171.752571,11.5045714 L170.151429,11.5045714 L170.151429,11.8457143 Z" id="Logotype" fill="#222222"></path>
                    <g id="questmark" fill="#35792A">
                        <path d="M22.7331429,7.19142857 C24.3985714,8.856 24.3608571,11.28 24.1902857,12.5768571 C23.9271429,14.5731429 23.0288571,16.6448571 21.6574286,18.486 L15.3214286,18.486 L18.492,21.6548571 C16.2642857,23.316 13.7194286,24.2708571 11.3828571,24.2708571 C10.1717143,24.2708571 8.46171429,24.0034286 7.19057143,22.7331429 C5.526,21.0677143 5.56371429,18.6437143 5.73428571,17.3468571 C6.08228571,14.706 7.54028571,11.9331429 9.73714286,9.73628571 C12.2931429,7.17942857 15.6008571,5.65285714 18.5408571,5.65285714 C19.0405714,5.65285714 21.1894286,5.64771429 22.7331429,7.19142857 L22.7331429,7.19142857 Z" id="Path"></path>
                        <path d="M24.8511429,21.6797143 L27.0728571,23.9022857 C28.9131429,21.4122857 30.0008571,18.3334286 30.0008571,15 C30.0008571,12.684 29.4754286,10.4905714 28.5377143,8.53285714 C28.5282857,8.51571429 28.5094286,8.502 28.4888571,8.49942857 C28.458,8.49514286 28.4245714,8.51742857 28.4194286,8.55342857 C28.4177143,8.56285714 28.4185714,8.57314286 28.422,8.58171429 C29.4094286,12.6222857 28.1434286,17.562 24.8511429,21.6797143 L24.8511429,21.6797143 Z" id="Path"></path>
                        <path d="M1.34571429,21.2177143 C1.36285714,21.2511429 1.40142857,21.2605714 1.42885714,21.2468571 C1.45542857,21.2331429 1.47171429,21.2022857 1.46228571,21.1714286 C0.420857143,16.5942857 2.23114286,10.908 6.56914286,6.56914286 C10.1074286,3.03085714 14.5422857,1.17342857 18.5408571,1.17342857 C19.4477143,1.17342857 20.3297143,1.27114286 21.1757143,1.464 C21.2082857,1.46828571 21.2442857,1.44685714 21.2494286,1.40828571 C21.2537143,1.37828571 21.2348571,1.35257143 21.2091429,1.34142857 C19.3165714,0.48 17.2148571,2.48689958e-14 15,2.48689958e-14 C6.71571429,2.48689958e-14 -8.8817842e-14,6.71571429 -8.8817842e-14,15 C-8.8817842e-14,17.2174286 0.481714286,19.3234286 1.34571429,21.2177143 L1.34571429,21.2177143 Z" id="Path"></path>
                        <path d="M15,30 C18.3351429,30 21.4157143,28.9114286 23.9065714,27.0702857 L21.6848571,24.8485714 C18.4791429,27.4131429 14.7745714,28.7494286 11.3828571,28.7494286 C10.4151429,28.7494286 9.474,28.6388571 8.57657143,28.4185714 C8.56971429,28.416 8.562,28.4142857 8.55428571,28.4142857 C8.52257143,28.4142857 8.49342857,28.4408571 8.49342857,28.4768571 C8.49342857,28.5034286 8.508,28.5248571 8.52771429,28.5342857 C10.4871429,29.4728571 12.6822857,30 15,30 L15,30 Z" id="Path"></path>
                    </g>
                </g>
            </g>
        </g>
    </g>
</svg>