<?xml version="1.0" encoding="UTF-8"?>
<svg width="24px" height="24px" viewBox="0 0 24 24" version="1.1" xmlns="http://www.w3.org/2000/svg" xmlns:xlink="http://www.w3.org/1999/xlink">
    <!-- Generator: Sketch 51.3 (57544) - http://www.bohemiancoding.com/sketch -->
    <title>ds-icon__quest-logo</title>
    <desc>Created with Sketch.</desc>
    <defs></defs>
    <g id="ds-icon__quest-logo" stroke="none" stroke-width="1" fill="none" fill-rule="evenodd">
        <path d="M18.1972921,5.77864077 C19.5435203,7.13009705 19.4970987,9.04077674 19.3578337,10.0660194 C19.1257254,11.6504854 18.4294004,13.3281554 17.3152805,14.7728155 L12.2553191,14.7728155 L14.8085106,17.2888543 C13.0444874,18.6403107 11.0019342,19.3859418 9.14506772,19.3859418 C8.17021274,19.3859418 6.82398452,19.152932 5.80270793,18.1742912 C4.45647969,16.822835 4.50290135,14.9121554 4.64216634,13.8403107 C4.92069632,11.7432233 6.08123791,9.50633012 7.84526114,7.73545634 C9.88781428,5.68497088 12.5338492,4.47332039 14.901354,4.47332039 C15.2727272,4.52038835 16.9903289,4.52038835 18.1972921,5.77864077 Z M19.9148936,17.3359223 L21.6789168,19.1067961 C23.1644101,17.1029126 24,14.6330097 24,11.976699 C24,10.1126214 23.582205,8.38834948 22.8394584,6.80388351 C22.8394584,6.80388351 22.8394584,6.75728151 22.7930368,6.75728151 C22.746615,6.75728151 22.746615,6.75728151 22.746615,6.80388351 C23.5357833,10.1126214 22.5145068,14.0737864 19.9148936,17.3359223 Z M1.11411992,16.9631068 C1.11411992,17.0097088 1.16054158,17.0097088 1.16054158,17.0097088 L1.20696325,16.9631068 C0.371373305,13.2815534 1.81044487,8.76116502 5.29206964,5.26601942 C8.12379111,2.42330097 11.6518375,0.932038837 14.8549323,0.932038837 C15.5976789,0.932038837 16.2940038,1.02524272 16.9439071,1.16504854 C16.9903289,1.16504854 16.9903289,1.16504854 16.9903289,1.11844661 C16.9903289,1.07184466 16.9903289,1.07184466 16.9439071,1.07184466 C15.4119923,0.372815538 13.7408124,0 11.9767891,0 C5.3384913,0 0,5.3592233 0,12.023301 C0.0464216677,13.7941747 0.417794972,15.4718446 1.11411992,16.9631068 Z M12.0232109,24 C14.6692457,24 17.1295938,23.1145631 19.1257254,21.669903 L17.3617021,19.8990292 C14.8085106,21.9490485 11.8375242,23.0213592 9.14506772,23.0213592 C8.35589945,23.0213592 7.6131528,22.9281554 6.91682788,22.7412815 C6.87040615,22.7412815 6.87040615,22.7412815 6.87040615,22.7883495 C6.87040615,22.7883495 6.87040615,22.8349515 6.91682788,22.8349515 C8.40232108,23.5805826 10.1663443,24 12.0232109,24 Z" id="Fill-1" fill="#35792a" fill-rule="nonzero"></path>
    </g>
</svg>