<?xml version="1.0" encoding="UTF-8"?>
<svg width="27px" height="26px" viewBox="0 0 27 26" version="1.1" xmlns="http://www.w3.org/2000/svg" xmlns:xlink="http://www.w3.org/1999/xlink">
    <!-- Generator: Sketch 51.3 (57544) - http://www.bohemiancoding.com/sketch -->
    <title>ds-icon__search</title>
    <desc>Created with Sketch.</desc>
    <defs></defs>
    <g id="Page-1" stroke="none" stroke-width="1" fill="none" fill-rule="evenodd">
        <g id="ds-icon__search" fill="#C5C5C6" fill-rule="nonzero">
            <path d="M11.0025,0.84375 C5.41061691,0.84375 0.8775,5.37686691 0.8775,10.96875 C0.8775,16.5606331 5.41061691,21.09375 11.0025,21.09375 C16.5943831,21.09375 21.1275,16.5606331 21.1275,10.96875 C21.1275,5.37686691 16.5943831,0.84375 11.0025,0.84375 Z M11.0025,18.5625 C7.92808045,18.5761642 5.1487823,16.734695 3.9627727,13.8982142 C2.7767631,11.0617334 3.41809501,7.79000594 5.58721223,5.61120517 C7.75632944,3.4324044 11.0251677,2.77650552 13.8669033,3.94986876 C16.7086388,5.123232 18.5624696,7.89430008 18.5625,10.96875 C18.5533308,15.1457084 15.1793761,18.5347254 11.0025,18.5625 Z M25.61625,25.5825 C25.343199,25.8618443 24.9690653,26.0193182 24.5784375,26.0193182 C24.1878097,26.0193182 23.813676,25.8618443 23.540625,25.5825 L19.81125,21.9375 C19.4254032,21.557682 19.2714965,21.0008689 19.4075051,20.4768067 C19.5435137,19.9527446 19.9487746,19.5410509 20.4706301,19.3968067 C20.9924855,19.2525626 21.5516532,19.397682 21.9375,19.7775 L25.65,23.49 C25.9259314,23.7704572 26.0777481,24.149931 26.0714031,24.543319 C26.0650582,24.936707 25.9010825,25.3110874 25.61625,25.5825 Z" id="Shape"></path>
        </g>
    </g>
</svg>