<?xml version="1.0" encoding="UTF-8"?>
<svg width="23px" height="30px" viewBox="0 0 23 30" version="1.1" xmlns="http://www.w3.org/2000/svg" xmlns:xlink="http://www.w3.org/1999/xlink">
    <!-- Generator: Sketch 51.3 (57544) - http://www.bohemiancoding.com/sketch -->
    <title>ds-icon--pin</title>
    <desc>Created with Sketch.</desc>
    <defs></defs>
    <g id="Page-1" stroke="none" stroke-width="1" fill="none" fill-rule="evenodd">
        <g id="ds-icon--pin" fill="#35792a" fill-rule="nonzero">
            <path d="M22.1679783,11.0769231 C22.186821,11.4520711 22.186821,11.8279286 22.1679783,12.2030768 C21.3925937,22.1538462 11.0910552,29.5384615 11.0910552,29.5384615 C11.0910552,29.5384615 0.78951674,22.1538462 0.0141321251,12.2030768 C-0.00471070837,11.8279286 -0.00471070837,11.4520711 0.0141321251,11.0769231 C0.0141322163,4.95930729 4.97343958,-8.8817842e-16 11.0910552,-8.8817842e-16 C17.2086708,-8.8817842e-16 22.1679783,4.95930729 22.1679783,11.0769231 Z M11.0910552,14.7692306 C13.6400617,14.7692306 15.7064398,12.7028525 15.7064398,10.153846 C15.7064398,7.60483946 13.6400617,5.53846137 11.0910552,5.53846137 C8.54204867,5.53846137 6.47567058,7.60483946 6.47567058,10.153846 C6.47567058,12.7028525 8.54204867,14.7692306 11.0910552,14.7692306 Z" id="path-1"></path>
        </g>
    </g>
</svg>