<?xml version="1.0" encoding="UTF-8"?>
<svg width="100px" height="138px" viewBox="0 0 100 138" version="1.1" xmlns="http://www.w3.org/2000/svg" xmlns:xlink="http://www.w3.org/1999/xlink">
    <!-- Generator: Sketch 51.3 (57544) - http://www.bohemiancoding.com/sketch -->
    <title>ds-eCheckin</title>
    <desc>Created with Sketch.</desc>
    <defs></defs>
    <g id="Page-1" stroke="none" stroke-width="1" fill="none" fill-rule="evenodd">
        <g id="ds-eCheckin">
            <g id="icons8-ipad" transform="translate(45.878779, 57.606459) rotate(-270.000000) translate(-45.878779, -57.606459) translate(-11.121221, 12.606459)" fill-rule="nonzero">
                <g id="Group">
                    <path d="M9,88.5 C4.863,88.5 1.5,85.134 1.5,81 L1.5,9 C1.5,4.866 4.863,1.5 9,1.5 L105,1.5 C109.137,1.5 112.5,4.866 112.5,9 L112.5,81 C112.5,85.134 109.137,88.5 105,88.5 L9,88.5 Z" id="Shape" fill="#F2FAFF"></path>
                    <path d="M105,3 C108.309,3 111,5.691 111,9 L111,81 C111,84.309 108.309,87 105,87 L9,87 C5.691,87 3,84.309 3,81 L3,9 C3,5.691 5.691,3 9,3 L105,3 Z M105,0 L9,0 C4.029,0 0,4.029 0,9 L0,81 C0,85.971 4.029,90 9,90 L105,90 C109.971,90 114,85.971 114,81 L114,9 C114,4.029 109.971,0 105,0 Z" id="Shape" fill="#EBEFF2"></path>
                </g>
                <g id="Group" transform="translate(6.000000, 6.000000)">
                    <path d="M3.605,77 C2.72,77 2,76.28 2,75.395 L2,3.605 C2,2.72 2.72,2 3.605,2 L93.395,2 C94.28,2 95,2.72 95,3.605 L95,75.395 C95,76.28 94.28,77 93.395,77 L3.605,77 Z" id="Shape" fill="#BEE3FA"></path>
                    <path d="M92.895,3 L93,3.105 L92.895,75 L3,74.895 L3.105,3 L92.895,3 Z M92.895,0 L3.105,0 C1.392,0 0,1.392 0,3.105 L0,74.892 C0,76.608 1.392,78 3.105,78 L92.892,78 C94.608,78 96,76.608 96,74.895 L96,3.105 C96,1.392 94.608,0 92.895,0 Z" id="Shape" fill="#EBEFF2"></path>
                </g>
                <circle id="Oval" fill="#66798F" cx="105" cy="45" r="3"></circle>
                <path d="M54.8753472,33.352 C55.9463472,32.068 57.6563472,31.213 59.1533472,31 C59.3663472,32.713 58.7243472,34.423 57.8693472,35.494 C56.7983472,36.778 55.3013472,37.633 53.5913472,37.633 C53.1623472,36.133 53.8043472,34.636 54.8753472,33.352 Z M64.0733472,54.958 C62.7893472,56.671 61.0793472,59.023 59.1533472,59.023 C57.2273472,59.023 56.8013472,57.739 54.4463472,57.952 C51.8783472,57.952 51.4523472,59.236 49.5263472,59.023 C47.3873472,59.023 45.8903472,57.097 44.8193472,55.171 C41.6093472,50.251 41.1833472,44.26 43.3223472,41.05 C44.8193472,38.911 46.9583472,37.627 49.0973472,37.627 C51.2363472,37.627 52.7333472,38.911 54.4463472,38.911 C56.1593472,38.911 57.2273472,37.627 59.7953472,37.627 C61.7213472,37.627 63.6473472,38.698 65.1443472,40.408 C60.4373472,42.976 61.2923472,49.609 65.9993472,51.532 C65.1443472,53.035 64.7153472,53.677 64.0733472,54.958 Z" id="Shape" fill="#4DA7DB" opacity="0.305803571" transform="translate(53.999674, 45.023423) rotate(-90.000000) translate(-53.999674, -45.023423) "></path>
            </g>
            <g id="Group-2" transform="translate(31.000000, 49.000000)">
                <g id="tap">
                    <g id="Capa_1">
                        <polygon id="Path-2" fill="#FFFFFF" points="27 27 23 28 21 37 21 66 18.5 64 15.5 61 11.5 61 9 61 7.5 64 9 69.5 24.5 87 61.5 87 66.5 82.5 67.5 78 66.5 51 61.5 49 58 49 57 50 54.5 49 51.5 47.5 47 47.5 44.5 49 42.5 47.5 37.5 45.5 34 47.5 33 47.5 33 30.5"></polygon>
                        <g id="Group" fill="#35792A" fill-rule="nonzero">
                            <g transform="translate(6.166843, 24.897271)" id="Shape">
                                <path d="M14.9521397,42.520389 C14.3847902,42.520389 13.9243326,42.05564 13.9243326,41.4830028 L13.9243326,7.53557397 C13.9243326,3.53126291 16.9686974,0.273869979 20.7140268,0.273869979 C24.4593562,0.273869979 27.5037211,3.53126291 27.5037211,7.53557397 L27.5037211,29.6049298 C27.5037211,30.177567 27.0432634,30.6423161 26.4759139,30.6423161 C25.9085643,30.6423161 25.4481067,30.177567 25.4481067,29.6049298 L25.4481067,7.53557397 C25.4481067,4.67653737 23.3246571,2.34864255 20.7140268,2.34864255 C18.1033966,2.34864255 15.9799469,4.67653737 15.9799469,7.53557397 L15.9799469,41.480928 C15.9799469,42.05564 15.5194893,42.520389 14.9521397,42.520389 Z"></path>
                                <path d="M19.4025448,63.456919 C19.1394262,63.456919 18.8763076,63.3552552 18.6748574,63.1540022 L3.43658807,47.775788 C1.74276183,46.0661754 0.608062704,43.9685803 0.240107732,41.8709852 C-0.148403383,39.6385299 0.367555823,37.6695708 1.6954827,36.3313425 C4.34105839,33.6590354 8.71540576,33.7275029 11.4493729,36.4848756 L15.675716,40.750608 C16.0765608,41.1551887 16.0765608,41.8128916 15.675716,42.2174722 C15.2748712,42.6220529 14.6232414,42.6220529 14.2223966,42.2174722 L9.99605351,37.9517398 C8.06377601,36.0035284 4.99063253,35.9350609 3.14880206,37.7982067 C2.30805578,38.6467886 1.99354679,39.9642692 2.26488788,41.5120496 C2.55884074,43.1946901 3.49003404,44.8980784 4.88990743,46.3109985 L20.1281767,61.6892128 C20.5290215,62.0937935 20.5290215,62.7514964 20.1281767,63.156077 C19.9287821,63.35733 19.6656635,63.456919 19.4025448,63.456919 Z"></path>
                                <path d="M37.999688,31.829086 C37.4323384,31.829086 36.9718808,31.3643369 36.9718808,30.7916997 L36.9718808,25.5611981 C36.9718808,23.2478266 34.8484312,21.3680827 32.2378009,21.3680827 C29.6271707,21.3680827 27.5037211,23.2499014 27.5037211,25.5611981 L27.5037211,30.7916997 C27.5037211,31.3643369 27.0432634,31.829086 26.4759139,31.829086 C25.9085643,31.829086 25.4481067,31.3643369 25.4481067,30.7916997 L25.4481067,25.5611981 C25.4481067,22.104627 28.4945272,19.2933101 32.2378009,19.2933101 C35.9810747,19.2933101 39.0274952,22.104627 39.0274952,25.5611981 L39.0274952,30.7916997 C39.0274952,31.3664117 38.5670376,31.829086 37.999688,31.829086 Z"></path>
                                <path d="M49.5193509,31.829086 C48.9520013,31.829086 48.4915437,31.3643369 48.4915437,30.7916997 L48.4915437,26.4263782 C48.4915437,24.6213261 46.3249262,23.098443 43.7595195,23.098443 C41.1941127,23.098443 39.0274952,24.6234009 39.0274952,26.4263782 L39.0274952,30.7916997 C39.0274952,31.3643369 38.5670376,31.829086 37.999688,31.829086 C37.4323384,31.829086 36.9718808,31.3643369 36.9718808,30.7916997 L36.9718808,26.4263782 C36.9718808,23.4470048 40.0162457,21.0236704 43.7595195,21.0236704 C47.5027932,21.0236704 50.5471581,23.4470048 50.5471581,26.4263782 L50.5471581,30.7916997 C50.5471581,31.3664117 50.0887561,31.829086 49.5193509,31.829086 Z"></path>
                                <path d="M61.043125,45.1449763 C60.4757755,45.1449763 60.0153179,44.6802273 60.0153179,44.1075901 L60.0153179,29.8393791 C60.0153179,26.9803425 57.8918682,24.6524477 55.281238,24.6524477 C52.4917693,24.6524477 50.5471581,25.9969003 50.5471581,27.2023432 L50.5471581,30.7896249 C50.5471581,31.3622622 50.0867005,31.8270112 49.5193509,31.8270112 C48.9520013,31.8270112 48.4915437,31.3622622 48.4915437,30.7896249 L48.4915437,27.2023432 C48.4915437,24.6088774 51.4742402,22.5776751 55.281238,22.5776751 C59.0245117,22.5776751 62.0709322,25.835068 62.0709322,29.8393791 L62.0709322,44.1075901 C62.0709322,44.6823021 61.6104746,45.1449763 61.043125,45.1449763 Z"></path>
                                <path d="M52.8206676,63.4506947 L19.4827138,63.4506947 C18.9153642,63.4506947 18.4179056,62.9859457 18.4179056,62.4133084 C18.4179056,61.8406712 18.8413621,61.3759221 19.4087117,61.3759221 L52.8206676,61.3759221 C56.7880033,61.3759221 60.0153179,58.1185292 60.0153179,54.1142182 L60.0153179,42.9187454 C60.0153179,42.3461081 60.4757755,41.8813591 61.043125,41.8813591 C61.6104746,41.8813591 62.0709322,42.3461081 62.0709322,42.9187454 L62.0709322,54.1142182 C62.0709322,59.2617289 57.9206468,63.4506947 52.8206676,63.4506947 Z"></path>
                            </g>
                        </g>
                    </g>
                </g>
            </g>
        </g>
    </g>
</svg>