<?xml version="1.0" encoding="utf-8"?>
<!-- Generator: Adobe Illustrator 25.4.1, SVG Export Plug-In . SVG Version: 6.00 Build 0)  -->
<svg version="1.1" id="Layer_1" xmlns="http://www.w3.org/2000/svg" xmlns:xlink="http://www.w3.org/1999/xlink" x="0px" y="0px"
	 viewBox="0 0 64 80" style="enable-background:new 0 0 64 80;" xml:space="preserve">
<style type="text/css">
	.st0{fill:#35792A;}
</style>
<g>
	<path class="st0" d="M36.98,24.21c0.55,0,1-0.45,1-1v-2c0-0.55-0.45-1-1-1c-0.56,0-1,0.45-1,1v2
		C35.98,23.76,36.42,24.21,36.98,24.21z"/>
	<path class="st0" d="M41.98,24.21c0.55,0,1-0.45,1-1v-2c0-0.55-0.45-1-1-1c-0.56,0-1,0.45-1,1v2
		C40.98,23.76,41.42,24.21,41.98,24.21z"/>
	<path class="st0" d="M46.98,24.21c0.55,0,1-0.45,1-1v-2c0-0.55-0.45-1-1-1c-0.56,0-1,0.45-1,1v2
		C45.98,23.76,46.42,24.21,46.98,24.21z"/>
	<path class="st0" d="M31.98,24.21c0.55,0,1-0.45,1-1v-2c0-0.55-0.45-1-1-1c-0.56,0-1,0.45-1,1v2
		C30.98,23.76,31.42,24.21,31.98,24.21z"/>
	<path class="st0" d="M51.98,24.21c0.55,0,1-0.45,1-1v-2c0-0.55-0.45-1-1-1c-0.56,0-1,0.45-1,1v2
		C50.98,23.76,51.42,24.21,51.98,24.21z"/>
	<path class="st0" d="M16.98,24.21c0.55,0,1-0.45,1-1v-2c0-0.55-0.45-1-1-1c-0.56,0-1,0.45-1,1v2
		C15.98,23.76,16.42,24.21,16.98,24.21z"/>
	<path class="st0" d="M26.98,24.21c0.55,0,1-0.45,1-1v-2c0-0.55-0.45-1-1-1c-0.56,0-1,0.45-1,1v2
		C25.98,23.76,26.42,24.21,26.98,24.21z"/>
	<path class="st0" d="M11.98,24.21c0.55,0,1-0.45,1-1v-2c0-0.55-0.45-1-1-1c-0.56,0-1,0.45-1,1v2
		C10.98,23.76,11.42,24.21,11.98,24.21z"/>
	<path class="st0" d="M21.98,24.21c0.55,0,1-0.45,1-1v-2c0-0.55-0.45-1-1-1c-0.56,0-1,0.45-1,1v2
		C20.98,23.76,21.42,24.21,21.98,24.21z"/>
	<path class="st0" d="M55.65,14.9H8.34c-1.88,0-3.41,1.38-3.41,3.08v37.29c0,1.7,1.53,3.08,3.41,3.08h17.67v4.51l-2.15,1.4
		c-0.37,0.24-0.54,0.7-0.41,1.12c0.13,0.42,0.52,0.72,0.96,0.72h15.18c0.44,0,0.83-0.29,0.96-0.72c0.13-0.42-0.04-0.88-0.41-1.12
		l-2.15-1.4v-4.51h17.67c1.88,0,3.41-1.38,3.41-3.08V17.98C59.07,16.28,57.53,14.9,55.65,14.9z M6.98,17.66
		c0.15-0.55,0.7-0.96,1.36-0.96h47.31c0.62,0,1.15,0.36,1.33,0.87c0.05,0.13,0.08,0.26,0.08,0.41v29.99H6.93V17.98
		C6.93,17.87,6.95,17.76,6.98,17.66z M36.27,64.1h-8.53c0.18-0.18,0.28-0.43,0.28-0.69v-5.05h7.97v5.05
		C35.99,63.67,36.09,63.92,36.27,64.1z M56.91,55.83c-0.09,0.18-0.23,0.33-0.41,0.45c-0.23,0.16-0.53,0.26-0.85,0.26H8.34
		c-0.28,0-0.53-0.07-0.75-0.2c-0.01,0-0.03-0.01-0.04-0.02c-0.27-0.16-0.47-0.42-0.56-0.7c-0.04-0.11-0.06-0.23-0.06-0.35v-5.3
		h50.13v5.3C57.07,55.47,57.01,55.66,56.91,55.83z"/>
	<path class="st0" d="M32.33,51.64c-0.94,0-1.71,0.76-1.71,1.71c0,0.94,0.76,1.71,1.71,1.71s1.71-0.76,1.71-1.71
		C34.04,52.41,33.28,51.64,32.33,51.64z"/>
</g>
</svg>
