<?xml version="1.0" encoding="utf-8"?>
<!-- Generator: Adobe Illustrator 25.4.1, SVG Export Plug-In . SVG Version: 6.00 Build 0)  -->
<svg version="1.1" id="Layer_1" xmlns="http://www.w3.org/2000/svg" xmlns:xlink="http://www.w3.org/1999/xlink" x="0px" y="0px"
	 viewBox="0 0 64 80" style="enable-background:new 0 0 64 80;" xml:space="preserve">
<style type="text/css">
	.st0{fill:#35792A;}
</style>
<g>
	<path class="st0" d="M33.42,41.14c-0.56,0-1,0.45-1,1v2c0,0.55,0.44,1,1,1c0.55,0,1-0.45,1-1v-2
		C34.42,41.59,33.96,41.14,33.42,41.14z"/>
	<path class="st0" d="M60.67,35.22c-0.25-4.58-1.89-7.14-5.04-10.54C49.4,17.97,40.83,10.79,40.71,10.7h-0.01
		c-0.09-0.08-0.21-0.14-0.32-0.18c-0.01,0-0.02-0.01-0.02-0.01c-0.04-0.01-0.07,0-0.1-0.01c-0.06-0.01-0.13-0.03-0.2-0.03H23.04
		l-0.06,0.01l-0.05-0.01c-0.03,0.01-0.05,0.02-0.08,0.03c-0.08,0.01-0.15,0.04-0.23,0.07c-0.04,0.02-0.08,0.04-0.12,0.07
		c-0.02,0.01-0.05,0.02-0.07,0.04c-0.64,0.5-15.57,12.33-18.66,20.56c-0.4,0.93-0.61,1.91-0.61,2.92v23.02c0,0.56,0.45,1,1,1h7.38
		v5.81c0,0.02,0.01,0.04,0.01,0.07v4.48c0,0.56,0.45,1,1,1h38.92c0.07,0,0.13-0.02,0.2-0.04c0.06-0.01,0.13-0.01,0.19-0.04
		c0.05-0.02,0.1-0.07,0.15-0.1c0.06-0.04,0.12-0.07,0.16-0.11c0.05-0.05,0.07-0.11,0.11-0.16c0.03-0.05,0.08-0.1,0.11-0.16
		c0.02-0.06,0.02-0.14,0.04-0.21c0.01-0.06,0.03-0.11,0.03-0.18V58.17h7.39c0.55,0,1-0.44,1-1V42.27L60.67,35.22z M40.56,13.18
		c1.15,0.99,3.09,2.68,5.31,4.71l-4.12,3.31c-0.22,0.17-0.35,0.42-0.38,0.7c-0.02,0.28,0.08,0.55,0.26,0.75l3.2,3.48L31.58,36.36
		c0.4-1.37,0.9-2.7,1.49-3.98l0.22-0.46C36.1,25.86,38.52,19.57,40.56,13.18z M38.69,12.47c-1.99,6.28-4.39,12.49-7.15,18.47
		c-5.04-7.75-6.81-15.62-7.33-18.47H38.69z M28.95,38.72c-0.01,0.04-0.02,0.07-0.02,0.1c-0.38,1.95-0.58,3.93-0.58,5.91v22.81h-14.8
		V57.17c0-0.02-0.01-0.04-0.01-0.06V55.1h0.01v-2h-0.01v-2.73h0.01v-2h-0.01V33.3c0-0.55-0.45-1-1-1c-0.56,0-1,0.45-1,1v22.87H5.15
		V34.16c0-0.73,0.15-1.45,0.47-2.17c1.42-3.79,5.72-8.56,9.77-12.47l3.22,2.58l-3.21,3.49c-0.2,0.21-0.29,0.5-0.26,0.79
		c0.03,0.29,0.19,0.55,0.43,0.71l13.86,9.5C29.25,37.28,29.08,38.01,28.95,38.72z M17.65,26.09l3.15-3.43
		c0.19-0.2,0.28-0.47,0.26-0.75c-0.02-0.28-0.15-0.53-0.37-0.7l-3.83-3.07c2.21-2.06,4.21-3.77,5.46-4.81
		c0.67,3.51,2.7,11.71,8.22,19.74c0.01,0.02,0.03,0.02,0.04,0.03c-0.2,0.49-0.38,0.98-0.55,1.48L17.65,26.09z M58.85,56.17h-6.51
		L52.1,33.29c0-0.55-0.45-0.99-1-0.99h-0.01c-0.55,0.01-0.99,0.46-0.99,1.01l0.16,16.03l0.17,15.64l0.02,2.55h-20.1V44.72
		c0-1.76,0.17-3.53,0.49-5.27l16.07-12.4c0.23-0.17,0.37-0.43,0.39-0.71c0.02-0.28-0.07-0.55-0.26-0.76l-3.21-3.49l3.52-2.82
		c2.26,2.1,4.67,4.46,6.81,6.77c2.88,3.11,4.3,5.3,4.51,9.26l0.18,6.98V56.17z"/>
	<path class="st0" d="M47.11,33.78h-7.04c-0.55,0-1,0.45-1,1v4.84c0,2.44,1.99,4.43,4.43,4.43h0.18c2.44,0,4.43-1.99,4.43-4.43
		v-4.84C48.11,34.22,47.65,33.78,47.11,33.78z M46.11,39.61c0,1.34-1.09,2.43-2.43,2.43H43.5c-1.34,0-2.43-1.09-2.43-2.43v-0.2h5.04
		V39.61z M46.11,37.41h-5.04v-1.64h5.04V37.41z"/>
	<path class="st0" d="M33.42,56.46c-0.56,0-1,0.45-1,1v2c0,0.55,0.44,1,1,1c0.55,0,1-0.45,1-1v-2
		C34.42,56.91,33.96,56.46,33.42,56.46z"/>
	<path class="st0" d="M33.42,48.79c-0.56,0-1,0.45-1,1v2c0,0.55,0.44,1,1,1c0.55,0,1-0.45,1-1v-2
		C34.42,49.24,33.96,48.79,33.42,48.79z"/>
</g>
</svg>
