<?xml version="1.0" encoding="UTF-8"?>
<svg width="26px" height="26px" viewBox="0 0 26 26" version="1.1" xmlns="http://www.w3.org/2000/svg" xmlns:xlink="http://www.w3.org/1999/xlink">
    <!-- Generator: Sketch 51.3 (57544) - http://www.bohemiancoding.com/sketch -->
    <title>QuestIcon</title>
    <desc>Created with Sketch.</desc>
    <defs></defs>
    <g id="Page-1" stroke="none" stroke-width="1" fill="none" fill-rule="evenodd">
        <g id="QuestIcon" fill="#149B5F" fill-rule="nonzero">
            <path d="M19.7137331,6.26019417 C21.172147,7.7242718 21.1218569,9.7941748 20.9709865,10.9048544 C20.7195358,12.6213592 19.9651838,14.438835 18.7582205,16.0038835 L13.2765957,16.0038835 L16.0425532,18.7295922 C14.131528,20.1936699 11.9187621,21.0014369 9.9071567,21.0014369 C8.8510638,21.0014369 7.3926499,20.7490097 6.28626692,19.6888155 C4.827853,18.2247379 4.87814313,16.154835 5.02901354,14.9936699 C5.33075435,12.7218252 6.58800774,10.2985243 8.4990329,8.3800777 C10.7117988,6.15871845 13.5783366,4.84609709 16.1431335,4.84609709 C16.5454545,4.89708738 18.4061896,4.89708738 19.7137331,6.26019417 Z M21.5744681,18.7805825 L23.4854932,20.6990291 C25.0947776,18.5281553 26,15.8524272 26,12.9747573 C26,10.9553398 25.5473888,9.0873786 24.7427466,7.3708738 C24.7427466,7.3708738 24.7427466,7.3203883 24.6924565,7.3203883 C24.6421663,7.3203883 24.6421663,7.3203883 24.6421663,7.3708738 C25.4970986,10.9553398 24.3907157,15.2466019 21.5744681,18.7805825 Z M1.20696325,18.376699 C1.20696325,18.4271845 1.25725338,18.4271845 1.25725338,18.4271845 L1.30754352,18.376699 C0.40232108,14.3883495 1.96131528,9.4912621 5.73307544,5.70485437 C8.8007737,2.62524272 12.622824,1.00970874 16.0928433,1.00970874 C16.8974855,1.00970874 17.6518375,1.11067961 18.3558994,1.26213592 C18.4061896,1.26213592 18.4061896,1.26213592 18.4061896,1.21165049 C18.4061896,1.16116505 18.4061896,1.16116505 18.3558994,1.16116505 C16.696325,0.4038835 14.8858801,0 12.9748549,0 C5.78336557,0 0,5.80582524 0,13.0252427 C0.05029014,14.9436893 0.45261122,16.761165 1.20696325,18.376699 Z M13.0251451,26 C15.8916828,26 18.55706,25.0407767 20.7195358,23.4757282 L18.8085106,21.5572816 C16.0425532,23.7781359 12.8239845,24.9398058 9.9071567,24.9398058 C9.0522244,24.9398058 8.2475822,24.838835 7.4932302,24.6363883 C7.44294,24.6363883 7.44294,24.6363883 7.44294,24.6873786 C7.44294,24.6873786 7.44294,24.7378641 7.4932302,24.7378641 C9.1025145,25.5456311 11.0135397,26 13.0251451,26 Z" id="Fill-1"></path>
        </g>
    </g>
</svg>