<?xml version="1.0" encoding="utf-8"?>
<!-- Generator: Adobe Illustrator 23.0.4, SVG Export Plug-In . SVG Version: 6.00 Build 0)  -->
<svg version="1.1" id="Layer_1" xmlns="http://www.w3.org/2000/svg" xmlns:xlink="http://www.w3.org/1999/xlink" x="0px" y="0px"
	 viewBox="0 0 612 612" style="enable-background:new 0 0 612 612;" xml:space="preserve">
<style type="text/css">
	.st0{fill:none;}
	.st1{fill:#78C257;}
	.st2{fill:#F47920;}
	.st3{fill:#00324C;}
	.st4{fill:#19203D;}
</style>
<g>
	<g>
		<path class="st0" d="M345.69,221.43c14.14,18.6,19.14,42.61,14.48,68.51h51.87l-27.72,99.8h82.14l78.44-282.37h-82.14l-27.72,99.8
			h-67.56l27.72-99.8h-82.14l-23.2,83.53C313.09,193.67,332.63,204.25,345.69,221.43z"/>
		<path class="st0" d="M282.7,275.68c-14.14-18.6-19.13-42.61-14.48-68.51h-51.87l27.72-99.8h-82.14L83.5,389.74h82.14l27.72-99.8
			h67.56l-27.72,99.8h82.14l23.2-83.53C315.3,303.45,295.76,292.87,282.7,275.68z"/>
		<path class="st0" d="M332.15,231.73c-10.62-13.97-26.99-22.4-46.65-24.19c-4.61,22.19-0.89,42.53,10.75,57.84
			c10.62,13.97,26.99,22.4,46.65,24.19C347.5,267.39,343.79,247.04,332.15,231.73z"/>
		<path class="st1" d="M338.53,306.21l-23.2,83.53h-82.14l27.72-99.8h-67.56l-27.72,99.8H83.5l78.44-282.37h82.14l-27.72,99.8h51.87
			c0.64-3.56,1.45-7.16,2.46-10.79l1.73-6.23h-33.67l27.72-99.8H149L61.11,406.76h117.46l27.72-99.8h32.24l-27.72,99.8h117.46
			l27.72-99.8h-5.04C346.7,306.96,342.57,306.69,338.53,306.21z"/>
		<path class="st1" d="M285.5,207.54c19.66,1.8,36.03,10.22,46.65,24.19c11.64,15.31,15.35,35.66,10.75,57.84
			c2.63,0.24,5.31,0.37,8.05,0.37h9.23c4.65-25.9-0.35-49.92-14.48-68.51c-13.06-17.19-32.6-27.77-55.84-30.53l-2.79,10.03
			C286.46,203.16,285.95,205.35,285.5,207.54z"/>
		<path class="st2" d="M296.24,265.38c-11.64-15.31-15.35-35.66-10.75-57.84c-2.63-0.24-5.31-0.37-8.05-0.37h-9.23
			c-4.65,25.9,0.35,49.92,14.48,68.51c13.06,17.19,32.61,27.77,55.84,30.53l2.79-10.03c0.62-2.22,1.12-4.42,1.58-6.6
			C323.24,287.78,306.86,279.35,296.24,265.38z"/>
		<path class="st2" d="M449.82,90.35l-27.72,99.8h-32.24l27.72-99.8H300.13l-27.72,99.8h5.04c4.25,0,8.38,0.27,12.42,0.75
			l23.2-83.53h82.14l-27.72,99.8h67.56l27.72-99.8h82.14l-78.44,282.37h-82.14l27.72-99.8h-51.87c-0.64,3.56-1.45,7.16-2.46,10.79
			l-1.73,6.23h33.67l-27.72,99.8h117.46l87.89-316.41H449.82z"/>
		<path class="st3" d="M268.21,207.17h9.23c2.74,0,5.42,0.13,8.05,0.37c0.45-2.19,0.96-4.38,1.58-6.6l2.79-10.03
			c-4.04-0.48-8.17-0.75-12.42-0.75h-5.04l-1.73,6.23C269.67,200.01,268.85,203.6,268.21,207.17z"/>
		<path class="st3" d="M360.18,289.95h-9.23c-2.74,0-5.42-0.13-8.05-0.37c-0.45,2.19-0.96,4.38-1.58,6.6l-2.79,10.03
			c4.04,0.48,8.17,0.75,12.42,0.75h5.04l1.73-6.23C358.72,297.11,359.54,293.51,360.18,289.95z"/>
	</g>
	<g>
		<g>
			<path class="st4" d="M140.57,481.88h-18.6l-3.28,8.53h-16.78l19.23-44c1.31-3,4.28-4.94,7.55-4.94h10.83l21.39,48.94h-17.06
				L140.57,481.88z M136.02,469.99l-4.75-12.31l-4.75,12.31H136.02z"/>
			<path class="st4" d="M171.53,488.28c-4.15-2.17-7.4-5.2-9.75-9.09c-2.35-3.89-3.53-8.31-3.53-13.25c0-4.94,1.18-9.36,3.53-13.25
				c2.35-3.89,5.6-6.92,9.75-9.09s8.81-3.25,13.98-3.25c4.75,0,9,0.84,12.72,2.52c3.73,1.68,6.8,4.1,9.23,7.27l-10.42,9.3
				c-3.03-3.82-6.59-5.73-10.7-5.73c-3.45,0-6.22,1.11-8.32,3.32c-2.1,2.21-3.15,5.19-3.15,8.91s1.05,6.7,3.15,8.91
				s4.87,3.32,8.32,3.32c4.1,0,7.67-1.91,10.7-5.73l10.42,9.3c-2.42,3.17-5.5,5.59-9.23,7.27c-3.73,1.68-7.97,2.52-12.72,2.52
				C180.34,491.52,175.68,490.44,171.53,488.28z"/>
			<path class="st4" d="M232.15,474.19l-3.7,4.12v12.09h-16.22v-48.94h16.22v17.76l16.08-17.76h17.97L242.91,463l20.55,27.4h-19.09
				L232.15,474.19z"/>
			<path class="st4" d="M302.29,481.88h-18.6l-3.28,8.53h-16.78l19.23-44c1.31-3,4.28-4.94,7.55-4.94h10.83l21.39,48.94h-17.06
				L302.29,481.88z M297.75,469.99l-4.75-12.31l-4.75,12.31H297.75z"/>
			<path class="st4" d="M333.16,454.26h-14.33v-12.79h45.16v12.79h-14.33v36.14h-16.5V454.26z"/>
			<path class="st4" d="M434.53,488.24c-4.19-2.19-7.48-5.23-9.86-9.12c-2.38-3.89-3.56-8.28-3.56-13.18
				c0-4.89,1.19-9.29,3.56-13.18c2.38-3.89,5.66-6.93,9.86-9.12c4.19-2.19,8.93-3.28,14.19-3.28c5.27,0,10,1.09,14.19,3.28
				s7.48,5.23,9.86,9.12c2.38,3.89,3.57,8.28,3.57,13.18c0,4.89-1.19,9.29-3.57,13.18c-2.38,3.89-5.66,6.93-9.86,9.12
				c-4.19,2.19-8.93,3.28-14.19,3.28C443.45,491.52,438.72,490.43,434.53,488.24z M454.28,476.67c1.65-1,2.97-2.42,3.95-4.26
				c0.98-1.84,1.47-4,1.47-6.47s-0.49-4.63-1.47-6.47c-0.98-1.84-2.3-3.26-3.95-4.26c-1.66-1-3.51-1.5-5.56-1.5
				c-2.05,0-3.9,0.5-5.56,1.5c-1.66,1-2.97,2.42-3.95,4.26c-0.98,1.84-1.47,4-1.47,6.47s0.49,4.63,1.47,6.47
				c0.98,1.84,2.29,3.26,3.95,4.26c1.65,1,3.51,1.5,5.56,1.5C450.77,478.17,452.62,477.67,454.28,476.67z"/>
			<path class="st4" d="M527.79,441.47v48.94h-13.56l-18.6-22.23v22.23h-16.08v-48.94h13.56l18.6,22.23v-22.23H527.79z"/>
			<g>
				<rect x="369.65" y="477.44" class="st4" width="16.5" height="12.96"/>
				<path class="st4" d="M401.39,441.47v17.34h-15.24v-17.34h-16.5v26.19c0,2.61,2.12,4.73,4.73,4.73h11.77v-0.02h15.24v18.04h16.5
					v-48.94H401.39z"/>
			</g>
			<g>
				<rect x="84.15" y="441.47" class="st4" width="16.5" height="12.26"/>
				<path class="st4" d="M84.15,458.78v0.03H68.91v-17.34h-16.5v48.94h16.5v-18.04h15.24v18.04h16.5v-26.9
					c0-2.61-2.12-4.73-4.73-4.73H84.15z"/>
			</g>
			<g>
				<path class="st4" d="M69.8,519.91c-0.49,0.57-1.05,1-1.7,1.3c-0.65,0.29-1.35,0.44-2.12,0.44c-1,0-1.92-0.23-2.76-0.68
					c-0.84-0.45-1.79-1.24-2.86-2.35c-1.35-0.11-2.56-0.5-3.63-1.18c-1.07-0.67-1.91-1.56-2.5-2.65c-0.6-1.09-0.9-2.31-0.9-3.64
					c0-1.42,0.34-2.7,1.02-3.85c0.68-1.15,1.62-2.05,2.82-2.69c1.2-0.65,2.54-0.97,4.03-0.97c1.49,0,2.83,0.32,4.03,0.97
					c1.2,0.65,2.14,1.54,2.82,2.68c0.68,1.14,1.02,2.43,1.02,3.86c0,1.15-0.23,2.22-0.69,3.2c-0.46,0.98-1.1,1.82-1.92,2.5
					c-0.82,0.69-1.77,1.19-2.86,1.49c0.4,0.43,0.8,0.74,1.19,0.94c0.39,0.2,0.81,0.29,1.25,0.29c0.96,0,1.79-0.39,2.5-1.17
					L69.8,519.91z M56.73,513.79c0.44,0.79,1.06,1.4,1.84,1.84c0.78,0.44,1.65,0.66,2.63,0.66c0.97,0,1.85-0.22,2.63-0.66
					c0.78-0.44,1.39-1.05,1.84-1.84c0.44-0.79,0.67-1.67,0.67-2.64c0-0.97-0.22-1.86-0.67-2.64c-0.45-0.79-1.06-1.4-1.84-1.84
					c-0.78-0.44-1.66-0.66-2.63-0.66c-0.98,0-1.85,0.22-2.63,0.66c-0.78,0.44-1.39,1.05-1.84,1.84c-0.44,0.79-0.67,1.67-0.67,2.64
					C56.06,512.12,56.29,513,56.73,513.79z"/>
				<path class="st4" d="M74.55,516.96c-1.13-1.13-1.69-2.76-1.69-4.87v-8.24h2.71v8.14c0,2.87,1.24,4.3,3.72,4.3
					c2.46,0,3.69-1.43,3.69-4.3v-8.14h2.67v8.24c0,2.12-0.56,3.74-1.68,4.87c-1.12,1.13-2.69,1.7-4.7,1.7
					C77.25,518.66,75.68,518.1,74.55,516.96z"/>
				<path class="st4" d="M101.45,516.18v2.27H90.5v-14.61h10.66v2.27h-7.95v3.8h7.05v2.23h-7.05v4.03H101.45z"/>
				<path class="st4" d="M106.79,518.18c-1.05-0.32-1.88-0.74-2.5-1.27l0.94-2.11c0.6,0.47,1.33,0.86,2.2,1.16
					c0.87,0.3,1.74,0.45,2.62,0.45c1.08,0,1.89-0.17,2.43-0.52c0.54-0.35,0.8-0.81,0.8-1.38c0-0.42-0.15-0.76-0.45-1.03
					c-0.3-0.27-0.68-0.48-1.14-0.64c-0.46-0.15-1.08-0.33-1.88-0.52c-1.11-0.26-2.01-0.53-2.7-0.79c-0.69-0.26-1.28-0.68-1.77-1.24
					s-0.74-1.33-0.74-2.29c0-0.81,0.22-1.54,0.66-2.2c0.44-0.66,1.1-1.19,1.98-1.58c0.88-0.39,1.97-0.58,3.25-0.58
					c0.89,0,1.77,0.11,2.63,0.33c0.86,0.22,1.61,0.54,2.23,0.96l-0.86,2.11c-0.64-0.38-1.31-0.66-2-0.86s-1.37-0.29-2.02-0.29
					c-1.07,0-1.87,0.18-2.39,0.54c-0.52,0.36-0.78,0.84-0.78,1.44c0,0.42,0.15,0.76,0.45,1.02c0.3,0.27,0.68,0.47,1.14,0.63
					c0.46,0.15,1.09,0.33,1.88,0.52c1.09,0.25,1.98,0.51,2.67,0.78s1.29,0.69,1.78,1.24c0.5,0.56,0.74,1.31,0.74,2.26
					c0,0.81-0.22,1.54-0.66,2.19c-0.44,0.65-1.1,1.18-1.99,1.57c-0.89,0.39-1.98,0.58-3.25,0.58
					C108.93,518.66,107.84,518.5,106.79,518.18z"/>
				<path class="st4" d="M122.45,506.14h-4.84v-2.3H130v2.3h-4.84v12.31h-2.71V506.14z"/>
				<path class="st4" d="M139.9,503.85h6.39c1.56,0,2.94,0.3,4.15,0.91c1.21,0.6,2.15,1.46,2.82,2.57c0.67,1.11,1,2.38,1,3.83
					c0,1.45-0.34,2.72-1,3.83c-0.67,1.11-1.61,1.96-2.82,2.57c-1.21,0.6-2.59,0.91-4.15,0.91h-6.39V503.85z M146.16,516.16
					c1.07,0,2.01-0.2,2.83-0.62c0.81-0.41,1.44-0.99,1.88-1.75c0.44-0.76,0.66-1.64,0.66-2.64c0-1-0.22-1.88-0.66-2.64
					s-1.06-1.34-1.88-1.75c-0.81-0.41-1.76-0.62-2.83-0.62h-3.55v10.02H146.16z"/>
				<path class="st4" d="M158.18,503.85h2.71v14.61h-2.71V503.85z"/>
				<path class="st4" d="M175.35,515.07h-7.31l-1.44,3.38h-2.8l6.57-14.61h2.67l6.59,14.61h-2.84L175.35,515.07z M174.46,512.94
					l-2.76-6.39l-2.73,6.39H174.46z"/>
				<path class="st4" d="M192.32,510.98h2.57v5.82c-0.75,0.6-1.63,1.06-2.63,1.38c-1,0.32-2.03,0.48-3.09,0.48
					c-1.49,0-2.83-0.32-4.03-0.97c-1.2-0.65-2.14-1.54-2.82-2.68c-0.68-1.14-1.02-2.43-1.02-3.86c0-1.43,0.34-2.72,1.02-3.86
					c0.68-1.14,1.62-2.03,2.83-2.68c1.2-0.65,2.55-0.97,4.06-0.97c1.22,0,2.34,0.2,3.34,0.6c1,0.4,1.84,1,2.52,1.77l-1.71,1.67
					c-1.11-1.11-2.46-1.67-4.03-1.67c-1.03,0-1.94,0.22-2.74,0.65c-0.8,0.43-1.43,1.04-1.88,1.82c-0.45,0.78-0.68,1.67-0.68,2.67
					c0,0.97,0.23,1.85,0.68,2.63c0.45,0.78,1.08,1.39,1.88,1.84c0.8,0.44,1.71,0.67,2.72,0.67c1.14,0,2.14-0.25,3.01-0.75V510.98z"
					/>
				<path class="st4" d="M212.48,503.85v14.61h-2.23l-8.06-9.89v9.89h-2.69v-14.61h2.23l8.06,9.89v-9.89H212.48z"/>
				<path class="st4" d="M220.25,517.69c-1.2-0.65-2.14-1.54-2.82-2.69c-0.68-1.15-1.02-2.43-1.02-3.85c0-1.42,0.34-2.7,1.02-3.85
					c0.68-1.15,1.62-2.05,2.82-2.69c1.19-0.65,2.54-0.97,4.03-0.97c1.49,0,2.83,0.32,4.03,0.97c1.2,0.65,2.13,1.54,2.82,2.68
					c0.68,1.14,1.02,2.43,1.02,3.86c0,1.43-0.34,2.72-1.02,3.86c-0.68,1.14-1.62,2.03-2.82,2.68c-1.2,0.65-2.54,0.97-4.03,0.97
					C222.78,518.66,221.44,518.34,220.25,517.69z M226.9,515.63c0.78-0.44,1.39-1.05,1.84-1.84c0.44-0.79,0.67-1.67,0.67-2.64
					c0-0.97-0.22-1.86-0.67-2.64s-1.06-1.4-1.84-1.84c-0.78-0.44-1.65-0.66-2.63-0.66s-1.85,0.22-2.63,0.66
					c-0.78,0.44-1.39,1.05-1.84,1.84c-0.45,0.79-0.67,1.67-0.67,2.64c0,0.97,0.22,1.85,0.67,2.64c0.44,0.79,1.06,1.4,1.84,1.84
					c0.78,0.44,1.66,0.66,2.63,0.66S226.12,516.06,226.9,515.63z"/>
				<path class="st4" d="M237.33,518.18c-1.05-0.32-1.88-0.74-2.5-1.27l0.94-2.11c0.6,0.47,1.33,0.86,2.2,1.16
					c0.87,0.3,1.74,0.45,2.62,0.45c1.08,0,1.89-0.17,2.43-0.52c0.54-0.35,0.8-0.81,0.8-1.38c0-0.42-0.15-0.76-0.45-1.03
					c-0.3-0.27-0.68-0.48-1.14-0.64s-1.08-0.33-1.88-0.52c-1.11-0.26-2.01-0.53-2.7-0.79c-0.69-0.26-1.28-0.68-1.77-1.24
					s-0.74-1.33-0.74-2.29c0-0.81,0.22-1.54,0.66-2.2c0.44-0.66,1.1-1.19,1.98-1.58c0.88-0.39,1.97-0.58,3.25-0.58
					c0.89,0,1.77,0.11,2.63,0.33c0.86,0.22,1.61,0.54,2.23,0.96l-0.86,2.11c-0.64-0.38-1.31-0.66-2-0.86s-1.37-0.29-2.02-0.29
					c-1.07,0-1.87,0.18-2.39,0.54c-0.52,0.36-0.78,0.84-0.78,1.44c0,0.42,0.15,0.76,0.45,1.02c0.3,0.27,0.68,0.47,1.14,0.63
					c0.46,0.15,1.09,0.33,1.88,0.52c1.09,0.25,1.98,0.51,2.67,0.78s1.29,0.69,1.78,1.24c0.5,0.56,0.74,1.31,0.74,2.26
					c0,0.81-0.22,1.54-0.66,2.19c-0.44,0.65-1.1,1.18-1.99,1.57c-0.89,0.39-1.98,0.58-3.25,0.58
					C239.46,518.66,238.38,518.5,237.33,518.18z"/>
				<path class="st4" d="M252.99,506.14h-4.84v-2.3h12.4v2.3h-4.84v12.31h-2.71V506.14z"/>
				<path class="st4" d="M263.63,503.85h2.71v14.61h-2.71V503.85z"/>
				<path class="st4" d="M274.1,517.69c-1.19-0.65-2.12-1.54-2.8-2.68c-0.67-1.14-1.01-2.43-1.01-3.86c0-1.43,0.34-2.72,1.02-3.86
					c0.68-1.14,1.62-2.03,2.81-2.68c1.19-0.65,2.52-0.97,4-0.97c1.2,0,2.29,0.21,3.28,0.63c0.99,0.42,1.82,1.02,2.5,1.82l-1.75,1.65
					c-1.06-1.14-2.36-1.71-3.9-1.71c-1,0-1.9,0.22-2.69,0.66c-0.79,0.44-1.41,1.05-1.86,1.83c-0.45,0.78-0.67,1.66-0.67,2.65
					c0,0.99,0.22,1.87,0.67,2.65c0.44,0.78,1.06,1.39,1.86,1.83c0.79,0.44,1.69,0.66,2.69,0.66c1.54,0,2.85-0.58,3.9-1.73l1.75,1.67
					c-0.68,0.79-1.52,1.4-2.52,1.82c-1,0.42-2.09,0.63-3.29,0.63C276.62,518.66,275.29,518.34,274.1,517.69z"/>
				<path class="st4" d="M288.73,518.18c-1.05-0.32-1.88-0.74-2.49-1.27l0.94-2.11c0.6,0.47,1.33,0.86,2.2,1.16
					c0.87,0.3,1.74,0.45,2.62,0.45c1.09,0,1.9-0.17,2.43-0.52c0.53-0.35,0.8-0.81,0.8-1.38c0-0.42-0.15-0.76-0.45-1.03
					c-0.3-0.27-0.68-0.48-1.14-0.64c-0.46-0.15-1.09-0.33-1.88-0.52c-1.11-0.26-2.01-0.53-2.7-0.79c-0.69-0.26-1.28-0.68-1.77-1.24
					c-0.5-0.56-0.74-1.33-0.74-2.29c0-0.81,0.22-1.54,0.66-2.2c0.44-0.66,1.1-1.19,1.98-1.58c0.88-0.39,1.97-0.58,3.25-0.58
					c0.89,0,1.77,0.11,2.63,0.33s1.61,0.54,2.23,0.96l-0.86,2.11c-0.64-0.38-1.31-0.66-2-0.86c-0.7-0.2-1.37-0.29-2.02-0.29
					c-1.07,0-1.87,0.18-2.39,0.54c-0.52,0.36-0.78,0.84-0.78,1.44c0,0.42,0.15,0.76,0.45,1.02c0.3,0.27,0.68,0.47,1.14,0.63
					c0.46,0.15,1.08,0.33,1.88,0.52c1.09,0.25,1.98,0.51,2.67,0.78c0.69,0.27,1.29,0.69,1.78,1.24c0.49,0.56,0.74,1.31,0.74,2.26
					c0,0.81-0.22,1.54-0.66,2.19c-0.44,0.65-1.1,1.18-1.99,1.57c-0.89,0.39-1.98,0.58-3.26,0.58
					C290.87,518.66,289.78,518.5,288.73,518.18z"/>
				<path class="st4" d="M308.39,514.28c-0.44-0.43-0.66-0.97-0.66-1.63c0-0.64,0.22-1.18,0.66-1.61c0.44-0.43,0.96-0.65,1.58-0.65
					c0.61,0,1.14,0.22,1.59,0.65c0.44,0.43,0.67,0.97,0.67,1.61c0,0.65-0.22,1.2-0.67,1.63c-0.44,0.43-0.97,0.65-1.59,0.65
					C309.35,514.93,308.82,514.71,308.39,514.28z"/>
				<path class="st4" d="M332.79,506.12v4.45h7.05v2.29h-7.05v5.59h-2.71v-14.61h10.66v2.27H332.79z"/>
				<path class="st4" d="M347.05,517.69c-1.2-0.65-2.14-1.54-2.82-2.69c-0.68-1.15-1.02-2.43-1.02-3.85c0-1.42,0.34-2.7,1.02-3.85
					c0.68-1.15,1.62-2.05,2.82-2.69c1.19-0.65,2.54-0.97,4.03-0.97c1.49,0,2.83,0.32,4.03,0.97c1.19,0.65,2.13,1.54,2.82,2.68
					c0.68,1.14,1.02,2.43,1.02,3.86c0,1.43-0.34,2.72-1.02,3.86c-0.68,1.14-1.62,2.03-2.82,2.68c-1.2,0.65-2.54,0.97-4.03,0.97
					C349.59,518.66,348.24,518.34,347.05,517.69z M353.7,515.63c0.78-0.44,1.39-1.05,1.84-1.84c0.44-0.79,0.67-1.67,0.67-2.64
					c0-0.97-0.22-1.86-0.67-2.64s-1.06-1.4-1.84-1.84c-0.78-0.44-1.66-0.66-2.63-0.66c-0.97,0-1.85,0.22-2.63,0.66
					c-0.78,0.44-1.39,1.05-1.84,1.84c-0.45,0.79-0.67,1.67-0.67,2.64c0,0.97,0.22,1.85,0.67,2.64c0.44,0.79,1.06,1.4,1.84,1.84
					c0.78,0.44,1.66,0.66,2.63,0.66C352.05,516.28,352.93,516.06,353.7,515.63z"/>
				<path class="st4" d="M364.43,516.96c-1.13-1.13-1.69-2.76-1.69-4.87v-8.24h2.71v8.14c0,2.87,1.24,4.3,3.71,4.3
					c2.46,0,3.69-1.43,3.69-4.3v-8.14h2.67v8.24c0,2.12-0.56,3.74-1.68,4.87c-1.12,1.13-2.69,1.7-4.71,1.7
					C367.13,518.66,365.56,518.1,364.43,516.96z"/>
				<path class="st4" d="M389.93,518.45l-2.98-4.28c-0.13,0.01-0.31,0.02-0.57,0.02h-3.3v4.26h-2.71v-14.61h6.01
					c1.27,0,2.37,0.21,3.31,0.63c0.94,0.42,1.66,1.02,2.16,1.79c0.5,0.78,0.75,1.71,0.75,2.78c0,1.1-0.27,2.05-0.8,2.84
					c-0.54,0.79-1.31,1.38-2.31,1.77l3.36,4.8H389.93z M388.95,506.89c-0.61-0.5-1.51-0.75-2.69-0.75h-3.17v5.82h3.17
					c1.18,0,2.08-0.25,2.69-0.76c0.61-0.51,0.92-1.23,0.92-2.16C389.87,508.11,389.56,507.39,388.95,506.89z"/>
				<path class="st4" d="M399.43,506.14h-4.84v-2.3h12.4v2.3h-4.84v12.31h-2.71V506.14z"/>
				<path class="st4" d="M423.05,503.85v14.61h-2.71v-6.26h-7.55v6.26h-2.71v-14.61h2.71v6.03h7.55v-6.03H423.05z"/>
				<path class="st4" d="M444.3,515.07h-7.31l-1.44,3.38h-2.8l6.57-14.61H442l6.59,14.61h-2.84L444.3,515.07z M443.4,512.94
					l-2.75-6.39l-2.73,6.39H443.4z"/>
				<path class="st4" d="M464.48,503.85v14.61h-2.23l-8.06-9.89v9.89h-2.69v-14.61h2.23l8.06,9.89v-9.89H464.48z"/>
				<path class="st4" d="M482.43,503.85v14.61h-2.23l-8.06-9.89v9.89h-2.69v-14.61h2.23l8.06,9.89v-9.89H482.43z"/>
				<path class="st4" d="M488.96,516.96c-1.13-1.13-1.69-2.76-1.69-4.87v-8.24h2.71v8.14c0,2.87,1.24,4.3,3.71,4.3
					c2.46,0,3.69-1.43,3.69-4.3v-8.14h2.67v8.24c0,2.12-0.56,3.74-1.68,4.87s-2.69,1.7-4.71,1.7
					C491.66,518.66,490.09,518.1,488.96,516.96z"/>
				<path class="st4" d="M514.07,515.07h-7.31l-1.44,3.38h-2.8l6.57-14.61h2.67l6.59,14.61h-2.84L514.07,515.07z M513.17,512.94
					l-2.75-6.39l-2.73,6.39H513.17z"/>
				<path class="st4" d="M521.26,503.85h2.71v12.31h7.64v2.3h-10.35V503.85z"/>
			</g>
		</g>
	</g>
</g>
</svg>
