<?xml version="1.0" encoding="UTF-8"?>
<svg width="27px" height="27px" viewBox="0 0 27 27" version="1.1" xmlns="http://www.w3.org/2000/svg" xmlns:xlink="http://www.w3.org/1999/xlink">
    <!-- Generator: Sketch 51.3 (57544) - http://www.bohemiancoding.com/sketch -->
    <title>ds-nav-puzzle</title>
    <desc>Created with Sketch.</desc>
    <defs></defs>
    <g id="Page-1" stroke="none" stroke-width="1" fill="none" fill-rule="evenodd">
        <g id="ds-nav-puzzle" fill="#C5C5C6" fill-rule="nonzero">
            <path d="M10.9285714,0 C9.153,0 7.71428571,1.43871429 7.71428571,3.21428571 L7.71428571,5.14285714 L2.57142857,5.14285714 C1.15071429,5.14285714 0,6.29357143 0,7.71428571 L0,12.8571429 L1.92857143,12.8571429 C3.70414286,12.8571429 5.14285714,14.2958571 5.14285714,16.0714286 C5.14285714,17.847 3.70414286,19.2857143 1.92857143,19.2857143 L0,19.2857143 L0,24.4285714 C0,25.8492857 1.15071429,27 2.57142857,27 L7.71428571,27 L7.71428571,25.0714286 C7.71428571,23.2958571 9.153,21.8571429 10.9285714,21.8571429 C12.7041429,21.8571429 14.1428571,23.2958571 14.1428571,25.0714286 L14.1428571,27 L19.2857143,27 C20.7064286,27 21.8571429,25.8492857 21.8571429,24.4285714 L21.8571429,19.2857143 L23.7857143,19.2857143 C25.5612857,19.2857143 27,17.847 27,16.0714286 C27,14.2958571 25.5612857,12.8571429 23.7857143,12.8571429 L21.8571429,12.8571429 L21.8571429,7.71428571 C21.8571429,6.29357143 20.7064286,5.14285714 19.2857143,5.14285714 L14.1428571,5.14285714 L14.1428571,3.21428571 C14.1428571,1.43871429 12.7041429,0 10.9285714,0 Z" id="Path"></path>
        </g>
    </g>
</svg>