<?xml version="1.0" encoding="utf-8"?>
<!-- Generator: Adobe Illustrator 25.4.1, SVG Export Plug-In . SVG Version: 6.00 Build 0)  -->
<svg version="1.1" id="Layer_1" xmlns="http://www.w3.org/2000/svg" xmlns:xlink="http://www.w3.org/1999/xlink" x="0px" y="0px"
	 viewBox="0 0 64 80" style="enable-background:new 0 0 64 80;" xml:space="preserve">
<style type="text/css">
	.st0{fill:#35792A;}
</style>
<g>
	<path class="st0" d="M22.58,53.16c0.52,0,0.94-0.42,0.94-0.93v-1.88c0-0.52-0.42-0.94-0.94-0.94c-0.52,0-0.95,0.42-0.95,0.94v1.88
		C21.63,52.74,22.06,53.16,22.58,53.16z"/>
	<path class="st0" d="M27.29,53.16c0.52,0,0.94-0.42,0.94-0.93v-1.88c0-0.52-0.42-0.94-0.94-0.94s-0.94,0.42-0.94,0.94v1.88
		C26.35,52.74,26.77,53.16,27.29,53.16z"/>
	<path class="st0" d="M32,53.16c0.52,0,0.94-0.42,0.94-0.93v-1.88c0-0.52-0.42-0.94-0.94-0.94c-0.52,0-0.94,0.42-0.94,0.94v1.88
		C31.06,52.74,31.48,53.16,32,53.16z"/>
	<path class="st0" d="M36.71,53.16c0.52,0,0.94-0.42,0.94-0.93v-1.88c0-0.52-0.42-0.94-0.94-0.94c-0.52,0-0.94,0.42-0.94,0.94v1.88
		C35.77,52.74,36.19,53.16,36.71,53.16z"/>
	<path class="st0" d="M41.42,53.16c0.52,0,0.94-0.42,0.94-0.93v-1.88c0-0.52-0.42-0.94-0.94-0.94s-0.94,0.42-0.94,0.94v1.88
		C40.48,52.74,40.9,53.16,41.42,53.16z"/>
	<path class="st0" d="M32,62.54c1.04,0,1.88-0.84,1.88-1.88c0-1.03-0.84-1.87-1.88-1.87c-1.04,0-1.89,0.84-1.89,1.87
		C30.11,61.7,30.96,62.54,32,62.54z"/>
	<path class="st0" d="M40.48,13.79h-2.83v-0.08h-1.88v0.08H23.52c-3.64,0-6.6,2.94-6.6,6.56v39.38c0,3.61,2.96,6.56,6.6,6.56h16.96
		c3.64,0,6.6-2.95,6.6-6.56V20.35C47.08,16.73,44.12,13.79,40.48,13.79z M45.19,59.73c0,2.58-2.11,4.68-4.71,4.68H23.52
		c-2.6,0-4.71-2.1-4.71-4.68v-2.82h26.38V59.73z M45.19,55.04H18.81V23.16h26.38V55.04z M45.19,21.29H18.81v-0.94
		c0-2.59,2.11-4.69,4.71-4.69h16.96c2.6,0,4.71,2.1,4.71,4.69V21.29z"/>
	<path class="st0" d="M36.71,17.54h-3.77c-0.52,0-0.94,0.42-0.94,0.94c0,0.51,0.42,0.93,0.94,0.93h3.77c0.52,0,0.94-0.42,0.94-0.93
		C37.65,17.96,37.23,17.54,36.71,17.54z"/>
	<path class="st0" d="M29.17,17.54h-1.88c-0.52,0-0.94,0.42-0.94,0.94c0,0.51,0.42,0.93,0.94,0.93h1.88c0.52,0,0.94-0.42,0.94-0.93
		C30.11,17.96,29.69,17.54,29.17,17.54z"/>
</g>
</svg>
