<?xml version="1.0" encoding="UTF-8"?>
<svg width="27px" height="27px" viewBox="0 0 27 27" version="1.1" xmlns="http://www.w3.org/2000/svg" xmlns:xlink="http://www.w3.org/1999/xlink">
    <!-- Generator: Sketch 51.3 (57544) - http://www.bohemiancoding.com/sketch -->
    <title>ds-icon__brand--white</title>
    <desc>Created with Sketch.</desc>
    <defs></defs>
    <g id="Page-1" stroke="none" stroke-width="1" fill="none" fill-rule="evenodd">
        <g id="ds-icon__brand--white" fill="#FFFFFF" fill-rule="nonzero">
            <path d="M17.9550444,0 C17.6036813,0 17.2416701,0.1594495 16.9754847,0.42519685 L10.8,6.5905512 L12.7165297,8.503937 L15.9959251,5.22992126 C17.6941837,5.9049216 15.8308902,7.7013776 16.2514624,8.2913386 C16.6134735,8.8015748 17.5823865,8.7377953 18.8920145,8.1212598 C19.5095629,7.8289367 19.9461065,7.7811024 20.169701,7.8661417 C21.7827805,8.4826772 17.4599412,10.9700787 18.8920145,11.9480315 C19.1209336,12.102165 19.9620766,12.107481 20.8937233,11.9055118 L18.5087085,14.2866142 L20.4252383,16.2 L26.600723,10.0346457 C27.1330923,9.5031496 27.1330923,8.6527559 26.600723,8.1212598 L18.8920145,0.42519685 C18.6258305,0.1594495 18.3064088,0 17.9550444,0 Z M9.0358875,8.1 L6.4607431,10.6751444 C5.36958026,11.7663072 5.36958026,13.5121678 6.4607431,14.6033307 L7.5082595,15.6944935 C8.0374732,16.2237072 8.0592964,17.0639033 7.551906,17.6149402 C7.1699997,18.0350375 6.749901,18.4551363 6.4607431,18.5751635 C5.36958026,19.0334519 3.28545986,19.786355 2.00879859,21.0630148 C0.09926424,22.9725505 -0.56634581,25.3840198 0.52481707,26.4751826 C1.61597995,27.5663455 4.02745062,26.9007369 5.93698496,24.9912011 C7.2136462,23.7145413 7.9665479,21.635875 8.4248363,20.5392567 C8.5448649,20.2500988 8.9704178,19.835457 9.3850597,19.4480938 C9.9360966,18.9407034 10.7762927,18.9625267 11.3055063,19.4917403 L12.3966692,20.5392567 C13.4878321,21.6304195 15.2336927,21.6304195 16.3248556,20.5392567 L18.9,17.9641123 L9.0358875,8.1 Z M3.15,22.5 C3.49401611,22.5 3.84845627,22.6153405 4.10907336,22.8774757 C4.63030888,23.4017476 4.63030888,24.2825243 4.10907336,24.8067961 C3.58783784,25.331068 2.71216216,25.331068 2.19092664,24.8067961 C1.66969112,24.2825243 1.66969112,23.4017476 2.19092664,22.8774757 C2.45154507,22.6153405 2.80598522,22.5 3.15,22.5 Z" id="path-1"></path>
        </g>
    </g>
</svg>