<?xml version="1.0" encoding="UTF-8"?>
<svg width="25px" height="25px" viewBox="0 0 25 25" version="1.1" xmlns="http://www.w3.org/2000/svg" xmlns:xlink="http://www.w3.org/1999/xlink">
    <!-- Generator: Sketch 51.3 (57544) - http://www.bohemiancoding.com/sketch -->
    <title>ds-icon__finder</title>
    <desc>Created with Sketch.</desc>
    <defs></defs>
    <g id="Page-1" stroke="none" stroke-width="1" fill="none" fill-rule="evenodd">
        <g id="ds-icon__finder" transform="translate(-1.000000, -1.000000)" fill="#C5C5C6" fill-rule="nonzero">
            <path d="M24.375,12.375 L22.875,12.375 C22.3598623,8.03626741 18.9588931,4.60438032 14.625,4.05 L14.625,2.55 C14.625,1.92867966 14.1213203,1.425 13.5,1.425 C12.8786797,1.425 12.375,1.92867966 12.375,2.55 L12.375,4.05 C8.01773081,4.57885748 4.58599861,8.01678414 4.065,12.375 L2.565,12.375 C1.94367966,12.375 1.44,12.8786797 1.44,13.5 C1.44,14.1213203 1.94367966,14.625 2.565,14.625 L4.065,14.625 C4.58599861,18.9832159 8.01773081,22.4211425 12.375,22.95 L12.375,24.375 C12.375,24.9963203 12.8786797,25.5 13.5,25.5 C14.1213203,25.5 14.625,24.9963203 14.625,24.375 L14.625,22.95 C18.9822692,22.4211425 22.4140014,18.9832159 22.935,14.625 L24.435,14.625 C25.0563203,14.625 25.56,14.1213203 25.56,13.5 C25.56,12.8786797 25.0563203,12.375 24.435,12.375 L24.375,12.375 Z M14.625,20.655 L14.625,19.155 C14.625,18.5336797 14.1213203,18.03 13.5,18.03 C12.8786797,18.03 12.375,18.5336797 12.375,19.155 L12.375,20.655 C9.29273611,20.1535521 6.87644792,17.7372639 6.375,14.655 L7.875,14.655 C8.49632034,14.655 9,14.1513203 9,13.53 C9,12.9086797 8.49632034,12.405 7.875,12.405 L6.375,12.405 C6.87644792,9.32273611 9.29273611,6.90644792 12.375,6.405 L12.375,7.905 C12.375,8.52632034 12.8786797,9.03 13.5,9.03 C14.1213203,9.03 14.625,8.52632034 14.625,7.905 L14.625,6.405 C17.7072639,6.90644792 20.1235521,9.32273611 20.625,12.405 L19.125,12.405 C18.5036797,12.405 18,12.9086797 18,13.53 C18,14.1513203 18.5036797,14.655 19.125,14.655 L20.625,14.655 C20.1235521,17.7372639 17.7072639,20.1535521 14.625,20.655 Z" id="Shape"></path>
            <path d="M13.5,11.25 C12.2573593,11.25 11.25,12.2573593 11.25,13.5 C11.25,14.7426407 12.2573593,15.75 13.5,15.75 C14.7426407,15.75 15.75,14.7426407 15.75,13.5 C15.75,12.2573593 14.7426407,11.25 13.5,11.25 Z" id="Shape"></path>
        </g>
    </g>
</svg>